# Blender 3.5.0
# www.blender.org
o ext_p3_phy
v -0.315662 -0.090247 -0.001464
v -0.315662 -0.090247 0.017579
v -0.212700 -0.089733 -0.001464
v -0.212700 -0.089733 0.017578
v -0.465809 -0.411375 -0.001464
v -0.465809 -0.411375 0.017578
v -0.209843 -0.385962 -0.001464
v -0.209843 -0.385962 0.017578
v -0.209952 -0.323666 -0.001464
v -0.209952 -0.323666 0.017578
v -0.314874 -0.324260 -0.001464
v -0.314874 -0.324260 0.017578
v -0.244608 -0.089630 -0.001464
v -0.244608 -0.089630 0.017578
v -0.360058 -0.472836 -0.001464
v -0.360058 -0.472836 0.017578
v -0.242382 -0.324260 0.017578
v -0.242382 -0.324260 -0.001464
v -0.280854 -0.089630 -0.001464
v -0.465944 -0.499132 0.017578
v -0.278628 -0.324260 0.017578
v -0.278628 -0.324260 -0.001464
v -0.280854 -0.089630 0.017579
v -0.465944 -0.499132 -0.001464
v -0.360219 -0.499142 0.017578
v -0.360219 -0.499142 -0.001464
v -0.211326 -0.206699 -0.001464
v -0.315268 -0.207253 0.017578
v -0.211326 -0.206699 0.017578
v -0.315268 -0.207253 -0.001464
v -0.243495 -0.206945 -0.001464
v -0.243495 -0.206945 0.017578
v -0.279741 -0.206945 -0.001464
v -0.279741 -0.206945 0.017578
v -0.211694 -0.175360 -0.001464
v -0.315373 -0.175903 0.017578
v -0.243793 -0.175513 -0.001464
v -0.280039 -0.175513 -0.001464
v -0.211694 -0.175360 0.017578
v -0.315373 -0.175903 -0.001464
v -0.243793 -0.175513 0.017578
v -0.280039 -0.175513 0.017578
vn 0.0032 1.0000 -0.0000
vn 1.0000 0.0018 -0.0000
vn -1.0000 0.0015 -0.0000
vn -1.0000 -0.0034 -0.0000
vn -0.0000 -0.0000 -1.0000
vn -0.0000 -0.0000 1.0000
vn -0.4999 0.8661 -0.0000
vn 0.9999 0.0117 -0.0000
vn 0.5006 -0.8657 -0.0000
vn -0.0000 1.0000 -0.0000
vn -0.0177 0.9998 -0.0000
vn -0.0001 -1.0000 -0.0000
vn 1.0000 -0.0061 -0.0000
s 0
f 14//1 3//1 13//1
f 10//2 7//2 9//2
f 20//3 5//3 24//3
f 36//4 1//4 40//4
f 24//5 11//5 22//5
f 23//6 36//6 42//6
f 20//6 12//6 6//6
f 33//5 11//5 30//5
f 6//7 11//7 5//7
f 29//8 9//8 27//8
f 27//5 18//5 31//5
f 8//6 17//6 16//6
f 4//6 41//6 39//6
f 7//5 18//5 9//5
f 8//9 15//9 7//9
f 23//10 13//10 19//10
f 2//11 19//11 1//11
f 31//5 22//5 33//5
f 16//6 21//6 20//6
f 14//6 42//6 41//6
f 15//5 24//5 22//5
f 25//12 24//12 26//12
f 32//6 21//6 17//6
f 37//5 33//5 38//5
f 29//6 17//6 10//6
f 35//5 31//5 37//5
f 39//8 27//8 35//8
f 38//5 30//5 40//5
f 34//6 12//6 21//6
f 12//4 30//4 11//4
f 19//5 40//5 1//5
f 4//8 35//8 3//8
f 3//5 37//5 13//5
f 13//5 38//5 19//5
f 41//6 34//6 32//6
f 39//6 32//6 29//6
f 42//6 28//6 34//6
f 28//4 40//4 30//4
f 14//1 4//1 3//1
f 10//2 8//2 7//2
f 20//3 6//3 5//3
f 36//4 2//4 1//4
f 24//5 5//5 11//5
f 23//6 2//6 36//6
f 20//6 21//6 12//6
f 33//5 22//5 11//5
f 6//7 12//7 11//7
f 29//8 10//8 9//8
f 27//5 9//5 18//5
f 8//6 10//6 17//6
f 4//6 14//6 41//6
f 7//5 15//5 18//5
f 8//9 16//9 15//9
f 23//10 14//10 13//10
f 2//11 23//11 19//11
f 31//5 18//5 22//5
f 16//6 17//6 21//6
f 20//6 25//6 16//6
f 14//6 23//6 42//6
f 22//5 18//5 15//5
f 15//5 26//5 24//5
f 26//13 15//13 16//13
f 25//12 20//12 24//12
f 26//13 16//13 25//13
f 32//6 34//6 21//6
f 37//5 31//5 33//5
f 29//6 32//6 17//6
f 35//5 27//5 31//5
f 39//8 29//8 27//8
f 38//5 33//5 30//5
f 34//6 28//6 12//6
f 12//4 28//4 30//4
f 19//5 38//5 40//5
f 4//8 39//8 35//8
f 3//5 35//5 37//5
f 13//5 37//5 38//5
f 41//6 42//6 34//6
f 39//6 41//6 32//6
f 42//6 36//6 28//6
f 28//4 36//4 40//4
