# Blender 3.5.0
# www.blender.org
o frame_xx_phy
v 0.000000 0.099671 0.000089
v -0.000000 0.080902 -0.088810
v -0.020396 0.097756 0.000089
v -0.015554 0.079347 -0.088810
v -0.040009 0.092084 0.000089
v -0.030510 0.074744 -0.088810
v -0.058084 0.082873 0.000089
v -0.044294 0.067268 -0.088810
v -0.073926 0.070478 0.000089
v -0.056375 0.057206 -0.088810
v -0.086928 0.055374 0.000089
v -0.066290 0.044947 -0.088810
v -0.096589 0.038142 0.000089
v -0.073658 0.030960 -0.088810
v -0.102539 0.019445 0.000089
v -0.078194 0.015783 -0.088810
v -0.104548 0.000000 0.000089
v -0.079726 -0.000000 -0.088810
v -0.102539 -0.019445 0.000089
v -0.078194 -0.015783 -0.088810
v -0.096589 -0.038142 0.000089
v -0.073658 -0.030960 -0.088810
v -0.086928 -0.055374 0.000089
v -0.066290 -0.044947 -0.088810
v -0.073926 -0.070478 0.000089
v -0.056375 -0.057206 -0.088810
v -0.058084 -0.082873 0.000089
v -0.044294 -0.067268 -0.088810
v -0.040009 -0.092084 0.000089
v -0.030510 -0.074744 -0.088810
v -0.020396 -0.097756 0.000089
v -0.015554 -0.079347 -0.088810
v 0.000000 -0.099671 0.000089
v -0.000000 -0.080902 -0.088810
v 0.020396 -0.097756 0.000089
v 0.015554 -0.079347 -0.088810
v 0.040009 -0.092084 0.000089
v 0.030510 -0.074744 -0.088810
v 0.058084 -0.082873 0.000089
v 0.044294 -0.067268 -0.088810
v 0.073926 -0.070478 0.000089
v 0.056375 -0.057206 -0.088810
v 0.086928 -0.055374 0.000089
v 0.066290 -0.044947 -0.088810
v 0.096589 -0.038142 0.000089
v 0.073657 -0.030960 -0.088810
v 0.102539 -0.019445 0.000089
v 0.078194 -0.015783 -0.088810
v 0.104548 0.000000 0.000089
v 0.079726 -0.000000 -0.088810
v 0.102539 0.019445 0.000089
v 0.078194 0.015783 -0.088810
v 0.096589 0.038142 0.000089
v 0.073657 0.030960 -0.088810
v 0.086928 0.055374 0.000089
v 0.066290 0.044947 -0.088810
v 0.073926 0.070478 0.000089
v 0.056375 0.057206 -0.088810
v 0.058084 0.082873 0.000089
v 0.044294 0.067268 -0.088810
v 0.040009 0.092084 0.000089
v 0.030510 0.074744 -0.088810
v 0.020396 0.097756 0.000089
v 0.015554 0.079347 -0.088810
vn -0.0915 0.9741 -0.2067
vn -0.2715 0.9388 -0.2121
vn -0.4428 0.8689 -0.2212
vn -0.5993 0.7660 -0.2327
vn -0.7348 0.6326 -0.2448
vn -0.8433 0.4728 -0.2557
vn -0.9192 0.2925 -0.2638
vn -0.9584 0.0990 -0.2676
vn -0.9584 -0.0990 -0.2676
vn -0.9192 -0.2925 -0.2638
vn -0.8433 -0.4728 -0.2557
vn -0.7348 -0.6326 -0.2448
vn -0.5993 -0.7660 -0.2327
vn -0.4428 -0.8689 -0.2212
vn -0.2715 -0.9388 -0.2121
vn -0.0915 -0.9741 -0.2067
vn 0.0915 -0.9741 -0.2067
vn 0.2715 -0.9388 -0.2121
vn 0.4428 -0.8689 -0.2212
vn 0.5993 -0.7660 -0.2327
vn 0.7348 -0.6326 -0.2448
vn 0.8433 -0.4728 -0.2557
vn 0.9192 -0.2925 -0.2638
vn 0.9584 -0.0990 -0.2676
vn 0.9584 0.0990 -0.2676
vn 0.9192 0.2925 -0.2638
vn 0.8433 0.4728 -0.2557
vn 0.7348 0.6326 -0.2448
vn 0.5993 0.7660 -0.2327
vn 0.4428 0.8689 -0.2212
vn -0.0000 -0.0000 -1.0000
vn 0.2715 0.9388 -0.2121
vn 0.0915 0.9741 -0.2067
vn -0.0000 -0.0000 1.0000
vn -0.0973 0.9738 -0.2056
vn -0.2877 0.9346 -0.2092
vn -0.4654 0.8581 -0.2171
vn -0.6231 0.7482 -0.2280
vn -0.7548 0.6104 -0.2401
vn -0.8563 0.4510 -0.2517
vn -0.9249 0.2765 -0.2609
vn -0.9593 0.0931 -0.2665
vn -0.9593 -0.0931 -0.2665
vn -0.9249 -0.2765 -0.2609
vn -0.8563 -0.4510 -0.2517
vn -0.7548 -0.6104 -0.2401
vn -0.6231 -0.7482 -0.2280
vn -0.4654 -0.8581 -0.2171
vn -0.2877 -0.9346 -0.2092
vn -0.0973 -0.9738 -0.2056
vn 0.0973 -0.9738 -0.2056
vn 0.2877 -0.9346 -0.2092
vn 0.4654 -0.8581 -0.2171
vn 0.6231 -0.7482 -0.2280
vn 0.7548 -0.6104 -0.2401
vn 0.8563 -0.4510 -0.2517
vn 0.9249 -0.2765 -0.2609
vn 0.9593 -0.0931 -0.2665
vn 0.9593 0.0931 -0.2665
vn 0.9249 0.2765 -0.2609
vn 0.8563 0.4510 -0.2517
vn 0.7548 0.6104 -0.2401
vn 0.6231 0.7482 -0.2280
vn 0.4654 0.8581 -0.2171
vn 0.2877 0.9346 -0.2092
vn 0.0973 0.9738 -0.2056
s 0
f 1//1 4//1 3//1
f 3//2 6//2 5//2
f 5//3 8//3 7//3
f 7//4 10//4 9//4
f 9//5 12//5 11//5
f 11//6 14//6 13//6
f 13//7 16//7 15//7
f 15//8 18//8 17//8
f 18//9 19//9 17//9
f 20//10 21//10 19//10
f 22//11 23//11 21//11
f 24//12 25//12 23//12
f 26//13 27//13 25//13
f 28//14 29//14 27//14
f 30//15 31//15 29//15
f 32//16 33//16 31//16
f 33//17 36//17 35//17
f 35//18 38//18 37//18
f 37//19 40//19 39//19
f 39//20 42//20 41//20
f 41//21 44//21 43//21
f 43//22 46//22 45//22
f 45//23 48//23 47//23
f 47//24 50//24 49//24
f 50//25 51//25 49//25
f 52//26 53//26 51//26
f 54//27 55//27 53//27
f 56//28 57//28 55//28
f 58//29 59//29 57//29
f 60//30 61//30 59//30
f 38//31 22//31 6//31
f 62//32 63//32 61//32
f 64//33 1//33 63//33
f 31//34 47//34 63//34
f 1//35 2//35 4//35
f 3//36 4//36 6//36
f 5//37 6//37 8//37
f 7//38 8//38 10//38
f 9//39 10//39 12//39
f 11//40 12//40 14//40
f 13//41 14//41 16//41
f 15//42 16//42 18//42
f 18//43 20//43 19//43
f 20//44 22//44 21//44
f 22//45 24//45 23//45
f 24//46 26//46 25//46
f 26//47 28//47 27//47
f 28//48 30//48 29//48
f 30//49 32//49 31//49
f 32//50 34//50 33//50
f 33//51 34//51 36//51
f 35//52 36//52 38//52
f 37//53 38//53 40//53
f 39//54 40//54 42//54
f 41//55 42//55 44//55
f 43//56 44//56 46//56
f 45//57 46//57 48//57
f 47//58 48//58 50//58
f 50//59 52//59 51//59
f 52//60 54//60 53//60
f 54//61 56//61 55//61
f 56//62 58//62 57//62
f 58//63 60//63 59//63
f 60//64 62//64 61//64
f 6//31 4//31 2//31
f 2//31 64//31 62//31
f 62//31 60//31 58//31
f 58//31 56//31 54//31
f 54//31 52//31 50//31
f 50//31 48//31 46//31
f 46//31 44//31 42//31
f 42//31 40//31 38//31
f 38//31 36//31 34//31
f 34//31 32//31 30//31
f 30//31 28//31 26//31
f 26//31 24//31 22//31
f 22//31 20//31 18//31
f 18//31 16//31 14//31
f 14//31 12//31 10//31
f 10//31 8//31 6//31
f 6//31 2//31 62//31
f 62//31 58//31 54//31
f 54//31 50//31 46//31
f 46//31 42//31 38//31
f 38//31 34//31 30//31
f 30//31 26//31 22//31
f 22//31 18//31 14//31
f 14//31 10//31 6//31
f 6//31 62//31 54//31
f 54//31 46//31 38//31
f 38//31 30//31 22//31
f 22//31 14//31 6//31
f 6//31 54//31 38//31
f 62//65 64//65 63//65
f 64//66 2//66 1//66
f 63//34 1//34 3//34
f 3//34 5//34 7//34
f 7//34 9//34 11//34
f 11//34 13//34 15//34
f 15//34 17//34 19//34
f 19//34 21//34 23//34
f 23//34 25//34 27//34
f 27//34 29//34 31//34
f 31//34 33//34 35//34
f 35//34 37//34 39//34
f 39//34 41//34 43//34
f 43//34 45//34 47//34
f 47//34 49//34 51//34
f 51//34 53//34 55//34
f 55//34 57//34 59//34
f 59//34 61//34 63//34
f 63//34 3//34 7//34
f 7//34 11//34 15//34
f 15//34 19//34 23//34
f 23//34 27//34 31//34
f 31//34 35//34 39//34
f 39//34 43//34 47//34
f 47//34 51//34 55//34
f 55//34 59//34 63//34
f 63//34 7//34 15//34
f 15//34 23//34 31//34
f 31//34 39//34 47//34
f 47//34 55//34 63//34
f 63//34 15//34 31//34
