# Blender 3.4.1
# www.blender.org
o DS_safeGuide_1_phy
v 0.601440 -0.988109 -1.158560
v 0.601440 -1.095681 -1.749053
v 0.601440 -0.978645 -1.160284
v 0.601440 -1.086216 -1.750777
v -0.601005 -0.988109 -1.158559
v -0.601006 -1.095681 -1.749052
v -0.601005 -0.978645 -1.160284
v -0.601006 -1.086216 -1.750776
vn 1.0000 -0.0000 -0.0000
vn -0.0000 0.9838 -0.1792
vn -1.0000 -0.0000 -0.0000
vn -0.0000 -0.9838 0.1792
vn -0.0000 0.1792 0.9838
vn -0.0000 -0.1792 -0.9838
vt 0.375000 0.000000
vt 0.375000 1.000000
vt 0.125000 0.750000
vt 0.625000 0.000000
vt 0.625000 1.000000
vt 0.875000 0.750000
vt 0.125000 0.500000
vt 0.375000 0.250000
vt 0.625000 0.250000
vt 0.875000 0.500000
vt 0.375000 0.750000
vt 0.625000 0.750000
vt 0.375000 0.500000
vt 0.625000 0.500000
s 0
f 2/4/1 3/8/1 1/1/1
f 4/9/2 7/13/2 3/8/2
f 8/14/3 5/11/3 7/13/3
f 6/12/4 1/2/4 5/11/4
f 7/13/5 1/3/5 3/7/5
f 4/10/6 6/12/6 8/14/6
f 2/4/1 4/9/1 3/8/1
f 4/9/2 8/14/2 7/13/2
f 8/14/3 6/12/3 5/11/3
f 6/12/4 2/5/4 1/2/4
f 7/13/5 5/11/5 1/3/5
f 4/10/6 2/6/6 6/12/6
