# Blender 3.4.1
# www.blender.org
o DS_funnel_y_5_phy
v 0.060217 -0.149957 -0.256955
v 0.086063 -0.149957 -0.399934
v 0.189586 -0.149957 -0.256955
v 0.053545 -0.149957 -0.384103
v 0.060217 -0.079957 -0.256955
v 0.180217 -0.079957 -0.256955
v 0.086063 -0.079957 -0.399934
v 0.053545 -0.079957 -0.384103
vn -0.0000 -1.0000 -0.0000
vn -0.0000 1.0000 -0.0000
vn -0.4377 -0.0000 -0.8991
vn -0.9986 -0.0000 0.0524
vn -0.0000 -0.0000 1.0000
vn 0.8352 -0.0000 -0.5500
vn 0.8053 0.1078 -0.5830
s 0
f 1//1 2//1 3//1
f 5//2 7//2 8//2
f 8//3 2//3 4//3
f 5//4 4//4 1//4
f 1//5 6//5 5//5
f 6//6 2//6 7//6
f 1//1 4//1 2//1
f 5//2 6//2 7//2
f 8//3 7//3 2//3
f 5//4 8//4 4//4
f 1//5 3//5 6//5
f 6//7 3//7 2//7
