# Blender 3.4.1
# www.blender.org
o DS_funnel_y_6_vis
v 0.060217 -0.149957 -0.256955
v 0.053545 -0.149957 -0.384103
v 0.018301 -0.149957 -0.375980
v 0.060217 -0.079957 -0.256955
v 0.018301 -0.079957 -0.375980
v 0.053545 -0.079957 -0.384103
v 0.029298 -0.079957 -0.256955
v 0.025033 -0.149957 -0.256955
v 0.060217 -0.149957 -0.256955
v 0.060217 -0.149957 -0.256955
v 0.053545 -0.149957 -0.384103
v 0.053545 -0.149957 -0.384103
v 0.060217 -0.079957 -0.256955
v 0.060217 -0.079957 -0.256955
v 0.053545 -0.079957 -0.384103
v 0.053545 -0.079957 -0.384103
v 0.018301 -0.149957 -0.375980
v 0.018301 -0.149957 -0.375980
v 0.018301 -0.079957 -0.375980
v 0.018301 -0.079957 -0.375980
v 0.025033 -0.149957 -0.256955
v 0.025033 -0.149957 -0.256955
v 0.029298 -0.079957 -0.256955
v 0.029298 -0.079957 -0.256955
vn -0.0000 -1.0000 -0.0000
vn -0.0000 1.0000 -0.0000
vn -0.2246 -0.0000 -0.9745
vn -0.9960 0.0402 0.0800
vn -0.9974 0.0205 0.0685
vn -0.9984 -0.0000 0.0565
vn -0.0000 -0.0000 1.0000
vn 0.9986 -0.0000 -0.0524
vn -0.9939 0.0606 0.0918
s 1
f 9//1 17//1 11//1
f 13//2 19//2 23//2
f 18//3 16//3 12//3
f 22//4 5//5 3//6
f 7//7 10//7 14//7
f 4//8 2//8 6//8
f 9//1 21//1 17//1
f 13//2 15//2 19//2
f 18//3 20//3 16//3
f 22//4 24//9 5//5
f 7//7 8//7 10//7
f 4//8 1//8 2//8
