# Blender 3.4.1
# www.blender.org
o DS_funnel_y0_1_vis
v 0.510779 -0.149957 -1.202218
v 0.510779 -0.079957 -1.202218
v 0.514792 -0.079957 -1.209856
v 0.514792 -0.149957 -1.209856
v 0.521649 -0.079957 -1.215094
v 0.521649 -0.149957 -1.215094
v 0.530074 -0.079957 -1.216955
v 0.530074 -0.149957 -1.216955
v 0.536217 -0.079957 -1.216955
v 0.536217 -0.149957 -1.216955
v 0.536217 -0.079957 -0.996955
v 0.536217 -0.149957 -0.996955
v 0.499506 -0.149957 -1.172308
v 0.499506 -0.079957 -1.172308
vn -0.8853 -0.0000 -0.4651
vn -0.6070 -0.0000 -0.7947
vn -0.2157 -0.0000 -0.9765
vn -0.0000 -0.0000 -1.0000
vn 1.0000 -0.0000 -0.0000
vn -0.9357 -0.0000 -0.3527
vn -0.0000 1.0000 -0.0000
vn -0.0000 -1.0000 -0.0000
vn -0.9788 -0.0000 0.2049
s 0
f 1//1 2//1 3//1
f 1//1 3//1 4//1
f 4//2 3//2 5//2
f 4//2 5//2 6//2
f 6//3 5//3 7//3
f 6//3 7//3 8//3
f 7//4 9//4 8//4
f 8//4 9//4 10//4
f 9//5 11//5 10//5
f 10//5 11//5 12//5
f 13//6 14//6 1//6
f 1//6 14//6 2//6
f 2//7 14//7 11//7
f 5//7 3//7 7//7
f 7//7 3//7 2//7
f 7//7 2//7 9//7
f 9//7 2//7 11//7
f 1//8 4//8 6//8
f 12//8 13//8 10//8
f 10//8 13//8 1//8
f 10//8 1//8 8//8
f 8//8 1//8 6//8
f 12//9 14//9 13//9
f 12//9 11//9 14//9
