# Blender 3.4.1
# www.blender.org
o DS_funnel_y0_3_vis
v 0.536217 -0.079957 -0.996955
v 0.536217 -0.149957 -0.996955
v 0.461350 -0.149957 -1.121369
v 0.461350 -0.079957 -1.121369
v 0.482833 -0.149957 -1.145037
v 0.482833 -0.079957 -1.145037
vn -0.7405 -0.0000 -0.6721
vn -0.0000 1.0000 -0.0000
vn -0.0000 -1.0000 -0.0000
vn 0.9407 -0.0000 -0.3391
vn -0.8568 -0.0000 0.5156
s 0
f 3//1 4//1 5//1
f 5//1 4//1 6//1
f 1//2 6//2 4//2
f 3//3 5//3 2//3
f 6//4 2//4 5//4
f 2//5 4//5 3//5
f 6//4 1//4 2//4
f 2//5 1//5 4//5
