# Blender 3.4.1
# www.blender.org
o FunnelX_2_vis_
v 0.611217 -0.316229 -1.036955
v 0.541217 -0.316551 -1.036955
v 0.541217 -0.258261 -1.036955
v 0.541217 -0.400341 -1.101590
v 0.541217 -0.397155 -1.119557
v 0.541217 -0.393241 -1.131061
v 0.611217 -0.400341 -1.101590
v 0.611217 -0.397155 -1.119557
v 0.611217 -0.393241 -1.131061
v 0.611217 -0.258812 -1.036955
v 0.541217 -0.258261 -1.036955
v 0.541217 -0.258261 -1.036955
v 0.541217 -0.316551 -1.036955
v 0.541217 -0.316551 -1.036955
v 0.541217 -0.400341 -1.101590
v 0.541217 -0.400341 -1.101590
v 0.611217 -0.400341 -1.101590
v 0.611217 -0.400341 -1.101590
v 0.611217 -0.397155 -1.119557
v 0.611217 -0.393241 -1.131061
v 0.611217 -0.393241 -1.131061
v 0.541217 -0.397155 -1.119557
v 0.541217 -0.393241 -1.131061
v 0.541217 -0.393241 -1.131061
v 0.611217 -0.258812 -1.036955
v 0.611217 -0.258812 -1.036955
v 0.611217 -0.316229 -1.036955
v 0.611217 -0.316229 -1.036955
vn -0.0000 -0.9846 -0.1746
vn -1.0000 -0.0000 -0.0000
vn 1.0000 -0.0000 -0.0000
vn 0.0028 -0.6093 0.7929
vn -0.0000 -0.0000 1.0000
vn 0.0045 0.5719 -0.8203
vn -0.0000 -0.9467 -0.3221
vn -1.0000 0.0001 -0.0000
vn -0.0000 -0.6108 0.7918
vn -0.0000 0.5735 -0.8192
s 0
f 8//1 15//1 22//1
f 23//2 16//2 13//2
f 20//3 27//3 18//3
f 14//4 7//4 28//4
f 26//5 2//5 1//5
f 10//6 24//6 3//6
f 22//7 9//7 8//7
f 8//1 17//1 15//1
f 13//2 11//2 23//2
f 23//8 5//8 16//8
f 18//3 19//3 20//3
f 20//3 25//3 27//3
f 14//9 4//9 7//9
f 26//5 12//5 2//5
f 10//10 21//10 24//10
f 22//7 6//7 9//7
