# Blender 4.2.3 LTS
# www.blender.org
o S2_X_4_phy
v 0.596783 0.382955 -1.036955
v 0.596783 0.413744 -1.083610
v 0.596783 0.404913 -1.091013
v 0.596783 0.349753 -1.036955
v 0.540357 0.382938 -1.036955
v 0.540357 0.349614 -1.036955
v 0.540357 0.404913 -1.091013
v 0.540357 0.413744 -1.083610
v 0.596783 0.382955 -1.036955
v 0.596783 0.382955 -1.036955
v 0.596783 0.413744 -1.083610
v 0.596783 0.413744 -1.083610
v 0.596783 0.404913 -1.091013
v 0.596783 0.404913 -1.091013
v 0.596783 0.349753 -1.036955
v 0.596783 0.349753 -1.036955
v 0.540357 0.382938 -1.036955
v 0.540357 0.382938 -1.036955
v 0.540357 0.349614 -1.036955
v 0.540357 0.349614 -1.036955
v 0.540357 0.413744 -1.083610
v 0.540357 0.413744 -1.083610
v 0.540357 0.413744 -1.083610
v 0.540357 0.404913 -1.091013
v 0.540357 0.404913 -1.091013
vn -0.0000 0.8345 0.5510
vn -0.0000 -0.6999 -0.7142
vn -0.0000 -0.0000 1.0000
vn 1.0000 -0.0000 -0.0000
vn -0.0000 0.6424 -0.7663
vn -1.0000 -0.0000 -0.0000
vn -0.0003 0.8346 0.5508
vn 0.0017 -0.6990 -0.7151
vn -0.0000 0.6424 -0.7664
s 0
f 11//1 22//1 18//1
f 15//2 24//2 14//2
f 16//3 17//3 19//3
f 1//4 13//4 12//4
f 2//5 25//5 8//5
f 5//6 7//6 6//6
f 18//7 9//7 11//7
f 22//3 8//3 18//3
f 15//8 20//8 24//8
f 16//3 10//3 17//3
f 1//4 4//4 13//4
f 2//9 3//9 25//9
f 8//3 23//3 2//3
f 5//6 8//6 7//6
l 8 21
