# Blender 3.4.1
# www.blender.org
o DS_funnel_x_3_vis
v 0.611217 -0.316229 -1.036955
v 0.541217 -0.316551 -1.036955
v 0.541217 -0.400341 -1.101590
v 0.541217 -0.404913 -1.091013
v 0.611217 -0.404913 -1.091013
v 0.611217 -0.400341 -1.101590
v 0.611217 -0.349581 -1.036955
v 0.541217 -0.349753 -1.036955
v 0.541217 -0.400341 -1.101590
v 0.541217 -0.400341 -1.101590
v 0.611217 -0.400341 -1.101590
v 0.611217 -0.400341 -1.101590
v 0.541217 -0.404913 -1.091013
v 0.541217 -0.404913 -1.091013
v 0.611217 -0.404913 -1.091013
v 0.611217 -0.404913 -1.091013
v 0.611217 -0.316229 -1.036955
v 0.611217 -0.316229 -1.036955
v 0.541217 -0.316551 -1.036955
v 0.541217 -0.316551 -1.036955
v 0.611217 -0.349581 -1.036955
v 0.611217 -0.349581 -1.036955
v 0.541217 -0.349753 -1.036955
v 0.541217 -0.349753 -1.036955
vn -0.0000 -0.0000 1.0000
vn 1.0000 -0.0000 -0.0000
vn -1.0000 -0.0000 -0.0000
vn -0.0000 -0.9179 -0.3968
vn -0.0000 0.6108 -0.7918
vn -0.0000 -0.6999 0.7142
vn -0.0028 0.6093 -0.7929
vn 0.0017 -0.6988 0.7153
s 0
f 20//1 21//1 18//1
f 12//2 22//2 16//2
f 24//3 10//3 14//3
f 15//4 9//4 11//4
f 2//5 6//5 3//5
f 5//6 8//6 4//6
f 20//1 23//1 21//1
f 12//2 17//2 22//2
f 24//3 19//3 10//3
f 15//4 13//4 9//4
f 2//7 1//7 6//7
f 5//8 7//8 8//8
