# Blender 4.2.3 LTS
# www.blender.org
o S2_X_5_phy
v 0.596783 0.425000 -1.036955
v 0.596783 0.382955 -1.036955
v 0.596783 0.425000 -1.080955
v 0.596783 0.413744 -1.083610
v 0.540357 0.382938 -1.036955
v 0.596783 0.425000 -1.036955
v 0.596783 0.425000 -1.036955
v 0.596783 0.382955 -1.036955
v 0.596783 0.382955 -1.036955
v 0.596783 0.425000 -1.080955
v 0.596783 0.425000 -1.080955
v 0.596783 0.413744 -1.083610
v 0.596783 0.413744 -1.083610
v 0.540357 0.413744 -1.083610
v 0.540357 0.413744 -1.083610
v 0.540357 0.413744 -1.083610
v 0.540357 0.425000 -1.080955
v 0.540357 0.425000 -1.080955
v 0.540357 0.425000 -1.080955
v 0.540357 0.425000 -1.036955
v 0.540357 0.425000 -1.036955
v 0.540357 0.425000 -1.036955
v 0.540357 0.412883 -1.036955
v 0.540357 0.412883 -1.036955
v 0.540357 0.382938 -1.036955
v 0.540357 0.382938 -1.036955
v 0.540357 0.412883 -1.082308
v 0.540357 0.412883 -1.082308
vn -0.0000 1.0000 -0.0000
vn 1.0000 -0.0000 -0.0000
vn -0.0000 -0.0000 1.0000
vn -0.0000 -0.8346 -0.5508
vn -1.0000 -0.0000 -0.0000
vn -0.0000 0.2296 -0.9733
vn 0.0003 -0.8345 -0.5510
s 0
f 7//1 19//1 21//1
f 6//2 13//2 3//2
f 9//3 22//3 25//3
f 2//4 16//4 4//4
f 18//5 27//5 23//5
f 5//5 24//5 28//5
f 17//6 12//6 14//6
f 7//1 10//1 19//1
f 6//2 8//2 13//2
f 9//3 1//3 22//3
f 2//7 26//7 16//7
f 23//5 20//5 18//5
f 18//5 15//5 27//5
f 17//6 11//6 12//6
