# Blender 3.4.1
# www.blender.org
o DS_funnel_y0_2_phy
v 0.536217 -0.079957 -0.996955
v 0.536217 -0.149957 -0.996955
v 0.482833 -0.149957 -1.145037
v 0.482833 -0.079957 -1.145037
v 0.499506 -0.149957 -1.172308
v 0.499506 -0.079957 -1.172308
vn -0.8532 -0.0000 -0.5216
vn -0.0000 1.0000 -0.0000
vn -0.0000 -1.0000 -0.0000
vn 0.9788 -0.0000 -0.2049
vn -0.9407 -0.0000 0.3391
s 0
f 3//1 4//1 5//1
f 5//1 4//1 6//1
f 6//2 4//2 1//2
f 2//3 3//3 5//3
f 6//4 2//4 5//4
f 2//5 4//5 3//5
f 6//4 1//4 2//4
f 2//5 1//5 4//5
