# Blender 3.4.1
# www.blender.org
o DS_funnel_y_1_phy
v 0.430217 -0.149957 -0.256955
v 0.151848 -0.149957 -0.483885
v 0.159444 -0.149957 -0.519246
v 0.430217 -0.149957 -0.751955
v 0.211966 -0.149957 -0.742265
v 0.221989 -0.149957 -0.749426
v 0.205665 -0.149957 -0.731680
v 0.234045 -0.149957 -0.751955
v 0.184797 -0.149957 -0.662131
v 0.169359 -0.149957 -0.591178
v 0.151848 -0.079957 -0.483885
v 0.430217 -0.079957 -0.256955
v 0.234045 -0.079957 -0.751955
v 0.221989 -0.079957 -0.749426
v 0.211966 -0.079957 -0.742265
v 0.205665 -0.079957 -0.731680
v 0.184797 -0.079957 -0.662131
v 0.430217 -0.079957 -0.751955
v 0.169359 -0.079957 -0.591178
v 0.159444 -0.079957 -0.519246
v 0.430217 -0.095332 -0.256955
vn -0.0000 -1.0000 -0.0000
vn -0.0000 1.0000 -0.0000
vn -0.9906 -0.0000 -0.1365
vn -0.9771 -0.0000 -0.2126
vn -0.9578 -0.0000 -0.2874
vn -0.9777 -0.0000 -0.2100
vn 1.0000 -0.0000 -0.0000
vn -0.0000 -0.0000 -1.0000
vn -0.8593 -0.0000 -0.5115
vn -0.5813 -0.0000 -0.8137
vn -0.2053 -0.0000 -0.9787
s 0
f 1//1 2//1 3//1
f 1//1 3//1 4//1
f 5//1 6//1 7//1
f 7//1 6//1 8//1
f 7//1 8//1 9//1
f 9//1 8//1 4//1
f 9//1 4//1 10//1
f 10//1 4//1 3//1
f 13//2 14//2 15//2
f 15//2 16//2 13//2
f 13//2 16//2 17//2
f 13//2 17//2 18//2
f 18//2 17//2 19//2
f 18//2 19//2 12//2
f 12//2 19//2 20//2
f 12//2 20//2 11//2
f 3//3 20//3 19//3
f 3//3 19//3 10//3
f 10//4 19//4 17//4
f 10//4 17//4 9//4
f 9//5 17//5 16//5
f 9//5 16//5 7//5
f 2//6 11//6 3//6
f 3//6 11//6 20//6
f 1//7 4//7 21//7
f 21//7 4//7 18//7
f 21//7 18//7 12//7
f 13//8 18//8 8//8
f 8//8 18//8 4//8
f 7//9 16//9 15//9
f 7//9 15//9 5//9
f 5//10 15//10 14//10
f 5//10 14//10 6//10
f 6//11 14//11 13//11
f 6//11 13//11 8//11
