# Blender 3.4.1
# www.blender.org
o DS_funnel_y_2_vis
v 0.136504 -0.149957 -0.451133
v 0.430217 -0.149957 -0.256955
v 0.151848 -0.149957 -0.483885
v 0.151848 -0.079957 -0.483885
v 0.136504 -0.079957 -0.451133
v 0.430217 -0.079957 -0.256955
v 0.362294 -0.079957 -0.256955
v 0.359135 -0.149957 -0.256955
v 0.136504 -0.149957 -0.451133
v 0.136504 -0.149957 -0.451133
v 0.151848 -0.149957 -0.483885
v 0.151848 -0.149957 -0.483885
v 0.136504 -0.079957 -0.451133
v 0.136504 -0.079957 -0.451133
v 0.151848 -0.079957 -0.483885
v 0.151848 -0.079957 -0.483885
v 0.430217 -0.149957 -0.256955
v 0.430217 -0.149957 -0.256955
v 0.359135 -0.149957 -0.256955
v 0.359135 -0.149957 -0.256955
v 0.362294 -0.079957 -0.256955
v 0.362294 -0.079957 -0.256955
v 0.430217 -0.079957 -0.256955
v 0.430217 -0.079957 -0.256955
vn -0.0000 -1.0000 -0.0000
vn -0.0000 1.0000 -0.0000
vn -0.9055 -0.0000 -0.4243
vn 0.6319 -0.0000 -0.7751
vn -0.0000 -0.0000 1.0000
vn -0.6526 0.0252 0.7573
vn -0.6565 0.0044 0.7543
vn -0.6573 -0.0000 0.7536
vn -0.6518 0.0294 0.7579
s 1
f 19//1 11//1 17//1
f 16//2 21//2 23//2
f 15//3 10//3 13//3
f 24//4 3//4 4//4
f 22//5 2//5 6//5
f 8//6 5//7 1//8
f 19//1 9//1 11//1
f 16//2 14//2 21//2
f 15//3 12//3 10//3
f 24//4 18//4 3//4
f 22//5 20//5 2//5
f 8//6 7//9 5//7
