# Blender 3.4.1
# www.blender.org
o DS_funnel_y0_4_vis
v 0.536217 -0.079957 -0.996955
v 0.536217 -0.149957 -0.996955
v 0.680217 -0.079957 -0.996955
v 0.680217 -0.149957 -0.996955
v 0.461350 -0.149957 -1.121369
v 0.461350 -0.079957 -1.121369
v 0.680217 -0.149957 -0.756955
v 0.680217 -0.079957 -0.756955
v 0.214732 -0.149957 -0.756955
v 0.214732 -0.079957 -0.756955
v 0.243420 -0.079957 -0.825172
v 0.243420 -0.149957 -0.825172
v 0.277385 -0.079957 -0.890922
v 0.277385 -0.149957 -0.890922
v 0.316418 -0.079957 -0.953796
v 0.316418 -0.149957 -0.953796
v 0.360275 -0.079957 -1.013404
v 0.360275 -0.149957 -1.013404
v 0.408686 -0.079957 -1.069378
v 0.408686 -0.149957 -1.069378
vn -0.0000 -0.0000 -1.0000
vn 1.0000 -0.0000 -0.0000
vn -0.9218 -0.0000 -0.3876
vn -0.9218 -0.0000 -0.3877
vn -0.8885 -0.0000 -0.4590
vn -0.8496 -0.0000 -0.5274
vn -0.8055 -0.0000 -0.5926
vn -0.7564 -0.0000 -0.6542
vn -0.7026 -0.0000 -0.7116
vn -0.7025 -0.0000 -0.7116
vn -0.0000 1.0000 -0.0000
vn -0.0000 -1.0000 -0.0000
vn -0.0000 -0.0000 1.0000
vn 0.8568 -0.0000 -0.5156
s 0
f 1//1 3//1 2//1
f 2//1 3//1 4//1
f 7//2 4//2 8//2
f 8//2 4//2 3//2
f 9//3 10//3 11//3
f 9//4 11//4 12//4
f 12//5 11//5 13//5
f 12//5 13//5 14//5
f 14//6 13//6 15//6
f 14//6 15//6 16//6
f 16//7 15//7 17//7
f 16//7 17//7 18//7
f 18//8 17//8 19//8
f 18//8 19//8 20//8
f 20//9 19//9 6//9
f 20//10 6//10 5//10
f 1//11 6//11 19//11
f 19//11 17//11 1//11
f 1//11 17//11 15//11
f 1//11 15//11 13//11
f 8//11 3//11 10//11
f 10//11 3//11 1//11
f 10//11 1//11 11//11
f 11//11 1//11 13//11
f 4//12 7//12 2//12
f 2//12 7//12 9//12
f 9//12 12//12 2//12
f 2//12 12//12 14//12
f 2//12 14//12 16//12
f 16//12 18//12 2//12
f 2//12 18//12 20//12
f 2//12 20//12 5//12
f 10//13 7//13 8//13
f 6//14 2//14 5//14
f 10//13 9//13 7//13
f 6//14 1//14 2//14
