# Blender 4.2.3 LTS
# www.blender.org
o Cube.003
v 1.000000 -0.950000 0.050000
v 0.900000 -0.950000 0.050000
v 1.000000 -0.950000 -0.050000
v 0.900000 -0.950000 -0.050000
v 1.000000 0.050000 0.050000
v 0.900000 0.050000 0.050000
v 1.000000 0.050000 -0.050000
v 0.900000 0.050000 -0.050000
v 1.000000 -0.050000 -1.000000
v 0.900000 -0.050000 -1.000000
v 1.000000 0.050000 -1.000000
v 0.900000 0.050000 -1.000000
v 1.000000 -0.050000 -0.000000
v 0.900000 -0.050000 -0.000000
v 1.000000 0.050000 -0.000000
v 0.900000 0.050000 -0.000000
v -1.000000 -1.050000 -0.050000
v -1.000000 -1.050000 0.050000
v -1.000000 -0.950000 -0.050000
v -1.000000 -0.950000 0.050000
v 1.000000 -1.050000 -0.050000
v 1.000000 -1.050000 0.050000
v 1.000000 -0.950000 -0.050000
v 1.000000 -0.950000 0.050000
v -1.000000 -0.050000 -1.050000
v -1.000000 -0.050000 -0.950000
v -1.000000 0.050000 -1.050000
v -1.000000 0.050000 -0.950000
v 1.000000 -0.050000 -1.050000
v 1.000000 -0.050000 -0.950000
v 1.000000 0.050000 -1.050000
v 1.000000 0.050000 -0.950000
v -0.900000 -0.050000 -1.000000
v -1.000000 -0.050000 -1.000000
v -0.900000 0.050000 -1.000000
v -1.000000 0.050000 -1.000000
v -0.900000 -0.050000 0.000000
v -1.000000 -0.050000 0.000000
v -0.900000 0.050000 0.000000
v -1.000000 0.050000 0.000000
v -0.900000 -0.950000 0.050000
v -1.000000 -0.950000 0.050000
v -0.900000 -0.950000 -0.050000
v -1.000000 -0.950000 -0.050000
v -0.900000 0.050000 0.050000
v -1.000000 0.050000 0.050000
v -0.900000 0.050000 -0.050000
v -1.000000 0.050000 -0.050000
vn -0.0000 -1.0000 -0.0000
vn -0.0000 -0.0000 -1.0000
vn -0.0000 1.0000 -0.0000
vn -0.0000 -0.0000 1.0000
vn 1.0000 -0.0000 -0.0000
vn -1.0000 -0.0000 -0.0000
s 0
f 2//1 3//1 1//1
f 4//2 7//2 3//2
f 8//3 5//3 7//3
f 6//4 1//4 5//4
f 7//5 1//5 3//5
f 4//6 6//6 8//6
f 9//2 12//2 11//2
f 12//3 15//3 11//3
f 16//4 13//4 15//4
f 14//1 9//1 13//1
f 15//5 9//5 11//5
f 12//6 14//6 16//6
f 18//6 19//6 17//6
f 20//3 23//3 19//3
f 24//5 21//5 23//5
f 22//1 17//1 21//1
f 23//2 17//2 19//2
f 20//4 22//4 24//4
f 26//6 27//6 25//6
f 28//3 31//3 27//3
f 32//5 29//5 31//5
f 30//1 25//1 29//1
f 31//2 25//2 27//2
f 28//4 30//4 32//4
f 34//2 35//2 33//2
f 36//3 39//3 35//3
f 40//4 37//4 39//4
f 38//1 33//1 37//1
f 39//5 33//5 35//5
f 36//6 38//6 40//6
f 42//1 43//1 41//1
f 44//2 47//2 43//2
f 48//3 45//3 47//3
f 46//4 41//4 45//4
f 47//5 41//5 43//5
f 44//6 46//6 48//6
f 2//1 4//1 3//1
f 4//2 8//2 7//2
f 8//3 6//3 5//3
f 6//4 2//4 1//4
f 7//5 5//5 1//5
f 4//6 2//6 6//6
f 9//2 10//2 12//2
f 12//3 16//3 15//3
f 16//4 14//4 13//4
f 14//1 10//1 9//1
f 15//5 13//5 9//5
f 12//6 10//6 14//6
f 18//6 20//6 19//6
f 20//3 24//3 23//3
f 24//5 22//5 21//5
f 22//1 18//1 17//1
f 23//2 21//2 17//2
f 20//4 18//4 22//4
f 26//6 28//6 27//6
f 28//3 32//3 31//3
f 32//5 30//5 29//5
f 30//1 26//1 25//1
f 31//2 29//2 25//2
f 28//4 26//4 30//4
f 34//2 36//2 35//2
f 36//3 40//3 39//3
f 40//4 38//4 37//4
f 38//1 34//1 33//1
f 39//5 37//5 33//5
f 36//6 34//6 38//6
f 42//1 44//1 43//1
f 44//2 48//2 47//2
f 48//3 46//3 45//3
f 46//4 42//4 41//4
f 47//5 45//5 41//5
f 44//6 42//6 46//6
