# Blender 3.4.1
# www.blender.org
o Handle_2_phy
v -0.949783 -0.733380 -1.834016
v -0.951951 -0.733117 -1.834325
v -0.949783 -0.718679 -1.814678
v -0.951951 -0.718311 -1.814848
v -0.953825 -0.732366 -1.835210
v -0.953825 -0.717258 -1.815336
v -0.955154 -0.715661 -1.816074
v -0.955154 -0.731227 -1.836551
v -0.955758 -0.729854 -1.838168
v -0.955758 -0.713736 -1.816965
v -0.955554 -0.711743 -1.817887
v -0.955554 -0.728432 -1.839841
v -0.954571 -0.727154 -1.841345
v -0.954571 -0.709952 -1.818716
v -0.952942 -0.726193 -1.842478
v -0.952942 -0.708604 -1.819339
v -0.950886 -0.707881 -1.819674
v -0.950886 -0.725677 -1.843085
v -0.948681 -0.725677 -1.843085
v -0.948681 -0.707881 -1.819674
v -0.946625 -0.726193 -1.842478
v -0.946625 -0.708604 -1.819339
v -0.944995 -0.709952 -1.818716
v -0.944995 -0.727154 -1.841345
v -0.944012 -0.728432 -1.839841
v -0.944012 -0.711743 -1.817887
v -0.943809 -0.729854 -1.838168
v -0.943809 -0.713736 -1.816965
v -0.944412 -0.715661 -1.816074
v -0.944412 -0.731227 -1.836551
v -0.945741 -0.732366 -1.835210
v -0.945741 -0.717258 -1.815336
v -0.947616 -0.733117 -1.834325
v -0.947616 -0.718311 -1.814848
vn -0.1796 -0.7831 0.5954
vn 0.1797 -0.7831 0.5953
vn 0.5175 -0.6812 0.5179
vn 0.7911 -0.4869 0.3702
vn -0.6650 0.5946 -0.4520
vn -0.8909 0.3616 -0.2749
vn -0.9955 0.0752 -0.0572
vn -0.9601 -0.2227 0.1693
vn -0.7911 -0.4870 0.3702
vn -0.5174 -0.6813 0.5179
vn -0.0000 0.4199 0.9076
vn 0.9601 -0.2227 0.1693
vn 0.9955 0.0752 -0.0572
vn 0.6649 0.5946 -0.4520
vn 0.8909 0.3616 -0.2749
vn -0.0000 0.7622 0.6474
vn 0.3539 0.7446 -0.5660
vn -0.0000 0.7961 -0.6052
vn -0.3538 0.7446 -0.5660
vn -0.1796 -0.7832 0.5953
vn 0.1796 -0.7832 0.5953
vn 0.5174 -0.6813 0.5179
vn 0.7911 -0.4870 0.3702
vn -0.6649 0.5946 -0.4520
vn -0.7911 -0.4869 0.3702
vn -0.5175 -0.6812 0.5178
vn -0.0003 0.4197 0.9077
vn -0.0003 0.4199 0.9076
vn 0.0003 0.4198 0.9076
vn -0.0003 0.4200 0.9075
vn 0.0002 0.4200 0.9075
vn 0.0001 0.4199 0.9076
vn 0.6650 0.5946 -0.4520
vn -0.0003 0.7624 0.6471
vn -0.0000 0.7621 0.6474
vn -0.0001 0.7621 0.6475
vn -0.0000 0.7622 0.6473
vn 0.0003 0.7621 0.6475
vn -0.0003 0.7620 0.6476
vn 0.0001 0.7621 0.6475
vn 0.0002 0.7621 0.6474
vn 0.3538 0.7446 -0.5660
s 0
f 2//1 3//1 4//1
f 33//2 3//2 1//2
f 33//3 32//3 34//3
f 31//4 29//4 32//4
f 13//5 16//5 15//5
f 12//6 14//6 13//6
f 9//7 11//7 12//7
f 9//8 7//8 10//8
f 8//9 6//9 7//9
f 2//10 6//10 5//10
f 29//11 14//11 6//11
f 27//12 29//12 30//12
f 25//13 28//13 27//13
f 24//14 22//14 23//14
f 25//15 23//15 26//15
f 30//16 13//16 5//16
f 19//17 22//17 21//17
f 18//18 20//18 19//18
f 15//19 17//19 18//19
f 2//20 1//20 3//20
f 33//21 34//21 3//21
f 33//22 31//22 32//22
f 31//23 30//23 29//23
f 13//24 14//24 16//24
f 12//6 11//6 14//6
f 9//7 10//7 11//7
f 9//8 8//8 7//8
f 8//25 5//25 6//25
f 2//26 4//26 6//26
f 34//27 32//27 29//27
f 29//28 28//28 26//28
f 26//29 23//29 22//29
f 22//11 20//11 17//11
f 17//30 16//30 14//30
f 14//28 11//28 10//28
f 10//28 7//28 6//28
f 6//31 4//31 3//31
f 3//11 34//11 29//11
f 29//11 26//11 22//11
f 22//11 17//11 14//11
f 14//32 10//32 6//32
f 6//11 3//11 29//11
f 29//11 22//11 14//11
f 27//12 28//12 29//12
f 25//13 26//13 28//13
f 24//33 21//33 22//33
f 25//15 24//15 23//15
f 33//34 31//34 30//34
f 30//35 27//35 25//35
f 25//36 24//36 21//36
f 21//16 19//16 18//16
f 18//37 15//37 13//37
f 13//38 12//38 9//38
f 9//39 8//39 5//39
f 5//40 2//40 1//40
f 1//41 33//41 30//41
f 30//16 25//16 21//16
f 21//16 18//16 13//16
f 13//16 9//16 5//16
f 5//16 1//16 30//16
f 30//16 21//16 13//16
f 19//42 20//42 22//42
f 18//18 17//18 20//18
f 15//19 16//19 17//19
