# Blender 3.4.1
# www.blender.org
o Handle_6_vis
v -0.949783 -0.818369 -1.820083
v -0.951951 -0.818717 -1.820292
v -0.949783 -0.814936 -1.825147
v -0.951951 -0.815259 -1.825392
v -0.949783 -0.810976 -1.829809
v -0.951951 -0.811270 -1.830088
v -0.949783 -0.806534 -1.834016
v -0.951951 -0.806797 -1.834325
v -0.949783 -0.801664 -1.837719
v -0.951951 -0.801891 -1.838054
v -0.953825 -0.819711 -1.820890
v -0.953825 -0.816183 -1.826094
v -0.953825 -0.812113 -1.830886
v -0.953825 -0.807548 -1.835210
v -0.953825 -0.802543 -1.839015
v -0.955154 -0.803530 -1.840471
v -0.955154 -0.813390 -1.832096
v -0.955154 -0.821219 -1.821798
v -0.955758 -0.823036 -1.822891
v -0.955758 -0.804720 -1.842227
v -0.955554 -0.805953 -1.844044
v -0.955554 -0.816524 -1.835065
v -0.955554 -0.824917 -1.824023
v -0.954571 -0.826609 -1.825041
v -0.954571 -0.822591 -1.830966
v -0.954571 -0.817957 -1.836422
v -0.954571 -0.812759 -1.841345
v -0.954571 -0.807060 -1.845678
v -0.952942 -0.827882 -1.825806
v -0.952942 -0.823774 -1.831865
v -0.952942 -0.819035 -1.837444
v -0.952942 -0.813721 -1.842478
v -0.952942 -0.807894 -1.846907
v -0.950886 -0.808341 -1.847566
v -0.950886 -0.814237 -1.843085
v -0.950886 -0.819613 -1.837991
v -0.950886 -0.824408 -1.832347
v -0.950886 -0.828564 -1.826217
v -0.948681 -0.828564 -1.826217
v -0.948681 -0.824408 -1.832347
v -0.948681 -0.819613 -1.837991
v -0.948681 -0.814237 -1.843085
v -0.948681 -0.808341 -1.847566
v -0.946625 -0.827882 -1.825806
v -0.946625 -0.823774 -1.831865
v -0.946625 -0.819035 -1.837444
v -0.946625 -0.813721 -1.842478
v -0.946625 -0.807894 -1.846907
v -0.944995 -0.807060 -1.845678
v -0.944995 -0.812759 -1.841345
v -0.944995 -0.817957 -1.836422
v -0.944995 -0.822591 -1.830966
v -0.944995 -0.826609 -1.825041
v -0.944012 -0.824917 -1.824023
v -0.944012 -0.816524 -1.835065
v -0.944012 -0.805953 -1.844044
v -0.943809 -0.823036 -1.822891
v -0.943809 -0.804720 -1.842227
v -0.944412 -0.803530 -1.840471
v -0.944412 -0.813390 -1.832096
v -0.944412 -0.821219 -1.821798
v -0.945741 -0.819711 -1.820890
v -0.945741 -0.816183 -1.826094
v -0.945741 -0.812113 -1.830886
v -0.945741 -0.807548 -1.835210
v -0.945741 -0.802543 -1.839015
v -0.947616 -0.818717 -1.820292
v -0.947616 -0.815259 -1.825392
v -0.947616 -0.811270 -1.830088
v -0.947616 -0.806797 -1.834325
v -0.947616 -0.801891 -1.838054
v -0.945741 -0.802543 -1.839015
v -0.947616 -0.801891 -1.838054
v -0.945741 -0.819711 -1.820890
v -0.947616 -0.818717 -1.820292
v -0.955554 -0.824917 -1.824023
v -0.954571 -0.826609 -1.825041
v -0.955554 -0.805953 -1.844044
v -0.954571 -0.807060 -1.845678
v -0.946625 -0.827882 -1.825806
v -0.944995 -0.826609 -1.825041
v -0.946625 -0.807894 -1.846907
v -0.944995 -0.807060 -1.845678
v -0.955154 -0.821219 -1.821798
v -0.955758 -0.823036 -1.822891
v -0.955758 -0.804720 -1.842227
v -0.955154 -0.803530 -1.840471
v -0.950886 -0.828564 -1.826217
v -0.948681 -0.828564 -1.826217
v -0.950886 -0.808341 -1.847566
v -0.948681 -0.808341 -1.847566
v -0.944412 -0.803530 -1.840471
v -0.944012 -0.805953 -1.844044
v -0.943809 -0.804720 -1.842227
v -0.944012 -0.824917 -1.824023
v -0.943809 -0.823036 -1.822891
v -0.944412 -0.821219 -1.821798
v -0.949783 -0.818369 -1.820083
v -0.949783 -0.801664 -1.837719
v -0.951951 -0.801891 -1.838054
v -0.951951 -0.818717 -1.820292
v -0.952942 -0.807894 -1.846907
v -0.952942 -0.827882 -1.825806
v -0.953825 -0.802543 -1.839015
v -0.953825 -0.819711 -1.820890
vn -0.6680 0.6070 0.4305
vn -0.5872 0.6550 0.4755
vn -0.7820 0.4490 0.4322
vn -0.9971 0.0460 0.0608
vn -0.9971 0.0632 0.0427
vn 0.1824 -0.5950 -0.7828
vn -0.1826 -0.6365 -0.7493
vn -0.1824 -0.5950 -0.7828
vn 0.5239 -0.5529 -0.6480
vn 0.7555 -0.4757 -0.4506
vn 0.5238 -0.6770 -0.5170
vn 0.8160 -0.4196 -0.3976
vn 0.1826 -0.7827 -0.5950
vn 0.1826 -0.7138 -0.6761
vn -0.0000 0.6474 0.7622
vn 0.3634 0.6764 0.6407
vn 0.3634 0.6031 0.7101
vn -0.5238 -0.6770 -0.5170
vn -0.7988 -0.4913 -0.3472
vn -0.9096 -0.3307 -0.2514
vn -0.7605 -0.4714 -0.4466
vn -0.9587 -0.2236 -0.1756
vn 0.1826 -0.6365 -0.7493
vn -0.1826 -0.7138 -0.6761
vn 0.1824 -0.8138 -0.5518
vn -0.1824 -0.8138 -0.5518
vn -0.1826 -0.7827 -0.5950
vn 0.5872 0.6334 0.5039
vn 0.6730 0.5425 0.5028
vn -0.5872 0.5374 0.6053
vn -0.8954 0.2798 0.3463
vn -0.6730 0.5314 0.5145
vn -0.0000 0.6052 0.7961
vn -0.3634 0.6031 0.7101
vn -0.8160 -0.4196 -0.3976
vn 0.5872 0.5103 0.6283
vn -0.9587 -0.1874 -0.2137
vn -0.6763 0.4458 0.5864
vn -0.3630 0.5639 0.7418
vn -0.3634 0.7417 0.5638
vn -0.3629 0.7713 0.5229
vn -0.3634 0.6764 0.6407
vn -0.5238 -0.5529 -0.6480
vn 0.9971 0.0633 0.0426
vn 0.9971 0.0460 0.0609
vn 0.7820 0.4559 0.4250
vn -0.7988 -0.3733 -0.4718
vn -0.9698 -0.1770 -0.1676
vn -0.0000 0.7961 0.6052
vn -0.0000 0.8277 0.5612
vn 0.6680 0.4627 0.5828
vn 0.8954 0.3610 0.2607
vn -0.0000 0.7260 0.6877
vn 0.7988 -0.3723 -0.4726
vn 0.8246 -0.3608 -0.4357
vn 0.9716 -0.1717 -0.1627
vn 0.7988 -0.4921 -0.3462
vn 0.8246 -0.4546 -0.3367
vn 0.9587 -0.2236 -0.1756
vn 0.9587 -0.1874 -0.2137
vn 0.3630 0.5639 0.7418
vn 0.3629 0.7713 0.5229
vn 0.3634 0.7417 0.5638
vn 0.6763 0.6097 0.4134
vn -0.9096 -0.2690 -0.3166
vn -0.0000 0.8277 -0.5612
vn -0.0000 -0.5156 0.8569
vn -0.0000 -0.5155 0.8569
vn -0.8992 0.3483 0.2648
vn -0.5231 -0.7054 -0.4783
vn 0.5231 -0.7054 -0.4783
vn 0.5231 -0.5158 -0.6785
vn 0.8992 0.2832 0.3335
vn -0.5230 -0.5158 -0.6785
vn -0.0001 0.8276 -0.5612
vn -0.0001 0.8278 -0.5610
vn 0.0001 0.8276 -0.5613
vn -0.0000 0.8276 -0.5613
vn -0.0000 0.8278 -0.5610
vn 0.0001 0.8277 -0.5612
vn 0.0001 0.8278 -0.5611
vn 0.0002 0.8276 -0.5613
vn 0.0002 -0.5155 0.8569
vn -0.0001 -0.5156 0.8568
vn -0.0000 -0.5156 0.8568
vn 0.0003 -0.5156 0.8568
vn 0.0003 -0.5155 0.8569
vn -0.0000 -0.5153 0.8570
s 1
f 105//1 12//2 17//3
f 86//4 85//5 17//3
f 91//6 35//7 90//8
f 47//9 51//10 45//11
f 46//12 40//13 41//14
f 7//15 69//16 70//17
f 30//18 77//19 25//20
f 26//21 77//19 76//22
f 42//23 36//24 35//7
f 45//11 89//25 40//13
f 40//13 88//26 37//27
f 69//16 63//28 64//29
f 14//30 87//31 13//32
f 99//33 8//34 7//15
f 47//9 41//14 42//23
f 91//6 47//9 42//23
f 31//35 35//7 36//24
f 70//17 64//29 65//36
f 78//37 76//22 85//5
f 104//38 8//34 100//39
f 4//40 105//1 101//41
f 13//32 4//40 6//42
f 32//43 30//18 26//21
f 96//44 94//45 60//46
f 79//47 26//21 22//48
f 3//49 101//41 98//50
f 37//27 31//35 36//24
f 72//51 65//36 60//46
f 63//28 97//52 64//29
f 7//15 6//42 5//53
f 14//30 6//42 8//34
f 47//9 83//54 50//55
f 41//14 37//27 36//24
f 88//26 30//18 37//27
f 72//51 70//17 65//36
f 32//43 90//8 35//7
f 55//56 81//57 52//58
f 55//56 50//55 83//54
f 95//59 93//60 94//45
f 99//33 70//17 73//61
f 3//49 75//62 68//63
f 81//57 45//11 52//58
f 5//53 68//63 69//16
f 5//53 4//40 3//49
f 68//63 74//64 63//28
f 79//47 32//43 27//65
f 59//66 28//66 15//66
f 67//67 29//67 53//68
f 17//3 84//69 105//1
f 12//2 13//32 17//3
f 85//5 84//69 17//3
f 17//3 87//31 86//4
f 91//6 42//23 35//7
f 45//11 46//12 47//9
f 47//9 50//55 51//10
f 51//10 52//58 45//11
f 46//12 45//11 40//13
f 7//15 5//53 69//16
f 30//18 103//70 77//19
f 76//22 22//48 26//21
f 26//21 25//20 77//19
f 42//23 41//14 36//24
f 45//11 80//71 89//25
f 40//13 89//25 88//26
f 69//16 68//63 63//28
f 14//30 104//38 87//31
f 87//31 17//3 13//32
f 99//33 100//39 8//34
f 47//9 46//12 41//14
f 91//6 82//72 47//9
f 31//35 32//43 35//7
f 70//17 69//16 64//29
f 85//5 86//4 78//37
f 78//37 22//48 76//22
f 104//38 14//30 8//34
f 4//40 12//2 105//1
f 13//32 12//2 4//40
f 26//21 27//65 32//43
f 32//43 31//35 30//18
f 30//18 25//20 26//21
f 94//45 92//73 60//46
f 60//46 97//52 96//44
f 22//48 78//37 79//47
f 79//47 27//65 26//21
f 3//49 4//40 101//41
f 37//27 30//18 31//35
f 60//46 92//73 72//51
f 65//36 64//29 60//46
f 63//28 74//64 97//52
f 97//52 60//46 64//29
f 7//15 8//34 6//42
f 14//30 13//32 6//42
f 47//9 82//72 83//54
f 41//14 40//13 37//27
f 88//26 103//70 30//18
f 72//51 73//61 70//17
f 32//43 102//74 90//8
f 52//58 51//10 55//56
f 55//56 95//59 81//57
f 83//54 93//60 55//56
f 55//56 51//10 50//55
f 94//45 96//44 95//59
f 95//59 55//56 93//60
f 99//33 7//15 70//17
f 3//49 98//50 75//62
f 81//57 80//71 45//11
f 5//53 3//49 68//63
f 5//53 6//42 4//40
f 68//63 75//62 74//64
f 79//47 102//74 32//43
f 71//75 66//76 59//66
f 59//66 58//66 56//66
f 56//66 49//77 48//66
f 48//66 43//78 34//66
f 34//66 33//79 28//66
f 28//66 21//66 20//80
f 20//80 16//81 15//66
f 15//66 10//82 9//66
f 9//66 71//75 59//66
f 59//66 56//66 48//66
f 48//66 34//66 28//66
f 28//66 20//80 15//66
f 15//66 9//66 59//66
f 59//66 48//66 28//66
f 61//83 62//84 67//67
f 67//67 1//68 2//85
f 2//85 11//86 18//67
f 18//67 19//87 23//67
f 23//67 24//68 29//67
f 29//67 38//85 39//67
f 39//67 44//88 53//68
f 53//68 54//86 57//67
f 57//67 61//83 67//67
f 67//67 2//85 18//67
f 18//67 23//67 29//67
f 29//67 39//67 53//68
f 53//68 57//67 67//67
f 67//67 18//67 29//67
