# Blender 3.4.1
# www.blender.org
o Handle_2_vis
v -0.949783 -0.733380 -1.834016
v -0.951951 -0.733117 -1.834325
v -0.949783 -0.728938 -1.829809
v -0.951951 -0.728644 -1.830088
v -0.949783 -0.724978 -1.825147
v -0.951951 -0.724655 -1.825392
v -0.949783 -0.721545 -1.820083
v -0.951951 -0.721197 -1.820292
v -0.949783 -0.718679 -1.814678
v -0.951951 -0.718311 -1.814848
v -0.953825 -0.732366 -1.835210
v -0.953825 -0.727801 -1.830886
v -0.953825 -0.723731 -1.826094
v -0.953825 -0.720203 -1.820890
v -0.953825 -0.717258 -1.815336
v -0.955154 -0.715661 -1.816074
v -0.955154 -0.722330 -1.827159
v -0.955154 -0.731227 -1.836551
v -0.955758 -0.729854 -1.838168
v -0.955758 -0.713736 -1.816965
v -0.955554 -0.711743 -1.817887
v -0.955554 -0.718894 -1.829771
v -0.955554 -0.728432 -1.839841
v -0.954571 -0.727154 -1.841345
v -0.954571 -0.717322 -1.830966
v -0.954571 -0.709952 -1.818716
v -0.952942 -0.726193 -1.842478
v -0.952942 -0.720879 -1.837444
v -0.952942 -0.716140 -1.831865
v -0.952942 -0.712032 -1.825806
v -0.952942 -0.708604 -1.819339
v -0.950886 -0.707881 -1.819674
v -0.950886 -0.711350 -1.826217
v -0.950886 -0.715506 -1.832347
v -0.950886 -0.720300 -1.837991
v -0.950886 -0.725677 -1.843085
v -0.948681 -0.725677 -1.843085
v -0.948681 -0.720300 -1.837991
v -0.948681 -0.715506 -1.832347
v -0.948681 -0.711350 -1.826217
v -0.948681 -0.707881 -1.819674
v -0.946625 -0.726193 -1.842478
v -0.946625 -0.720879 -1.837444
v -0.946625 -0.716140 -1.831865
v -0.946625 -0.712032 -1.825806
v -0.946625 -0.708604 -1.819339
v -0.944995 -0.709952 -1.818716
v -0.944995 -0.717322 -1.830966
v -0.944995 -0.727154 -1.841345
v -0.944012 -0.728432 -1.839841
v -0.944012 -0.718894 -1.829771
v -0.944012 -0.711743 -1.817887
v -0.943809 -0.729854 -1.838168
v -0.943809 -0.713736 -1.816965
v -0.944412 -0.715661 -1.816074
v -0.944412 -0.722330 -1.827159
v -0.944412 -0.731227 -1.836551
v -0.945741 -0.732366 -1.835210
v -0.945741 -0.727801 -1.830886
v -0.945741 -0.723731 -1.826094
v -0.945741 -0.720203 -1.820890
v -0.945741 -0.717258 -1.815336
v -0.947616 -0.733117 -1.834325
v -0.947616 -0.728644 -1.830088
v -0.947616 -0.724655 -1.825392
v -0.947616 -0.721197 -1.820292
v -0.947616 -0.718311 -1.814848
v -0.945741 -0.717258 -1.815336
v -0.947616 -0.718311 -1.814848
v -0.945741 -0.732366 -1.835210
v -0.947616 -0.733117 -1.834325
v -0.955554 -0.728432 -1.839841
v -0.954571 -0.727154 -1.841345
v -0.955554 -0.711743 -1.817887
v -0.954571 -0.709952 -1.818716
v -0.946625 -0.708604 -1.819339
v -0.944995 -0.709952 -1.818716
v -0.946625 -0.726193 -1.842478
v -0.944995 -0.727154 -1.841345
v -0.955758 -0.713736 -1.816965
v -0.955758 -0.729854 -1.838168
v -0.955154 -0.731227 -1.836551
v -0.955154 -0.715661 -1.816074
v -0.950886 -0.725677 -1.843085
v -0.948681 -0.725677 -1.843085
v -0.950886 -0.707881 -1.819674
v -0.948681 -0.707881 -1.819674
v -0.944412 -0.731227 -1.836551
v -0.944412 -0.715661 -1.816074
v -0.944012 -0.711743 -1.817887
v -0.943809 -0.713736 -1.816965
v -0.944012 -0.728432 -1.839841
v -0.943809 -0.729854 -1.838168
v -0.952942 -0.708604 -1.819339
v -0.949783 -0.733380 -1.834016
v -0.951951 -0.733117 -1.834325
v -0.949783 -0.718679 -1.814678
v -0.951951 -0.718311 -1.814848
v -0.952942 -0.726193 -1.842478
v -0.953825 -0.732366 -1.835210
v -0.953825 -0.717258 -1.815336
vn 0.1826 0.8424 -0.5069
vn -0.1826 0.7827 -0.5950
vn -0.1826 0.8424 -0.5069
vn 0.3634 -0.7417 0.5638
vn 0.5872 -0.5997 0.5436
vn 0.6730 -0.5839 0.4540
vn -0.0000 -0.8835 0.4684
vn -0.3634 -0.7983 0.4803
vn -0.0000 -0.8569 0.5155
vn -0.3634 -0.6764 0.6407
vn -0.6680 -0.5230 0.5293
vn -0.3629 -0.6408 0.6765
vn 0.6681 -0.6499 0.3623
vn 0.3634 -0.7983 0.4803
vn 0.5874 -0.7025 0.4019
vn 0.5344 0.6729 -0.5115
vn 0.5332 0.7381 -0.4135
vn 0.7902 0.5251 -0.3159
vn -0.5873 -0.6842 0.4324
vn -0.3634 -0.7417 0.5638
vn -0.6730 -0.5937 0.4412
vn -0.8954 -0.3870 0.2201
vn 0.1826 0.7827 -0.5950
vn -0.1826 0.7138 -0.6761
vn 0.9698 0.1941 -0.1475
vn 0.7920 0.4861 -0.3695
vn 0.3634 -0.6764 0.6407
vn 0.6763 -0.5066 0.5348
vn 0.1824 0.8687 -0.4605
vn -0.0000 -0.7961 0.6052
vn -0.0000 -0.7260 0.6877
vn 0.8954 -0.3156 0.3140
vn -0.9968 -0.0586 0.0544
vn -0.7819 -0.4993 0.3732
vn -0.9971 -0.0675 0.0356
vn -0.8160 0.4196 -0.3976
vn -0.5873 -0.5752 0.5694
vn -0.5332 0.5959 -0.6005
vn -0.1824 0.6762 -0.7138
vn 0.7902 0.4449 -0.4215
vn 0.9587 0.2095 -0.1922
vn 0.3630 -0.8232 0.4365
vn -0.7920 0.4861 -0.3695
vn -0.9580 0.2082 -0.1973
vn -0.9648 0.2105 -0.1578
vn 0.1826 0.7138 -0.6761
vn -0.0000 -0.6877 0.7260
vn -0.7902 0.5251 -0.3159
vn -0.5343 0.6729 -0.5115
vn 0.7820 -0.4932 0.3812
vn -0.1823 0.8687 -0.4605
vn 0.9587 0.2412 -0.1504
vn 0.9971 -0.0675 0.0356
vn -0.6763 -0.6508 0.3450
vn -0.3630 -0.8233 0.4365
vn -0.5332 0.7381 -0.4135
vn 0.9971 -0.0523 0.0555
vn 0.8160 0.4196 -0.3976
vn 0.1824 0.6762 -0.7138
vn -0.8160 0.4954 -0.2980
vn 0.5332 0.5959 -0.6005
vn 0.3629 -0.6408 0.6765
vn -0.0000 -0.7622 -0.6474
vn -0.0000 0.4199 0.9076
vn -0.9587 0.2414 -0.1502
vn 0.8159 0.4954 -0.2980
vn -0.8992 -0.3177 0.3009
vn -0.7902 0.4449 -0.4214
vn 0.8992 -0.3749 0.2256
vn 0.0001 -0.7621 -0.6474
vn 0.0001 -0.7623 -0.6473
vn -0.0000 -0.7622 -0.6473
vn -0.0000 -0.7621 -0.6475
vn -0.0001 -0.7621 -0.6474
vn 0.0003 -0.7621 -0.6474
vn 0.0001 -0.7622 -0.6473
vn -0.0000 -0.7620 -0.6476
vn -0.0000 -0.7621 -0.6474
vn -0.0002 0.4199 0.9076
vn 0.0003 0.4196 0.9077
vn -0.0003 0.4200 0.9075
vn -0.0003 0.4199 0.9076
vn -0.0000 0.4200 0.9075
vn -0.0003 0.4198 0.9076
vn 0.0002 0.4199 0.9076
vn 0.0001 0.4200 0.9075
s 1
f 40//1 34//2 33//3
f 65//4 59//5 60//6
f 97//7 8//8 7//9
f 4//10 100//11 96//12
f 68//13 66//14 61//15
f 44//16 76//17 77//18
f 14//19 6//20 8//8
f 13//21 14//19 83//22
f 39//23 35//24 34//2
f 77//18 51//25 48//26
f 64//27 70//28 59//5
f 76//17 40//1 87//29
f 5//30 4//10 3//31
f 60//6 59//5 88//32
f 19//33 17//34 20//35
f 28//36 34//2 35//24
f 6//20 12//37 4//10
f 99//38 35//24 84//39
f 79//40 51//25 92//41
f 100//11 12//37 17//34
f 7//9 65//4 66//14
f 69//42 7//9 66//14
f 25//43 72//44 22//45
f 61//15 65//4 60//6
f 38//46 84//39 35//24
f 4//10 95//47 3//31
f 22//45 75//48 25//43
f 40//1 44//16 39//23
f 29//49 33//3 34//2
f 61//15 56//50 68//13
f 87//29 33//3 86//51
f 92//41 90//52 91//53
f 101//54 8//8 98//55
f 65//4 3//31 64//27
f 94//56 29//49 25//43
f 8//8 5//30 7//9
f 99//38 25//43 29//49
f 44//16 38//46 39//23
f 93//57 91//53 56//50
f 43//58 85//59 38//46
f 30//60 86//51 33//3
f 78//61 44//16 48//26
f 64//27 95//47 71//62
f 63//63 27//63 49//63
f 55//64 26//64 15//64
f 19//33 74//65 22//45
f 40//1 39//23 34//2
f 65//4 64//27 59//5
f 97//7 98//55 8//8
f 4//10 12//37 100//11
f 68//13 69//42 66//14
f 77//18 48//26 44//16
f 44//16 45//66 76//17
f 14//19 13//21 6//20
f 83//22 17//34 13//21
f 14//19 101//54 83//22
f 39//23 38//46 35//24
f 77//18 90//52 51//25
f 64//27 71//62 70//28
f 76//17 45//66 40//1
f 5//30 6//20 4//10
f 88//32 56//50 60//6
f 59//5 70//28 88//32
f 19//33 82//67 17//34
f 17//34 83//22 20//35
f 28//36 29//49 34//2
f 6//20 13//21 12//37
f 99//38 28//36 35//24
f 79//40 48//26 51//25
f 17//34 82//67 100//11
f 12//37 13//21 17//34
f 7//9 5//30 65//4
f 69//42 97//7 7//9
f 25//43 73//68 72//44
f 61//15 66//14 65//4
f 38//46 85//59 84//39
f 4//10 96//12 95//47
f 22//45 74//65 75//48
f 40//1 45//66 44//16
f 29//49 30//60 33//3
f 61//15 60//6 56//50
f 56//50 89//69 68//13
f 87//29 40//1 33//3
f 91//53 93//57 92//41
f 92//41 51//25 90//52
f 101//54 14//19 8//8
f 65//4 5//30 3//31
f 25//43 75//48 94//56
f 94//56 30//60 29//49
f 8//8 6//20 5//30
f 29//49 28//36 99//38
f 99//38 73//68 25//43
f 44//16 43//58 38//46
f 91//53 89//69 56//50
f 56//50 88//32 93//57
f 43//58 78//61 85//59
f 30//60 94//56 86//51
f 48//26 79//40 78//61
f 78//61 43//58 44//16
f 64//27 3//31 95//47
f 57//70 58//71 63//63
f 63//63 1//72 2//63
f 2//63 11//73 18//63
f 18//63 81//63 23//74
f 23//74 24//75 27//63
f 27//63 36//63 37//63
f 37//63 42//76 49//63
f 49//63 50//77 53//78
f 53//78 57//70 63//63
f 63//63 2//63 18//63
f 18//63 23//74 27//63
f 27//63 37//63 49//63
f 49//63 53//78 63//63
f 63//63 18//63 27//63
f 67//79 62//80 55//64
f 55//64 54//81 52//64
f 52//64 47//82 46//64
f 46//64 41//64 32//64
f 32//64 31//83 26//64
f 26//64 21//84 80//85
f 80//85 16//84 15//64
f 15//64 10//86 9//64
f 9//64 67//79 55//64
f 55//64 52//64 46//64
f 46//64 32//64 26//64
f 26//64 80//85 15//64
f 15//64 9//64 55//64
f 55//64 46//64 26//64
f 22//45 72//44 19//33
f 19//33 20//35 74//65
