# Blender 3.4.1
# www.blender.org
o Handle_7_vis
v -0.947616 -0.826529 -1.797107
v -0.945741 -0.827682 -1.797232
v -0.944412 -0.829432 -1.797423
v -0.944995 -0.835685 -1.798103
v -0.951951 -0.826529 -1.797107
v -0.949783 -0.826126 -1.797063
v -0.949783 -0.825136 -1.803100
v -0.951951 -0.825532 -1.803187
v -0.949783 -0.823499 -1.808995
v -0.951951 -0.823883 -1.809124
v -0.949783 -0.821235 -1.814678
v -0.951951 -0.821603 -1.814848
v -0.949783 -0.818369 -1.820083
v -0.951951 -0.818717 -1.820292
v -0.953825 -0.827682 -1.797232
v -0.953825 -0.826665 -1.803437
v -0.953825 -0.824983 -1.809495
v -0.953825 -0.822656 -1.815336
v -0.953825 -0.819711 -1.820890
v -0.955154 -0.829432 -1.797423
v -0.955154 -0.821219 -1.821798
v -0.955154 -0.826651 -1.810057
v -0.955758 -0.831540 -1.797652
v -0.955758 -0.823036 -1.822891
v -0.955554 -0.833723 -1.797889
v -0.955554 -0.824917 -1.824023
v -0.955554 -0.832599 -1.804743
v -0.954571 -0.835685 -1.798103
v -0.954571 -0.834527 -1.805167
v -0.954571 -0.829962 -1.818716
v -0.954571 -0.826609 -1.825041
v -0.952942 -0.837162 -1.798263
v -0.952942 -0.835978 -1.805487
v -0.952942 -0.834019 -1.812540
v -0.952942 -0.831310 -1.819339
v -0.952942 -0.827882 -1.825806
v -0.950886 -0.837954 -1.798349
v -0.950886 -0.828564 -1.826217
v -0.950886 -0.832033 -1.819674
v -0.950886 -0.834774 -1.812794
v -0.950886 -0.836756 -1.805658
v -0.948681 -0.837954 -1.798349
v -0.948681 -0.836756 -1.805658
v -0.948681 -0.834774 -1.812794
v -0.948681 -0.832033 -1.819674
v -0.948681 -0.828564 -1.826217
v -0.946625 -0.837162 -1.798263
v -0.946625 -0.835978 -1.805487
v -0.946625 -0.834019 -1.812540
v -0.946625 -0.831310 -1.819339
v -0.946625 -0.827882 -1.825806
v -0.944995 -0.826609 -1.825041
v -0.944995 -0.829962 -1.818716
v -0.944995 -0.834527 -1.805167
v -0.944012 -0.833723 -1.797889
v -0.944012 -0.832599 -1.804743
v -0.944012 -0.824917 -1.824023
v -0.943809 -0.831540 -1.797652
v -0.943809 -0.823036 -1.822891
v -0.944412 -0.821219 -1.821798
v -0.944412 -0.826651 -1.810057
v -0.945741 -0.826665 -1.803437
v -0.945741 -0.824983 -1.809495
v -0.945741 -0.822656 -1.815336
v -0.945741 -0.819711 -1.820890
v -0.947616 -0.825532 -1.803187
v -0.947616 -0.823883 -1.809124
v -0.947616 -0.821603 -1.814848
v -0.947616 -0.818717 -1.820292
v -0.950886 -0.837954 -1.798349
v -0.948681 -0.837954 -1.798349
v -0.945741 -0.819711 -1.820890
v -0.947616 -0.818717 -1.820292
v -0.947616 -0.826529 -1.797107
v -0.945741 -0.827682 -1.797232
v -0.949783 -0.826126 -1.797063
v -0.955554 -0.824917 -1.824023
v -0.954571 -0.826609 -1.825041
v -0.955154 -0.829432 -1.797423
v -0.955758 -0.831540 -1.797652
v -0.946625 -0.827882 -1.825806
v -0.944995 -0.826609 -1.825041
v -0.955154 -0.821219 -1.821798
v -0.955758 -0.823036 -1.822891
v -0.944412 -0.829432 -1.797423
v -0.955554 -0.833723 -1.797889
v -0.950886 -0.828564 -1.826217
v -0.948681 -0.828564 -1.826217
v -0.944012 -0.824917 -1.824023
v -0.943809 -0.823036 -1.822891
v -0.944012 -0.833723 -1.797889
v -0.943809 -0.831540 -1.797652
v -0.944412 -0.821219 -1.821798
v -0.949783 -0.818369 -1.820083
v -0.952942 -0.837162 -1.798263
v -0.951951 -0.818717 -1.820292
v -0.951951 -0.826529 -1.797107
v -0.953825 -0.827682 -1.797232
v -0.944995 -0.835685 -1.798103
v -0.946625 -0.837162 -1.798263
v -0.952942 -0.827882 -1.825806
v -0.954571 -0.835685 -1.798103
v -0.953825 -0.819711 -1.820890
vn 0.1826 -0.8923 -0.4128
vn 0.8159 -0.5479 -0.1846
vn 0.1826 -0.9317 -0.3139
vn -0.3629 0.8233 0.4365
vn -0.0000 0.9076 0.4199
vn -0.0000 0.8835 0.4684
vn 0.1826 -0.9602 -0.2114
vn -0.1824 -0.9703 -0.1591
vn -0.1826 -0.9602 -0.2114
vn 0.6730 0.7035 0.2285
vn 0.5872 0.7865 0.1913
vn 0.8954 0.4370 0.0850
vn 0.5231 -0.8411 -0.1379
vn 0.7956 -0.5866 -0.1516
vn 0.7945 -0.5992 -0.0982
vn -0.5290 -0.8267 -0.1918
vn -0.1826 -0.9317 -0.3139
vn 0.3634 0.8455 0.3912
vn 0.5873 0.7269 0.3559
vn 0.5289 -0.7742 -0.3477
vn 0.8029 -0.5368 -0.2590
vn 0.9070 -0.3871 -0.1661
vn -0.5873 0.7941 0.1566
vn -0.3629 0.9195 0.1508
vn -0.3634 0.9099 0.2003
vn -0.0000 0.9477 0.3193
vn 0.3634 0.9099 0.2003
vn 0.3634 0.8829 0.2975
vn -0.6730 0.6983 0.2438
vn -0.5872 0.7419 0.3237
vn -0.8954 0.3994 0.1968
vn -0.1826 -0.8923 -0.4128
vn -0.5231 -0.7530 -0.3992
vn -0.1824 -0.8687 -0.4605
vn 0.3629 0.9195 0.1508
vn 0.6763 0.7269 0.1192
vn -0.7820 0.5891 0.2038
vn -0.6680 0.7316 0.1358
vn -0.9971 0.0754 0.0122
vn -0.9971 0.0673 0.0359
vn -0.8030 -0.5368 -0.2590
vn -0.5289 -0.7742 -0.3477
vn -0.9069 -0.3871 -0.1661
vn -0.9560 -0.2734 -0.1065
vn -0.9612 -0.2709 -0.0512
vn -0.3634 0.8829 0.2975
vn 0.5290 -0.8267 -0.1918
vn 0.9556 -0.2737 -0.1091
vn -0.7956 -0.5866 -0.1516
vn -0.5231 -0.8411 -0.1379
vn -0.7946 -0.5992 -0.0982
vn 0.1824 -0.9703 -0.1591
vn 0.9971 0.0753 0.0122
vn 0.9969 0.0702 0.0342
vn 0.7820 0.5922 0.1943
vn 0.3629 0.8233 0.4365
vn 0.6680 0.6647 0.3347
vn -0.0000 0.9868 0.1618
vn -0.0000 0.9766 0.2150
vn 0.5231 -0.7530 -0.3992
vn 0.1824 -0.8687 -0.4605
vn -0.3634 0.8455 0.3912
vn 0.9612 -0.2711 -0.0508
vn 0.9658 -0.2499 -0.0689
vn -0.9697 -0.2350 -0.0662
vn -0.0000 0.5156 -0.8569
vn -0.0000 0.5155 -0.8569
vn -0.0000 -0.1081 0.9941
vn -0.8160 -0.5478 -0.1846
vn -0.6763 0.6508 0.3451
vn -0.8992 0.4274 0.0941
vn 0.8992 0.3971 0.1837
vn -0.0000 0.5156 -0.8568
vn 0.0003 0.5156 -0.8568
vn 0.0003 0.5155 -0.8569
vn -0.0000 0.5153 -0.8570
vn 0.0003 0.5154 -0.8569
vn -0.0001 0.5156 -0.8568
vn 0.0001 0.5156 -0.8568
vn -0.0001 -0.1082 0.9941
vn -0.0000 -0.1080 0.9941
vn 0.0003 -0.1083 0.9941
vn 0.0001 -0.1081 0.9941
vn -0.0000 -0.1082 0.9941
vn 0.0001 -0.1082 0.9941
vn -0.0001 -0.1081 0.9941
vn -0.0003 -0.1082 0.9941
s 1
f 45//1 49//2 44//3
f 96//4 11//5 94//6
f 43//7 70//8 41//9
f 63//10 62//11 85//12
f 100//13 54//14 99//15
f 33//16 40//17 41//9
f 68//18 63//10 64//19
f 50//20 82//21 53//22
f 16//23 97//24 8//25
f 9//26 66//27 67//28
f 17//29 18//30 83//31
f 39//32 101//33 87//34
f 45//1 40//17 39//32
f 62//11 74//35 75//36
f 16//23 22//37 98//38
f 80//39 22//37 84//40
f 78//41 35//42 30//43
f 77//44 86//45 80//39
f 10//46 16//23 8//25
f 44//3 48//47 43//7
f 54//14 82//21 89//48
f 67//28 62//11 63//10
f 29//49 95//50 102//51
f 43//7 100//13 71//52
f 92//53 90//54 61//55
f 68//18 9//26 67//28
f 44//3 41//9 40//17
f 73//56 64//19 72//57
f 50//20 54//14 48//47
f 11//5 10//46 9//26
f 66//27 76//58 74//35
f 7//59 97//24 76//58
f 81//60 45//1 88//61
f 29//49 77//44 78//41
f 96//4 18//30 12//62
f 95//50 41//9 70//8
f 33//16 30//43 35//42
f 90//54 91//63 56//64
f 54//14 91//63 99//15
f 29//49 86//45 27//65
f 40//17 35//42 39//32
f 73//56 11//5 68//18
f 88//61 39//32 87//34
f 9//26 8//25 7//59
f 12//62 17//29 10//46
f 72//57 64//19 61//55
f 60//66 31//67 19//66
f 42//68 6//68 23//68
f 45//1 50//20 49//2
f 96//4 12//62 11//5
f 43//7 71//52 70//8
f 85//12 61//55 63//10
f 62//11 75//36 85//12
f 100//13 48//47 54//14
f 33//16 34//69 40//17
f 68//18 67//28 63//10
f 50//20 81//60 82//21
f 16//23 98//38 97//24
f 9//26 7//59 66//27
f 83//31 22//37 17//29
f 18//30 103//70 83//31
f 39//32 35//42 101//33
f 45//1 44//3 40//17
f 62//11 66//27 74//35
f 16//23 17//29 22//37
f 22//37 79//71 98//38
f 80//39 79//71 22//37
f 22//37 83//31 84//40
f 78//41 101//33 35//42
f 80//39 84//40 77//44
f 77//44 27//65 86//45
f 10//46 17//29 16//23
f 44//3 49//2 48//47
f 89//48 56//64 54//14
f 54//14 53//22 82//21
f 67//28 66//27 62//11
f 29//49 33//16 95//50
f 43//7 48//47 100//13
f 90//54 93//72 61//55
f 61//55 85//12 92//53
f 68//18 11//5 9//26
f 44//3 43//7 41//9
f 73//56 68//18 64//19
f 48//47 49//2 50//20
f 50//20 53//22 54//14
f 11//5 12//62 10//46
f 66//27 7//59 76//58
f 7//59 8//25 97//24
f 81//60 50//20 45//1
f 78//41 30//43 29//49
f 29//49 27//65 77//44
f 96//4 103//70 18//30
f 95//50 33//16 41//9
f 35//42 34//69 33//16
f 33//16 29//49 30//43
f 56//64 89//48 90//54
f 90//54 92//53 91//63
f 54//14 56//64 91//63
f 29//49 102//51 86//45
f 40//17 34//69 35//42
f 73//56 94//6 11//5
f 88//61 45//1 39//32
f 9//26 10//46 8//25
f 12//62 18//30 17//29
f 61//55 93//72 72//57
f 64//19 63//10 61//55
f 69//73 65//74 60//66
f 60//66 59//75 57//66
f 57//66 52//67 51//67
f 51//67 46//73 38//66
f 38//66 36//76 31//67
f 31//67 26//77 24//78
f 24//78 21//75 19//66
f 19//66 14//79 13//73
f 13//73 69//73 60//66
f 60//66 57//66 51//67
f 51//67 38//66 31//67
f 31//67 24//78 19//66
f 19//66 13//73 60//66
f 60//66 51//67 31//67
f 32//80 37//81 42//68
f 42//68 47//82 4//83
f 4//83 55//84 58//68
f 58//68 3//68 2//83
f 2//83 1//85 6//68
f 6//68 5//84 15//86
f 15//86 20//81 23//68
f 23//68 25//87 28//86
f 28//86 32//80 42//68
f 42//68 4//83 58//68
f 58//68 2//83 6//68
f 6//68 15//86 23//68
f 23//68 28//86 42//68
f 42//68 58//68 6//68
