# Blender 3.4.1
# www.blender.org
o Handle_base_phy
v -0.964783 -0.707457 -1.760954
v -0.964783 -0.707457 -1.750954
v -0.964049 -0.702822 -1.750954
v -0.964049 -0.702822 -1.760954
v -0.961918 -0.698640 -1.750954
v -0.961918 -0.698640 -1.760954
v -0.958600 -0.695322 -1.750954
v -0.958600 -0.695322 -1.760954
v -0.954418 -0.693191 -1.750954
v -0.954418 -0.693191 -1.760954
v -0.949783 -0.692457 -1.750954
v -0.949783 -0.692457 -1.760954
v -0.945148 -0.693191 -1.750954
v -0.945148 -0.693191 -1.760954
v -0.940966 -0.695322 -1.750954
v -0.940966 -0.695322 -1.760954
v -0.937648 -0.698640 -1.750954
v -0.937648 -0.698640 -1.760954
v -0.935517 -0.702822 -1.750954
v -0.935517 -0.702822 -1.760954
v -0.934783 -0.707457 -1.750954
v -0.934783 -0.707457 -1.760954
v -0.934783 -0.832457 -1.760954
v -0.934783 -0.832457 -1.750954
v -0.935517 -0.837092 -1.750954
v -0.935517 -0.837092 -1.760954
v -0.937648 -0.841274 -1.750954
v -0.937648 -0.841274 -1.760954
v -0.940966 -0.844592 -1.750954
v -0.940966 -0.844592 -1.760954
v -0.945148 -0.846723 -1.750954
v -0.945148 -0.846723 -1.760954
v -0.949783 -0.847457 -1.750954
v -0.949783 -0.847457 -1.760954
v -0.954418 -0.846723 -1.750954
v -0.954418 -0.846723 -1.760954
v -0.958600 -0.844592 -1.750954
v -0.958600 -0.844592 -1.760954
v -0.961918 -0.841274 -1.750954
v -0.961918 -0.841274 -1.760954
v -0.964049 -0.837092 -1.750954
v -0.964049 -0.837092 -1.760954
v -0.964783 -0.832457 -1.750954
v -0.964783 -0.832457 -1.760954
vn -0.8910 -0.4540 -0.0000
vn -0.7071 -0.7071 -0.0000
vn 0.8910 -0.4540 -0.0000
vn -0.0000 -0.0000 1.0000
vn 0.7071 0.7071 -0.0000
vn 0.4540 0.8910 -0.0000
vn 0.4540 -0.8910 -0.0000
vn -0.0000 -0.0000 -1.0000
vn -0.4540 0.8910 -0.0000
vn -0.7071 0.7071 -0.0000
vn 1.0000 -0.0000 -0.0000
vn -0.1564 -0.9877 -0.0000
vn 0.1564 0.9877 -0.0000
vn -0.1564 0.9877 -0.0000
vn 0.9877 -0.1564 -0.0000
vn -0.4540 -0.8910 -0.0000
vn -1.0000 -0.0000 -0.0000
vn -0.9877 -0.1564 -0.0000
vn 0.8910 0.4540 -0.0000
vn 0.1564 -0.9877 -0.0000
vn -0.8910 0.4540 -0.0000
vn -0.9877 0.1564 -0.0000
vn 0.9877 0.1564 -0.0000
vn 0.7071 -0.7071 -0.0000
vn -0.0001 -0.0000 1.0000
vn 0.0001 -0.0000 1.0000
vn 0.0002 -0.0000 1.0000
vn -0.0003 -0.0000 1.0000
vn 0.0001 -0.0000 -1.0000
vn -0.0002 -0.0000 -1.0000
vn -0.0001 -0.0000 -1.0000
vn 0.0003 -0.0000 -1.0000
s 0
f 40//1 41//1 42//1
f 38//2 39//2 40//2
f 26//3 27//3 28//3
f 31//4 15//4 43//4
f 16//5 17//5 18//5
f 14//6 15//6 16//6
f 30//7 31//7 32//7
f 10//8 26//8 42//8
f 8//9 9//9 10//9
f 6//10 7//10 8//10
f 22//11 24//11 23//11
f 34//12 35//12 36//12
f 12//13 13//13 14//13
f 10//14 11//14 12//14
f 23//15 25//15 26//15
f 36//16 37//16 38//16
f 44//17 2//17 1//17
f 42//18 43//18 44//18
f 18//19 19//19 20//19
f 32//20 33//20 34//20
f 4//21 5//21 6//21
f 1//22 3//22 4//22
f 20//23 21//23 22//23
f 28//24 29//24 30//24
f 40//1 39//1 41//1
f 38//2 37//2 39//2
f 26//3 25//3 27//3
f 39//25 37//25 35//25
f 35//4 33//4 31//4
f 31//4 29//4 27//4
f 27//26 25//26 24//26
f 24//27 21//27 19//27
f 19//25 17//25 15//25
f 15//4 13//4 11//4
f 11//4 9//4 7//4
f 7//26 5//26 3//26
f 3//28 2//28 43//28
f 43//25 41//25 39//25
f 39//4 35//4 31//4
f 31//4 27//4 24//4
f 24//4 19//4 15//4
f 15//4 11//4 7//4
f 7//4 3//4 43//4
f 43//4 39//4 31//4
f 31//4 24//4 15//4
f 15//4 7//4 43//4
f 16//5 15//5 17//5
f 14//6 13//6 15//6
f 30//7 29//7 31//7
f 1//8 4//8 6//8
f 6//29 8//29 10//29
f 10//8 12//8 14//8
f 14//8 16//8 18//8
f 18//8 20//8 22//8
f 22//30 23//30 26//30
f 26//29 28//29 30//29
f 30//8 32//8 34//8
f 34//8 36//8 38//8
f 38//31 40//31 42//31
f 42//32 44//32 1//32
f 1//8 6//8 10//8
f 10//8 14//8 18//8
f 18//29 22//29 26//29
f 26//8 30//8 34//8
f 34//8 38//8 42//8
f 42//8 1//8 10//8
f 10//8 18//8 26//8
f 26//8 34//8 42//8
f 8//9 7//9 9//9
f 6//10 5//10 7//10
f 22//11 21//11 24//11
f 34//12 33//12 35//12
f 12//13 11//13 13//13
f 10//14 9//14 11//14
f 23//15 24//15 25//15
f 36//16 35//16 37//16
f 44//17 43//17 2//17
f 42//18 41//18 43//18
f 18//19 17//19 19//19
f 32//20 31//20 33//20
f 4//21 3//21 5//21
f 1//22 2//22 3//22
f 20//23 19//23 21//23
f 28//24 27//24 29//24
