# Blender 3.4.1
# www.blender.org
o Handle_5_phy
v -0.949783 -0.801664 -1.837719
v -0.951951 -0.801891 -1.838054
v -0.949783 -0.779098 -1.846710
v -0.951951 -0.779163 -1.847110
v -0.953825 -0.802543 -1.839015
v -0.953825 -0.779351 -1.848255
v -0.955154 -0.779636 -1.849992
v -0.955154 -0.803530 -1.840471
v -0.955758 -0.804720 -1.842227
v -0.955758 -0.779979 -1.852085
v -0.955554 -0.780334 -1.854251
v -0.955554 -0.805953 -1.844044
v -0.954571 -0.807060 -1.845678
v -0.954571 -0.780653 -1.856199
v -0.952942 -0.807894 -1.846907
v -0.952942 -0.780894 -1.857665
v -0.950886 -0.781022 -1.858451
v -0.950886 -0.808341 -1.847566
v -0.948681 -0.808341 -1.847566
v -0.948681 -0.781022 -1.858451
v -0.946625 -0.807894 -1.846907
v -0.946625 -0.780894 -1.857665
v -0.944995 -0.780653 -1.856199
v -0.944995 -0.807060 -1.845678
v -0.944012 -0.805953 -1.844044
v -0.944012 -0.780334 -1.854251
v -0.943809 -0.804720 -1.842227
v -0.943809 -0.779979 -1.852085
v -0.944412 -0.779636 -1.849992
v -0.944412 -0.803530 -1.840471
v -0.945741 -0.802543 -1.839015
v -0.945741 -0.779351 -1.848255
v -0.947616 -0.801891 -1.838054
v -0.947616 -0.779163 -1.847110
vn -0.7911 0.2264 0.5682
vn -0.5176 0.3167 0.7948
vn 0.1796 0.3641 0.9139
vn 0.5176 0.3167 0.7949
vn -0.1796 0.3641 0.9139
vn 0.7911 0.2264 0.5682
vn -0.6649 -0.2764 -0.6939
vn -0.8909 -0.1681 -0.4220
vn -0.9955 -0.0349 -0.0878
vn -0.9601 0.1035 0.2599
vn -0.0000 -0.8277 0.5612
vn 0.9601 0.1035 0.2598
vn 0.9955 -0.0350 -0.0878
vn 0.6649 -0.2764 -0.6939
vn 0.8909 -0.1681 -0.4219
vn -0.0000 0.9868 -0.1618
vn 0.3539 -0.3462 -0.8688
vn -0.0000 -0.3701 -0.9290
vn -0.3538 -0.3462 -0.8689
vn -0.7911 0.2264 0.5683
vn -0.5174 0.3167 0.7950
vn 0.1795 0.3641 0.9139
vn 0.5174 0.3167 0.7950
vn 0.7911 0.2264 0.5683
vn -0.6649 -0.2765 -0.6938
vn -0.8909 -0.1682 -0.4220
vn -0.9955 -0.0350 -0.0878
vn -0.9601 0.1035 0.2598
vn -0.0000 -0.8277 0.5611
vn 0.0003 -0.8277 0.5612
vn 0.0001 -0.8276 0.5613
vn 0.0001 -0.8278 0.5610
vn 0.0003 -0.8276 0.5613
vn 0.9601 0.1035 0.2599
vn 0.6649 -0.2765 -0.6939
vn 0.8909 -0.1682 -0.4220
vn -0.0001 0.9868 -0.1618
vn -0.0000 0.9868 -0.1617
vn 0.0001 0.9868 -0.1619
vn -0.0000 0.9868 -0.1619
vn 0.3538 -0.3462 -0.8689
vn -0.3539 -0.3462 -0.8689
s 0
f 8//1 6//1 7//1
f 6//2 2//2 4//2
f 1//3 34//3 3//3
f 33//4 32//4 34//4
f 2//5 3//5 4//5
f 32//6 30//6 29//6
f 15//7 14//7 16//7
f 13//8 11//8 14//8
f 11//9 9//9 10//9
f 10//10 8//10 7//10
f 33//11 15//11 24//11
f 29//12 27//12 28//12
f 27//13 26//13 28//13
f 23//14 21//14 22//14
f 26//15 24//15 23//15
f 10//16 28//16 20//16
f 21//17 20//17 22//17
f 19//18 17//18 20//18
f 18//19 16//19 17//19
f 8//20 5//20 6//20
f 6//21 5//21 2//21
f 1//22 33//22 34//22
f 33//23 31//23 32//23
f 2//5 1//5 3//5
f 32//24 31//24 30//24
f 15//25 13//25 14//25
f 13//26 12//26 11//26
f 11//27 12//27 9//27
f 10//28 9//28 8//28
f 30//29 31//29 33//29
f 33//29 1//29 2//29
f 2//29 5//29 8//29
f 8//30 9//30 12//30
f 12//31 13//31 15//31
f 15//11 18//11 19//11
f 19//32 21//32 24//32
f 24//33 25//33 27//33
f 27//29 30//29 33//29
f 33//11 2//11 8//11
f 8//11 12//11 15//11
f 15//11 19//11 24//11
f 24//11 27//11 33//11
f 33//11 8//11 15//11
f 29//34 30//34 27//34
f 27//13 25//13 26//13
f 23//35 24//35 21//35
f 26//36 25//36 24//36
f 14//37 11//37 10//37
f 10//38 7//38 6//38
f 6//16 4//16 3//16
f 3//16 34//16 32//16
f 32//38 29//38 28//38
f 28//39 26//39 23//39
f 23//40 22//40 20//40
f 20//40 17//40 16//40
f 16//16 14//16 10//16
f 10//16 6//16 3//16
f 3//16 32//16 28//16
f 28//16 23//16 20//16
f 20//16 16//16 10//16
f 10//16 3//16 28//16
f 21//41 19//41 20//41
f 19//18 18//18 17//18
f 18//42 15//42 16//42
