# Blender 3.4.1
# www.blender.org
o Handle_5_vis
v -0.949783 -0.801664 -1.837719
v -0.951951 -0.801891 -1.838054
v -0.949783 -0.796422 -1.840873
v -0.951951 -0.796612 -1.841231
v -0.949783 -0.790870 -1.843441
v -0.951951 -0.791020 -1.843818
v -0.949783 -0.785072 -1.845395
v -0.951951 -0.785181 -1.845785
v -0.949783 -0.779098 -1.846710
v -0.951951 -0.779163 -1.847110
v -0.953825 -0.802543 -1.839015
v -0.953825 -0.797156 -1.842256
v -0.953825 -0.791449 -1.844896
v -0.953825 -0.785491 -1.846904
v -0.953825 -0.779351 -1.848255
v -0.955154 -0.779636 -1.849992
v -0.955154 -0.792101 -1.846531
v -0.955154 -0.803530 -1.840471
v -0.955758 -0.804720 -1.842227
v -0.955758 -0.779979 -1.852085
v -0.955554 -0.780334 -1.854251
v -0.955554 -0.787117 -1.852758
v -0.955554 -0.805953 -1.844044
v -0.954571 -0.807060 -1.845678
v -0.954571 -0.794429 -1.852374
v -0.954571 -0.787645 -1.854660
v -0.954571 -0.780653 -1.856199
v -0.952942 -0.807894 -1.846907
v -0.952942 -0.801622 -1.850681
v -0.952942 -0.794979 -1.853755
v -0.952942 -0.788042 -1.856091
v -0.952942 -0.780894 -1.857665
v -0.950886 -0.781022 -1.858451
v -0.950886 -0.788255 -1.856859
v -0.950886 -0.795274 -1.854494
v -0.950886 -0.801995 -1.851385
v -0.950886 -0.808341 -1.847566
v -0.948681 -0.808341 -1.847566
v -0.948681 -0.801995 -1.851385
v -0.948681 -0.795274 -1.854494
v -0.948681 -0.788255 -1.856859
v -0.948681 -0.781022 -1.858451
v -0.946625 -0.807894 -1.846907
v -0.946625 -0.801622 -1.850681
v -0.946625 -0.794979 -1.853755
v -0.946625 -0.788042 -1.856091
v -0.946625 -0.780894 -1.857665
v -0.944995 -0.780653 -1.856199
v -0.944995 -0.787645 -1.854660
v -0.944995 -0.794429 -1.852374
v -0.944995 -0.807060 -1.845678
v -0.944012 -0.805953 -1.844044
v -0.944012 -0.787117 -1.852758
v -0.944012 -0.780334 -1.854251
v -0.943809 -0.804720 -1.842227
v -0.943809 -0.779979 -1.852085
v -0.944412 -0.779636 -1.849992
v -0.944412 -0.792101 -1.846531
v -0.944412 -0.803530 -1.840471
v -0.945741 -0.802543 -1.839015
v -0.945741 -0.797156 -1.842256
v -0.945741 -0.791449 -1.844896
v -0.945741 -0.785491 -1.846904
v -0.945741 -0.779351 -1.848255
v -0.947616 -0.801891 -1.838054
v -0.947616 -0.796612 -1.841231
v -0.947616 -0.791020 -1.843818
v -0.947616 -0.785181 -1.845785
v -0.947616 -0.779163 -1.847110
v -0.945741 -0.802543 -1.839015
v -0.947616 -0.801891 -1.838054
v -0.955554 -0.805953 -1.844044
v -0.954571 -0.807060 -1.845678
v -0.955554 -0.780334 -1.854251
v -0.954571 -0.780653 -1.856199
v -0.946625 -0.780894 -1.857665
v -0.944995 -0.780653 -1.856199
v -0.946625 -0.807894 -1.846907
v -0.944995 -0.807060 -1.845678
v -0.945741 -0.779351 -1.848255
v -0.947616 -0.779163 -1.847110
v -0.955758 -0.779979 -1.852085
v -0.944412 -0.779636 -1.849992
v -0.955758 -0.804720 -1.842227
v -0.955154 -0.803530 -1.840471
v -0.955154 -0.779636 -1.849992
v -0.950886 -0.808341 -1.847566
v -0.948681 -0.808341 -1.847566
v -0.950886 -0.781022 -1.858451
v -0.948681 -0.781022 -1.858451
v -0.944412 -0.803530 -1.840471
v -0.944012 -0.780334 -1.854251
v -0.943809 -0.779979 -1.852085
v -0.944012 -0.805953 -1.844044
v -0.943809 -0.804720 -1.842227
v -0.949783 -0.779098 -1.846710
v -0.951951 -0.779163 -1.847110
v -0.949783 -0.801664 -1.837719
v -0.951951 -0.801891 -1.838054
v -0.952942 -0.780894 -1.857665
v -0.952942 -0.807894 -1.846907
v -0.953825 -0.779351 -1.848255
v -0.953825 -0.802543 -1.839015
vn 0.7942 -0.2745 -0.5421
vn 0.7604 -0.1844 -0.6227
vn 0.9697 -0.0788 -0.2311
vn -0.5292 -0.3212 -0.7854
vn -0.7604 -0.1844 -0.6227
vn -0.5234 -0.1869 -0.8313
vn -0.9967 0.0241 0.0781
vn -0.9626 -0.0894 -0.2559
vn -0.9560 -0.1213 -0.2672
vn 0.5873 0.3633 0.7233
vn 0.3629 0.4804 0.7984
vn 0.6763 0.3798 0.6312
vn 0.5872 0.1994 0.7845
vn 0.7820 0.2353 0.5772
vn 0.6680 0.1752 0.7232
vn -0.0000 0.3701 0.9290
vn -0.3634 0.4364 0.8231
vn -0.0000 0.4684 0.8835
vn -0.7945 -0.1305 -0.5930
vn -0.9600 -0.0602 -0.2733
vn -0.5872 0.2336 0.7750
vn -0.8954 0.1086 0.4318
vn -0.6730 0.2663 0.6901
vn -0.3634 0.3448 0.8655
vn -0.1826 -0.2630 -0.9473
vn -0.1824 -0.2114 -0.9602
vn 0.3634 0.4364 0.8231
vn 0.3634 0.3448 0.8655
vn 0.5292 -0.3212 -0.7854
vn 0.5234 -0.1869 -0.8313
vn 0.3629 0.2003 0.9100
vn -0.0000 0.2675 0.9636
vn 0.3634 0.2492 0.8977
vn -0.5873 0.3947 0.7066
vn -0.3629 0.4804 0.7984
vn -0.7942 -0.2745 -0.5421
vn 0.5332 -0.4192 -0.7348
vn 0.9070 -0.1668 -0.3867
vn 0.1826 -0.2630 -0.9473
vn 0.1826 -0.3639 -0.9134
vn -0.1826 -0.3639 -0.9134
vn -0.3634 0.2492 0.8977
vn 0.1824 -0.2114 -0.9602
vn 0.8160 -0.1547 -0.5570
vn 0.9971 0.0395 0.0653
vn 0.9971 0.0162 0.0746
vn -0.8160 -0.2708 -0.5107
vn -0.1826 -0.4605 -0.8686
vn 0.6730 0.2813 0.6841
vn 0.1826 -0.4605 -0.8686
vn -0.1823 -0.5069 -0.8425
vn -0.7820 0.2261 0.5809
vn -0.6680 0.3701 0.6456
vn -0.9971 0.0395 0.0653
vn 0.1824 -0.5069 -0.8425
vn -0.0000 0.5156 0.8569
vn -0.3629 0.2003 0.9100
vn -0.0000 0.2150 0.9766
vn 0.9560 -0.1212 -0.2672
vn 0.9612 -0.0658 -0.2677
vn 0.7945 -0.1305 -0.5930
vn 0.8954 0.2181 0.3882
vn -0.5332 -0.4193 -0.7348
vn -0.0000 0.9868 -0.1618
vn -0.0000 -0.8277 0.5612
vn -0.8160 -0.1546 -0.5570
vn -0.9070 -0.1668 -0.3867
vn 0.8992 0.1171 0.4216
vn -0.6763 0.1584 0.7194
vn 0.8160 -0.2707 -0.5107
vn -0.8992 0.2050 0.3866
vn -0.0002 0.9868 -0.1619
vn -0.0000 0.9868 -0.1619
vn -0.0000 0.9868 -0.1620
vn 0.0002 0.9868 -0.1619
vn -0.0001 -0.8277 0.5611
vn 0.0001 -0.8278 0.5610
vn -0.0000 -0.8279 0.5609
vn -0.0000 -0.8277 0.5611
vn -0.0001 -0.8278 0.5610
vn 0.0001 -0.8277 0.5612
vn -0.0000 -0.8278 0.5610
vn -0.0000 -0.8276 0.5614
s 1
f 79//1 49//2 53//3
f 30//4 26//5 100//6
f 82//7 22//8 72//9
f 61//10 71//11 70//12
f 63//13 58//14 80//15
f 5//16 4//17 3//18
f 75//19 22//8 74//20
f 14//21 86//22 13//23
f 13//23 4//17 6//24
f 34//25 100//6 89//26
f 5//16 66//27 67//28
f 45//29 76//30 49//2
f 81//31 7//32 68//33
f 12//34 99//35 4//17
f 73//36 22//8 26//5
f 78//37 45//29 50//38
f 41//39 45//29 40//40
f 30//4 34//25 35//41
f 8//42 13//23 6//24
f 90//43 46//44 41//39
f 95//45 93//46 58//14
f 29//47 35//41 36//48
f 7//32 6//24 5//16
f 68//33 5//16 67//28
f 68//33 62//49 63//13
f 39//50 87//51 36//48
f 80//15 68//33 63//13
f 45//29 39//50 40//40
f 12//34 17//52 103//53
f 3//18 71//11 66//27
f 84//54 17//52 82//7
f 39//50 78//37 88//55
f 3//18 99//35 98//56
f 97//57 7//32 96//58
f 94//59 92//60 93//46
f 92//60 49//2 77//61
f 90//43 34//25 89//26
f 41//39 35//41 34//25
f 62//49 61//10 91//62
f 101//63 36//48 87//51
f 30//4 101//63 73//36
f 62//49 66//27 61//10
f 97//57 14//21 8//42
f 20//64 56//64 42//64
f 65//65 28//65 51//65
f 40//40 36//48 35//41
f 53//3 94//59 79//1
f 79//1 50//38 49//2
f 100//6 31//66 30//4
f 30//4 25//67 26//5
f 26//5 75//19 100//6
f 72//9 84//54 82//7
f 82//7 74//20 22//8
f 61//10 66//27 71//11
f 63//13 62//49 58//14
f 58//14 83//68 80//15
f 5//16 6//24 4//17
f 75//19 26//5 22//8
f 14//21 102//69 86//22
f 86//22 17//52 13//23
f 13//23 12//34 4//17
f 34//25 31//66 100//6
f 5//16 3//18 66//27
f 49//2 50//38 45//29
f 45//29 46//44 76//30
f 76//30 77//61 49//2
f 81//31 96//58 7//32
f 12//34 103//53 99//35
f 26//5 25//67 73//36
f 73//36 72//9 22//8
f 50//38 79//1 78//37
f 78//37 44//70 45//29
f 41//39 46//44 45//29
f 30//4 31//66 34//25
f 8//42 14//21 13//23
f 90//43 76//30 46//44
f 58//14 91//62 95//45
f 93//46 83//68 58//14
f 29//47 30//4 35//41
f 7//32 8//42 6//24
f 68//33 7//32 5//16
f 68//33 67//28 62//49
f 39//50 88//55 87//51
f 80//15 81//31 68//33
f 45//29 44//70 39//50
f 12//34 13//23 17//52
f 17//52 85//71 103//53
f 3//18 98//56 71//11
f 84//54 85//71 17//52
f 17//52 86//22 82//7
f 39//50 44//70 78//37
f 3//18 4//17 99//35
f 97//57 8//42 7//32
f 93//46 95//45 94//59
f 94//59 53//3 92//60
f 92//60 53//3 49//2
f 90//43 41//39 34//25
f 41//39 40//40 35//41
f 91//62 58//14 62//49
f 61//10 70//12 91//62
f 101//63 29//47 36//48
f 73//36 25//67 30//4
f 30//4 29//47 101//63
f 62//49 67//28 66//27
f 97//57 102//69 14//21
f 27//64 21//72 20//64
f 20//64 16//73 15//64
f 15//64 10//74 9//64
f 9//64 69//74 64//64
f 64//64 57//64 56//64
f 56//64 54//75 48//64
f 48//64 47//64 42//64
f 42//64 33//73 32//64
f 32//64 27//64 20//64
f 20//64 15//64 9//64
f 9//64 64//64 56//64
f 56//64 48//64 42//64
f 42//64 32//64 20//64
f 20//64 9//64 56//64
f 59//76 60//77 65//65
f 65//65 1//78 2//79
f 2//79 11//80 18//65
f 18//65 19//65 23//65
f 23//65 24//81 28//65
f 28//65 37//65 38//65
f 38//65 43//82 51//65
f 51//65 52//83 55//65
f 55//65 59//76 65//65
f 65//65 2//79 18//65
f 18//65 23//65 28//65
f 28//65 38//65 51//65
f 51//65 55//65 65//65
f 65//65 18//65 28//65
f 40//40 39//50 36//48
