# Blender 3.4.1
# www.blender.org
o Handle_3_phy
v -0.949783 -0.754842 -1.845395
v -0.951951 -0.754733 -1.845785
v -0.949783 -0.733380 -1.834016
v -0.951951 -0.733117 -1.834325
v -0.953825 -0.754423 -1.846904
v -0.953825 -0.732366 -1.835210
v -0.955154 -0.731227 -1.836551
v -0.955154 -0.753952 -1.848599
v -0.955758 -0.753384 -1.850643
v -0.955758 -0.729854 -1.838168
v -0.955554 -0.728432 -1.839841
v -0.955554 -0.752797 -1.852758
v -0.954571 -0.752269 -1.854660
v -0.954571 -0.727154 -1.841345
v -0.952942 -0.751872 -1.856091
v -0.952942 -0.726193 -1.842478
v -0.950886 -0.725677 -1.843085
v -0.950886 -0.751658 -1.856859
v -0.948681 -0.751658 -1.856859
v -0.948681 -0.725677 -1.843085
v -0.946625 -0.751872 -1.856091
v -0.946625 -0.726193 -1.842478
v -0.944995 -0.727154 -1.841345
v -0.944995 -0.752269 -1.854660
v -0.944012 -0.752797 -1.852758
v -0.944012 -0.728432 -1.839841
v -0.943809 -0.753384 -1.850643
v -0.943809 -0.729854 -1.838168
v -0.944412 -0.731227 -1.836551
v -0.944412 -0.753952 -1.848599
v -0.945741 -0.754423 -1.846904
v -0.945741 -0.732366 -1.835210
v -0.947616 -0.754733 -1.845785
v -0.947616 -0.733117 -1.834325
vn 0.7911 -0.2865 0.5405
vn -0.9955 0.0442 -0.0835
vn -0.9601 -0.1310 0.2471
vn -0.7911 -0.2865 0.5405
vn -0.5175 -0.4008 0.7560
vn -0.1796 -0.4608 0.8692
vn 0.1796 -0.4608 0.8692
vn 0.5174 -0.4008 0.7561
vn -0.0000 -0.9635 -0.2676
vn 0.8909 0.2128 -0.4013
vn 0.6650 0.3498 -0.6599
vn -0.0000 0.4684 -0.8835
vn 0.3538 0.4381 -0.8264
vn -0.0000 0.7622 0.6474
vn -0.3538 0.4381 -0.8264
vn -0.6649 0.3499 -0.6599
vn -0.8909 0.2127 -0.4013
vn 0.9601 -0.1310 0.2471
vn 0.9955 0.0442 -0.0835
vn -0.9955 0.0443 -0.0835
vn -0.5174 -0.4008 0.7561
vn -0.1797 -0.4608 0.8691
vn 0.1797 -0.4608 0.8691
vn 0.5175 -0.4008 0.7560
vn 0.0003 -0.9636 -0.2674
vn 0.0001 -0.9635 -0.2676
vn 0.0003 -0.9636 -0.2675
vn 0.0001 -0.9636 -0.2675
vn -0.0000 -0.9637 -0.2669
vn -0.0001 -0.9636 -0.2675
vn -0.0001 -0.9635 -0.2676
vn -0.0000 -0.9636 -0.2675
vn 0.3539 0.4381 -0.8263
vn -0.0003 0.7624 0.6471
vn -0.0000 0.7621 0.6474
vn -0.0001 0.7621 0.6475
vn -0.0000 0.7622 0.6473
vn 0.0003 0.7621 0.6475
vn -0.0003 0.7620 0.6476
vn 0.0001 0.7621 0.6475
vn 0.0002 0.7621 0.6474
vn -0.3539 0.4381 -0.8263
vn -0.6650 0.3498 -0.6599
vn -0.8909 0.2128 -0.4013
s 0
f 30//1 32//1 31//1
f 9//2 11//2 12//2
f 9//3 7//3 10//3
f 8//4 6//4 7//4
f 5//5 4//5 6//5
f 2//6 3//6 4//6
f 1//7 34//7 3//7
f 31//8 34//8 33//8
f 13//9 30//9 2//9
f 24//10 26//10 25//10
f 21//11 23//11 24//11
f 18//12 20//12 19//12
f 19//13 22//13 21//13
f 29//14 14//14 6//14
f 15//15 17//15 18//15
f 13//16 16//16 15//16
f 13//17 11//17 14//17
f 27//18 29//18 30//18
f 27//19 26//19 28//19
f 30//1 29//1 32//1
f 9//20 10//20 11//20
f 9//3 8//3 7//3
f 8//4 5//4 6//4
f 5//21 2//21 4//21
f 2//22 1//22 3//22
f 1//23 33//23 34//23
f 31//24 32//24 34//24
f 9//25 12//25 13//25
f 13//9 15//9 18//9
f 18//9 19//9 21//9
f 21//26 24//26 25//26
f 25//27 27//27 30//27
f 30//28 31//28 33//28
f 33//29 1//29 2//29
f 2//30 5//30 8//30
f 8//31 9//31 13//31
f 13//9 18//9 21//9
f 21//30 25//30 30//30
f 30//9 33//9 2//9
f 2//30 8//30 13//30
f 13//32 21//32 30//32
f 24//10 23//10 26//10
f 21//11 22//11 23//11
f 18//12 17//12 20//12
f 19//33 20//33 22//33
f 34//34 32//34 29//34
f 29//35 28//35 26//35
f 26//36 23//36 22//36
f 22//14 20//14 17//14
f 17//37 16//37 14//37
f 14//38 11//38 10//38
f 10//39 7//39 6//39
f 6//40 4//40 3//40
f 3//41 34//41 29//41
f 29//14 26//14 22//14
f 22//14 17//14 14//14
f 14//14 10//14 6//14
f 6//14 3//14 29//14
f 29//14 22//14 14//14
f 15//42 16//42 17//42
f 13//43 14//43 16//43
f 13//44 12//44 11//44
f 27//18 28//18 29//18
f 27//19 25//19 26//19
