# Blender 3.4.1
# www.blender.org
o Handle_7_phy
v -0.947616 -0.826529 -1.797107
v -0.945741 -0.827682 -1.797232
v -0.944412 -0.829432 -1.797423
v -0.944995 -0.835685 -1.798103
v -0.951951 -0.826529 -1.797107
v -0.949783 -0.826126 -1.797063
v -0.949783 -0.818369 -1.820083
v -0.951951 -0.818717 -1.820292
v -0.953825 -0.827682 -1.797232
v -0.953825 -0.819711 -1.820890
v -0.955154 -0.829432 -1.797423
v -0.955154 -0.821219 -1.821798
v -0.955758 -0.831540 -1.797652
v -0.955758 -0.823036 -1.822891
v -0.955554 -0.833723 -1.797889
v -0.955554 -0.824917 -1.824023
v -0.954571 -0.835685 -1.798103
v -0.954571 -0.826609 -1.825041
v -0.952942 -0.837162 -1.798263
v -0.952942 -0.827882 -1.825806
v -0.950886 -0.837954 -1.798349
v -0.950886 -0.828564 -1.826217
v -0.948681 -0.837954 -1.798349
v -0.948681 -0.828564 -1.826217
v -0.946625 -0.837162 -1.798263
v -0.946625 -0.827882 -1.825806
v -0.944995 -0.826609 -1.825041
v -0.944012 -0.833723 -1.797889
v -0.944012 -0.824917 -1.824023
v -0.943809 -0.831540 -1.797652
v -0.943809 -0.823036 -1.822891
v -0.944412 -0.821219 -1.821798
v -0.945741 -0.819711 -1.820890
v -0.947616 -0.818717 -1.820292
vn 0.3539 -0.8863 -0.2986
vn -0.0000 -0.9477 -0.3193
vn -0.0000 0.5156 -0.8569
vn -0.1796 0.9322 0.3141
vn 0.1796 0.9323 0.3141
vn 0.5174 0.8109 0.2732
vn 0.7911 0.5797 0.1953
vn 0.9601 0.2651 0.0893
vn 0.8909 -0.4305 -0.1450
vn 0.9955 -0.0895 -0.0302
vn -0.0000 -0.1081 0.9941
vn 0.6650 -0.7078 -0.2385
vn -0.5174 0.8109 0.2732
vn -0.6649 -0.7078 -0.2385
vn -0.8909 -0.4305 -0.1450
vn -0.3539 -0.8863 -0.2986
vn -0.9955 -0.0896 -0.0302
vn -0.9601 0.2651 0.0893
vn -0.7911 0.5797 0.1953
vn 0.0003 0.5156 -0.8568
vn -0.0000 0.5156 -0.8568
vn -0.0000 0.5155 -0.8569
vn 0.0005 0.5155 -0.8569
vn 0.0003 0.5154 -0.8570
vn -0.0002 0.5156 -0.8568
vn -0.0001 0.5155 -0.8569
vn -0.0001 0.5156 -0.8568
vn -0.1795 0.9323 0.3141
vn 0.1795 0.9323 0.3141
vn 0.5175 0.8109 0.2732
vn -0.0000 -0.1080 0.9941
vn 0.0003 -0.1083 0.9941
vn 0.0003 -0.1081 0.9941
vn 0.0003 -0.1080 0.9941
vn 0.0001 -0.1082 0.9941
vn -0.0001 -0.1082 0.9941
vn -0.0003 -0.1081 0.9941
vn -0.0003 -0.1082 0.9941
vn -0.5175 0.8109 0.2732
vn -0.6650 -0.7078 -0.2385
vn -0.3538 -0.8863 -0.2986
s 0
f 25//1 24//1 26//1
f 23//2 22//2 24//2
f 32//3 18//3 10//3
f 8//4 6//4 7//4
f 6//5 34//5 7//5
f 34//6 2//6 33//6
f 33//7 3//7 32//7
f 3//8 31//8 32//8
f 28//9 27//9 29//9
f 31//10 28//10 29//10
f 23//11 6//11 13//11
f 4//12 26//12 27//12
f 9//13 8//13 10//13
f 20//14 17//14 18//14
f 18//15 15//15 16//15
f 21//16 20//16 22//16
f 15//17 14//17 16//17
f 14//18 11//18 12//18
f 11//19 10//19 12//19
f 25//1 23//1 24//1
f 23//2 21//2 22//2
f 34//20 33//20 32//20
f 32//21 31//21 29//21
f 29//22 27//22 26//22
f 26//21 24//21 22//21
f 22//22 20//22 18//22
f 18//23 16//23 14//23
f 14//24 12//24 10//24
f 10//21 8//21 7//21
f 7//25 34//25 32//25
f 32//26 29//26 26//26
f 26//21 22//21 18//21
f 18//27 14//27 10//27
f 10//3 7//3 32//3
f 32//22 26//22 18//22
f 8//28 5//28 6//28
f 6//29 1//29 34//29
f 34//30 1//30 2//30
f 33//7 2//7 3//7
f 3//8 30//8 31//8
f 28//9 4//9 27//9
f 31//10 30//10 28//10
f 19//31 21//31 23//31
f 23//32 25//32 4//32
f 4//33 28//33 30//33
f 30//34 3//34 2//34
f 2//35 1//35 6//35
f 6//36 5//36 9//36
f 9//37 11//37 13//37
f 13//38 15//38 17//38
f 17//36 19//36 23//36
f 23//11 4//11 30//11
f 30//11 2//11 6//11
f 6//11 9//11 13//11
f 13//11 17//11 23//11
f 23//11 30//11 6//11
f 4//12 25//12 26//12
f 9//39 5//39 8//39
f 20//40 19//40 17//40
f 18//15 17//15 15//15
f 21//41 19//41 20//41
f 15//17 13//17 14//17
f 14//18 13//18 11//18
f 11//19 9//19 10//19
