# Blender 4.0.2
# www.blender.org
mtllib cylinder1obj.mtl
o Cylinder1
v -0.626500 -0.543135 -0.585394
v -0.625000 -0.543135 -0.587993
v -0.601638 -0.543135 -0.567331
v -0.599630 -0.543135 -0.569560
v -0.581074 -0.543135 -0.544493
v -0.578647 -0.543135 -0.546257
v -0.565709 -0.543135 -0.517879
v -0.562968 -0.543135 -0.519099
v -0.556212 -0.543135 -0.488652
v -0.553278 -0.543135 -0.489276
v -0.553000 -0.543135 -0.458089
v -0.550000 -0.543135 -0.458089
v -0.556212 -0.543135 -0.427526
v -0.553278 -0.543135 -0.426902
v -0.565709 -0.543135 -0.398298
v -0.562968 -0.543135 -0.397078
v -0.581074 -0.543135 -0.371684
v -0.578647 -0.543135 -0.369921
v -0.601638 -0.543135 -0.348846
v -0.599630 -0.543135 -0.346617
v -0.626500 -0.543135 -0.330783
v -0.625000 -0.543135 -0.328185
v -0.654575 -0.543135 -0.318283
v -0.653647 -0.543135 -0.315430
v -0.684634 -0.543135 -0.311894
v -0.684321 -0.543135 -0.308910
v -0.715366 -0.543135 -0.311894
v -0.715679 -0.543135 -0.308910
v -0.745425 -0.543135 -0.318283
v -0.746352 -0.543135 -0.315430
v -0.773500 -0.543135 -0.330783
v -0.775000 -0.543135 -0.328185
v -0.798362 -0.543135 -0.348846
v -0.800370 -0.543135 -0.346617
v -0.818925 -0.543135 -0.371684
v -0.821353 -0.543135 -0.369921
v -0.834291 -0.543135 -0.398298
v -0.837032 -0.543135 -0.397078
v -0.843788 -0.543135 -0.427526
v -0.846722 -0.543135 -0.426902
v -0.847000 -0.543135 -0.458089
v -0.850000 -0.543135 -0.458089
v -0.843788 -0.543135 -0.488652
v -0.846722 -0.543135 -0.489276
v -0.834291 -0.543135 -0.517879
v -0.837032 -0.543135 -0.519099
v -0.818925 -0.543135 -0.544493
v -0.821353 -0.543135 -0.546257
v -0.798362 -0.543135 -0.567331
v -0.800370 -0.543135 -0.569560
v -0.773500 -0.543135 -0.585394
v -0.775000 -0.543135 -0.587993
v -0.745425 -0.543135 -0.597894
v -0.746352 -0.543135 -0.600747
v -0.715366 -0.543135 -0.604283
v -0.715679 -0.543135 -0.607267
v -0.684634 -0.543135 -0.604283
v -0.684321 -0.543135 -0.607267
v -0.654575 -0.543135 -0.597894
v -0.653647 -0.543135 -0.600747
v -0.847000 0.036865 -0.458089
v -0.843788 0.036865 -0.488652
v -0.834291 0.036865 -0.517879
v -0.818925 0.036865 -0.544493
v -0.798362 0.036865 -0.567331
v -0.773500 0.036865 -0.585394
v -0.745425 0.036865 -0.597894
v -0.715366 0.036865 -0.604283
v -0.684634 0.036865 -0.604283
v -0.654575 0.036865 -0.597894
v -0.626500 0.036865 -0.585394
v -0.601638 0.036865 -0.567331
v -0.581074 0.036865 -0.544493
v -0.565709 0.036865 -0.517879
v -0.556212 0.036865 -0.488652
v -0.553000 0.036865 -0.458089
v -0.562968 0.036865 -0.519099
v -0.578647 0.036865 -0.546257
v -0.599630 0.036865 -0.569560
v -0.625000 0.036865 -0.587993
v -0.653647 0.036865 -0.600747
v -0.684321 0.036865 -0.607267
v -0.715679 0.036865 -0.607267
v -0.746352 0.036865 -0.600747
v -0.775000 0.036865 -0.587993
v -0.800370 0.036865 -0.569560
v -0.821353 0.036865 -0.546257
v -0.837032 0.036865 -0.519099
v -0.846722 0.036865 -0.489276
v -0.850000 0.036865 -0.458089
v -0.843788 0.036865 -0.427526
v -0.846722 0.036865 -0.426902
v -0.834291 0.036865 -0.398298
v -0.837032 0.036865 -0.397078
v -0.818925 0.036865 -0.371684
v -0.821353 0.036865 -0.369921
v -0.798362 0.036865 -0.348846
v -0.800370 0.036865 -0.346617
v -0.773500 0.036865 -0.330783
v -0.775000 0.036865 -0.328185
v -0.745425 0.036865 -0.318283
v -0.746352 0.036865 -0.315430
v -0.715366 0.036865 -0.311894
v -0.715679 0.036865 -0.308910
v -0.684634 0.036865 -0.311894
v -0.684321 0.036865 -0.308910
v -0.654575 0.036865 -0.318283
v -0.653647 0.036865 -0.315430
v -0.626500 0.036865 -0.330783
v -0.625000 0.036865 -0.328185
v -0.601638 0.036865 -0.348846
v -0.599630 0.036865 -0.346617
v -0.581074 0.036865 -0.371684
v -0.578647 0.036865 -0.369921
v -0.565709 0.036865 -0.398298
v -0.562968 0.036865 -0.397078
v -0.556212 0.036865 -0.427526
v -0.553278 0.036865 -0.426902
v -0.550000 0.036865 -0.458089
v -0.553278 0.036865 -0.489276
vn -0.0000 -1.0000 -0.0000
vn 0.9945 -0.0000 0.1045
vn 0.9511 -0.0000 0.3090
vn 0.8660 -0.0000 0.5000
vn 0.7432 -0.0000 0.6691
vn 0.5878 -0.0000 0.8090
vn 0.4067 -0.0000 0.9135
vn 0.2079 -0.0000 0.9781
vn -0.0000 -0.0000 1.0000
vn -0.2079 -0.0000 0.9781
vn -0.4067 -0.0000 0.9135
vn -0.5878 -0.0000 0.8090
vn -0.7431 -0.0000 0.6691
vn -0.8660 -0.0000 0.5000
vn -0.9511 -0.0000 0.3090
vn -0.9945 -0.0000 0.1045
vn -0.0000 1.0000 -0.0000
vn 0.4068 -0.0000 0.9135
vn 0.7431 -0.0000 0.6691
vn 0.9945 -0.0000 -0.1045
vn 0.9511 -0.0000 -0.3090
vn 0.8660 -0.0000 -0.5000
vn 0.7431 -0.0000 -0.6691
vn 0.5878 -0.0000 -0.8090
vn 0.4067 -0.0000 -0.9136
vn 0.2079 -0.0000 -0.9781
vn -0.0000 -0.0000 -1.0000
vn -0.2079 -0.0000 -0.9781
vn -0.4067 -0.0000 -0.9136
vn -0.5878 -0.0000 -0.8090
vn -0.7431 -0.0000 -0.6691
vn -0.8660 -0.0000 -0.5000
vn -0.9511 -0.0000 -0.3090
vn -0.9945 -0.0000 -0.1045
vn -0.4067 -0.0000 -0.9135
vn 0.4067 -0.0000 -0.9135
vn 0.7432 -0.0000 -0.6691
s 0
f 1//1 2//1 3//1
f 3//1 2//1 4//1
f 3//1 4//1 5//1
f 5//1 4//1 6//1
f 5//1 6//1 7//1
f 7//1 6//1 8//1
f 7//1 8//1 9//1
f 9//1 8//1 10//1
f 9//1 10//1 11//1
f 11//1 10//1 12//1
f 11//1 12//1 13//1
f 13//1 12//1 14//1
f 13//1 14//1 15//1
f 15//1 14//1 16//1
f 15//1 16//1 17//1
f 17//1 16//1 18//1
f 17//1 18//1 19//1
f 19//1 18//1 20//1
f 19//1 20//1 21//1
f 21//1 20//1 22//1
f 21//1 22//1 23//1
f 23//1 22//1 24//1
f 23//1 24//1 25//1
f 25//1 24//1 26//1
f 25//1 26//1 27//1
f 27//1 26//1 28//1
f 27//1 28//1 29//1
f 29//1 28//1 30//1
f 29//1 30//1 31//1
f 31//1 30//1 32//1
f 31//1 32//1 33//1
f 33//1 32//1 34//1
f 33//1 34//1 35//1
f 35//1 34//1 36//1
f 35//1 36//1 37//1
f 37//1 36//1 38//1
f 37//1 38//1 39//1
f 39//1 38//1 40//1
f 39//1 40//1 41//1
f 41//1 40//1 42//1
f 41//1 42//1 43//1
f 43//1 42//1 44//1
f 43//1 44//1 45//1
f 45//1 44//1 46//1
f 45//1 46//1 47//1
f 47//1 46//1 48//1
f 47//1 48//1 49//1
f 49//1 48//1 50//1
f 49//1 50//1 51//1
f 51//1 50//1 52//1
f 51//1 52//1 53//1
f 53//1 52//1 54//1
f 53//1 54//1 55//1
f 55//1 54//1 56//1
f 55//1 56//1 57//1
f 57//1 56//1 58//1
f 57//1 58//1 59//1
f 59//1 58//1 60//1
f 59//1 60//1 1//1
f 1//1 60//1 2//1
f 61//2 41//2 62//2
f 62//2 41//2 43//2
f 62//3 43//3 63//3
f 63//3 43//3 45//3
f 63//4 45//4 64//4
f 64//4 45//4 47//4
f 64//5 47//5 65//5
f 65//5 47//5 49//5
f 65//6 49//6 66//6
f 66//6 49//6 51//6
f 66//7 51//7 67//7
f 67//7 51//7 53//7
f 67//8 53//8 68//8
f 68//8 53//8 55//8
f 68//9 55//9 69//9
f 69//9 55//9 57//9
f 69//10 57//10 70//10
f 70//10 57//10 59//10
f 70//11 59//11 71//11
f 71//11 59//11 1//11
f 71//12 1//12 72//12
f 72//12 1//12 3//12
f 72//13 3//13 73//13
f 73//13 3//13 5//13
f 73//14 5//14 74//14
f 74//14 5//14 7//14
f 74//15 7//15 75//15
f 75//15 7//15 9//15
f 75//16 9//16 76//16
f 76//16 9//16 11//16
f 74//17 77//17 73//17
f 73//17 77//17 78//17
f 73//17 78//17 72//17
f 72//17 78//17 79//17
f 72//17 79//17 71//17
f 71//17 79//17 80//17
f 71//17 80//17 70//17
f 70//17 80//17 81//17
f 70//17 81//17 69//17
f 69//17 81//17 82//17
f 69//17 82//17 68//17
f 68//17 82//17 83//17
f 68//17 83//17 67//17
f 67//17 83//17 84//17
f 67//17 84//17 66//17
f 66//17 84//17 85//17
f 66//17 85//17 65//17
f 65//17 85//17 86//17
f 65//17 86//17 64//17
f 64//17 86//17 87//17
f 64//17 87//17 63//17
f 63//17 87//17 88//17
f 63//17 88//17 62//17
f 62//17 88//17 89//17
f 62//17 89//17 61//17
f 61//17 89//17 90//17
f 61//17 90//17 91//17
f 91//17 90//17 92//17
f 91//17 92//17 93//17
f 93//17 92//17 94//17
f 93//17 94//17 95//17
f 95//17 94//17 96//17
f 95//17 96//17 97//17
f 97//17 96//17 98//17
f 97//17 98//17 99//17
f 99//17 98//17 100//17
f 99//17 100//17 101//17
f 101//17 100//17 102//17
f 101//17 102//17 103//17
f 103//17 102//17 104//17
f 103//17 104//17 105//17
f 105//17 104//17 106//17
f 105//17 106//17 107//17
f 107//17 106//17 108//17
f 107//17 108//17 109//17
f 109//17 108//17 110//17
f 109//17 110//17 111//17
f 111//17 110//17 112//17
f 111//17 112//17 113//17
f 113//17 112//17 114//17
f 113//17 114//17 115//17
f 115//17 114//17 116//17
f 115//17 116//17 117//17
f 117//17 116//17 118//17
f 117//17 118//17 76//17
f 76//17 118//17 119//17
f 76//17 119//17 75//17
f 75//17 119//17 120//17
f 75//17 120//17 74//17
f 74//17 120//17 77//17
f 90//16 42//16 40//16
f 90//16 40//16 92//16
f 92//15 40//15 38//15
f 92//15 38//15 94//15
f 94//14 38//14 36//14
f 94//14 36//14 96//14
f 96//13 36//13 34//13
f 96//13 34//13 98//13
f 98//12 34//12 32//12
f 98//12 32//12 100//12
f 100//11 32//11 30//11
f 100//11 30//11 102//11
f 102//10 30//10 28//10
f 102//10 28//10 104//10
f 104//9 28//9 26//9
f 104//9 26//9 106//9
f 106//8 26//8 24//8
f 106//8 24//8 108//8
f 108//18 24//18 22//18
f 108//18 22//18 110//18
f 110//6 22//6 20//6
f 110//6 20//6 112//6
f 112//19 20//19 18//19
f 112//19 18//19 114//19
f 114//4 18//4 16//4
f 114//4 16//4 116//4
f 116//3 16//3 14//3
f 116//3 14//3 118//3
f 118//2 14//2 12//2
f 118//2 12//2 119//2
f 119//20 12//20 10//20
f 119//20 10//20 120//20
f 120//21 10//21 8//21
f 120//21 8//21 77//21
f 77//22 8//22 6//22
f 77//22 6//22 78//22
f 78//23 6//23 4//23
f 78//23 4//23 79//23
f 79//24 4//24 2//24
f 79//24 2//24 80//24
f 80//25 2//25 60//25
f 80//25 60//25 81//25
f 81//26 60//26 58//26
f 81//26 58//26 82//26
f 82//27 58//27 56//27
f 82//27 56//27 83//27
f 83//28 56//28 54//28
f 83//28 54//28 84//28
f 84//29 54//29 52//29
f 84//29 52//29 85//29
f 85//30 52//30 50//30
f 85//30 50//30 86//30
f 86//31 50//31 48//31
f 86//31 48//31 87//31
f 87//32 48//32 46//32
f 87//32 46//32 88//32
f 88//33 46//33 44//33
f 88//33 44//33 89//33
f 89//34 44//34 42//34
f 89//34 42//34 90//34
f 76//34 11//34 117//34
f 117//34 11//34 13//34
f 117//33 13//33 115//33
f 115//33 13//33 15//33
f 115//32 15//32 113//32
f 113//32 15//32 17//32
f 113//31 17//31 111//31
f 111//31 17//31 19//31
f 111//30 19//30 109//30
f 109//30 19//30 21//30
f 109//35 21//35 107//35
f 107//35 21//35 23//35
f 107//28 23//28 105//28
f 105//28 23//28 25//28
f 105//27 25//27 103//27
f 103//27 25//27 27//27
f 103//26 27//26 101//26
f 101//26 27//26 29//26
f 101//36 29//36 99//36
f 99//36 29//36 31//36
f 99//24 31//24 97//24
f 97//24 31//24 33//24
f 97//37 33//37 95//37
f 95//37 33//37 35//37
f 95//22 35//22 93//22
f 93//22 35//22 37//22
f 93//21 37//21 91//21
f 91//21 37//21 39//21
f 91//20 39//20 61//20
f 61//20 39//20 41//20
