# Blender 3.4.1
# www.blender.org
o DS_funnel_y_5_vis
v 0.060217 -0.149957 -0.256955
v 0.086063 -0.149957 -0.399934
v 0.189586 -0.149957 -0.256955
v 0.053545 -0.149957 -0.384103
v 0.060217 -0.079957 -0.256955
v 0.180217 -0.079957 -0.256955
v 0.086063 -0.079957 -0.399934
v 0.053545 -0.079957 -0.384103
v 0.060217 -0.149957 -0.256955
v 0.060217 -0.149957 -0.256955
v 0.053545 -0.149957 -0.384103
v 0.053545 -0.149957 -0.384103
v 0.086063 -0.149957 -0.399934
v 0.086063 -0.149957 -0.399934
v 0.189586 -0.149957 -0.256955
v 0.189586 -0.149957 -0.256955
v 0.086063 -0.079957 -0.399934
v 0.086063 -0.079957 -0.399934
v 0.060217 -0.079957 -0.256955
v 0.060217 -0.079957 -0.256955
v 0.053545 -0.079957 -0.384103
v 0.053545 -0.079957 -0.384103
v 0.180217 -0.079957 -0.256955
v 0.180217 -0.079957 -0.256955
vn -0.0000 -1.0000 -0.0000
vn -0.0000 1.0000 -0.0000
vn -0.4377 -0.0000 -0.8991
vn -0.9986 -0.0000 0.0524
vn -0.0000 -0.0000 1.0000
vn 0.8133 0.0825 -0.5760
vn 0.8288 0.0268 -0.5589
vn 0.8352 -0.0000 -0.5500
vn 0.8053 0.1078 -0.5830
s 1
f 9//1 13//1 15//1
f 19//2 18//2 21//2
f 22//3 14//3 12//3
f 20//4 4//4 10//4
f 1//5 24//5 5//5
f 6//6 2//7 7//8
f 9//1 11//1 13//1
f 19//2 23//2 18//2
f 22//3 17//3 14//3
f 20//4 8//4 4//4
f 1//5 16//5 24//5
f 6//6 3//9 2//7
