# Blender 3.4.1
# www.blender.org
o DS_funnel_y_2_phy
v 0.136504 -0.149957 -0.451133
v 0.430217 -0.149957 -0.256955
v 0.151848 -0.149957 -0.483885
v 0.151848 -0.079957 -0.483885
v 0.136504 -0.079957 -0.451133
v 0.430217 -0.079957 -0.256955
v 0.362294 -0.079957 -0.256955
v 0.359135 -0.149957 -0.256955
vn -0.0000 -1.0000 -0.0000
vn -0.0000 1.0000 -0.0000
vn -0.9055 -0.0000 -0.4243
vn 0.6319 -0.0000 -0.7751
vn -0.0000 -0.0000 1.0000
vn -0.6573 -0.0000 0.7536
vn -0.6518 0.0294 0.7579
s 0
f 8//1 3//1 2//1
f 4//2 7//2 6//2
f 4//3 1//3 5//3
f 6//4 3//4 4//4
f 7//5 2//5 6//5
f 8//6 5//6 1//6
f 8//1 1//1 3//1
f 4//2 5//2 7//2
f 4//3 3//3 1//3
f 6//4 2//4 3//4
f 7//5 8//5 2//5
f 8//7 7//7 5//7
