# Blender 3.4.1
# www.blender.org
o DS_funnel_y_3_phy
v 0.136504 -0.149957 -0.451133
v 0.114196 -0.149957 -0.422665
v 0.300217 -0.149957 -0.256955
v 0.136504 -0.079957 -0.451133
v 0.114196 -0.079957 -0.422665
v 0.362294 -0.079957 -0.256955
v 0.359135 -0.149957 -0.256955
v 0.300217 -0.079957 -0.256955
v 0.300217 -0.079957 -0.256955
vn -0.0000 -1.0000 -0.0000
vn -0.0000 1.0000 -0.0000
vn -0.7871 -0.0000 -0.6168
vn -0.6652 -0.0000 0.7467
vn -0.0000 -0.0000 1.0000
vn 0.6518 -0.0294 -0.7579
vn -0.0000 -0.0000 -1.0000
vn 0.6573 -0.0000 -0.7536
s 0
f 1//1 3//1 2//1
f 5//2 8//2 6//2
f 4//3 2//3 5//3
f 5//4 3//4 8//4
f 7//5 9//5 3//5
f 7//6 4//6 6//6
f 1//1 7//1 3//1
f 6//2 4//2 5//2
f 8//7 9//7 6//7
f 4//3 1//3 2//3
f 5//4 2//4 3//4
f 7//5 6//5 9//5
f 7//8 1//8 4//8
