# Blender 3.4.1
# www.blender.org
o DS_funnel_y_7_phy
v 0.018301 -0.149957 -0.375980
v 0.018301 -0.079957 -0.375980
v 0.300217 -0.079957 -0.256955
v 0.000000 -0.149957 -0.256955
v 0.000000 -0.079957 -0.256955
v 0.029298 -0.079957 -0.256955
v 0.025033 -0.149957 -0.256955
v 0.300217 -0.079957 -0.256955
v 0.000000 -0.149957 -0.375980
v 0.000000 -0.079957 -0.375980
vn -0.0000 -0.0000 -1.0000
vn -1.0000 -0.0000 -0.0000
vn -0.0000 -1.0000 -0.0000
vn -0.0000 1.0000 -0.0000
vn -0.0000 -0.0000 1.0000
vn 0.9939 -0.0606 -0.0918
vn 0.9984 -0.0000 -0.0565
s 0
f 1//1 10//1 2//1
f 5//2 9//2 4//2
f 1//3 4//3 9//3
f 5//4 2//4 10//4
f 5//5 7//5 6//5
f 7//6 2//6 6//6
f 1//1 9//1 10//1
f 5//2 10//2 9//2
f 1//3 7//3 4//3
f 5//4 6//4 2//4
f 5//5 4//5 7//5
f 7//7 1//7 2//7
l 3 8
