# Blender 3.4.1
# www.blender.org
o DS_funnel_y_1_vis
v 0.430217 -0.149957 -0.256955
v 0.151848 -0.149957 -0.483885
v 0.430217 -0.149957 -0.751955
v 0.211966 -0.149957 -0.742265
v 0.221989 -0.149957 -0.749426
v 0.205665 -0.149957 -0.731680
v 0.234045 -0.149957 -0.751955
v 0.184797 -0.149957 -0.662131
v 0.151848 -0.079957 -0.483885
v 0.430217 -0.079957 -0.256955
v 0.234045 -0.079957 -0.751955
v 0.221989 -0.079957 -0.749426
v 0.211966 -0.079957 -0.742265
v 0.205665 -0.079957 -0.731680
v 0.184797 -0.079957 -0.662131
v 0.430217 -0.079957 -0.751955
v 0.221989 -0.149957 -0.749426
v 0.234045 -0.149957 -0.751955
v 0.234045 -0.079957 -0.751955
v 0.221989 -0.079957 -0.749426
v 0.430217 -0.079957 -0.751955
v 0.430217 -0.079957 -0.751955
v 0.205665 -0.079957 -0.731680
v 0.184797 -0.079957 -0.662131
v 0.430217 -0.149957 -0.256955
v 0.430217 -0.149957 -0.751955
v 0.430217 -0.149957 -0.751955
v 0.205665 -0.149957 -0.731680
v 0.184797 -0.149957 -0.662131
v 0.211966 -0.079957 -0.742265
v 0.211966 -0.149957 -0.742265
v 0.151848 -0.149957 -0.483885
v 0.430217 -0.079957 -0.256955
v 0.151848 -0.079957 -0.483885
vn -0.0000 -0.0000 -1.0000
vn -0.1032 -0.0000 -0.9947
vn -0.0000 -1.0000 -0.0000
vn -0.4019 -0.0000 -0.9157
vn -0.7360 -0.0000 -0.6770
vn -0.0000 1.0000 -0.0000
vn 1.0000 -0.0000 -0.0000
vn -0.9833 -0.0000 -0.1818
vn -0.9720 -0.0000 -0.2349
vn -0.9154 -0.0000 -0.4025
s 1
f 27//1 11//2 21//1
f 31//3 18//3 25//3
f 5//4 30//5 20//4
f 33//6 19//6 13//6
f 16//7 1//7 3//7
f 34//8 8//9 32//8
f 7//2 20//4 11//2
f 6//10 15//9 14//10
f 4//5 14//10 30//5
f 27//1 7//2 11//2
f 25//3 2//3 29//3
f 29//3 28//3 31//3
f 31//3 17//3 18//3
f 18//3 26//3 25//3
f 25//3 29//3 31//3
f 5//4 4//5 30//5
f 13//6 23//6 24//6
f 24//6 9//6 33//6
f 33//6 22//6 19//6
f 19//6 12//6 13//6
f 13//6 24//6 33//6
f 16//7 10//7 1//7
f 34//8 15//9 8//9
f 7//2 5//4 20//4
f 6//10 8//9 15//9
f 4//5 6//10 14//10
