# Blender 4.2.3 LTS
# www.blender.org
o X_3_phy
v 0.541217 -0.316551 -1.036955
v 0.541217 -0.400341 -1.101590
v 0.541217 -0.404913 -1.091013
v 0.541217 -0.349753 -1.036955
v 0.597643 -0.349615 -1.036955
v 0.597643 -0.316291 -1.036955
v 0.597643 -0.404913 -1.091013
v 0.597643 -0.400341 -1.101590
v 0.541217 -0.404913 -1.091013
v 0.541217 -0.404913 -1.091013
v 0.541217 -0.349753 -1.036955
v 0.541217 -0.349753 -1.036955
v 0.541217 -0.316551 -1.036955
v 0.541217 -0.316551 -1.036955
v 0.541217 -0.400341 -1.101590
v 0.541217 -0.400341 -1.101590
v 0.597643 -0.349615 -1.036955
v 0.597643 -0.349615 -1.036955
v 0.597643 -0.316291 -1.036955
v 0.597643 -0.316291 -1.036955
v 0.597643 -0.404913 -1.091013
v 0.597643 -0.404913 -1.091013
v 0.597643 -0.400341 -1.101590
v 0.597643 -0.400341 -1.101590
vn -0.0000 -0.0000 1.0000
vn -1.0000 -0.0000 -0.0000
vn -0.0000 -0.9179 -0.3968
vn -0.0000 0.6108 -0.7918
vn 0.0017 -0.6990 0.7151
vn 1.0000 -0.0000 -0.0000
vn -0.0028 0.6096 -0.7927
vn -0.0000 -0.6999 0.7142
s 0
f 14//1 17//1 19//1
f 11//2 15//2 9//2
f 16//3 21//3 10//3
f 1//4 24//4 2//4
f 4//5 22//5 18//5
f 5//6 8//6 6//6
f 14//1 12//1 17//1
f 11//2 13//2 15//2
f 16//3 23//3 21//3
f 1//7 20//7 24//7
f 4//8 3//8 22//8
f 5//6 7//6 8//6
