# Blender 4.2.3 LTS
# www.blender.org
o S2_X_2_phy
v 0.596783 0.316551 -1.036955
v 0.596783 0.258261 -1.036955
v 0.596783 0.400341 -1.101590
v 0.596783 0.397155 -1.119557
v 0.596783 0.393241 -1.131061
v 0.540357 0.393241 -1.131061
v 0.540357 0.397155 -1.119557
v 0.540357 0.400341 -1.101590
v 0.540357 0.316291 -1.036955
v 0.540357 0.258705 -1.036955
v 0.540357 0.400341 -1.101590
v 0.540357 0.400341 -1.101590
v 0.540357 0.316291 -1.036955
v 0.540357 0.316291 -1.036955
v 0.596783 0.316551 -1.036955
v 0.596783 0.316551 -1.036955
v 0.596783 0.400341 -1.101590
v 0.596783 0.400341 -1.101590
v 0.596783 0.397155 -1.119557
v 0.596783 0.393241 -1.131061
v 0.596783 0.393241 -1.131061
v 0.540357 0.393241 -1.131061
v 0.540357 0.393241 -1.131061
v 0.596783 0.258261 -1.036955
v 0.596783 0.258261 -1.036955
v 0.540357 0.258705 -1.036955
v 0.540357 0.258705 -1.036955
v 0.540357 0.397155 -1.119557
vn -0.0000 0.9846 -0.1746
vn 1.0000 -0.0000 -0.0000
vn -0.0028 0.6096 0.7927
vn -0.0000 -0.0000 1.0000
vn -0.0000 -0.5732 -0.8194
vn -0.0000 0.9467 -0.3221
vn -1.0000 -0.0000 -0.0000
vn -0.0000 0.6108 0.7918
vn -0.0045 -0.5719 -0.8203
s 0
f 28//1 18//1 19//1
f 4//2 15//2 25//2
f 16//3 11//3 13//3
f 1//4 26//4 24//4
f 21//5 27//5 22//5
f 19//6 23//6 28//6
f 10//7 8//7 7//7
f 28//1 12//1 18//1
f 25//2 20//2 4//2
f 4//2 17//2 15//2
f 16//8 3//8 11//8
f 1//4 14//4 26//4
f 21//9 2//9 27//9
f 19//6 5//6 23//6
f 7//7 6//7 10//7
f 10//7 9//7 8//7
