# Blender 3.4.1
# www.blender.org
o DS_funnel_y_4_vis
v 0.114196 -0.149957 -0.422665
v 0.300217 -0.149957 -0.256955
v 0.086063 -0.149957 -0.399934
v 0.189586 -0.149957 -0.256955
v 0.114196 -0.079957 -0.422665
v 0.180217 -0.079957 -0.256955
v 0.086063 -0.079957 -0.399934
v 0.300217 -0.079957 -0.256955
v 0.300217 -0.079957 -0.256955
v 0.086063 -0.149957 -0.399934
v 0.086063 -0.149957 -0.399934
v 0.189586 -0.149957 -0.256955
v 0.189586 -0.149957 -0.256955
v 0.086063 -0.079957 -0.399934
v 0.086063 -0.079957 -0.399934
v 0.114196 -0.079957 -0.422665
v 0.114196 -0.079957 -0.422665
v 0.180217 -0.079957 -0.256955
v 0.180217 -0.079957 -0.256955
v 0.114196 -0.149957 -0.422665
v 0.114196 -0.149957 -0.422665
v 0.300217 -0.149957 -0.256955
v 0.300217 -0.149957 -0.256955
v 0.300217 -0.079957 -0.256955
v 0.300217 -0.079957 -0.256955
vn -0.0000 -1.0000 -0.0000
vn -0.0000 1.0000 -0.0000
vn -0.0000 0.4204 0.9074
vn -0.6285 -0.0000 -0.7778
vn -0.8133 -0.0825 0.5760
vn -0.8288 -0.0268 0.5589
vn -0.8053 -0.1078 0.5830
vn -0.0000 -0.0000 1.0000
vn 0.6652 -0.0000 -0.7467
vn -0.8352 -0.0000 0.5500
s 1
f 12//1 20//1 22//1
f 18//2 24//3 15//2
f 11//4 17//4 21//4
f 19//5 3//6 13//7
f 4//8 8//8 6//8
f 9//9 1//9 5//9
f 12//1 10//1 20//1
f 18//2 25//8 24//3
f 24//3 16//2 15//2
f 11//4 14//4 17//4
f 19//5 7//10 3//6
f 4//8 23//8 8//8
f 9//9 2//9 1//9
