# Blender 4.2.3 LTS
# www.blender.org
o S2_X_1_phy
v 0.596783 0.000000 -1.036955
v 0.596783 0.258261 -1.036955
v 0.596783 0.000000 -1.276955
v 0.596783 0.324291 -1.194661
v 0.596783 0.342737 -1.184174
v 0.596783 0.386054 -1.140858
v 0.596783 0.334222 -1.190663
v 0.596783 0.393241 -1.131061
v 0.540621 0.000000 -1.276955
v 0.540621 0.000000 -1.036955
v 0.540621 0.386053 -1.140858
v 0.540621 0.393241 -1.131061
v 0.540621 0.342737 -1.184174
v 0.540621 0.324291 -1.194661
v 0.540621 0.334222 -1.190663
v 0.540621 0.258703 -1.036955
v 0.596783 0.258261 -1.036955
v 0.596783 0.258261 -1.036955
v 0.596783 0.324291 -1.194661
v 0.596783 0.342737 -1.184174
v 0.596783 0.386054 -1.140858
v 0.596783 0.334222 -1.190663
v 0.596783 0.393241 -1.131061
v 0.596783 0.393241 -1.131061
v 0.540621 0.000000 -1.276955
v 0.540621 0.000000 -1.276955
v 0.540621 0.393241 -1.131061
v 0.540621 0.393241 -1.131061
v 0.540621 0.324291 -1.194661
v 0.540621 0.334222 -1.190663
v 0.540621 0.258703 -1.036955
v 0.540621 0.258703 -1.036955
v 0.540621 0.342737 -1.184174
v 0.540621 0.386053 -1.140858
vn -1.0000 -0.0000 -0.0000
vn -0.0000 0.8063 -0.5915
vn -0.0000 0.6061 -0.7954
vn 1.0000 -0.0000 -0.0000
vn -0.0000 -0.0000 1.0000
vn 0.0045 0.5719 0.8203
vn -0.0000 -1.0000 -0.0000
vn -0.0000 0.3735 -0.9276
vn -0.0000 0.7071 -0.7071
vn -0.0000 0.2460 -0.9693
vn -0.0000 0.5732 0.8194
s 0
f 10//1 32//1 28//1
f 27//2 6//2 34//2
f 5//3 15//3 33//3
f 3//4 22//4 21//4
f 10//5 18//5 31//5
f 8//6 16//6 2//6
f 10//7 3//7 1//7
f 7//8 29//8 15//8
f 5//9 34//9 6//9
f 9//10 4//10 3//10
f 14//1 25//1 10//1
f 30//1 14//1 10//1
f 11//1 13//1 30//1
f 11//1 30//1 10//1
f 28//1 11//1 10//1
f 10//5 16//5 32//5
f 27//2 23//2 6//2
f 5//3 7//3 15//3
f 21//4 24//4 17//4
f 17//4 1//4 3//4
f 3//4 19//4 22//4
f 22//4 20//4 21//4
f 21//4 17//4 3//4
f 10//5 1//5 18//5
f 31//5 16//5 10//5
f 8//11 12//11 16//11
f 10//7 26//7 3//7
f 7//8 4//8 29//8
f 5//9 33//9 34//9
f 9//10 29//10 4//10
