# Blender 3.4.1
# www.blender.org
o DS_funnel_y_7_vis
v 0.018301 -0.149957 -0.375980
v 0.018301 -0.079957 -0.375980
v 0.300217 -0.079957 -0.256955
v 0.000000 -0.149957 -0.256955
v 0.000000 -0.079957 -0.256955
v 0.029298 -0.079957 -0.256955
v 0.025033 -0.149957 -0.256955
v 0.300217 -0.079957 -0.256955
v 0.000000 -0.149957 -0.375980
v 0.000000 -0.079957 -0.375980
v 0.018301 -0.079957 -0.375980
v 0.018301 -0.079957 -0.375980
v 0.000000 -0.079957 -0.375980
v 0.000000 -0.079957 -0.375980
v 0.000000 -0.149957 -0.375980
v 0.000000 -0.149957 -0.375980
v 0.018301 -0.149957 -0.375980
v 0.018301 -0.149957 -0.375980
v 0.025033 -0.149957 -0.256955
v 0.025033 -0.149957 -0.256955
v 0.000000 -0.149957 -0.256955
v 0.000000 -0.149957 -0.256955
v 0.029298 -0.079957 -0.256955
v 0.029298 -0.079957 -0.256955
v 0.000000 -0.079957 -0.256955
v 0.000000 -0.079957 -0.256955
vn -0.0000 -0.0000 -1.0000
vn -1.0000 -0.0000 -0.0000
vn -0.0000 -1.0000 -0.0000
vn -0.0000 1.0000 -0.0000
vn -0.0000 -0.0000 1.0000
vn 0.9960 -0.0402 -0.0800
vn 0.9974 -0.0205 -0.0685
vn 0.9939 -0.0606 -0.0918
vn 0.9984 -0.0000 -0.0565
s 1
f 17//1 13//1 11//1
f 26//2 16//2 22//2
f 18//3 21//3 9//3
f 25//4 12//4 10//4
f 5//5 20//5 24//5
f 7//6 2//7 6//8
f 17//1 15//1 13//1
f 26//2 14//2 16//2
f 18//3 19//3 21//3
f 25//4 23//4 12//4
f 5//5 4//5 20//5
f 7//6 1//9 2//7
l 3 8
