# Blender 3.4.1
# www.blender.org
o DS_funnel_x_4_vis_
v 0.611217 -0.382934 -1.036955
v 0.541217 -0.382955 -1.036955
v 0.541217 -0.413744 -1.083610
v 0.541217 -0.404913 -1.091013
v 0.611217 -0.413744 -1.083610
v 0.611217 -0.404913 -1.091013
v 0.611217 -0.349581 -1.036955
v 0.541217 -0.349753 -1.036955
v 0.541217 -0.404913 -1.091013
v 0.541217 -0.404913 -1.091013
v 0.611217 -0.404913 -1.091013
v 0.611217 -0.404913 -1.091013
v 0.611217 -0.413744 -1.083610
v 0.611217 -0.413744 -1.083610
v 0.541217 -0.413744 -1.083610
v 0.541217 -0.413744 -1.083610
v 0.611217 -0.382934 -1.036955
v 0.611217 -0.382934 -1.036955
v 0.541217 -0.382955 -1.036955
v 0.541217 -0.382955 -1.036955
v 0.611217 -0.349581 -1.036955
v 0.611217 -0.349581 -1.036955
v 0.541217 -0.349753 -1.036955
v 0.541217 -0.349753 -1.036955
vn 1.0000 -0.0000 -0.0000
vn 0.0003 -0.8345 0.5511
vn -0.0000 0.6999 -0.7142
vn -0.0000 -0.0000 1.0000
vn -1.0000 -0.0000 -0.0000
vn -0.0000 -0.6424 -0.7663
vn -0.0000 -0.8346 0.5508
vn -0.0017 0.6988 -0.7153
s 0
f 12//1 17//1 13//1
f 19//2 14//2 18//2
f 24//3 11//3 9//3
f 1//4 23//4 20//4
f 2//5 10//5 15//5
f 5//6 4//6 6//6
f 12//1 21//1 17//1
f 19//7 16//7 14//7
f 24//8 22//8 11//8
f 1//4 7//4 23//4
f 2//5 8//5 10//5
f 5//6 3//6 4//6
