# Blender 3.4.1
# www.blender.org
o DS_funnel_y_4_phy
v 0.114196 -0.149957 -0.422665
v 0.300217 -0.149957 -0.256955
v 0.086063 -0.149957 -0.399934
v 0.189586 -0.149957 -0.256955
v 0.114196 -0.079957 -0.422665
v 0.180217 -0.079957 -0.256955
v 0.086063 -0.079957 -0.399934
v 0.300217 -0.079957 -0.256955
v 0.300217 -0.079957 -0.256955
vn -0.0000 -1.0000 -0.0000
vn -0.0000 1.0000 -0.0000
vn -0.6285 -0.0000 -0.7778
vn -0.8053 -0.1078 0.5830
vn -0.0000 -0.0000 1.0000
vn 0.6652 -0.0000 -0.7467
vn -0.0000 -0.0000 -1.0000
vn -0.8352 -0.0000 0.5500
s 0
f 4//1 1//1 2//1
f 6//2 9//2 7//2
f 3//3 5//3 1//3
f 6//4 3//4 4//4
f 4//5 8//5 6//5
f 9//6 1//6 5//6
f 4//1 3//1 1//1
f 6//7 8//7 9//7
f 9//2 5//2 7//2
f 3//3 7//3 5//3
f 6//8 7//8 3//8
f 4//5 2//5 8//5
f 9//6 2//6 1//6
