# Blender 3.4.1
# www.blender.org
o DS_funnel_y_3_vis
v 0.136504 -0.149957 -0.451133
v 0.114196 -0.149957 -0.422665
v 0.300217 -0.149957 -0.256955
v 0.136504 -0.079957 -0.451133
v 0.114196 -0.079957 -0.422665
v 0.362294 -0.079957 -0.256955
v 0.359135 -0.149957 -0.256955
v 0.300217 -0.079957 -0.256955
v 0.300217 -0.079957 -0.256955
v 0.136504 -0.149957 -0.451133
v 0.136504 -0.149957 -0.451133
v 0.114196 -0.149957 -0.422665
v 0.114196 -0.149957 -0.422665
v 0.136504 -0.079957 -0.451133
v 0.136504 -0.079957 -0.451133
v 0.300217 -0.149957 -0.256955
v 0.300217 -0.149957 -0.256955
v 0.114196 -0.079957 -0.422665
v 0.114196 -0.079957 -0.422665
v 0.300217 -0.079957 -0.256955
v 0.300217 -0.079957 -0.256955
v 0.362294 -0.079957 -0.256955
v 0.362294 -0.079957 -0.256955
v 0.359135 -0.149957 -0.256955
v 0.359135 -0.149957 -0.256955
vn -0.0000 -1.0000 -0.0000
vn -0.0000 1.0000 -0.0000
vn -0.0000 0.8382 0.5454
vn -0.0000 1.0000 0.0007
vn -0.7871 -0.0000 -0.6168
vn -0.6652 -0.0000 0.7467
vn -0.0000 -0.0000 1.0000
vn 0.6526 -0.0252 -0.7573
vn 0.6565 -0.0044 -0.7543
vn 0.6518 -0.0294 -0.7579
vn 0.6573 -0.0000 -0.7536
s 1
f 10//1 16//1 12//1
f 19//2 20//3 22//4
f 14//5 13//5 18//5
f 8//6 2//6 17//6
f 25//7 9//7 3//7
f 7//8 4//9 6//10
f 10//1 24//1 16//1
f 22//4 15//2 19//2
f 20//3 21//7 22//4
f 14//5 11//5 13//5
f 8//6 5//6 2//6
f 25//7 23//7 9//7
f 7//8 1//11 4//9
