# Blender 3.4.1
# www.blender.org
o DS_funnel_y_6_phy
v 0.060217 -0.149957 -0.256955
v 0.053545 -0.149957 -0.384103
v 0.018301 -0.149957 -0.375980
v 0.060217 -0.079957 -0.256955
v 0.018301 -0.079957 -0.375980
v 0.053545 -0.079957 -0.384103
v 0.029298 -0.079957 -0.256955
v 0.025033 -0.149957 -0.256955
vn -0.0000 -1.0000 -0.0000
vn -0.0000 1.0000 -0.0000
vn -0.2246 -0.0000 -0.9745
vn -0.9984 -0.0000 0.0565
vn -0.0000 -0.0000 1.0000
vn 0.9986 -0.0000 -0.0524
vn -0.9939 0.0606 0.0918
s 0
f 1//1 3//1 2//1
f 4//2 5//2 7//2
f 2//3 5//3 6//3
f 8//4 5//4 3//4
f 7//5 1//5 4//5
f 4//6 2//6 6//6
f 1//1 8//1 3//1
f 4//2 6//2 5//2
f 2//3 3//3 5//3
f 8//7 7//7 5//7
f 7//5 8//5 1//5
f 4//6 1//6 2//6
