# Blender 3.4.1
# www.blender.org
o Handle_0_phy
v -0.955154 -0.710131 -1.790954
v -0.944587 -0.704457 -1.790954
v -0.944587 -0.704457 -1.761183
v -0.944012 -0.705815 -1.790954
v -0.943783 -0.707457 -1.761183
v -0.944995 -0.703841 -1.790954
v -0.946625 -0.702356 -1.790954
v -0.946783 -0.702261 -1.761183
v -0.946783 -0.702261 -1.790954
v -0.948681 -0.701559 -1.790954
v -0.949783 -0.701457 -1.761183
v -0.949783 -0.701457 -1.790954
v -0.950886 -0.701559 -1.790954
v -0.952783 -0.702261 -1.761183
v -0.952783 -0.702261 -1.790954
v -0.954979 -0.704457 -1.761183
v -0.952942 -0.702356 -1.790954
v -0.954571 -0.703841 -1.790954
v -0.955783 -0.707457 -1.790954
v -0.955783 -0.707457 -1.761183
v -0.955554 -0.705815 -1.790954
v -0.954979 -0.704457 -1.790954
v -0.955758 -0.708011 -1.790954
v -0.955154 -0.710131 -1.790954
v -0.954979 -0.710457 -1.761183
v -0.954979 -0.710457 -1.790954
v -0.953825 -0.711891 -1.790954
v -0.952783 -0.712653 -1.761183
v -0.952783 -0.712653 -1.790954
v -0.951951 -0.713052 -1.790954
v -0.949783 -0.713457 -1.761183
v -0.949783 -0.713457 -1.790954
v -0.947616 -0.713052 -1.790954
v -0.946783 -0.712653 -1.761183
v -0.944587 -0.710457 -1.790954
v -0.944587 -0.710457 -1.761183
v -0.945741 -0.711891 -1.790954
v -0.946783 -0.712653 -1.790954
v -0.944412 -0.710131 -1.790954
v -0.943809 -0.708011 -1.790954
v -0.943783 -0.707457 -1.790954
vn -0.0000 -0.0000 -1.0000
vn -0.0000 -0.0000 1.0000
vn -0.9659 0.2588 -0.0000
vn -0.8808 -0.4729 0.0239
vn -0.5901 -0.8071 0.0160
vn -0.1837 -0.9829 0.0080
vn 0.2588 -0.9659 -0.0000
vn 0.7071 -0.7071 -0.0000
vn 0.9659 -0.2588 -0.0000
vn 0.9659 0.2588 -0.0000
vn 0.6622 0.7493 -0.0000
vn -0.0923 0.9951 0.0362
vn -0.3612 0.9324 0.0102
vn -0.7179 0.6961 0.0016
vn -0.0017 -0.0000 -1.0000
vn 0.0005 -0.0000 -1.0000
vn -0.0011 -0.0000 -1.0000
vn 0.0009 -0.0000 -1.0000
vn 0.0021 -0.0000 -1.0000
vn -0.0007 -0.0000 -1.0000
vn 0.0034 -0.0000 -1.0000
vn -0.0021 -0.0000 -1.0000
vn 0.0007 -0.0000 -1.0000
vn 0.0002 -0.0000 -1.0000
vn 0.0003 -0.0000 -1.0000
vn 0.0001 -0.0000 -1.0000
vn -0.0001 -0.0000 1.0000
vn 0.0001 -0.0000 1.0000
vn -0.9989 -0.0461 -0.0000
vn -0.9659 -0.2588 -0.0000
vn -0.9618 -0.2737 0.0043
vn -0.7071 -0.7071 -0.0000
vn -0.7791 -0.6269 -0.0000
vn -0.2588 -0.9659 -0.0000
vn -0.4320 -0.9019 -0.0000
vn -0.0008 -0.0000 1.0000
vn 0.9904 0.1382 -0.0000
vn -0.0035 -0.0000 1.0000
vn 0.9208 0.3897 0.0144
vn 0.8336 0.5523 -0.0000
vn 0.3468 0.9379 -0.0000
vn 0.7071 0.7071 0.0049
vn -0.0040 -0.0000 1.0000
vn 0.2588 0.9658 -0.0129
vn 0.0923 0.9956 0.0176
vn -0.2589 0.9659 -0.0017
vn -0.7071 0.7071 -0.0000
s 0
f 30//1 22//1 7//1
f 31//2 3//2 16//2
f 22//3 19//3 20//3
f 20//4 24//4 26//4
f 25//5 27//5 29//5
f 28//6 30//6 32//6
f 38//7 31//7 32//7
f 35//8 34//8 38//8
f 41//9 5//9 35//9
f 2//10 3//10 5//10
f 8//11 6//11 9//11
f 8//12 12//12 13//12
f 17//13 11//13 13//13
f 22//14 14//14 17//14
f 41//15 40//15 39//15
f 39//1 35//1 37//1
f 37//16 38//16 33//16
f 33//1 32//1 30//1
f 30//17 29//17 27//17
f 27//18 26//18 24//18
f 24//19 23//19 19//19
f 19//20 21//20 22//20
f 22//1 18//1 17//1
f 17//21 15//21 13//21
f 13//1 12//1 10//1
f 10//22 9//22 7//22
f 7//1 6//1 2//1
f 2//23 4//23 41//23
f 41//24 39//24 37//24
f 37//1 33//1 30//1
f 30//25 27//25 24//25
f 24//1 19//1 22//1
f 22//26 17//26 13//26
f 13//1 10//1 7//1
f 7//1 2//1 41//1
f 41//1 37//1 30//1
f 30//1 24//1 22//1
f 22//1 13//1 7//1
f 7//1 41//1 30//1
f 16//2 20//2 25//2
f 25//2 28//2 31//2
f 31//27 34//27 36//27
f 36//2 5//2 3//2
f 3//2 8//2 11//2
f 11//28 14//28 16//28
f 16//2 25//2 31//2
f 31//2 36//2 3//2
f 3//2 11//2 16//2
f 20//3 16//3 22//3
f 19//29 23//29 20//29
f 26//30 25//30 20//30
f 20//31 23//31 24//31
f 29//32 28//32 25//32
f 25//33 26//33 27//33
f 32//34 31//34 28//34
f 28//35 29//35 30//35
f 32//2 33//2 38//2
f 38//7 34//7 31//7
f 38//36 37//36 35//36
f 35//8 36//8 34//8
f 41//37 4//37 5//37
f 5//9 36//9 35//9
f 35//38 39//38 41//38
f 5//39 4//39 2//39
f 2//40 6//40 3//40
f 9//41 10//41 8//41
f 8//42 3//42 6//42
f 6//43 7//43 9//43
f 13//44 11//44 8//44
f 8//45 10//45 12//45
f 17//46 14//46 11//46
f 22//47 16//47 14//47
l 1 24
