# Blender 3.4.1
# www.blender.org
o Handle_8_vis
v -0.952283 -0.828127 -1.750954
v -0.954113 -0.829957 -1.750954
v -0.954783 -0.832457 -1.750954
v -0.954113 -0.834957 -1.750954
v -0.945453 -0.829957 -1.750954
v -0.947283 -0.828127 -1.750954
v -0.949783 -0.827457 -1.750954
v -0.947283 -0.836787 -1.750954
v -0.945453 -0.834957 -1.750954
v -0.944783 -0.832457 -1.750954
v -0.952283 -0.836787 -1.750954
v -0.949783 -0.837457 -1.750954
v -0.947616 -0.826862 -1.790954
v -0.947616 -0.826529 -1.797107
v -0.945741 -0.827682 -1.797232
v -0.944412 -0.829432 -1.797423
v -0.944995 -0.835685 -1.798103
v -0.951951 -0.826529 -1.797107
v -0.949783 -0.826126 -1.797063
v -0.953825 -0.827682 -1.797232
v -0.953825 -0.828023 -1.790954
v -0.955154 -0.829432 -1.797423
v -0.955758 -0.831540 -1.797652
v -0.955554 -0.834099 -1.790954
v -0.955554 -0.833723 -1.797889
v -0.954571 -0.835685 -1.798103
v -0.952942 -0.837162 -1.798263
v -0.949783 -0.838457 -1.790954
v -0.950886 -0.838355 -1.790954
v -0.950886 -0.837954 -1.798349
v -0.946783 -0.837653 -1.790954
v -0.948681 -0.838355 -1.790954
v -0.948681 -0.837954 -1.798349
v -0.946625 -0.837162 -1.798263
v -0.944012 -0.834099 -1.790954
v -0.944012 -0.833723 -1.797889
v -0.943809 -0.831540 -1.797652
v -0.945741 -0.828023 -1.790954
v -0.955783 -0.832457 -1.751954
v -0.954979 -0.829457 -1.751954
v -0.952783 -0.827261 -1.751954
v -0.949783 -0.826457 -1.751954
v -0.946783 -0.827261 -1.751954
v -0.944587 -0.829457 -1.751954
v -0.943783 -0.832457 -1.751954
v -0.944587 -0.835457 -1.751954
v -0.946783 -0.837653 -1.751954
v -0.949783 -0.838457 -1.751954
v -0.952783 -0.837653 -1.751954
v -0.954979 -0.835457 -1.751954
v -0.950886 -0.837954 -1.798349
v -0.948681 -0.837954 -1.798349
v -0.947616 -0.826529 -1.797107
v -0.945741 -0.827682 -1.797232
v -0.945741 -0.827682 -1.797232
v -0.949783 -0.826126 -1.797063
v -0.952283 -0.836787 -1.750954
v -0.949783 -0.837457 -1.750954
v -0.954783 -0.832457 -1.750954
v -0.954113 -0.834957 -1.750954
v -0.955154 -0.829432 -1.797423
v -0.955758 -0.831540 -1.797652
v -0.952783 -0.837653 -1.751954
v -0.954979 -0.835457 -1.751954
v -0.943783 -0.832457 -1.751954
v -0.944587 -0.835457 -1.751954
v -0.952783 -0.827261 -1.751954
v -0.949783 -0.826457 -1.751954
v -0.944412 -0.829432 -1.797423
v -0.946783 -0.827261 -1.751954
v -0.946783 -0.827261 -1.751954
v -0.947283 -0.836787 -1.750954
v -0.945453 -0.834957 -1.750954
v -0.952283 -0.828127 -1.750954
v -0.954113 -0.829957 -1.750954
v -0.949783 -0.827457 -1.750954
v -0.955554 -0.833723 -1.797889
v -0.946625 -0.837162 -1.798263
v -0.946625 -0.837162 -1.798263
v -0.944012 -0.833723 -1.797889
v -0.943809 -0.831540 -1.797652
v -0.946783 -0.837653 -1.751954
v -0.952942 -0.837162 -1.798263
v -0.945453 -0.829957 -1.750954
v -0.947283 -0.828127 -1.750954
v -0.944783 -0.832457 -1.750954
v -0.951951 -0.826529 -1.797107
v -0.953825 -0.827682 -1.797232
v -0.944995 -0.835685 -1.798103
v -0.954571 -0.835685 -1.798103
v -0.949783 -0.838457 -1.751954
v -0.944587 -0.829457 -1.751954
v -0.955783 -0.832457 -1.751954
v -0.954979 -0.829457 -1.751954
vn -0.6124 -0.3535 0.7071
vn -0.3536 -0.6124 0.7071
vn -0.0000 0.7070 0.7072
vn -0.3535 0.6123 0.7072
vn -0.3536 0.6123 0.7072
vn -0.0000 -0.0000 1.0000
vn -0.9965 0.0833 -0.0000
vn -0.9522 -0.3054 -0.0048
vn -1.0000 0.0005 0.0046
vn -0.6124 0.3535 0.7071
vn -0.7071 -0.0000 0.7071
vn -0.7072 -0.0000 0.7070
vn -0.6800 0.7332 0.0063
vn -0.8961 0.4437 0.0156
vn -0.8662 0.4997 0.0046
vn 0.9522 -0.3054 -0.0048
vn 0.9965 0.0833 -0.0000
vn 1.0000 0.0005 0.0046
vn -0.0000 -0.7071 0.7071
vn -0.0000 -0.7070 0.7072
vn 0.7867 -0.6173 -0.0112
vn 0.8652 -0.5014 0.0024
vn 0.6224 -0.7823 -0.0239
vn 0.6872 -0.7265 -0.0035
vn -0.7874 -0.6163 -0.0129
vn -0.5021 -0.8648 0.0008
vn -0.8648 -0.5022 0.0011
vn -0.0000 -0.9996 -0.0277
vn -0.2849 -0.9584 -0.0196
vn -0.1867 -0.9806 -0.0595
vn 0.1867 -0.9806 -0.0595
vn 0.7071 -0.0000 0.7071
vn 0.6123 -0.3536 0.7071
vn 0.3590 0.9333 0.0071
vn 0.2649 0.9642 0.0068
vn 0.5028 0.8636 0.0373
vn 0.0142 0.9996 0.0252
vn 0.7092 0.7050 0.0052
vn 0.8542 0.5198 0.0125
vn 0.8047 0.5928 0.0321
vn 0.3629 0.9305 0.0504
vn 0.8961 0.4437 0.0156
vn -0.5016 0.8651 0.0081
vn -0.3757 0.9265 0.0225
vn -0.6763 0.7355 0.0399
vn -0.5315 -0.8467 -0.0249
vn 0.0012 1.0000 0.0092
vn 0.8662 0.4997 0.0046
vn 0.5013 -0.8653 0.0024
vn 0.2216 -0.9748 -0.0272
vn -0.0000 -1.0000 0.0049
vn 0.3584 -0.9322 -0.0513
vn 0.3536 -0.6124 0.7071
vn 0.6124 -0.3535 0.7071
vn 0.6123 0.3535 0.7071
vn 0.3535 0.6123 0.7072
vn 0.6124 0.3535 0.7071
vn -0.6123 0.3535 0.7071
vn -0.0000 0.1081 -0.9941
vn -0.6123 -0.3535 0.7072
vn -0.0000 0.7071 0.7072
vn -0.0003 -0.0000 1.0000
vn 0.0003 -0.0000 1.0000
vn -0.9600 -0.2795 -0.0152
vn 0.9600 -0.2795 -0.0152
vn -0.0000 0.1080 -0.9941
vn -0.0000 0.1080 -0.9942
vn 0.0001 0.1081 -0.9941
vn -0.0005 0.1081 -0.9941
vn 0.0003 0.1081 -0.9941
vn -0.0003 0.1081 -0.9941
vn -0.0001 0.1081 -0.9941
vn 0.0005 0.1081 -0.9941
s 1
f 4//1 63//2 11//2
f 76//3 41//4 1//5
f 7//6 60//6 73//6
f 62//7 24//8 39//9
f 2//10 93//11 3//12
f 21//13 61//14 40//15
f 35//16 81//17 65//18
f 11//2 91//19 12//20
f 89//21 35//16 66//22
f 66//22 31//23 78//24
f 90//25 49//26 50//27
f 28//28 29//29 51//30
f 28//28 51//30 52//31
f 24//8 90//25 50//27
f 10//32 46//33 45//32
f 13//34 70//35 54//36
f 56//37 70//35 13//34
f 71//38 38//39 55//40
f 13//34 54//36 53//41
f 69//42 65//18 81//17
f 38//39 69//42 55//40
f 21//13 40//15 67//43
f 21//13 87//44 88//45
f 83//46 29//29 49//26
f 87//44 42//47 56//37
f 38//39 71//38 92//48
f 61//14 39//9 40//15
f 66//22 35//16 65//18
f 31//23 66//22 47//49
f 32//50 28//28 52//31
f 32//50 47//49 48//51
f 29//29 48//51 49//26
f 79//52 31//23 32//50
f 66//22 78//24 89//21
f 39//9 24//8 50//27
f 82//53 9//54 72//53
f 91//19 72//53 12//20
f 44//55 6//56 5//57
f 43//56 76//3 6//56
f 93//11 4//1 3//12
f 1//5 94//58 2//10
f 27//59 14//59 36//59
f 45//32 5//57 10//32
f 4//1 64//60 63//2
f 76//3 68//61 41//4
f 73//6 86//62 84//6
f 84//6 85//6 7//6
f 7//6 74//6 75//6
f 75//6 59//63 60//6
f 60//6 57//6 58//6
f 58//6 8//6 73//6
f 73//6 84//6 7//6
f 7//6 75//6 60//6
f 60//6 58//6 73//6
f 62//7 77//64 24//8
f 2//10 94//58 93//11
f 21//13 88//45 61//14
f 35//16 80//65 81//17
f 11//2 63//2 91//19
f 89//21 80//65 35//16
f 90//25 83//46 49//26
f 28//28 48//51 29//29
f 24//8 77//64 90//25
f 10//32 9//54 46//33
f 13//34 53//41 56//37
f 56//37 42//47 70//35
f 69//42 92//48 65//18
f 38//39 92//48 69//42
f 21//13 67//43 87//44
f 83//46 51//30 29//29
f 87//44 67//43 42//47
f 61//14 62//7 39//9
f 32//50 48//51 28//28
f 32//50 52//31 79//52
f 31//23 47//49 32//50
f 82//53 46//33 9//54
f 91//19 82//53 72//53
f 44//55 43//56 6//56
f 43//56 68//61 76//3
f 93//11 64//60 4//1
f 1//5 41//4 94//58
f 33//66 30//66 27//59
f 27//59 26//67 25//68
f 25//68 23//69 22//59
f 22//59 20//70 18//59
f 18//59 19//67 14//59
f 14//59 15//71 16//72
f 16//72 37//73 36//59
f 36//59 17//67 34//59
f 34//59 33//66 27//59
f 27//59 25//68 22//59
f 22//59 18//59 14//59
f 14//59 16//72 36//59
f 36//59 34//59 27//59
f 27//59 22//59 14//59
f 45//32 44//55 5//57
