# Blender 3.4.1
# www.blender.org
o Handle_1_vis
v -0.944587 -0.704457 -1.790954
v -0.944012 -0.705815 -1.790954
v -0.944995 -0.703841 -1.790954
v -0.946625 -0.702356 -1.790954
v -0.946783 -0.702261 -1.790954
v -0.948681 -0.701559 -1.790954
v -0.949783 -0.701457 -1.790954
v -0.950886 -0.701559 -1.790954
v -0.952783 -0.702261 -1.790954
v -0.952942 -0.702356 -1.790954
v -0.954571 -0.703841 -1.790954
v -0.955783 -0.707457 -1.790954
v -0.955554 -0.705815 -1.790954
v -0.954979 -0.704457 -1.790954
v -0.955758 -0.708011 -1.790954
v -0.955154 -0.710131 -1.790954
v -0.954979 -0.710457 -1.790954
v -0.953825 -0.711891 -1.790954
v -0.952783 -0.712653 -1.790954
v -0.951951 -0.713052 -1.790954
v -0.949783 -0.713457 -1.790954
v -0.947616 -0.713052 -1.790954
v -0.944587 -0.710457 -1.790954
v -0.945741 -0.711891 -1.790954
v -0.946783 -0.712653 -1.790954
v -0.944412 -0.710131 -1.790954
v -0.943809 -0.708011 -1.790954
v -0.943783 -0.707457 -1.790954
v -0.953825 -0.712231 -1.797232
v -0.949783 -0.718679 -1.814678
v -0.951951 -0.718311 -1.814848
v -0.949783 -0.716414 -1.808995
v -0.951951 -0.716031 -1.809124
v -0.949783 -0.714778 -1.803100
v -0.951951 -0.714382 -1.803187
v -0.949783 -0.713788 -1.797063
v -0.951951 -0.713385 -1.797107
v -0.953825 -0.717258 -1.815336
v -0.953825 -0.714931 -1.809495
v -0.953825 -0.713248 -1.803437
v -0.955154 -0.710482 -1.797423
v -0.955154 -0.713263 -1.810057
v -0.955154 -0.715661 -1.816074
v -0.955758 -0.713736 -1.816965
v -0.955758 -0.708374 -1.797652
v -0.955554 -0.707314 -1.804743
v -0.955554 -0.711743 -1.817887
v -0.954571 -0.709952 -1.818716
v -0.954571 -0.705387 -1.805167
v -0.954571 -0.704229 -1.798103
v -0.952942 -0.708604 -1.819339
v -0.952942 -0.705894 -1.812540
v -0.952942 -0.703936 -1.805487
v -0.952942 -0.702752 -1.798263
v -0.950886 -0.701960 -1.798349
v -0.950886 -0.703158 -1.805658
v -0.950886 -0.705140 -1.812794
v -0.950886 -0.707881 -1.819674
v -0.948681 -0.707881 -1.819674
v -0.948681 -0.705140 -1.812794
v -0.948681 -0.703158 -1.805658
v -0.948681 -0.701960 -1.798349
v -0.946625 -0.708604 -1.819339
v -0.946625 -0.705894 -1.812540
v -0.946625 -0.703936 -1.805487
v -0.946625 -0.702752 -1.798263
v -0.944995 -0.704229 -1.798103
v -0.944995 -0.705387 -1.805167
v -0.944995 -0.709952 -1.818716
v -0.944012 -0.711743 -1.817887
v -0.944012 -0.707314 -1.804743
v -0.943809 -0.713736 -1.816965
v -0.943809 -0.708374 -1.797652
v -0.944412 -0.710482 -1.797423
v -0.944412 -0.713263 -1.810057
v -0.944412 -0.715661 -1.816074
v -0.945741 -0.717258 -1.815336
v -0.945741 -0.714931 -1.809495
v -0.945741 -0.713248 -1.803437
v -0.945741 -0.712231 -1.797232
v -0.947616 -0.718311 -1.814848
v -0.947616 -0.716031 -1.809124
v -0.947616 -0.714382 -1.803187
v -0.947616 -0.713385 -1.797107
v -0.945741 -0.717258 -1.815336
v -0.947616 -0.718311 -1.814848
v -0.943809 -0.708011 -1.790954
v -0.943783 -0.707457 -1.790954
v -0.949783 -0.713457 -1.790954
v -0.947616 -0.713052 -1.790954
v -0.955154 -0.710131 -1.790954
v -0.954979 -0.710457 -1.790954
v -0.949783 -0.701457 -1.790954
v -0.950886 -0.701559 -1.790954
v -0.944012 -0.705815 -1.790954
v -0.955554 -0.711743 -1.817887
v -0.954571 -0.709952 -1.818716
v -0.946625 -0.708604 -1.819339
v -0.944995 -0.709952 -1.818716
v -0.946783 -0.702261 -1.790954
v -0.948681 -0.701559 -1.790954
v -0.955554 -0.705815 -1.790954
v -0.954979 -0.704457 -1.790954
v -0.945741 -0.711891 -1.790954
v -0.946783 -0.712653 -1.790954
v -0.952783 -0.712653 -1.790954
v -0.951951 -0.713052 -1.790954
v -0.952942 -0.702356 -1.790954
v -0.954571 -0.703841 -1.790954
v -0.952783 -0.702261 -1.790954
v -0.955758 -0.713736 -1.816965
v -0.955154 -0.715661 -1.816074
v -0.950886 -0.707881 -1.819674
v -0.948681 -0.707881 -1.819674
v -0.944412 -0.715661 -1.816074
v -0.944012 -0.711743 -1.817887
v -0.943809 -0.713736 -1.816965
v -0.953825 -0.711891 -1.790954
v -0.952942 -0.708604 -1.819339
v -0.944995 -0.703841 -1.790954
v -0.946625 -0.702356 -1.790954
v -0.944587 -0.704457 -1.790954
v -0.949783 -0.718679 -1.814678
v -0.951951 -0.718311 -1.814848
v -0.944587 -0.710457 -1.790954
v -0.944412 -0.710131 -1.790954
v -0.955783 -0.707457 -1.790954
v -0.955758 -0.708011 -1.790954
v -0.953825 -0.717258 -1.815336
vn -0.5043 -0.8632 0.0257
vn -0.6923 -0.7206 0.0391
vn -0.6760 -0.7329 0.0769
vn 0.1826 0.9602 -0.2114
vn -0.1826 0.9317 -0.3139
vn -0.1826 0.9602 -0.2113
vn -0.8163 0.5740 -0.0638
vn -0.1841 0.9767 -0.1103
vn 0.6769 -0.6976 0.2350
vn 0.3629 -0.8656 0.3449
vn 0.6763 -0.6843 0.2727
vn -0.3634 -0.9262 0.1007
vn -0.5872 -0.7865 0.1913
vn -0.3634 -0.9099 0.2003
vn -0.3634 -0.8829 0.2975
vn -0.0000 -0.9290 0.3701
vn -0.0000 -0.9477 0.3193
vn 0.8927 -0.4241 0.1522
vn 0.4187 -0.8516 0.3153
vn -0.3227 -0.9458 0.0361
vn 0.8159 0.5479 -0.1846
vn 0.1826 0.9317 -0.3139
vn -0.0000 -0.9941 0.1081
vn -0.0000 -0.9766 0.2150
vn 0.8164 0.5740 -0.0638
vn 0.1841 0.9767 -0.1103
vn 0.5292 0.8270 -0.1899
vn 0.5945 0.8027 -0.0473
vn 0.7727 0.6310 -0.0689
vn 0.3610 -0.9275 0.0970
vn 0.5872 -0.7941 0.1566
vn 0.6738 -0.7342 0.0826
vn -0.8381 -0.5390 0.0845
vn -0.8346 -0.5501 0.0289
vn -0.9278 -0.3724 0.0202
vn -0.9955 0.0926 -0.0203
vn -0.9876 -0.1561 0.0130
vn -0.9985 0.0542 -0.0112
vn -0.5332 0.7930 -0.2948
vn -0.7957 0.5889 -0.1413
vn -0.5292 0.8270 -0.1899
vn 0.5332 0.7929 -0.2948
vn 0.7934 0.5907 -0.1470
vn 0.1824 0.9134 -0.3639
vn -0.1823 0.9134 -0.3639
vn 0.9993 -0.0375 -0.0022
vn 0.8995 -0.4332 0.0569
vn 0.9707 0.2333 -0.0571
vn 0.8823 0.4693 -0.0364
vn -0.8054 0.5884 -0.0711
vn -0.8836 0.4665 -0.0413
vn -0.7568 0.6527 -0.0354
vn -0.5945 0.8027 -0.0473
vn -0.4301 0.9014 -0.0493
vn 0.4301 0.9014 -0.0493
vn 0.9584 0.2714 -0.0888
vn 0.9617 0.2720 -0.0336
vn -0.9607 0.2748 -0.0385
vn -0.2202 0.9740 -0.0528
vn -0.0000 0.9985 -0.0554
vn 0.2202 0.9740 -0.0528
vn -0.6730 -0.7035 0.2285
vn 0.3634 -0.9099 0.2003
vn -0.3629 -0.8656 0.3449
vn -0.8160 0.5478 -0.1846
vn 0.7568 0.6527 -0.0354
vn 0.5142 -0.8565 0.0446
vn -0.9584 0.2714 -0.0888
vn 0.7902 0.5808 -0.1957
vn 0.9985 0.0541 -0.0112
vn 0.9875 -0.1572 0.0085
vn -0.8974 -0.4098 0.1633
vn -0.8397 -0.5241 0.1420
vn -0.0000 -0.9985 0.0541
vn 0.3115 -0.9489 0.0514
vn 0.9279 -0.3724 0.0202
vn 0.8346 -0.5501 0.0289
vn 0.3634 -0.8829 0.2975
vn -0.9966 -0.0757 0.0313
vn -0.9698 0.2381 -0.0524
vn -0.7902 0.5808 -0.1957
vn -0.0000 -0.4199 -0.9076
vn -0.0000 -0.0000 1.0000
vn 0.9972 -0.0716 0.0199
vn -0.6763 -0.6843 0.2726
vn 0.6923 -0.7206 0.0391
vn -0.0002 -0.4199 -0.9076
vn -0.0003 -0.4196 -0.9077
vn -0.0000 -0.4198 -0.9076
vn 0.0003 -0.4197 -0.9077
vn -0.0003 -0.4198 -0.9076
vn -0.0003 -0.4197 -0.9076
vn -0.0000 -0.4200 -0.9075
vn 0.0003 -0.0000 1.0000
vn 0.0004 -0.0000 1.0000
vn 0.0001 -0.0000 1.0000
vn -0.0014 -0.0000 1.0000
vn -0.0007 -0.0000 1.0000
vn 0.0002 -0.0000 1.0000
vn -0.0004 -0.0000 1.0000
vn -0.0002 -0.0000 1.0000
vn 0.0008 -0.0000 1.0000
s 1
f 106//1 118//2 29//3
f 61//4 57//5 56//6
f 56//6 54//7 55//8
f 78//9 86//10 85//11
f 37//12 40//13 35//14
f 33//15 123//16 32//17
f 78//9 115//18 75//19
f 29//3 37//12 107//20
f 29//3 107//20 106//1
f 61//4 64//21 60//22
f 36//23 35//14 34//24
f 66//25 61//4 62//26
f 65//27 121//28 67//29
f 84//30 79//31 80//32
f 41//33 92//34 91//35
f 45//36 128//37 127//38
f 62//26 56//6 55//8
f 119//39 49//40 53//41
f 79//31 75//19 80//32
f 98//42 65//27 68//43
f 64//21 114//44 60//22
f 60//22 113//45 57//5
f 73//46 74//47 75//19
f 71//48 67//29 122//49
f 50//50 103//51 109//52
f 54//7 108//53 110//54
f 62//26 100//55 66//25
f 73//46 116//56 95//57
f 49//40 102//58 103//51
f 55//8 94//59 93//60
f 55//8 93//60 62//26
f 62//26 93//60 101//61
f 40//13 41//33 39//62
f 36//23 83//63 84//30
f 66//25 100//55 121//28
f 35//14 32//17 34//24
f 83//63 78//9 79//31
f 39//62 124//64 33//15
f 113//45 52//65 57//5
f 40//13 33//15 35//14
f 67//29 120//66 122//49
f 80//32 105//67 84//30
f 45//36 102//58 96//68
f 71//48 99//69 68//43
f 73//46 88//70 87//71
f 112//72 39//62 42//73
f 57//5 53//41 56//6
f 89//74 84//30 90//75
f 74//47 126//76 125//77
f 92//34 29//3 118//2
f 108//53 53//41 50//50
f 82//78 123//16 86//10
f 110//54 55//8 54//7
f 128//37 111//79 42//73
f 84//30 105//67 90//75
f 83//63 32//17 82//78
f 46//80 97//81 96//68
f 107//20 36//23 89//74
f 125//77 80//32 74//47
f 81//82 51//82 69//82
f 7//83 15//83 25//83
f 61//4 60//22 57//5
f 56//6 53//41 54//7
f 78//9 82//78 86//10
f 37//12 29//3 40//13
f 33//15 124//64 123//16
f 78//9 85//11 115//18
f 61//4 65//27 64//21
f 36//23 37//12 35//14
f 66//25 65//27 61//4
f 67//29 68//43 65//27
f 65//27 66//25 121//28
f 121//28 120//66 67//29
f 84//30 83//63 79//31
f 62//26 61//4 56//6
f 53//41 52//65 119//39
f 119//39 97//81 49//40
f 79//31 78//9 75//19
f 75//19 74//47 80//32
f 68//43 99//69 98//42
f 98//42 64//21 65//27
f 64//21 98//42 114//44
f 60//22 114//44 113//45
f 115//18 117//84 73//46
f 73//46 87//71 126//76
f 73//46 126//76 74//47
f 75//19 115//18 73//46
f 122//49 95//57 71//48
f 71//48 68//43 67//29
f 62//26 101//61 100//55
f 73//46 117//84 116//56
f 116//56 71//48 95//57
f 95//57 88//70 73//46
f 103//51 50//50 49//40
f 49//40 46//80 102//58
f 40//13 29//3 41//33
f 41//33 42//73 39//62
f 36//23 34//24 83//63
f 35//14 33//15 32//17
f 83//63 82//78 78//9
f 39//62 129//85 124//64
f 113//45 119//39 52//65
f 40//13 39//62 33//15
f 80//32 104//86 105//67
f 96//68 111//79 45//36
f 45//36 127//38 102//58
f 102//58 46//80 96//68
f 71//48 116//56 99//69
f 112//72 129//85 39//62
f 57//5 52//65 53//41
f 89//74 36//23 84//30
f 92//34 41//33 29//3
f 50//50 109//52 108//53
f 108//53 54//7 53//41
f 53//41 49//40 50//50
f 82//78 32//17 123//16
f 110//54 94//59 55//8
f 41//33 91//35 128//37
f 128//37 45//36 111//79
f 111//79 112//72 42//73
f 42//73 41//33 128//37
f 83//63 34//24 32//17
f 46//80 49//40 97//81
f 107//20 37//12 36//23
f 125//77 104//86 80//32
f 76//87 77//88 81//82
f 81//82 30//89 31//89
f 31//89 38//90 43//82
f 43//82 44//91 47//82
f 47//82 48//92 51//82
f 51//82 58//82 59//82
f 59//82 63//93 69//82
f 69//82 70//91 72//82
f 72//82 76//87 81//82
f 81//82 31//89 43//82
f 43//82 47//82 51//82
f 51//82 59//82 69//82
f 69//82 72//82 81//82
f 81//82 43//82 51//82
f 27//83 28//83 2//94
f 2//94 1//83 3//83
f 3//83 4//95 5//96
f 5//96 6//96 7//83
f 7//83 8//83 9//83
f 9//83 10//83 11//83
f 11//83 14//83 13//83
f 13//83 12//97 15//83
f 15//83 16//98 17//99
f 17//99 18//100 19//83
f 19//83 20//99 21//83
f 21//83 22//101 25//83
f 25//83 24//102 23//101
f 23//101 26//83 27//83
f 27//83 2//94 3//83
f 3//83 5//96 7//83
f 7//83 9//83 11//83
f 11//83 13//83 15//83
f 15//83 17//99 19//83
f 19//83 21//83 25//83
f 25//83 23//101 27//83
f 27//83 3//83 7//83
f 7//83 11//83 15//83
f 15//83 19//83 25//83
f 25//83 27//83 7//83
