# Blender 3.4.1
# www.blender.org
o Handle_3_vis
v -0.949783 -0.754842 -1.845395
v -0.951951 -0.754733 -1.845785
v -0.949783 -0.749044 -1.843441
v -0.951951 -0.748894 -1.843818
v -0.949783 -0.743492 -1.840873
v -0.951951 -0.743302 -1.841231
v -0.949783 -0.738250 -1.837719
v -0.951951 -0.738023 -1.838054
v -0.949783 -0.733380 -1.834016
v -0.951951 -0.733117 -1.834325
v -0.953825 -0.754423 -1.846904
v -0.953825 -0.748464 -1.844896
v -0.953825 -0.742758 -1.842256
v -0.953825 -0.737371 -1.839015
v -0.953825 -0.732366 -1.835210
v -0.955154 -0.731227 -1.836551
v -0.955154 -0.741934 -1.843811
v -0.955154 -0.753952 -1.848599
v -0.955758 -0.753384 -1.850643
v -0.955758 -0.729854 -1.838168
v -0.955554 -0.728432 -1.839841
v -0.955554 -0.739912 -1.847625
v -0.955554 -0.752797 -1.852758
v -0.954571 -0.752269 -1.854660
v -0.954571 -0.738988 -1.849369
v -0.954571 -0.727154 -1.841345
v -0.952942 -0.751872 -1.856091
v -0.952942 -0.744935 -1.853755
v -0.952942 -0.738292 -1.850681
v -0.952942 -0.732020 -1.846907
v -0.952942 -0.726193 -1.842478
v -0.950886 -0.725677 -1.843085
v -0.950886 -0.731573 -1.847566
v -0.950886 -0.737919 -1.851385
v -0.950886 -0.744640 -1.854494
v -0.950886 -0.751658 -1.856859
v -0.948681 -0.751658 -1.856859
v -0.948681 -0.744640 -1.854494
v -0.948681 -0.737919 -1.851385
v -0.948681 -0.731573 -1.847566
v -0.948681 -0.725677 -1.843085
v -0.946625 -0.751872 -1.856091
v -0.946625 -0.744935 -1.853755
v -0.946625 -0.738292 -1.850681
v -0.946625 -0.732020 -1.846907
v -0.946625 -0.726193 -1.842478
v -0.944995 -0.727154 -1.841345
v -0.944995 -0.738988 -1.849369
v -0.944995 -0.752269 -1.854660
v -0.944012 -0.752797 -1.852758
v -0.944012 -0.739912 -1.847625
v -0.944012 -0.728432 -1.839841
v -0.943809 -0.753384 -1.850643
v -0.943809 -0.729854 -1.838168
v -0.944412 -0.731227 -1.836551
v -0.944412 -0.741934 -1.843811
v -0.944412 -0.753952 -1.848599
v -0.945741 -0.754423 -1.846904
v -0.945741 -0.748464 -1.844896
v -0.945741 -0.742758 -1.842256
v -0.945741 -0.737371 -1.839015
v -0.945741 -0.732366 -1.835210
v -0.947616 -0.754733 -1.845785
v -0.947616 -0.748894 -1.843818
v -0.947616 -0.743302 -1.841231
v -0.947616 -0.738023 -1.838054
v -0.947616 -0.733117 -1.834325
v -0.945741 -0.732366 -1.835210
v -0.947616 -0.733117 -1.834325
v -0.955554 -0.752797 -1.852758
v -0.954571 -0.752269 -1.854660
v -0.955554 -0.728432 -1.839841
v -0.954571 -0.727154 -1.841345
v -0.946625 -0.726193 -1.842478
v -0.944995 -0.727154 -1.841345
v -0.946625 -0.751872 -1.856091
v -0.944995 -0.752269 -1.854660
v -0.945741 -0.754423 -1.846904
v -0.947616 -0.754733 -1.845785
v -0.955758 -0.729854 -1.838168
v -0.955758 -0.753384 -1.850643
v -0.955154 -0.753952 -1.848599
v -0.955154 -0.731227 -1.836551
v -0.950886 -0.751658 -1.856859
v -0.948681 -0.751658 -1.856859
v -0.950886 -0.725677 -1.843085
v -0.948681 -0.725677 -1.843085
v -0.944412 -0.753952 -1.848599
v -0.944412 -0.731227 -1.836551
v -0.944012 -0.728432 -1.839841
v -0.943809 -0.729854 -1.838168
v -0.944012 -0.752797 -1.852758
v -0.943809 -0.753384 -1.850643
v -0.949783 -0.733380 -1.834016
v -0.951951 -0.733117 -1.834325
v -0.949783 -0.754842 -1.845395
v -0.951951 -0.754733 -1.845785
v -0.952942 -0.726193 -1.842478
v -0.952942 -0.751872 -1.856091
v -0.953825 -0.732366 -1.835210
v -0.953825 -0.754423 -1.846904
vn 0.9648 0.1217 -0.2332
vn 0.7902 0.3439 -0.5072
vn 0.9580 0.1610 -0.2374
vn -0.3630 -0.5639 0.7418
vn -0.5872 -0.4394 0.6798
vn -0.3634 -0.5228 0.7711
vn 0.1826 0.3639 -0.9134
vn -0.1823 0.3139 -0.9318
vn -0.1826 0.3639 -0.9134
vn -0.5343 0.3959 -0.7468
vn -0.1826 0.5518 -0.8138
vn -0.1826 0.4605 -0.8686
vn 0.3634 -0.4364 0.8231
vn -0.0000 -0.3701 0.9290
vn 0.3634 -0.3448 0.8655
vn -0.3634 -0.3448 0.8655
vn -0.6680 -0.2524 0.7000
vn -0.3629 -0.2975 0.8830
vn -0.9968 -0.0442 0.0666
vn -0.9648 0.1217 -0.2332
vn -0.9587 0.1091 -0.2625
vn -0.3634 -0.4364 0.8231
vn -0.0000 -0.4684 0.8835
vn 0.1826 0.5518 -0.8138
vn 0.1826 0.4605 -0.8686
vn 0.8159 0.2140 -0.5371
vn -0.6730 -0.3536 0.6497
vn -0.5332 0.2886 -0.7952
vn -0.7920 0.2860 -0.5395
vn -0.8159 0.2140 -0.5371
vn 0.5872 -0.3160 0.7452
vn 0.6730 -0.3393 0.6572
vn -0.0000 -0.3193 0.9477
vn 0.8954 -0.1546 0.4175
vn 0.3629 -0.2975 0.8830
vn -0.7902 0.3439 -0.5072
vn -0.5332 0.4962 -0.6852
vn 0.5344 0.3959 -0.7468
vn 0.5332 0.4962 -0.6852
vn -0.9580 0.1610 -0.2374
vn 0.5332 0.2886 -0.7952
vn 0.7920 0.2860 -0.5395
vn -0.7902 0.2268 -0.5693
vn -0.8954 -0.2588 0.3623
vn 0.1823 0.5950 -0.7827
vn 0.8160 0.3244 -0.4785
vn 0.9587 0.1091 -0.2625
vn 0.7902 0.2268 -0.5693
vn 0.3634 -0.5228 0.7711
vn 0.5873 -0.4688 0.6598
vn -0.5872 -0.2830 0.7583
vn 0.6681 -0.4377 0.6017
vn 0.7820 -0.2875 0.5530
vn -0.0000 -0.5612 0.8277
vn -0.1824 0.5950 -0.7828
vn 0.3630 -0.5639 0.7418
vn 0.9971 -0.0242 0.0724
vn 0.9968 -0.0442 0.0666
vn 0.1823 0.3139 -0.9318
vn 0.6763 -0.2352 0.6981
vn -0.0000 -0.6052 0.7961
vn -0.7820 -0.2964 0.5484
vn -0.9971 -0.0242 0.0724
vn -0.0000 0.7622 0.6474
vn -0.0000 0.7621 0.6474
vn -0.0000 -0.9635 -0.2675
vn -0.0000 -0.9636 -0.2675
vn -0.6763 -0.4457 0.5864
vn -0.8159 0.3245 -0.4785
vn 0.8992 -0.2455 0.3622
vn -0.8992 -0.1619 0.4065
vn -0.0000 0.7623 0.6473
vn -0.0001 0.7621 0.6474
vn 0.0003 0.7621 0.6474
vn 0.0001 0.7622 0.6474
vn -0.0000 0.7621 0.6475
vn -0.0003 0.7621 0.6475
vn 0.0001 0.7620 0.6476
vn -0.0001 -0.9635 -0.2675
vn 0.0004 -0.9636 -0.2675
vn -0.0000 -0.9636 -0.2674
vn -0.0000 -0.9635 -0.2676
vn 0.0005 -0.9635 -0.2675
vn -0.0000 -0.9637 -0.2669
vn 0.0001 -0.9635 -0.2675
vn -0.0001 -0.9636 -0.2675
s 1
f 51//1 75//2 90//3
f 95//4 14//5 8//6
f 38//7 84//8 35//9
f 29//10 33//11 34//12
f 65//13 3//14 64//15
f 4//16 101//17 97//18
f 80//19 22//20 70//21
f 6//22 3//14 5//23
f 40//24 34//12 33//11
f 39//25 43//26 38//7
f 8//6 13//27 6//22
f 99//28 25//29 29//10
f 84//8 28//30 35//9
f 65//13 59//31 60//32
f 4//16 96//33 3//14
f 60//32 59//31 88//34
f 64//15 96//33 79//35
f 29//10 73//36 98//37
f 44//38 74//39 75//2
f 73//36 22//20 72//40
f 76//41 44//38 48//42
f 71//43 22//20 25//29
f 40//24 44//38 39//25
f 13//27 14//5 83//44
f 87//45 45//46 40//24
f 48//42 92//47 77//48
f 66//49 60//32 61//50
f 6//22 12//51 4//16
f 68//52 61//50 56//53
f 8//6 5//23 7//54
f 33//11 98//37 86//55
f 28//30 34//12 35//9
f 66//49 5//23 65//13
f 69//56 61//50 68//52
f 93//57 91//58 56//53
f 91//58 92//47 51//1
f 69//56 7//54 66//49
f 43//26 85//59 38//7
f 87//45 33//11 86//55
f 64//15 78//60 59//31
f 95//4 7//54 94//61
f 12//51 17//62 101//17
f 81//63 17//62 80//19
f 55//64 26//64 15//65
f 24//66 57//66 2//67
f 39//25 35//9 34//12
f 51//1 48//42 75//2
f 95//4 100//68 14//5
f 38//7 85//59 84//8
f 29//10 30//69 33//11
f 65//13 5//23 3//14
f 4//16 12//51 101//17
f 70//21 81//63 80//19
f 80//19 72//40 22//20
f 6//22 4//16 3//14
f 40//24 39//25 34//12
f 39//25 44//38 43//26
f 8//6 14//5 13//27
f 29//10 28//30 99//28
f 99//28 71//43 25//29
f 84//8 99//28 28//30
f 65//13 64//15 59//31
f 4//16 97//18 96//33
f 88//34 56//53 60//32
f 59//31 78//60 88//34
f 64//15 3//14 96//33
f 98//37 30//69 29//10
f 29//10 25//29 73//36
f 75//2 48//42 44//38
f 44//38 45//46 74//39
f 73//36 25//29 22//20
f 48//42 77//48 76//41
f 76//41 43//26 44//38
f 71//43 70//21 22//20
f 40//24 45//46 44//38
f 83//44 17//62 13//27
f 14//5 100//68 83//44
f 87//45 74//39 45//46
f 48//42 51//1 92//47
f 66//49 65//13 60//32
f 6//22 13//27 12//51
f 56//53 89//70 68//52
f 61//50 60//32 56//53
f 8//6 6//22 5//23
f 33//11 30//69 98//37
f 28//30 29//10 34//12
f 66//49 7//54 5//23
f 69//56 66//49 61//50
f 56//53 88//34 93//57
f 91//58 89//70 56//53
f 51//1 90//3 91//58
f 91//58 93//57 92//47
f 69//56 94//61 7//54
f 43//26 76//41 85//59
f 87//45 40//24 33//11
f 64//15 79//35 78//60
f 95//4 8//6 7//54
f 12//51 13//27 17//62
f 17//62 82//71 101//17
f 81//63 82//71 17//62
f 17//62 83//44 80//19
f 67//65 62//72 55//64
f 55//64 54//64 52//73
f 52//73 47//74 46//64
f 46//64 41//64 32//64
f 32//64 31//75 26//64
f 26//64 21//76 20//64
f 20//64 16//77 15//65
f 15//65 10//78 9//64
f 9//64 67//65 55//64
f 55//64 52//73 46//64
f 46//64 32//64 26//64
f 26//64 20//64 15//65
f 15//65 9//64 55//64
f 55//64 46//64 26//64
f 19//79 23//80 24//66
f 24//66 27//81 36//82
f 36//82 37//81 42//67
f 42//67 49//79 50//67
f 50//67 53//83 57//66
f 57//66 58//79 63//82
f 63//82 1//84 2//67
f 2//67 11//85 18//86
f 18//86 19//79 24//66
f 24//66 36//82 42//67
f 42//67 50//67 57//66
f 57//66 63//82 2//67
f 2//67 18//86 24//66
f 24//66 42//67 57//66
f 39//25 38//7 35//9
