# Blender 3.4.1
# www.blender.org
o Handle_4_phy
v -0.949783 -0.779098 -1.846710
v -0.951951 -0.779163 -1.847110
v -0.949783 -0.754842 -1.845395
v -0.951951 -0.754733 -1.845785
v -0.953825 -0.779351 -1.848255
v -0.953825 -0.754423 -1.846904
v -0.955154 -0.753952 -1.848599
v -0.955154 -0.779636 -1.849992
v -0.955758 -0.779979 -1.852085
v -0.955758 -0.753384 -1.850643
v -0.955554 -0.752797 -1.852758
v -0.955554 -0.780334 -1.854251
v -0.954571 -0.780653 -1.856199
v -0.954571 -0.752269 -1.854660
v -0.952942 -0.780894 -1.857665
v -0.952942 -0.751872 -1.856091
v -0.950886 -0.751658 -1.856859
v -0.950886 -0.781022 -1.858451
v -0.948681 -0.781022 -1.858451
v -0.948681 -0.751658 -1.856859
v -0.946625 -0.780894 -1.857665
v -0.946625 -0.751872 -1.856091
v -0.944995 -0.752269 -1.854660
v -0.944995 -0.780653 -1.856199
v -0.944012 -0.780334 -1.854251
v -0.944012 -0.752797 -1.852758
v -0.943809 -0.779979 -1.852085
v -0.943809 -0.753384 -1.850643
v -0.944412 -0.753952 -1.848599
v -0.944412 -0.779636 -1.849992
v -0.945741 -0.779351 -1.848255
v -0.945741 -0.754423 -1.846904
v -0.947616 -0.779163 -1.847110
v -0.947616 -0.754733 -1.845785
vn -0.8909 0.0246 -0.4535
vn -0.6649 0.0404 -0.7458
vn 0.1796 -0.0533 0.9823
vn -0.1796 -0.0533 0.9823
vn -0.5174 -0.0463 0.8545
vn -0.7911 -0.0331 0.6108
vn -0.9601 -0.0151 0.2793
vn -0.9955 0.0051 -0.0943
vn -0.0000 -0.9868 0.1618
vn 0.3538 0.0506 -0.9339
vn 0.6649 0.0404 -0.7458
vn 0.9955 0.0051 -0.0943
vn 0.8909 0.0246 -0.4536
vn -0.0000 -0.9635 -0.2676
vn 0.9601 -0.0151 0.2793
vn 0.7911 -0.0331 0.6108
vn 0.5175 -0.0463 0.8544
vn -0.3539 0.0506 -0.9339
vn -0.0000 0.0541 -0.9985
vn -0.8909 0.0246 -0.4536
vn -0.5175 -0.0463 0.8544
vn 0.0001 -0.9868 0.1619
vn -0.0000 -0.9868 0.1619
vn 0.0001 -0.9868 0.1618
vn -0.0000 -0.9868 0.1620
vn 0.3539 0.0506 -0.9339
vn 0.8909 0.0246 -0.4535
vn 0.0003 -0.9636 -0.2674
vn 0.0001 -0.9635 -0.2676
vn 0.0003 -0.9636 -0.2675
vn 0.0001 -0.9636 -0.2675
vn -0.0000 -0.9637 -0.2669
vn -0.0001 -0.9636 -0.2675
vn -0.0001 -0.9635 -0.2676
vn -0.0000 -0.9636 -0.2675
vn 0.5174 -0.0463 0.8545
vn -0.3538 0.0506 -0.9339
s 0
f 11//1 13//1 12//1
f 14//2 15//2 13//2
f 34//3 1//3 33//3
f 4//4 1//4 3//4
f 4//5 5//5 2//5
f 6//6 8//6 5//6
f 7//7 9//7 8//7
f 11//8 9//8 10//8
f 13//9 30//9 2//9
f 22//10 19//10 20//10
f 22//11 24//11 21//11
f 26//12 27//12 25//12
f 26//13 24//13 23//13
f 14//14 29//14 4//14
f 29//15 27//15 28//15
f 32//16 30//16 29//16
f 34//17 31//17 32//17
f 16//18 18//18 15//18
f 20//19 18//19 17//19
f 11//20 14//20 13//20
f 14//2 16//2 15//2
f 34//3 3//3 1//3
f 4//4 2//4 1//4
f 4//21 6//21 5//21
f 6//6 7//6 8//6
f 7//7 10//7 9//7
f 11//8 12//8 9//8
f 9//22 12//22 13//22
f 13//23 15//23 18//23
f 18//23 19//23 21//23
f 21//24 24//24 25//24
f 25//9 27//9 30//9
f 30//9 31//9 33//9
f 33//25 1//25 2//25
f 2//9 5//9 8//9
f 8//9 9//9 13//9
f 13//9 18//9 21//9
f 21//9 25//9 30//9
f 30//9 33//9 2//9
f 2//9 8//9 13//9
f 13//9 21//9 30//9
f 22//26 21//26 19//26
f 22//11 23//11 24//11
f 26//12 28//12 27//12
f 26//27 25//27 24//27
f 10//28 11//28 14//28
f 14//14 16//14 17//14
f 17//14 20//14 22//14
f 22//29 23//29 26//29
f 26//30 28//30 29//30
f 29//31 32//31 34//31
f 34//32 3//32 4//32
f 4//33 6//33 7//33
f 7//34 10//34 14//34
f 14//14 17//14 22//14
f 22//33 26//33 29//33
f 29//14 34//14 4//14
f 4//33 7//33 14//33
f 14//35 22//35 29//35
f 29//15 30//15 27//15
f 32//16 31//16 30//16
f 34//36 33//36 31//36
f 16//37 17//37 18//37
f 20//19 19//19 18//19
