# Blender 3.4.1
# www.blender.org
o Handle_8_phy
v -0.946783 -0.837653 -1.760954
v -0.944587 -0.835457 -1.760954
v -0.947616 -0.826529 -1.797107
v -0.944412 -0.829432 -1.797423
v -0.951951 -0.826529 -1.797107
v -0.949783 -0.826126 -1.797063
v -0.953825 -0.827682 -1.797232
v -0.955758 -0.831540 -1.797652
v -0.955554 -0.833723 -1.797889
v -0.954571 -0.835685 -1.798103
v -0.950886 -0.837954 -1.798349
v -0.944012 -0.833723 -1.797889
v -0.946625 -0.837162 -1.798263
v -0.943809 -0.831540 -1.797652
v -0.955783 -0.832457 -1.760954
v -0.954979 -0.829457 -1.760954
v -0.952783 -0.827261 -1.760954
v -0.949783 -0.826457 -1.760954
v -0.946783 -0.827261 -1.760954
v -0.944587 -0.829457 -1.760954
v -0.943783 -0.832457 -1.760954
v -0.944587 -0.835457 -1.760954
v -0.949783 -0.838457 -1.760954
v -0.952783 -0.837653 -1.760954
v -0.954979 -0.835457 -1.760954
vn -0.9955 -0.0940 0.0111
vn -0.0000 0.1081 -0.9941
vn 0.2588 0.9658 0.0136
vn 0.6717 0.7408 0.0037
vn 0.7069 -0.7069 -0.0222
vn -0.5251 -0.8508 -0.0198
vn -0.8944 -0.4473 -0.0071
vn -0.5244 0.8514 0.0052
vn -0.1828 0.9831 0.0090
vn 0.9955 -0.0940 0.0111
vn 0.1831 -0.9829 -0.0186
vn -0.0000 -0.0000 1.0000
vn 0.9616 0.2745 0.0062
vn -0.9658 0.2588 -0.0181
vn -0.9659 -0.2588 -0.0071
vn -0.0000 0.1080 -0.9942
vn -0.0001 0.1081 -0.9941
vn -0.0004 0.1082 -0.9941
vn 0.0003 0.1082 -0.9941
vn 0.1828 0.9831 0.0090
vn 0.7071 0.7071 -0.0020
vn 0.7965 -0.6046 -0.0046
vn -0.0000 -0.0000 -1.0000
vn -0.2588 -0.9659 -0.0054
vn -0.7071 -0.7071 -0.0034
vn -0.7071 0.7070 0.0121
vn -0.2588 0.9658 0.0136
vn 0.9659 -0.2588 -0.0071
vn 0.2588 -0.9659 -0.0116
vn 0.0002 -0.0000 1.0000
vn -0.0002 -0.0000 1.0000
vn -0.0001 -0.0000 1.0000
vn 0.9659 0.2588 0.0048
vn -0.8945 0.4469 0.0105
s 0
f 25//1 8//1 9//1
f 14//2 10//2 5//2
f 3//3 18//3 19//3
f 3//4 20//4 4//4
f 12//5 22//5 1//5
f 11//6 24//6 10//6
f 10//7 25//7 9//7
f 7//8 17//8 5//8
f 5//9 18//9 6//9
f 14//10 22//10 12//10
f 13//11 23//11 11//11
f 17//12 2//12 20//12
f 4//13 21//13 14//13
f 7//14 15//14 16//14
f 25//15 15//15 8//15
f 5//16 6//16 3//16
f 3//17 4//17 14//17
f 14//18 12//18 13//18
f 13//2 11//2 10//2
f 10//19 9//19 8//19
f 8//2 7//2 5//2
f 5//2 3//2 14//2
f 14//2 13//2 10//2
f 10//2 8//2 5//2
f 3//20 6//20 18//20
f 3//21 19//21 20//21
f 1//22 13//22 12//22
f 22//23 2//23 1//23
f 11//24 23//24 24//24
f 10//25 24//25 25//25
f 7//26 16//26 17//26
f 5//27 17//27 18//27
f 14//28 21//28 22//28
f 13//29 1//29 23//29
f 19//12 18//12 17//12
f 17//30 16//30 15//30
f 15//31 25//31 24//31
f 24//12 23//12 1//12
f 2//23 22//23 21//23
f 24//12 1//12 2//12
f 17//32 15//32 24//32
f 20//12 19//12 17//12
f 2//12 21//12 20//12
f 17//12 24//12 2//12
f 4//33 20//33 21//33
f 7//34 8//34 15//34
