# Blender 3.4.1
# www.blender.org
o Handle_4_vis
v -0.949783 -0.779098 -1.846710
v -0.951951 -0.779163 -1.847110
v -0.949783 -0.773016 -1.847372
v -0.951951 -0.773038 -1.847776
v -0.949783 -0.766898 -1.847372
v -0.951951 -0.766876 -1.847776
v -0.949783 -0.760816 -1.846710
v -0.951951 -0.760751 -1.847110
v -0.949783 -0.754842 -1.845395
v -0.951951 -0.754733 -1.845785
v -0.953825 -0.779351 -1.848255
v -0.953825 -0.773100 -1.848935
v -0.953825 -0.766813 -1.848935
v -0.953825 -0.760563 -1.848255
v -0.953825 -0.754423 -1.846904
v -0.955154 -0.753952 -1.848599
v -0.955154 -0.760278 -1.849992
v -0.955154 -0.773196 -1.850692
v -0.955154 -0.779636 -1.849992
v -0.955758 -0.779979 -1.852085
v -0.955758 -0.753384 -1.850643
v -0.955554 -0.752797 -1.852758
v -0.955554 -0.766484 -1.855002
v -0.955554 -0.780334 -1.854251
v -0.954571 -0.780653 -1.856199
v -0.954571 -0.773536 -1.856973
v -0.954571 -0.766377 -1.856973
v -0.954571 -0.759261 -1.856199
v -0.954571 -0.752269 -1.854660
v -0.952942 -0.780894 -1.857665
v -0.952942 -0.773617 -1.858457
v -0.952942 -0.766297 -1.858457
v -0.952942 -0.759020 -1.857665
v -0.952942 -0.751872 -1.856091
v -0.950886 -0.751658 -1.856859
v -0.950886 -0.758891 -1.858451
v -0.950886 -0.766254 -1.859252
v -0.950886 -0.773660 -1.859252
v -0.950886 -0.781022 -1.858451
v -0.948681 -0.781022 -1.858451
v -0.948681 -0.773660 -1.859252
v -0.948681 -0.766254 -1.859252
v -0.948681 -0.758891 -1.858451
v -0.948681 -0.751658 -1.856859
v -0.946625 -0.780894 -1.857665
v -0.946625 -0.773617 -1.858457
v -0.946625 -0.766297 -1.858457
v -0.946625 -0.759020 -1.857665
v -0.946625 -0.751872 -1.856091
v -0.944995 -0.752269 -1.854660
v -0.944995 -0.759261 -1.856199
v -0.944995 -0.773536 -1.856973
v -0.944995 -0.780653 -1.856199
v -0.944012 -0.780334 -1.854251
v -0.944012 -0.759580 -1.854251
v -0.944012 -0.752797 -1.852758
v -0.943809 -0.779979 -1.852085
v -0.943809 -0.753384 -1.850643
v -0.944412 -0.753952 -1.848599
v -0.944412 -0.760278 -1.849992
v -0.944412 -0.773196 -1.850692
v -0.944412 -0.779636 -1.849992
v -0.945741 -0.779351 -1.848255
v -0.945741 -0.773100 -1.848935
v -0.945741 -0.766813 -1.848935
v -0.945741 -0.760563 -1.848255
v -0.945741 -0.754423 -1.846904
v -0.947616 -0.779163 -1.847110
v -0.947616 -0.773038 -1.847776
v -0.947616 -0.766876 -1.847776
v -0.947616 -0.760751 -1.847110
v -0.947616 -0.754733 -1.845785
v -0.955554 -0.780334 -1.854251
v -0.954571 -0.780653 -1.856199
v -0.955554 -0.752797 -1.852758
v -0.954571 -0.752269 -1.854660
v -0.946625 -0.751872 -1.856091
v -0.944995 -0.752269 -1.854660
v -0.946625 -0.780894 -1.857665
v -0.944995 -0.780653 -1.856199
v -0.945741 -0.754423 -1.846904
v -0.947616 -0.754733 -1.845785
v -0.945741 -0.779351 -1.848255
v -0.947616 -0.779163 -1.847110
v -0.955758 -0.779979 -1.852085
v -0.944412 -0.779636 -1.849992
v -0.955758 -0.753384 -1.850643
v -0.955154 -0.779636 -1.849992
v -0.955154 -0.753952 -1.848599
v -0.950886 -0.781022 -1.858451
v -0.948681 -0.781022 -1.858451
v -0.950886 -0.751658 -1.856859
v -0.948681 -0.751658 -1.856859
v -0.944412 -0.753952 -1.848599
v -0.944012 -0.752797 -1.852758
v -0.943809 -0.753384 -1.850643
v -0.944012 -0.780334 -1.854251
v -0.943809 -0.779979 -1.852085
v -0.949783 -0.754842 -1.845395
v -0.951951 -0.754733 -1.845785
v -0.949783 -0.779098 -1.846710
v -0.951951 -0.779163 -1.847110
v -0.952942 -0.751872 -1.856091
v -0.952942 -0.780894 -1.857665
v -0.953825 -0.754423 -1.846904
v -0.953825 -0.779351 -1.848255
vn 0.5872 -0.0615 0.8071
vn 0.8373 0.0018 0.5467
vn 0.6730 -0.1117 0.7312
vn -0.3634 0.0505 0.9303
vn -0.0000 0.1081 0.9941
vn -0.0001 0.0542 0.9985
vn -0.6764 0.0796 0.7322
vn -0.8397 -0.0034 0.5431
vn -0.8974 0.0477 0.4386
vn 0.6764 0.0797 0.7323
vn 0.8974 0.0477 0.4386
vn -0.5230 -0.0922 -0.8473
vn -0.1826 -0.0532 -0.9817
vn -0.1823 -0.1063 -0.9775
vn 0.5230 0.1832 -0.8324
vn 0.1826 0.1591 -0.9702
vn 0.1823 0.2114 -0.9602
vn 0.6763 -0.1584 0.7194
vn 0.8397 -0.0554 0.5402
vn 0.8974 -0.0948 0.4309
vn -0.1826 0.1591 -0.9702
vn -0.1823 0.2114 -0.9602
vn 0.3634 -0.1507 0.9193
vn -0.0000 -0.0542 0.9985
vn 0.3634 -0.0504 0.9303
vn -0.5230 0.1832 -0.8324
vn 0.3634 0.0504 0.9303
vn 0.3630 -0.2003 0.9100
vn -0.0000 -0.1618 0.9868
vn -0.6730 0.0320 0.7390
vn -0.3629 0.1008 0.9264
vn -0.7988 0.1179 -0.5899
vn -0.5238 0.1359 -0.8409
vn -0.9096 0.0672 -0.4100
vn -0.6763 -0.1584 0.7194
vn -0.3634 -0.1507 0.9193
vn -0.3629 -0.2003 0.9100
vn -0.7988 -0.0535 -0.5992
vn -0.9698 0.0132 -0.2434
vn -0.7605 0.0352 -0.6484
vn 0.9968 0.0129 0.0792
vn 0.9964 -0.0158 0.0839
vn -0.1826 0.0532 -0.9817
vn -0.0000 -0.2150 0.9766
vn -0.9587 0.0416 -0.2812
vn -0.9587 -0.0109 -0.2841
vn -0.9968 0.0129 0.0792
vn -0.8160 0.0313 -0.5773
vn -0.8373 -0.0609 0.5434
vn -0.9968 -0.0214 0.0774
vn 0.5289 0.1279 -0.8390
vn 0.7946 0.1305 -0.5930
vn 0.7956 0.0763 -0.6010
vn 0.1826 0.0532 -0.9817
vn 0.1826 -0.0532 -0.9817
vn -0.5872 -0.0261 0.8090
vn 0.5230 -0.0922 -0.8473
vn 0.1824 -0.1063 -0.9775
vn 0.6769 0.0398 0.7350
vn -0.3634 -0.0504 0.9303
vn -0.8974 -0.0948 0.4309
vn -0.5239 -0.0442 -0.8507
vn -0.6769 -0.1191 0.7264
vn 0.9600 0.0601 -0.2733
vn 0.3629 0.1008 0.9263
vn 0.9560 0.0021 -0.2934
vn 0.9626 0.0264 -0.2698
vn 0.8029 -0.0419 -0.5946
vn 0.9070 -0.0110 -0.4210
vn 0.8160 0.0313 -0.5773
vn 0.5290 -0.0364 -0.8479
vn -0.9096 -0.0225 -0.4148
vn -0.0000 0.9635 0.2675
vn -0.0000 0.9636 0.2675
vn -0.0000 -0.9868 0.1618
vn -0.0004 0.9635 0.2675
vn 0.0001 0.9635 0.2676
vn -0.0000 0.9635 0.2676
vn -0.0002 0.9635 0.2677
vn 0.0002 0.9635 0.2677
vn 0.0004 0.9636 0.2675
vn 0.0001 0.9636 0.2674
vn -0.0000 -0.9868 0.1617
vn 0.0002 -0.9868 0.1619
vn -0.0000 -0.9868 0.1619
vn 0.0001 -0.9869 0.1616
vn -0.0001 -0.9868 0.1619
vn -0.0000 -0.9868 0.1620
vn 0.0001 -0.9868 0.1619
s 1
f 65//1 61//2 66//3
f 4//4 101//5 3//6
f 106//7 18//8 88//9
f 61//2 83//10 86//11
f 104//12 38//13 90//14
f 77//15 43//16 93//17
f 81//18 60//19 94//20
f 93//17 36//21 92//22
f 71//23 5//24 70//25
f 36//21 103//26 92//22
f 5//24 69//27 70//25
f 82//28 7//29 71//23
f 12//30 102//31 4//4
f 76//32 33//33 28//34
f 105//35 8//36 100//37
f 74//38 23//39 27//40
f 98//41 96//42 61//2
f 43//16 37//43 36//21
f 100//37 7//29 99//44
f 75//45 73//46 85//47
f 32//48 36//21 37//43
f 85//47 17//49 87//50
f 48//51 78//52 51//53
f 48//51 42//54 43//16
f 41//55 90//14 38//13
f 12//30 13//56 17//49
f 41//55 79//57 91//58
f 70//25 64//59 65//1
f 6//60 3//6 5//24
f 42//54 38//13 37//43
f 17//49 105//35 89//61
f 33//33 31//62 27//40
f 14//63 6//60 8//36
f 95//64 51//53 78//52
f 66//3 70//25 65//1
f 76//32 27//40 23//39
f 3//6 84//65 69//27
f 96//42 97//66 55//67
f 31//62 37//43 38//13
f 8//36 5//24 7//29
f 80//68 51//53 55//67
f 79//57 52//69 80//68
f 47//70 41//55 42//54
f 13//56 4//4 6//60
f 69//27 83//10 64//59
f 48//51 52//69 46//71
f 31//62 74//38 26//72
f 82//28 66//3 81//18
f 21//73 58//73 44//74
f 25//75 62//75 2//75
f 65//1 64//59 61//2
f 61//2 60//19 66//3
f 4//4 102//31 101//5
f 106//7 12//30 18//8
f 61//2 64//59 83//10
f 104//12 31//62 38//13
f 77//15 48//51 43//16
f 81//18 66//3 60//19
f 93//17 43//16 36//21
f 71//23 7//29 5//24
f 36//21 33//33 103//26
f 5//24 3//6 69//27
f 82//28 99//44 7//29
f 12//30 106//7 102//31
f 76//32 103//26 33//33
f 105//35 14//63 8//36
f 27//40 26//72 74//38
f 74//38 73//46 23//39
f 96//42 94//20 60//19
f 61//2 86//11 98//41
f 96//42 60//19 61//2
f 43//16 42//54 37//43
f 100//37 8//36 7//29
f 85//47 87//50 75//45
f 75//45 23//39 73//46
f 32//48 33//33 36//21
f 85//47 88//9 18//8
f 17//49 89//61 87//50
f 85//47 18//8 17//49
f 48//51 77//15 78//52
f 48//51 47//70 42//54
f 41//55 91//58 90//14
f 17//49 18//8 12//30
f 13//56 14//63 17//49
f 41//55 46//71 79//57
f 70//25 69//27 64//59
f 6//60 4//4 3//6
f 42//54 41//55 38//13
f 17//49 14//63 105//35
f 27//40 28//34 33//33
f 33//33 32//48 31//62
f 31//62 26//72 27//40
f 14//63 13//56 6//60
f 95//64 55//67 51//53
f 66//3 71//23 70//25
f 23//39 75//45 76//32
f 76//32 28//34 27//40
f 3//6 101//5 84//65
f 55//67 95//64 96//42
f 96//42 98//41 97//66
f 31//62 32//48 37//43
f 8//36 6//60 5//24
f 55//67 97//66 80//68
f 80//68 52//69 51//53
f 79//57 46//71 52//69
f 47//70 46//71 41//55
f 13//56 12//30 4//4
f 69//27 84//65 83//10
f 46//71 47//70 48//51
f 48//51 51//53 52//69
f 31//62 104//12 74//38
f 82//28 71//23 66//3
f 29//74 22//76 21//73
f 21//73 16//77 15//78
f 15//78 10//79 9//78
f 9//78 72//80 67//78
f 67//78 59//78 58//73
f 58//73 56//81 50//82
f 50//82 49//78 44//74
f 44//74 35//73 34//74
f 34//74 29//74 21//73
f 21//73 15//78 9//78
f 9//78 67//78 58//73
f 58//73 50//82 44//74
f 44//74 34//74 21//73
f 21//73 9//78 58//73
f 20//83 24//84 25//75
f 25//75 30//83 39//75
f 39//75 40//85 45//75
f 45//75 53//86 54//75
f 54//75 57//75 62//75
f 62//75 63//87 68//75
f 68//75 1//88 2//75
f 2//75 11//89 19//75
f 19//75 20//83 25//75
f 25//75 39//75 45//75
f 45//75 54//75 62//75
f 62//75 68//75 2//75
f 2//75 19//75 25//75
f 25//75 45//75 62//75
