# Blender 3.4.1
# www.blender.org
o Handle_base_vis
v -0.964783 -0.707457 -1.760954
v -0.964783 -0.707457 -1.750954
v -0.964049 -0.702822 -1.750954
v -0.964049 -0.702822 -1.760954
v -0.961918 -0.698640 -1.750954
v -0.961918 -0.698640 -1.760954
v -0.958600 -0.695322 -1.750954
v -0.958600 -0.695322 -1.760954
v -0.954418 -0.693191 -1.750954
v -0.954418 -0.693191 -1.760954
v -0.949783 -0.692457 -1.750954
v -0.949783 -0.692457 -1.760954
v -0.945148 -0.693191 -1.750954
v -0.945148 -0.693191 -1.760954
v -0.940966 -0.695322 -1.750954
v -0.940966 -0.695322 -1.760954
v -0.937648 -0.698640 -1.750954
v -0.937648 -0.698640 -1.760954
v -0.935517 -0.702822 -1.750954
v -0.935517 -0.702822 -1.760954
v -0.934783 -0.707457 -1.750954
v -0.934783 -0.707457 -1.760954
v -0.934783 -0.832457 -1.760954
v -0.934783 -0.832457 -1.750954
v -0.935517 -0.837092 -1.750954
v -0.935517 -0.837092 -1.760954
v -0.937648 -0.841274 -1.750954
v -0.937648 -0.841274 -1.760954
v -0.940966 -0.844592 -1.750954
v -0.940966 -0.844592 -1.760954
v -0.945148 -0.846723 -1.750954
v -0.945148 -0.846723 -1.760954
v -0.949783 -0.847457 -1.750954
v -0.949783 -0.847457 -1.760954
v -0.954418 -0.846723 -1.750954
v -0.954418 -0.846723 -1.760954
v -0.958600 -0.844592 -1.750954
v -0.958600 -0.844592 -1.760954
v -0.961918 -0.841274 -1.750954
v -0.961918 -0.841274 -1.760954
v -0.964049 -0.837092 -1.750954
v -0.964049 -0.837092 -1.760954
v -0.964783 -0.832457 -1.750954
v -0.964783 -0.832457 -1.760954
v -0.948323 -0.838380 -1.760954
v -0.945738 -0.837023 -1.760954
v -0.952618 -0.702056 -1.760954
v -0.949783 -0.701357 -1.760954
v -0.944080 -0.834620 -1.760954
v -0.951243 -0.838380 -1.760954
v -0.953828 -0.837023 -1.760954
v -0.946948 -0.702056 -1.760954
v -0.944763 -0.703992 -1.760954
v -0.954803 -0.703992 -1.760954
v -0.955839 -0.706722 -1.760954
v -0.943728 -0.831722 -1.760954
v -0.948323 -0.713380 -1.760954
v -0.946948 -0.827056 -1.760954
v -0.951243 -0.713380 -1.760954
v -0.949783 -0.826357 -1.760954
v -0.953828 -0.712023 -1.760954
v -0.955487 -0.834620 -1.760954
v -0.955839 -0.831722 -1.760954
v -0.954803 -0.828992 -1.760954
v -0.952618 -0.827056 -1.760954
v -0.955487 -0.709620 -1.760954
v -0.945738 -0.712023 -1.760954
v -0.944763 -0.828992 -1.760954
v -0.943728 -0.706722 -1.760954
v -0.944080 -0.709620 -1.760954
v -0.945738 -0.712023 -1.750954
v -0.948323 -0.713380 -1.750954
v -0.951243 -0.838380 -1.750954
v -0.948323 -0.838380 -1.750954
v -0.945738 -0.837023 -1.750954
v -0.955487 -0.834620 -1.750954
v -0.955839 -0.831722 -1.750954
v -0.953828 -0.837023 -1.750954
v -0.949783 -0.701357 -1.750954
v -0.952618 -0.702056 -1.750954
v -0.954803 -0.703992 -1.750954
v -0.944080 -0.834620 -1.750954
v -0.943728 -0.831722 -1.750954
v -0.946948 -0.702056 -1.750954
v -0.944080 -0.709620 -1.750954
v -0.943728 -0.706722 -1.750954
v -0.944763 -0.703992 -1.750954
v -0.954803 -0.828992 -1.750954
v -0.952618 -0.827056 -1.750954
v -0.953828 -0.712023 -1.750954
v -0.951243 -0.713380 -1.750954
v -0.949783 -0.826357 -1.750954
v -0.946948 -0.827056 -1.750954
v -0.944763 -0.828992 -1.750954
v -0.955487 -0.709620 -1.750954
v -0.955839 -0.706722 -1.750954
v -0.946948 -0.827056 -1.750954
v -0.944763 -0.828992 -1.750954
v -0.944080 -0.709620 -1.750954
v -0.943728 -0.706722 -1.750954
v -0.952618 -0.827056 -1.750954
v -0.949783 -0.826357 -1.750954
v -0.954803 -0.703992 -1.750954
v -0.955839 -0.706722 -1.750954
v -0.955839 -0.831722 -1.750954
v -0.954803 -0.828992 -1.750954
v -0.951243 -0.838380 -1.750954
v -0.948323 -0.838380 -1.750954
v -0.953828 -0.837023 -1.750954
v -0.953828 -0.712023 -1.760954
v -0.955487 -0.709620 -1.760954
v -0.944763 -0.703992 -1.760954
v -0.943728 -0.706722 -1.760954
v -0.948323 -0.713380 -1.760954
v -0.951243 -0.713380 -1.760954
v -0.945738 -0.712023 -1.760954
v -0.948323 -0.838380 -1.760954
v -0.945738 -0.837023 -1.760954
v -0.944080 -0.834620 -1.760954
v -0.943728 -0.831722 -1.760954
v -0.958600 -0.844592 -1.750954
v -0.961918 -0.841274 -1.750954
v -0.964049 -0.837092 -1.750954
v -0.964783 -0.832457 -1.750954
v -0.940966 -0.844592 -1.750954
v -0.945148 -0.846723 -1.750954
v -0.949783 -0.847457 -1.750954
v -0.954418 -0.846723 -1.750954
v -0.934783 -0.707457 -1.750954
v -0.934783 -0.832457 -1.750954
v -0.935517 -0.837092 -1.750954
v -0.937648 -0.841274 -1.750954
v -0.937648 -0.698640 -1.750954
v -0.935517 -0.702822 -1.750954
v -0.961918 -0.698640 -1.750954
v -0.958600 -0.695322 -1.750954
v -0.964783 -0.707457 -1.760954
v -0.964049 -0.702822 -1.760954
v -0.964783 -0.832457 -1.760954
v -0.944080 -0.709620 -1.760954
v -0.951243 -0.838380 -1.760954
v -0.945148 -0.693191 -1.750954
v -0.940966 -0.695322 -1.750954
v -0.954418 -0.693191 -1.750954
v -0.949783 -0.692457 -1.750954
v -0.935517 -0.837092 -1.760954
v -0.937648 -0.841274 -1.760954
v -0.953828 -0.712023 -1.750954
v -0.955487 -0.709620 -1.750954
v -0.944763 -0.703992 -1.750954
v -0.951243 -0.713380 -1.750954
v -0.944080 -0.834620 -1.750954
v -0.943728 -0.831722 -1.750954
v -0.945738 -0.837023 -1.750954
v -0.955487 -0.834620 -1.760954
v -0.955839 -0.831722 -1.760954
v -0.954803 -0.703992 -1.760954
v -0.955839 -0.706722 -1.760954
v -0.946948 -0.827056 -1.760954
v -0.949783 -0.826357 -1.760954
v -0.944763 -0.828992 -1.760954
v -0.953828 -0.837023 -1.760954
v -0.958600 -0.844592 -1.760954
v -0.961918 -0.841274 -1.760954
v -0.964049 -0.837092 -1.760954
v -0.940966 -0.844592 -1.760954
v -0.945148 -0.846723 -1.760954
v -0.949783 -0.847457 -1.760954
v -0.954418 -0.846723 -1.760954
v -0.934783 -0.707457 -1.760954
v -0.934783 -0.832457 -1.760954
v -0.945148 -0.693191 -1.760954
v -0.940966 -0.695322 -1.760954
v -0.937648 -0.698640 -1.760954
v -0.935517 -0.702822 -1.760954
v -0.961918 -0.698640 -1.760954
v -0.958600 -0.695322 -1.760954
v -0.954418 -0.693191 -1.760954
v -0.949783 -0.692457 -1.760954
v -0.964783 -0.707457 -1.750954
v -0.964049 -0.702822 -1.750954
v -0.949783 -0.701357 -1.750954
v -0.952618 -0.702056 -1.750954
v -0.945738 -0.712023 -1.750954
v -0.948323 -0.713380 -1.750954
v -0.954803 -0.828992 -1.760954
v -0.952618 -0.702056 -1.760954
v -0.949783 -0.701357 -1.760954
v -0.946948 -0.702056 -1.750954
v -0.955487 -0.834620 -1.750954
v -0.952618 -0.827056 -1.760954
v -0.946948 -0.702056 -1.760954
vn -0.5878 -0.8090 -0.0000
vn -0.3090 -0.9511 -0.0000
vn -0.0000 -1.0000 -0.0000
vn 0.8230 -0.5681 -0.0000
vn 0.9927 -0.1205 -0.0000
vn 0.9350 0.3546 -0.0000
vn 0.6631 0.7485 -0.0000
vn -0.5878 0.8090 -0.0000
vn -0.8090 0.5878 -0.0000
vn 0.2393 0.9709 -0.0000
vn -0.2393 0.9709 -0.0000
vn 0.8090 -0.5878 -0.0000
vn 0.9511 -0.3090 -0.0000
vn 0.3090 -0.9511 -0.0000
vn 0.5878 -0.8090 -0.0000
vn 0.9511 0.3090 -0.0000
vn 0.8090 0.5878 -0.0000
vn -0.8230 -0.5680 -0.0000
vn -0.4647 -0.8855 -0.0000
vn 0.9969 -0.0785 -0.0000
vn 0.9969 0.0784 -0.0000
vn -0.6631 0.7485 -0.0000
vn -0.9350 0.3546 -0.0000
vn -0.9511 0.3090 -0.0000
vn -0.9969 0.0784 -0.0000
vn -0.3090 0.9511 -0.0000
vn -0.0000 1.0000 -0.0000
vn -0.8090 -0.5878 -0.0000
vn 0.4647 -0.8855 -0.0000
vn -0.0000 -0.0000 -1.0000
vn -0.9927 -0.1205 -0.0000
vn -0.8230 -0.5681 -0.0000
vn -0.0000 -0.0000 1.0000
vn 0.3090 0.9511 -0.0000
vn -0.9511 -0.3090 -0.0000
vn -0.9969 -0.0785 -0.0000
vn 0.5878 0.8090 -0.0000
vn 0.0001 -0.0000 -1.0000
vn -0.0001 -0.0000 -1.0000
vn 0.0002 -0.0000 -1.0000
vn -0.0003 -0.0000 -1.0000
vn -0.0001 -0.0000 1.0000
vn 0.0001 -0.0000 1.0000
vn 0.0002 -0.0000 1.0000
vn -0.0002 -0.0000 1.0000
s 1
f 163//1 128//2 121//1
f 169//2 127//3 128//2
f 157//4 104//5 158//5
f 62//6 109//7 162//7
f 177//8 135//9 136//8
f 115//10 185//11 57//11
f 147//12 131//13 132//12
f 167//14 125//15 126//14
f 175//16 133//17 134//16
f 53//18 84//19 52//19
f 146//13 130//20 131//13
f 129//21 171//20 170//21
f 118//22 152//23 49//23
f 138//24 180//25 181//24
f 170//21 134//16 129//21
f 178//26 136//8 144//26
f 141//10 108//11 117//11
f 179//27 144//26 145//27
f 164//28 121//1 122//28
f 191//29 106//4 64//4
f 162//7 107//10 141//10
f 6//30 14//30 188//30
f 117//11 154//22 118//22
f 46//30 26//30 34//30
f 113//31 150//32 53//18
f 61//7 91//10 115//10
f 48//3 183//29 47//29
f 57//11 184//22 67//22
f 72//33 97//33 24//33
f 172//34 145//27 142//34
f 68//18 93//19 58//19
f 166//15 132//12 125//15
f 165//35 122//28 123//35
f 43//36 137//25 44//36
f 66//6 148//7 61//7
f 67//22 85//23 70//23
f 56//31 94//32 68//18
f 158//5 149//6 66//6
f 52//19 182//3 48//3
f 168//3 126//14 127//3
f 64//4 105//5 63//5
f 47//29 103//4 157//4
f 96//33 7//33 124//33
f 49//23 83//31 56//31
f 60//3 89//29 191//29
f 174//17 15//37 133//17
f 16//37 142//34 15//37
f 44//36 123//35 43//36
f 58//19 92//3 60//3
f 63//5 76//6 62//6
f 70//23 86//31 113//31
f 176//9 181//24 135//9
f 163//1 169//2 128//2
f 169//2 168//3 127//3
f 157//4 103//4 104//5
f 62//6 76//6 109//7
f 177//8 176//9 135//9
f 115//10 91//10 185//11
f 147//12 146//13 131//13
f 167//14 166//15 125//15
f 175//16 174//17 133//17
f 53//18 150//32 84//19
f 146//13 171//20 130//20
f 129//21 130//20 171//20
f 118//22 154//22 152//23
f 138//24 137//25 180//25
f 170//21 175//16 134//16
f 178//26 177//8 136//8
f 141//10 107//10 108//11
f 179//27 178//26 144//26
f 164//28 163//1 121//1
f 191//29 89//29 106//4
f 162//7 109//7 107//10
f 59//30 114//30 159//30
f 59//30 159//30 160//30
f 110//30 59//30 160//30
f 65//30 186//30 139//30
f 110//30 160//30 65//30
f 111//30 110//30 65//30
f 65//30 139//30 1//30
f 1//30 4//38 6//30
f 6//30 8//38 10//30
f 10//30 12//30 14//30
f 14//30 173//30 18//30
f 18//30 20//30 22//30
f 22//30 140//30 69//30
f 22//30 69//30 112//30
f 14//30 18//30 22//30
f 6//30 10//30 14//30
f 65//30 1//30 6//30
f 55//30 111//30 65//30
f 55//30 65//30 6//30
f 14//30 22//30 112//30
f 14//30 112//30 192//30
f 54//30 55//30 6//30
f 187//30 54//30 6//30
f 14//30 192//30 188//30
f 188//30 187//30 6//30
f 117//11 108//11 154//22
f 40//30 42//30 139//30
f 139//30 186//30 156//30
f 139//30 156//30 155//30
f 38//30 40//30 139//30
f 34//30 36//30 38//30
f 30//30 32//30 34//30
f 26//30 28//39 30//30
f 22//30 23//40 26//30
f 116//30 140//30 22//30
f 159//30 114//30 116//30
f 161//30 159//30 116//30
f 116//30 22//30 26//30
f 26//30 30//30 34//30
f 34//30 38//30 139//30
f 139//30 155//30 51//41
f 139//30 51//41 50//30
f 161//30 116//30 26//30
f 120//30 161//30 26//30
f 34//30 139//30 50//30
f 34//30 50//30 45//30
f 119//30 120//30 26//30
f 34//30 45//30 46//30
f 46//30 119//30 26//30
f 113//31 86//31 150//32
f 61//7 148//7 91//10
f 48//3 182//3 183//29
f 57//11 185//11 184//22
f 13//33 11//33 9//33
f 9//33 7//33 80//33
f 9//33 80//33 79//33
f 143//33 13//33 9//33
f 19//33 17//42 143//33
f 24//33 21//33 19//33
f 27//33 25//33 24//33
f 31//33 29//42 27//33
f 35//33 33//33 31//33
f 39//33 37//43 35//33
f 190//33 41//33 39//33
f 78//33 190//33 39//33
f 39//33 35//33 31//33
f 31//33 27//33 24//33
f 24//33 19//33 143//33
f 143//33 9//33 79//33
f 143//33 79//33 189//33
f 78//33 39//33 31//33
f 73//33 78//33 31//33
f 143//33 189//33 87//33
f 143//33 87//33 100//33
f 74//33 73//33 31//33
f 75//33 74//33 31//33
f 24//33 143//33 100//33
f 24//33 100//33 99//43
f 75//33 31//33 24//33
f 82//33 75//33 24//33
f 24//33 99//43 71//42
f 72//33 151//33 101//33
f 24//33 71//42 72//33
f 153//33 82//33 24//33
f 98//33 153//33 24//33
f 72//33 101//33 102//33
f 97//33 98//33 24//33
f 72//33 102//33 97//33
f 172//34 179//27 145//27
f 68//18 94//32 93//19
f 166//15 147//12 132//12
f 165//35 164//28 122//28
f 43//36 180//25 137//25
f 66//6 149//6 148//7
f 67//22 184//22 85//23
f 56//31 83//31 94//32
f 158//5 104//5 149//6
f 52//19 84//19 182//3
f 168//3 167//14 126//14
f 64//4 106//4 105//5
f 47//29 183//29 103//4
f 88//44 101//33 151//33
f 88//44 151//33 90//33
f 41//33 190//33 77//33
f 77//33 88//44 90//33
f 77//33 90//33 95//45
f 124//33 41//33 77//33
f 3//33 2//33 124//33
f 7//33 5//43 3//33
f 81//43 80//33 7//33
f 77//33 95//45 96//33
f 96//33 81//43 7//33
f 7//33 3//33 124//33
f 124//33 77//33 96//33
f 49//23 152//23 83//31
f 60//3 92//3 89//29
f 174//17 16//37 15//37
f 16//37 172//34 142//34
f 44//36 165//35 123//35
f 58//19 93//19 92//3
f 63//5 105//5 76//6
f 70//23 85//23 86//31
f 176//9 138//24 181//24
