# Blender 3.4.1
# www.blender.org
o Handle_1_phy
v -0.944012 -0.705815 -1.790954
v -0.944995 -0.703841 -1.790954
v -0.946890 -0.702252 -1.790963
v -0.948681 -0.701559 -1.790954
v -0.950886 -0.701559 -1.790954
v -0.952942 -0.702356 -1.790954
v -0.955554 -0.705815 -1.790954
v -0.954710 -0.704374 -1.790878
v -0.955758 -0.708011 -1.790954
v -0.954979 -0.710457 -1.790954
v -0.953825 -0.711891 -1.790954
v -0.951951 -0.713052 -1.790954
v -0.949783 -0.713457 -1.790954
v -0.947616 -0.713052 -1.790954
v -0.945741 -0.711891 -1.790954
v -0.944412 -0.710131 -1.790954
v -0.943783 -0.707457 -1.790954
v -0.949783 -0.718679 -1.814678
v -0.951951 -0.718311 -1.814848
v -0.953825 -0.717258 -1.815336
v -0.955154 -0.715661 -1.816074
v -0.955758 -0.713736 -1.816965
v -0.955554 -0.711743 -1.817887
v -0.954571 -0.709952 -1.818716
v -0.952942 -0.708604 -1.819339
v -0.950886 -0.707881 -1.819674
v -0.948681 -0.707881 -1.819674
v -0.946625 -0.708604 -1.819339
v -0.944995 -0.709952 -1.818716
v -0.944012 -0.711743 -1.817887
v -0.943809 -0.713736 -1.816965
v -0.944412 -0.715661 -1.816074
v -0.945741 -0.717258 -1.815336
v -0.947616 -0.718311 -1.814848
vn -0.0000 -0.4199 -0.9076
vn 0.7911 -0.5974 0.1315
vn 0.9720 -0.2286 0.0542
vn 0.9900 0.1380 -0.0304
vn 0.8909 0.4436 -0.0976
vn 0.6341 0.7552 -0.1662
vn 0.3526 0.9139 -0.2012
vn -0.0000 0.9766 -0.2150
vn -0.3539 0.9134 -0.2011
vn -0.7479 0.6501 -0.1340
vn -0.8555 0.5069 -0.1058
vn -0.9955 0.0923 -0.0203
vn -0.9506 -0.3025 0.0693
vn -0.7717 -0.6211 0.1367
vn -0.5175 -0.8357 0.1840
vn -0.1796 -0.9607 0.2115
vn 0.1796 -0.9607 0.2115
vn 0.5174 -0.8357 0.1839
vn -0.0000 0.0009 1.0000
vn 0.0001 -0.4197 -0.9076
vn -0.0000 -0.4198 -0.9076
vn -0.0003 -0.4198 -0.9076
vn -0.0003 -0.4199 -0.9076
vn 0.0003 -0.4199 -0.9076
vn -0.0003 -0.4200 -0.9075
vn -0.0002 -0.4198 -0.9076
vn 0.9601 -0.2732 0.0601
vn 0.9956 0.0911 -0.0230
vn 0.8909 0.4435 -0.0976
vn 0.6646 0.7305 -0.1573
vn 0.3539 0.9134 -0.2011
vn -0.3538 0.9134 -0.2011
vn -0.6650 0.7294 -0.1606
vn -0.8909 0.4436 -0.0976
vn -0.9601 -0.2731 0.0601
vn -0.7909 -0.5981 0.1294
vn -0.5174 -0.8357 0.1840
vn 0.5175 -0.8357 0.1840
vn -0.0073 -0.0037 1.0000
vn -0.0000 -0.0119 0.9999
vn -0.0222 0.0571 0.9981
vn -0.1068 0.0099 0.9942
vn 0.0003 -0.0000 1.0000
vn -0.0001 -0.0000 1.0000
vn 0.0001 -0.0000 1.0000
vn -0.0000 -0.0000 1.0000
vn -0.0033 -0.0005 1.0000
vn 0.0054 0.0197 0.9998
vn -0.0266 -0.0133 0.9996
vn -0.0016 0.0007 1.0000
vn 0.0131 -0.0086 0.9999
s 0
f 34//1 25//1 29//1
f 15//2 32//2 16//2
f 16//3 31//3 17//3
f 17//4 30//4 1//4
f 30//5 2//5 1//5
f 29//6 3//6 2//6
f 3//7 27//7 4//7
f 27//8 5//8 4//8
f 5//9 25//9 6//9
f 6//10 24//10 8//10
f 24//11 7//11 8//11
f 7//12 22//12 9//12
f 9//13 21//13 10//13
f 10//14 20//14 11//14
f 11//15 19//15 12//15
f 19//16 13//16 12//16
f 13//17 34//17 14//17
f 34//18 15//18 14//18
f 3//19 11//19 15//19
f 32//20 33//20 34//20
f 34//21 18//21 19//21
f 19//22 20//22 21//22
f 21//23 22//23 23//23
f 23//24 24//24 25//24
f 25//21 26//21 27//21
f 27//25 28//25 29//25
f 29//22 30//22 31//22
f 31//26 32//26 34//26
f 34//1 19//1 21//1
f 21//1 23//1 25//1
f 25//1 27//1 29//1
f 29//1 31//1 34//1
f 34//1 21//1 25//1
f 15//2 33//2 32//2
f 16//27 32//27 31//27
f 17//28 31//28 30//28
f 30//29 29//29 2//29
f 29//30 28//30 3//30
f 3//31 28//31 27//31
f 27//8 26//8 5//8
f 5//32 26//32 25//32
f 6//33 25//33 24//33
f 24//34 23//34 7//34
f 7//12 23//12 22//12
f 9//35 22//35 21//35
f 10//36 21//36 20//36
f 11//37 20//37 19//37
f 19//16 18//16 13//16
f 13//17 18//17 34//17
f 34//38 33//38 15//38
f 1//39 2//39 3//39
f 3//40 4//40 5//40
f 5//41 6//41 8//41
f 8//42 7//42 9//42
f 9//43 10//43 11//43
f 11//44 12//44 13//44
f 13//45 14//45 15//45
f 15//46 16//46 17//46
f 17//47 1//47 3//47
f 3//48 5//48 8//48
f 8//49 9//49 11//49
f 11//46 13//46 15//46
f 15//50 17//50 3//50
f 3//51 8//51 11//51
