# Blender 3.4.1
# www.blender.org
o Handle_6_phy
v -0.949783 -0.818369 -1.820083
v -0.951951 -0.818717 -1.820292
v -0.949783 -0.801664 -1.837719
v -0.951951 -0.801891 -1.838054
v -0.953825 -0.819711 -1.820890
v -0.953825 -0.802543 -1.839015
v -0.955154 -0.803530 -1.840471
v -0.955154 -0.821219 -1.821798
v -0.955758 -0.823036 -1.822891
v -0.955758 -0.804720 -1.842227
v -0.955554 -0.805953 -1.844044
v -0.955554 -0.824917 -1.824023
v -0.954571 -0.826609 -1.825041
v -0.954571 -0.807060 -1.845678
v -0.952942 -0.827882 -1.825806
v -0.952942 -0.807894 -1.846907
v -0.950886 -0.808341 -1.847566
v -0.950886 -0.828564 -1.826217
v -0.948681 -0.828564 -1.826217
v -0.948681 -0.808341 -1.847566
v -0.946625 -0.827882 -1.825806
v -0.946625 -0.807894 -1.846907
v -0.944995 -0.807060 -1.845678
v -0.944995 -0.826609 -1.825041
v -0.944012 -0.824917 -1.824023
v -0.944012 -0.805953 -1.844044
v -0.943809 -0.823036 -1.822891
v -0.943809 -0.804720 -1.842227
v -0.944412 -0.803530 -1.840471
v -0.944412 -0.821219 -1.821798
v -0.945741 -0.819711 -1.820890
v -0.945741 -0.802543 -1.839015
v -0.947616 -0.818717 -1.820292
v -0.947616 -0.801891 -1.838054
vn 0.1796 0.7142 0.6765
vn 0.5175 0.6212 0.5884
vn 0.7910 0.4441 0.4207
vn -0.3538 -0.6790 -0.6432
vn -0.6649 -0.5423 -0.5137
vn -0.8909 -0.3297 -0.3124
vn -0.9955 -0.0686 -0.0650
vn -0.9601 0.2031 0.1923
vn -0.5174 0.6213 0.5885
vn -0.7911 0.4441 0.4207
vn -0.0000 -0.5156 0.8569
vn -0.1796 0.7142 0.6765
vn 0.9601 0.2031 0.1923
vn 0.8909 -0.3298 -0.3124
vn 0.9955 -0.0686 -0.0650
vn -0.0000 0.8277 -0.5612
vn 0.6649 -0.5423 -0.5137
vn 0.3539 -0.6790 -0.6432
vn -0.0000 -0.7260 -0.6877
vn 0.5174 0.6213 0.5885
vn 0.7911 0.4441 0.4207
vn -0.3539 -0.6790 -0.6432
vn -0.8909 -0.3298 -0.3124
vn -0.9601 0.2030 0.1924
vn -0.5175 0.6212 0.5884
vn -0.7910 0.4441 0.4207
vn -0.0001 -0.5156 0.8568
vn -0.0000 -0.5155 0.8569
vn 0.0003 -0.5156 0.8568
vn -0.0000 -0.5156 0.8568
vn -0.0000 -0.5157 0.8568
vn -0.0000 -0.5154 0.8570
vn 0.0005 -0.5156 0.8568
vn 0.0002 -0.5154 0.8569
vn -0.0001 -0.5155 0.8569
vn 0.9601 0.2030 0.1923
vn 0.8909 -0.3297 -0.3124
vn -0.0000 0.8277 -0.5611
vn 0.0003 0.8277 -0.5612
vn 0.0001 0.8276 -0.5613
vn -0.0000 0.8276 -0.5613
vn 0.0001 0.8279 -0.5609
vn 0.0003 0.8276 -0.5613
vn 0.0001 0.8278 -0.5610
vn -0.0001 0.8277 -0.5612
vn 0.3538 -0.6790 -0.6432
s 0
f 33//1 3//1 1//1
f 33//2 32//2 34//2
f 30//3 32//3 31//3
f 18//4 16//4 17//4
f 13//5 16//5 15//5
f 12//6 14//6 13//6
f 12//7 10//7 11//7
f 8//8 10//8 9//8
f 2//9 6//9 5//9
f 8//10 6//10 7//10
f 33//11 15//11 24//11
f 2//12 3//12 4//12
f 30//13 28//13 29//13
f 25//14 23//14 26//14
f 25//15 28//15 27//15
f 29//16 14//16 6//16
f 24//17 22//17 23//17
f 21//18 20//18 22//18
f 18//19 20//19 19//19
f 33//1 34//1 3//1
f 33//20 31//20 32//20
f 30//21 29//21 32//21
f 18//22 15//22 16//22
f 13//5 14//5 16//5
f 12//23 11//23 14//23
f 12//7 9//7 10//7
f 8//24 7//24 10//24
f 2//25 4//25 6//25
f 8//26 5//26 6//26
f 30//27 31//27 33//27
f 33//28 1//28 2//28
f 2//29 5//29 8//29
f 8//30 9//30 12//30
f 12//30 13//30 15//30
f 15//31 18//31 19//31
f 19//32 21//32 24//32
f 24//33 25//33 27//33
f 27//34 30//34 33//34
f 33//30 2//30 8//30
f 8//35 12//35 15//35
f 15//30 19//30 24//30
f 24//30 27//30 33//30
f 33//28 8//28 15//28
f 2//12 1//12 3//12
f 30//36 27//36 28//36
f 25//37 24//37 23//37
f 25//15 26//15 28//15
f 34//38 32//38 29//38
f 29//39 28//39 26//39
f 26//40 23//40 22//40
f 22//41 20//41 17//41
f 17//42 16//42 14//42
f 14//43 11//43 10//43
f 10//44 7//44 6//44
f 6//43 4//43 3//43
f 3//45 34//45 29//45
f 29//16 26//16 22//16
f 22//16 17//16 14//16
f 14//16 10//16 6//16
f 6//16 3//16 29//16
f 29//16 22//16 14//16
f 24//17 21//17 22//17
f 21//46 19//46 20//46
f 18//19 17//19 20//19
