# Blender 3.4.1
# www.blender.org
o Handle_0_vis
v -0.947283 -0.711787 -1.750954
v -0.945453 -0.709957 -1.750954
v -0.944783 -0.707457 -1.750954
v -0.945453 -0.704957 -1.750954
v -0.954113 -0.709957 -1.750954
v -0.952283 -0.711787 -1.750954
v -0.949783 -0.712457 -1.750954
v -0.952283 -0.703127 -1.750954
v -0.954113 -0.704957 -1.750954
v -0.954783 -0.707457 -1.750954
v -0.947283 -0.703127 -1.750954
v -0.949783 -0.702457 -1.750954
v -0.944587 -0.704457 -1.790954
v -0.944587 -0.704457 -1.751954
v -0.944012 -0.705815 -1.790954
v -0.943783 -0.707457 -1.751954
v -0.944995 -0.703841 -1.790954
v -0.946625 -0.702356 -1.790954
v -0.946783 -0.702261 -1.751954
v -0.946783 -0.702261 -1.790954
v -0.948681 -0.701559 -1.790954
v -0.949783 -0.701457 -1.751954
v -0.949783 -0.701457 -1.790954
v -0.950886 -0.701559 -1.790954
v -0.952783 -0.702261 -1.751954
v -0.952783 -0.702261 -1.790954
v -0.954979 -0.704457 -1.751954
v -0.952942 -0.702356 -1.790954
v -0.954571 -0.703841 -1.790954
v -0.955783 -0.707457 -1.790954
v -0.955783 -0.707457 -1.751954
v -0.955554 -0.705815 -1.790954
v -0.954979 -0.704457 -1.790954
v -0.955758 -0.708011 -1.790954
v -0.955154 -0.710131 -1.790954
v -0.954979 -0.710457 -1.751954
v -0.954979 -0.710457 -1.790954
v -0.953825 -0.711891 -1.790954
v -0.952783 -0.712653 -1.751954
v -0.952783 -0.712653 -1.790954
v -0.951951 -0.713052 -1.790954
v -0.949783 -0.713457 -1.751954
v -0.949783 -0.713457 -1.790954
v -0.947616 -0.713052 -1.790954
v -0.946783 -0.712653 -1.751954
v -0.944587 -0.710457 -1.790954
v -0.944587 -0.710457 -1.751954
v -0.945741 -0.711891 -1.790954
v -0.946783 -0.712653 -1.790954
v -0.944412 -0.710131 -1.790954
v -0.943809 -0.708011 -1.790954
v -0.943783 -0.707457 -1.790954
v -0.955783 -0.707457 -1.751954
v -0.954979 -0.710457 -1.751954
v -0.954979 -0.704457 -1.751954
v -0.946783 -0.702261 -1.751954
v -0.949783 -0.701457 -1.751954
v -0.947283 -0.711787 -1.750954
v -0.945453 -0.709957 -1.750954
v -0.943809 -0.708011 -1.790954
v -0.943783 -0.707457 -1.790954
v -0.949783 -0.713457 -1.790954
v -0.947616 -0.713052 -1.790954
v -0.952783 -0.712653 -1.751954
v -0.949783 -0.713457 -1.751954
v -0.955154 -0.710131 -1.790954
v -0.954979 -0.710457 -1.790954
v -0.949783 -0.701457 -1.790954
v -0.950886 -0.701559 -1.790954
v -0.944012 -0.705815 -1.790954
v -0.952283 -0.703127 -1.750954
v -0.954113 -0.704957 -1.750954
v -0.949783 -0.702457 -1.750954
v -0.945453 -0.704957 -1.750954
v -0.947283 -0.703127 -1.750954
v -0.949783 -0.712457 -1.750954
v -0.946783 -0.702261 -1.790954
v -0.948681 -0.701559 -1.790954
v -0.954113 -0.709957 -1.750954
v -0.954783 -0.707457 -1.750954
v -0.955554 -0.705815 -1.790954
v -0.954979 -0.704457 -1.790954
v -0.945741 -0.711891 -1.790954
v -0.946783 -0.712653 -1.790954
v -0.952783 -0.712653 -1.790954
v -0.951951 -0.713052 -1.790954
v -0.952942 -0.702356 -1.790954
v -0.954571 -0.703841 -1.790954
v -0.952783 -0.702261 -1.790954
v -0.943783 -0.707457 -1.751954
v -0.944587 -0.710457 -1.751954
v -0.952283 -0.711787 -1.750954
v -0.944783 -0.707457 -1.750954
v -0.953825 -0.711891 -1.790954
v -0.946783 -0.712653 -1.751954
v -0.952783 -0.702261 -1.751954
v -0.944995 -0.703841 -1.790954
v -0.946625 -0.702356 -1.790954
v -0.944587 -0.704457 -1.790954
v -0.944587 -0.710457 -1.790954
v -0.944412 -0.710131 -1.790954
v -0.955783 -0.707457 -1.790954
v -0.955758 -0.708011 -1.790954
v -0.944587 -0.704457 -1.751954
vn -0.0000 -0.0000 1.0000
vn 0.3535 -0.6124 0.7071
vn 0.6124 -0.3535 0.7071
vn 0.7071 -0.0000 0.7071
vn 0.6124 0.3535 0.7071
vn -0.6124 0.3535 0.7071
vn -0.7071 -0.0000 0.7071
vn -0.6123 0.3535 0.7071
vn 0.3535 0.6124 0.7071
vn -0.3536 -0.6123 0.7071
vn -0.0000 -0.7070 0.7072
vn -0.3536 -0.6124 0.7071
vn 0.8810 0.4731 -0.0000
vn 0.8658 0.5004 0.0046
vn 0.9639 0.2663 0.0001
vn 1.0000 -0.0007 0.0042
vn 0.7592 0.6508 0.0006
vn -0.3105 -0.9506 0.0001
vn -0.0000 -1.0000 0.0043
vn -0.4998 -0.8661 0.0048
vn 0.5966 0.8025 0.0005
vn 0.4318 0.9020 -0.0000
vn 0.5003 0.8659 0.0043
vn 0.2215 0.9752 0.0001
vn -0.0000 1.0000 0.0049
vn -0.0000 1.0000 -0.0000
vn -0.2215 0.9752 0.0001
vn -0.5013 0.8653 0.0024
vn -0.4373 0.8993 0.0093
vn -0.8652 0.5014 0.0028
vn -0.5925 0.8055 0.0124
vn -0.7584 0.6517 0.0024
vn -0.9989 0.0462 -0.0000
vn -1.0000 -0.0007 0.0042
vn -0.9639 0.2663 0.0001
vn -0.8810 0.4731 -0.0000
vn -0.9868 -0.1616 0.0011
vn -0.9271 -0.3747 0.0010
vn -0.8337 -0.5522 -0.0000
vn -0.8663 -0.4995 0.0041
vn -0.6906 -0.7233 0.0001
vn -0.5133 -0.8582 -0.0000
vn 0.3105 -0.9506 0.0001
vn -0.0000 -1.0000 -0.0000
vn 0.8336 -0.5523 -0.0000
vn 0.8663 -0.4995 0.0041
vn 0.6906 -0.7232 0.0001
vn 0.4998 -0.8661 0.0048
vn 0.5133 -0.8582 -0.0000
vn 0.9270 -0.3750 0.0010
vn 0.9868 -0.1616 0.0011
vn 0.9989 0.0462 -0.0000
vn -0.0000 0.7071 0.7071
vn -0.3535 0.6124 0.7071
vn -0.6123 -0.3535 0.7071
vn -0.0000 -0.0000 -1.0000
vn -0.0000 -0.7071 0.7072
vn -0.6123 -0.3535 0.7072
vn -0.0014 -0.0000 -1.0000
vn 0.0003 -0.0000 -1.0000
vn -0.0007 -0.0000 -1.0000
vn -0.0004 -0.0000 -1.0000
vn 0.0002 -0.0000 -1.0000
vn -0.0002 -0.0000 -1.0000
vn 0.0008 -0.0000 -1.0000
vn 0.0004 -0.0000 -1.0000
vn 0.0001 -0.0000 -1.0000
s 1
f 93//1 71//1 92//1
f 1//2 47//3 2//3
f 3//4 104//5 74//5
f 55//6 10//7 9//8
f 74//5 19//9 11//9
f 39//10 7//11 6//12
f 99//13 14//14 70//15
f 70//15 14//14 90//16
f 99//13 97//17 14//14
f 86//18 42//19 64//20
f 98//21 77//22 56//23
f 56//23 77//22 78//24
f 56//23 78//24 57//25
f 78//24 68//26 57//25
f 57//25 68//26 69//27
f 57//25 69//27 25//28
f 25//28 69//27 89//29
f 25//28 89//29 27//30
f 27//30 89//29 87//31
f 27//30 87//31 88//32
f 102//33 53//34 81//35
f 81//35 53//34 27//30
f 81//35 27//30 82//36
f 82//36 27//30 88//32
f 102//33 103//37 53//34
f 56//23 97//17 98//21
f 66//38 67//39 54//40
f 54//40 67//39 94//41
f 54//40 94//41 64//20
f 94//41 85//42 64//20
f 64//20 85//42 86//18
f 63//43 42//19 62//44
f 100//45 91//46 83//47
f 83//47 91//46 45//48
f 83//47 45//48 84//49
f 84//49 45//48 63//43
f 100//45 101//50 91//46
f 54//40 103//37 66//38
f 90//16 60//51 61//52
f 90//16 61//52 70//15
f 22//53 8//54 73//53
f 96//54 9//8 8//54
f 31//7 5//55 10//7
f 16//4 2//3 47//3
f 11//9 22//53 73//53
f 60//51 91//46 101//50
f 5//55 39//10 6//12
f 43//56 32//56 20//56
f 65//57 1//2 7//11
f 92//1 76//1 58//1
f 58//1 59//1 93//1
f 93//1 4//1 75//1
f 75//1 12//1 71//1
f 71//1 72//1 80//1
f 80//1 79//1 92//1
f 92//1 58//1 93//1
f 93//1 75//1 71//1
f 71//1 80//1 92//1
f 1//2 95//2 47//3
f 3//4 16//4 104//5
f 55//6 31//7 10//7
f 74//5 104//5 19//9
f 39//10 65//57 7//11
f 86//18 62//44 42//19
f 56//23 14//14 97//17
f 63//43 45//48 42//19
f 54//40 53//34 103//37
f 22//53 96//54 8//54
f 96//54 55//6 9//8
f 31//7 36//58 5//55
f 16//4 3//4 2//3
f 11//9 19//9 22//53
f 60//51 90//16 91//46
f 5//55 36//58 39//10
f 15//56 52//59 51//60
f 51//60 50//61 46//56
f 46//56 48//62 49//56
f 49//56 44//63 43//56
f 43//56 41//64 40//56
f 40//56 38//65 37//56
f 37//56 35//56 34//62
f 34//62 30//56 32//56
f 32//56 33//56 29//63
f 29//63 28//66 26//56
f 26//56 24//67 23//56
f 23//56 21//56 20//56
f 20//56 18//56 17//64
f 17//64 13//56 15//56
f 15//56 51//60 46//56
f 46//56 49//56 43//56
f 43//56 40//56 37//56
f 37//56 34//62 32//56
f 32//56 29//63 26//56
f 26//56 23//56 20//56
f 20//56 17//64 15//56
f 15//56 46//56 43//56
f 43//56 37//56 32//56
f 32//56 26//56 20//56
f 20//56 15//56 43//56
f 65//57 95//2 1//2
