# Blender 3.5.0
# www.blender.org
o marker_15_vis
v -0.040032 0.045069 -0.100583
v -0.039049 0.044972 -0.100583
v -0.038104 0.044686 -0.100583
v -0.037233 0.044220 -0.100583
v -0.036469 0.043594 -0.100583
v -0.035843 0.042830 -0.100583
v -0.035377 0.041959 -0.100583
v -0.035091 0.041014 -0.100583
v -0.034994 0.040032 -0.100583
v -0.035091 0.039049 -0.100583
v -0.035377 0.038104 -0.100583
v -0.035843 0.037233 -0.100583
v -0.036469 0.036469 -0.100583
v -0.037233 0.035843 -0.100583
v -0.038104 0.035377 -0.100583
v -0.039049 0.035091 -0.100583
v -0.040032 0.034994 -0.100583
v -0.041014 0.035091 -0.100583
v -0.041959 0.035377 -0.100583
v -0.042830 0.035843 -0.100583
v -0.043594 0.036469 -0.100583
v -0.044220 0.037233 -0.100583
v -0.044686 0.038104 -0.100583
v -0.044972 0.039049 -0.100583
v -0.045069 0.040032 -0.100583
v -0.044972 0.041014 -0.100583
v -0.044686 0.041959 -0.100583
v -0.044220 0.042830 -0.100583
v -0.043594 0.043594 -0.100583
v -0.042830 0.044220 -0.100583
v -0.041959 0.044686 -0.100583
v -0.041014 0.044972 -0.100583
v -0.039049 0.044972 -0.104105
v -0.040032 0.045069 -0.104105
v -0.038104 0.044686 -0.104105
v -0.037233 0.044220 -0.104105
v -0.036469 0.043594 -0.104105
v -0.035843 0.042830 -0.104105
v -0.035377 0.041959 -0.104105
v -0.035091 0.041014 -0.104105
v -0.034994 0.040032 -0.104105
v -0.035091 0.039049 -0.104105
v -0.035377 0.038104 -0.104105
v -0.035843 0.037233 -0.104105
v -0.036469 0.036469 -0.104105
v -0.037233 0.035843 -0.104105
v -0.038104 0.035377 -0.104105
v -0.039049 0.035091 -0.104105
v -0.040032 0.034994 -0.104105
v -0.041014 0.035091 -0.104105
v -0.041959 0.035377 -0.104105
v -0.042830 0.035843 -0.104105
v -0.043594 0.036469 -0.104105
v -0.044220 0.037233 -0.104105
v -0.044686 0.038104 -0.104105
v -0.044972 0.039049 -0.104105
v -0.045069 0.040032 -0.104105
v -0.044972 0.041014 -0.104105
v -0.044686 0.041959 -0.104105
v -0.044220 0.042830 -0.104105
v -0.043594 0.043594 -0.104105
v -0.042830 0.044220 -0.104105
v -0.041959 0.044686 -0.104105
v -0.041014 0.044972 -0.104105
v 0.039917 0.045069 -0.100583
v 0.040900 0.044972 -0.100583
v 0.041845 0.044686 -0.100583
v 0.042716 0.044220 -0.100583
v 0.043479 0.043594 -0.100583
v 0.044105 0.042830 -0.100583
v 0.044571 0.041959 -0.100583
v 0.044858 0.041014 -0.100583
v 0.044954 0.040032 -0.100583
v 0.044858 0.039049 -0.100583
v 0.044571 0.038104 -0.100583
v 0.044105 0.037233 -0.100583
v 0.043479 0.036469 -0.100583
v 0.042716 0.035843 -0.100583
v 0.041845 0.035377 -0.100583
v 0.040900 0.035091 -0.100583
v 0.039917 0.034994 -0.100583
v 0.038934 0.035091 -0.100583
v 0.037989 0.035377 -0.100583
v 0.037118 0.035843 -0.100583
v 0.036355 0.036469 -0.100583
v 0.035728 0.037233 -0.100583
v 0.035263 0.038104 -0.100583
v 0.034976 0.039049 -0.100583
v 0.034879 0.040032 -0.100583
v 0.034976 0.041014 -0.100583
v 0.035263 0.041959 -0.100583
v 0.035728 0.042830 -0.100583
v 0.036355 0.043594 -0.100583
v 0.037118 0.044220 -0.100583
v 0.037989 0.044686 -0.100583
v 0.038934 0.044972 -0.100583
v 0.040900 0.044972 -0.104105
v 0.039917 0.045069 -0.104105
v 0.041845 0.044686 -0.104105
v 0.042716 0.044220 -0.104105
v 0.043479 0.043594 -0.104105
v 0.044105 0.042830 -0.104105
v 0.044571 0.041959 -0.104105
v 0.044858 0.041014 -0.104105
v 0.044954 0.040032 -0.104105
v 0.044858 0.039049 -0.104105
v 0.044571 0.038104 -0.104105
v 0.044105 0.037233 -0.104105
v 0.043479 0.036469 -0.104105
v 0.042716 0.035843 -0.104105
v 0.041845 0.035377 -0.104105
v 0.040900 0.035091 -0.104105
v 0.039917 0.034994 -0.104105
v 0.038934 0.035091 -0.104105
v 0.037989 0.035377 -0.104105
v 0.037118 0.035843 -0.104105
v 0.036355 0.036469 -0.104105
v 0.035728 0.037233 -0.104105
v 0.035263 0.038104 -0.104105
v 0.034976 0.039049 -0.104105
v 0.034879 0.040032 -0.104105
v 0.034976 0.041014 -0.104105
v 0.035263 0.041959 -0.104105
v 0.035728 0.042830 -0.104105
v 0.036355 0.043594 -0.104105
v 0.037118 0.044220 -0.104105
v 0.037989 0.044686 -0.104105
v 0.038934 0.044972 -0.104105
v 0.039917 -0.034930 -0.100583
v 0.040900 -0.035027 -0.100583
v 0.041845 -0.035314 -0.100583
v 0.042716 -0.035779 -0.100583
v 0.043479 -0.036406 -0.100583
v 0.044105 -0.037169 -0.100583
v 0.044571 -0.038040 -0.100583
v 0.044858 -0.038985 -0.100583
v 0.044954 -0.039968 -0.100583
v 0.044858 -0.040950 -0.100583
v 0.044571 -0.041895 -0.100583
v 0.044105 -0.042766 -0.100583
v 0.043479 -0.043530 -0.100583
v 0.042716 -0.044156 -0.100583
v 0.041845 -0.044622 -0.100583
v 0.040900 -0.044908 -0.100583
v 0.039917 -0.045005 -0.100583
v 0.038934 -0.044908 -0.100583
v 0.037989 -0.044622 -0.100583
v 0.037118 -0.044156 -0.100583
v 0.036355 -0.043530 -0.100583
v 0.035728 -0.042766 -0.100583
v 0.035263 -0.041895 -0.100583
v 0.034976 -0.040950 -0.100583
v 0.034879 -0.039968 -0.100583
v 0.034976 -0.038985 -0.100583
v 0.035263 -0.038040 -0.100583
v 0.035728 -0.037169 -0.100583
v 0.036355 -0.036406 -0.100583
v 0.037118 -0.035779 -0.100583
v 0.037989 -0.035314 -0.100583
v 0.038934 -0.035027 -0.100583
v 0.040900 -0.035027 -0.104105
v 0.039917 -0.034930 -0.104105
v 0.041845 -0.035314 -0.104105
v 0.042716 -0.035779 -0.104105
v 0.043479 -0.036406 -0.104105
v 0.044105 -0.037169 -0.104105
v 0.044571 -0.038040 -0.104105
v 0.044858 -0.038985 -0.104105
v 0.044954 -0.039968 -0.104105
v 0.044858 -0.040950 -0.104105
v 0.044571 -0.041895 -0.104105
v 0.044105 -0.042766 -0.104105
v 0.043479 -0.043530 -0.104105
v 0.042716 -0.044156 -0.104105
v 0.041845 -0.044622 -0.104105
v 0.040900 -0.044908 -0.104105
v 0.039917 -0.045005 -0.104105
v 0.038934 -0.044908 -0.104105
v 0.037989 -0.044622 -0.104105
v 0.037118 -0.044156 -0.104105
v 0.036355 -0.043530 -0.104105
v 0.035728 -0.042766 -0.104105
v 0.035263 -0.041895 -0.104105
v 0.034976 -0.040950 -0.104105
v 0.034879 -0.039968 -0.104105
v 0.034976 -0.038985 -0.104105
v 0.035263 -0.038040 -0.104105
v 0.035728 -0.037169 -0.104105
v 0.036355 -0.036406 -0.104105
v 0.037118 -0.035779 -0.104105
v 0.037989 -0.035314 -0.104105
v 0.038934 -0.035027 -0.104105
v -0.040018 -0.034930 -0.100583
v -0.039035 -0.035027 -0.100583
v -0.038090 -0.035314 -0.100583
v -0.037220 -0.035779 -0.100583
v -0.036456 -0.036406 -0.100583
v -0.035830 -0.037169 -0.100583
v -0.035364 -0.038040 -0.100583
v -0.035077 -0.038985 -0.100583
v -0.034981 -0.039968 -0.100583
v -0.035077 -0.040950 -0.100583
v -0.035364 -0.041895 -0.100583
v -0.035830 -0.042766 -0.100583
v -0.036456 -0.043530 -0.100583
v -0.037220 -0.044156 -0.100583
v -0.038090 -0.044622 -0.100583
v -0.039035 -0.044908 -0.100583
v -0.040018 -0.045005 -0.100583
v -0.041001 -0.044908 -0.100583
v -0.041946 -0.044622 -0.100583
v -0.042817 -0.044156 -0.100583
v -0.043580 -0.043530 -0.100583
v -0.044207 -0.042766 -0.100583
v -0.044672 -0.041895 -0.100583
v -0.044959 -0.040950 -0.100583
v -0.045056 -0.039968 -0.100583
v -0.044959 -0.038985 -0.100583
v -0.044672 -0.038040 -0.100583
v -0.044207 -0.037169 -0.100583
v -0.043580 -0.036406 -0.100583
v -0.042817 -0.035779 -0.100583
v -0.041946 -0.035314 -0.100583
v -0.041001 -0.035027 -0.100583
v -0.039035 -0.035027 -0.104105
v -0.040018 -0.034930 -0.104105
v -0.038090 -0.035314 -0.104105
v -0.037220 -0.035779 -0.104105
v -0.036456 -0.036406 -0.104105
v -0.035830 -0.037169 -0.104105
v -0.035364 -0.038040 -0.104105
v -0.035078 -0.038985 -0.104105
v -0.034981 -0.039968 -0.104105
v -0.035078 -0.040950 -0.104105
v -0.035364 -0.041895 -0.104105
v -0.035830 -0.042766 -0.104105
v -0.036456 -0.043530 -0.104105
v -0.037220 -0.044156 -0.104105
v -0.038090 -0.044622 -0.104105
v -0.039035 -0.044908 -0.104105
v -0.040018 -0.045005 -0.104105
v -0.041001 -0.044908 -0.104105
v -0.041946 -0.044622 -0.104105
v -0.042817 -0.044156 -0.104105
v -0.043580 -0.043530 -0.104105
v -0.044207 -0.042766 -0.104105
v -0.044672 -0.041895 -0.104105
v -0.044959 -0.040950 -0.104105
v -0.045056 -0.039968 -0.104105
v -0.044959 -0.038985 -0.104105
v -0.044672 -0.038040 -0.104105
v -0.044207 -0.037169 -0.104105
v -0.043580 -0.036406 -0.104105
v -0.042817 -0.035779 -0.104105
v -0.041946 -0.035314 -0.104105
v -0.041001 -0.035027 -0.104105
v -0.045294 -0.045707 -0.096222
v -0.050003 -0.045707 -0.096222
v -0.050003 -0.050000 -0.096222
v -0.045294 -0.050000 -0.096222
v -0.045294 -0.050000 -0.104222
v -0.050003 -0.050000 -0.104222
v -0.050003 0.045427 -0.104222
v -0.050003 0.045427 -0.096222
v -0.050003 0.050000 -0.096222
v -0.050003 0.050000 -0.104222
v 0.045452 -0.045707 -0.104222
v 0.049997 -0.045707 -0.104222
v 0.049997 -0.050000 -0.104222
v 0.045452 -0.050000 -0.104222
v 0.049997 -0.045707 -0.096222
v 0.049997 -0.050000 -0.096222
v 0.045452 0.050000 -0.104222
v 0.045452 0.050000 -0.096222
v 0.049997 0.050000 -0.096222
v 0.049997 0.050000 -0.104222
v -0.034627 0.050000 -0.104222
v -0.034627 0.050000 -0.096222
v -0.033336 0.050000 -0.096222
v -0.033336 0.050000 -0.104222
v -0.016669 0.050000 -0.096222
v -0.016669 0.050000 -0.104222
v -0.000003 0.050000 -0.096222
v -0.000003 0.050000 -0.104222
v 0.016664 0.050000 -0.096222
v 0.016664 0.050000 -0.104222
v 0.033331 0.050000 -0.096222
v 0.033331 0.050000 -0.104222
v -0.034627 -0.045707 -0.104222
v -0.033336 -0.045707 -0.104222
v -0.033336 -0.050000 -0.104222
v -0.034627 -0.050000 -0.104222
v -0.016669 -0.045707 -0.104222
v -0.016669 -0.050000 -0.104222
v -0.000003 -0.045707 -0.104222
v -0.000003 -0.050000 -0.104222
v 0.016664 -0.045707 -0.104222
v 0.016664 -0.050000 -0.104222
v 0.033331 -0.045707 -0.104222
v 0.033331 -0.050000 -0.104222
v 0.034509 -0.050000 -0.104222
v 0.034509 -0.050000 -0.096222
v 0.033331 -0.050000 -0.096222
v 0.016664 -0.050000 -0.096222
v -0.000003 -0.050000 -0.096222
v -0.016669 -0.050000 -0.096222
v -0.033336 -0.050000 -0.096222
v 0.034509 -0.045707 -0.096222
v 0.033331 -0.045707 -0.096222
v 0.016664 -0.045707 -0.096222
v -0.000003 -0.045707 -0.096222
v -0.016669 -0.045707 -0.096222
v -0.033336 -0.045707 -0.096222
v -0.016669 0.034651 -0.096222
v -0.033336 0.034651 -0.096222
v -0.033336 0.033333 -0.096222
v -0.016669 0.033333 -0.096222
v -0.016669 0.016667 -0.096222
v -0.033336 0.016667 -0.096222
v -0.033336 -0.000000 -0.096222
v -0.016669 -0.000000 -0.096222
v -0.033336 -0.016667 -0.096222
v -0.016669 -0.016667 -0.096222
v -0.000003 0.034651 -0.096222
v -0.000003 0.033333 -0.096222
v -0.000003 0.016667 -0.096222
v -0.000003 -0.000000 -0.096222
v -0.000003 -0.016667 -0.096222
v -0.016669 -0.033333 -0.096222
v -0.000003 -0.033333 -0.096222
v 0.016664 0.034651 -0.096222
v 0.016664 0.033333 -0.096222
v 0.033331 0.034651 -0.096222
v 0.033331 0.033333 -0.096222
v 0.016664 0.016667 -0.096222
v 0.033331 0.016667 -0.096222
v 0.033331 -0.000000 -0.096222
v 0.016664 -0.000000 -0.096222
v 0.016664 -0.016667 -0.096222
v 0.033331 -0.016667 -0.096222
v 0.016664 -0.033333 -0.096222
v 0.033331 -0.033333 -0.096222
v 0.034509 0.034651 -0.096222
v 0.034509 0.033333 -0.096222
v 0.034509 0.016667 -0.096222
v 0.034509 -0.000000 -0.096222
v 0.034509 -0.016667 -0.096222
v 0.034509 -0.033333 -0.096222
v 0.016664 0.034651 -0.104222
v 0.033331 0.034651 -0.104222
v 0.033331 0.033333 -0.104222
v 0.016664 0.033333 -0.104222
v 0.033331 0.016667 -0.104222
v 0.016664 0.016667 -0.104222
v 0.016664 -0.000000 -0.104222
v 0.033331 -0.000000 -0.104222
v 0.033331 -0.016667 -0.104222
v 0.016664 -0.016667 -0.104222
v 0.033331 -0.033333 -0.104222
v 0.016664 -0.033333 -0.104222
v -0.000003 0.034651 -0.104222
v -0.000003 0.033333 -0.104222
v -0.016669 0.034651 -0.104222
v -0.016669 0.033333 -0.104222
v -0.016669 0.016667 -0.104222
v -0.000003 0.016667 -0.104222
v -0.000003 -0.000000 -0.104222
v -0.016669 -0.000000 -0.104222
v -0.016669 -0.016667 -0.104222
v -0.000003 -0.016667 -0.104222
v -0.000003 -0.033333 -0.104222
v -0.016669 -0.033333 -0.104222
v -0.033336 0.034651 -0.104222
v -0.033336 0.033333 -0.104222
v -0.033336 0.016667 -0.104222
v -0.033336 -0.000000 -0.104222
v -0.033336 -0.016667 -0.104222
v -0.034627 0.034651 -0.104222
v -0.034627 0.033333 -0.104222
v -0.034627 0.016667 -0.104222
v -0.034627 -0.000000 -0.104222
v -0.034627 -0.016667 -0.104222
v -0.033336 -0.033333 -0.104222
v -0.034627 -0.033333 -0.104222
v 0.049997 0.034651 -0.104222
v 0.049997 0.034651 -0.096222
v 0.049997 0.033333 -0.096222
v 0.049997 0.033333 -0.104222
v 0.049997 0.016667 -0.096222
v 0.049997 0.016667 -0.104222
v 0.049997 -0.000000 -0.096222
v 0.049997 0.000000 -0.104222
v 0.049997 -0.016667 -0.096222
v 0.049997 -0.016667 -0.104222
v 0.049997 -0.033333 -0.096222
v 0.049997 -0.033333 -0.104222
v 0.045452 0.034651 -0.104222
v 0.045452 0.033333 -0.104222
v 0.045452 0.016667 -0.104222
v 0.045452 0.000000 -0.104222
v 0.045452 -0.016667 -0.104222
v 0.045452 -0.033333 -0.104222
v -0.050003 -0.034520 -0.104222
v -0.050003 -0.034520 -0.096222
v -0.050003 -0.033333 -0.096222
v -0.050003 -0.033333 -0.104222
v -0.050003 -0.016667 -0.096222
v -0.050003 -0.016667 -0.104222
v -0.050003 0.000000 -0.096222
v -0.050003 -0.000000 -0.104222
v -0.050003 0.016667 -0.096222
v -0.050003 0.016667 -0.104222
v -0.050003 0.033333 -0.096222
v -0.050003 0.033333 -0.104222
v -0.045294 0.034651 -0.096222
v -0.050003 0.034651 -0.096222
v -0.045294 0.033333 -0.096222
v -0.045294 0.016667 -0.096222
v -0.045294 0.000000 -0.096222
v -0.045294 -0.016667 -0.096222
v -0.045294 -0.033333 -0.096222
v -0.034627 -0.016667 -0.096222
v -0.034627 -0.033333 -0.096222
v -0.034627 -0.000000 -0.096222
v -0.034627 0.016667 -0.096222
v -0.034627 0.033333 -0.096222
v -0.034627 0.034651 -0.096222
v -0.045294 -0.016667 -0.104222
v -0.045294 -0.033333 -0.104222
v -0.045294 -0.000000 -0.104222
v -0.045294 0.016667 -0.104222
v -0.045294 0.033333 -0.104222
v -0.050003 0.034651 -0.104222
v -0.045294 0.034651 -0.104222
v -0.050003 -0.045707 -0.104222
v -0.045294 -0.045707 -0.104222
v -0.045294 0.050000 -0.096222
v -0.045294 0.050000 -0.104222
v -0.034627 -0.050000 -0.096222
v -0.034627 -0.045707 -0.096222
v -0.033336 -0.033333 -0.096222
v -0.034627 0.045427 -0.104222
v -0.045294 0.045427 -0.104222
v -0.034627 0.045427 -0.096222
v -0.033336 0.045427 -0.096222
v -0.045294 0.045427 -0.096222
v 0.049997 0.045427 -0.104222
v 0.045452 0.045427 -0.104222
v 0.049997 0.045427 -0.096222
v -0.033336 0.045427 -0.104222
v -0.016669 0.045427 -0.104222
v -0.000003 0.045427 -0.104222
v 0.016664 0.045427 -0.104222
v 0.033331 0.045427 -0.104222
v 0.034509 0.050000 -0.096222
v 0.033331 0.045427 -0.096222
v 0.034509 0.045427 -0.096222
v 0.016664 0.045427 -0.096222
v -0.000003 0.045427 -0.096222
v -0.016669 0.045427 -0.096222
v 0.045452 0.045427 -0.096222
v 0.045452 0.034651 -0.096222
v 0.034509 0.050000 -0.104222
v 0.034509 0.045427 -0.104222
v 0.034509 -0.016667 -0.104222
v 0.034509 -0.033333 -0.104222
v 0.034509 -0.000000 -0.104222
v 0.034509 0.016667 -0.104222
v 0.034509 0.033333 -0.104222
v 0.034509 0.034651 -0.104222
v 0.045452 -0.016667 -0.096222
v 0.045452 -0.033333 -0.096222
v 0.045452 -0.000000 -0.096222
v 0.045452 0.016667 -0.096222
v 0.045452 0.033333 -0.096222
v 0.045452 -0.045707 -0.096222
v 0.045452 -0.050000 -0.096222
v 0.034509 -0.045707 -0.104222
v 0.033331 -0.034520 -0.104222
v 0.034509 -0.034520 -0.104222
v 0.049997 -0.034520 -0.096222
v 0.045452 -0.034520 -0.096222
v -0.033336 -0.034520 -0.096222
v -0.034627 -0.034520 -0.096222
v -0.045294 -0.034520 -0.104222
v -0.016669 -0.034520 -0.096222
v -0.000003 -0.034520 -0.096222
v 0.016664 -0.034520 -0.096222
v 0.033331 -0.034520 -0.096222
v 0.034509 -0.034520 -0.096222
v 0.016664 -0.034520 -0.104222
v -0.000003 -0.034520 -0.104222
v -0.016669 -0.034520 -0.104222
v -0.033336 -0.034520 -0.104222
v -0.034627 -0.034520 -0.104222
v 0.049997 -0.034520 -0.104222
v 0.045452 -0.034520 -0.104222
v -0.045294 -0.034520 -0.096222
v -0.035704 0.037128 -0.096222
v -0.035226 0.038022 -0.096222
v -0.037618 0.039012 -0.096222
v -0.037857 0.038566 -0.096222
v -0.045172 0.040000 -0.096222
v -0.045073 0.038991 -0.096222
v -0.042534 0.039496 -0.096222
v -0.042583 0.040000 -0.096222
v -0.034932 0.038991 -0.096222
v -0.037471 0.039496 -0.096222
v -0.044779 0.038022 -0.096222
v -0.042387 0.039012 -0.096222
v -0.034833 0.040000 -0.096222
v -0.037422 0.040000 -0.096222
v -0.044301 0.037128 -0.096222
v -0.042148 0.038566 -0.096222
v -0.034932 0.041009 -0.096222
v -0.037471 0.040504 -0.096222
v -0.043658 0.036344 -0.096222
v -0.041828 0.038175 -0.096222
v -0.035226 0.041978 -0.096222
v -0.037618 0.040988 -0.096222
v -0.042875 0.035701 -0.096222
v -0.041436 0.037854 -0.096222
v -0.035704 0.042872 -0.096222
v -0.037857 0.041434 -0.096222
v -0.041981 0.035224 -0.096222
v -0.040990 0.037616 -0.096222
v -0.040003 0.045170 -0.096222
v -0.041011 0.045071 -0.096222
v -0.040506 0.042531 -0.096222
v -0.040003 0.042581 -0.096222
v -0.036347 0.043656 -0.096222
v -0.038178 0.041825 -0.096222
v -0.041011 0.034929 -0.096222
v -0.040506 0.037469 -0.096222
v -0.041981 0.044776 -0.096222
v -0.040990 0.042384 -0.096222
v -0.037130 0.044299 -0.096222
v -0.038569 0.042146 -0.096222
v -0.040003 0.034830 -0.096222
v -0.040003 0.037419 -0.096222
v -0.042875 0.044299 -0.096222
v -0.041436 0.042146 -0.096222
v -0.038024 0.044776 -0.096222
v -0.039015 0.042384 -0.096222
v -0.038994 0.034929 -0.096222
v -0.039499 0.037469 -0.096222
v -0.043658 0.043656 -0.096222
v -0.041828 0.041825 -0.096222
v -0.038994 0.045071 -0.096222
v -0.039499 0.042531 -0.096222
v -0.038024 0.035224 -0.096222
v -0.039015 0.037616 -0.096222
v -0.044301 0.042872 -0.096222
v -0.042148 0.041434 -0.096222
v -0.037130 0.035701 -0.096222
v -0.038569 0.037854 -0.096222
v -0.044779 0.041978 -0.096222
v -0.042387 0.040988 -0.096222
v -0.036347 0.036344 -0.096222
v -0.038178 0.038175 -0.096222
v -0.045073 0.041009 -0.096222
v -0.042534 0.040504 -0.096222
v 0.044296 0.037128 -0.096222
v 0.044774 0.038022 -0.096222
v 0.042382 0.039012 -0.096222
v 0.042143 0.038566 -0.096222
v 0.034828 0.040000 -0.096222
v 0.034927 0.038991 -0.096222
v 0.037466 0.039496 -0.096222
v 0.037417 0.040000 -0.096222
v 0.045068 0.038991 -0.096222
v 0.042529 0.039496 -0.096222
v 0.035221 0.038022 -0.096222
v 0.037613 0.039012 -0.096222
v 0.045167 0.040000 -0.096222
v 0.042578 0.040000 -0.096222
v 0.035699 0.037128 -0.096222
v 0.037852 0.038566 -0.096222
v 0.045068 0.041009 -0.096222
v 0.042529 0.040504 -0.096222
v 0.036342 0.036344 -0.096222
v 0.038172 0.038175 -0.096222
v 0.044774 0.041978 -0.096222
v 0.042382 0.040988 -0.096222
v 0.037125 0.035701 -0.096222
v 0.038564 0.037854 -0.096222
v 0.044296 0.042872 -0.096222
v 0.042143 0.041434 -0.096222
v 0.038019 0.035224 -0.096222
v 0.039010 0.037616 -0.096222
v 0.039997 0.045170 -0.096222
v 0.038989 0.045071 -0.096222
v 0.039494 0.042531 -0.096222
v 0.039997 0.042581 -0.096222
v 0.043653 0.043656 -0.096222
v 0.041822 0.041825 -0.096222
v 0.038989 0.034929 -0.096222
v 0.039494 0.037469 -0.096222
v 0.038019 0.044776 -0.096222
v 0.039010 0.042384 -0.096222
v 0.042870 0.044299 -0.096222
v 0.041431 0.042146 -0.096222
v 0.039997 0.034830 -0.096222
v 0.039997 0.037419 -0.096222
v 0.037125 0.044299 -0.096222
v 0.038564 0.042146 -0.096222
v 0.041976 0.044776 -0.096222
v 0.040985 0.042384 -0.096222
v 0.041006 0.034929 -0.096222
v 0.040501 0.037469 -0.096222
v 0.036342 0.043656 -0.096222
v 0.038172 0.041825 -0.096222
v 0.041006 0.045071 -0.096222
v 0.040501 0.042531 -0.096222
v 0.041976 0.035224 -0.096222
v 0.040985 0.037616 -0.096222
v 0.035699 0.042872 -0.096222
v 0.037852 0.041434 -0.096222
v 0.042870 0.035701 -0.096222
v 0.041431 0.037854 -0.096222
v 0.035221 0.041978 -0.096222
v 0.037613 0.040988 -0.096222
v 0.043653 0.036344 -0.096222
v 0.041822 0.038175 -0.096222
v 0.034927 0.041009 -0.096222
v 0.037466 0.040504 -0.096222
v 0.044296 -0.042872 -0.096222
v 0.044774 -0.041978 -0.096222
v 0.042382 -0.040988 -0.096222
v 0.042143 -0.041434 -0.096222
v 0.034828 -0.040000 -0.096222
v 0.034927 -0.041009 -0.096222
v 0.037466 -0.040504 -0.096222
v 0.037417 -0.040000 -0.096222
v 0.045068 -0.041009 -0.096222
v 0.042529 -0.040504 -0.096222
v 0.035221 -0.041978 -0.096222
v 0.037613 -0.040988 -0.096222
v 0.045167 -0.040000 -0.096222
v 0.042578 -0.040000 -0.096222
v 0.035699 -0.042872 -0.096222
v 0.037852 -0.041434 -0.096222
v 0.045068 -0.038991 -0.096222
v 0.042529 -0.039496 -0.096222
v 0.036342 -0.043656 -0.096222
v 0.038172 -0.041825 -0.096222
v 0.044774 -0.038022 -0.096222
v 0.042382 -0.039012 -0.096222
v 0.037125 -0.044299 -0.096222
v 0.038564 -0.042146 -0.096222
v 0.044296 -0.037128 -0.096222
v 0.042143 -0.038566 -0.096222
v 0.038019 -0.044776 -0.096222
v 0.039010 -0.042384 -0.096222
v 0.039997 -0.034830 -0.096222
v 0.038989 -0.034929 -0.096222
v 0.039494 -0.037469 -0.096222
v 0.039997 -0.037419 -0.096222
v 0.043653 -0.036344 -0.096222
v 0.041822 -0.038175 -0.096222
v 0.038989 -0.045071 -0.096222
v 0.039494 -0.042531 -0.096222
v 0.038019 -0.035224 -0.096222
v 0.039010 -0.037616 -0.096222
v 0.042870 -0.035701 -0.096222
v 0.041431 -0.037854 -0.096222
v 0.039997 -0.045170 -0.096222
v 0.039997 -0.042581 -0.096222
v 0.037125 -0.035701 -0.096222
v 0.038564 -0.037854 -0.096222
v 0.041976 -0.035224 -0.096222
v 0.040985 -0.037616 -0.096222
v 0.041006 -0.045071 -0.096222
v 0.040501 -0.042531 -0.096222
v 0.036342 -0.036344 -0.096222
v 0.038172 -0.038175 -0.096222
v 0.041006 -0.034929 -0.096222
v 0.040501 -0.037469 -0.096222
v 0.041976 -0.044776 -0.096222
v 0.040985 -0.042384 -0.096222
v 0.035699 -0.037128 -0.096222
v 0.037852 -0.038566 -0.096222
v 0.042870 -0.044299 -0.096222
v 0.041431 -0.042146 -0.096222
v 0.035221 -0.038022 -0.096222
v 0.037613 -0.039012 -0.096222
v 0.043653 -0.043656 -0.096222
v 0.041822 -0.041825 -0.096222
v 0.034927 -0.038991 -0.096222
v 0.037466 -0.039496 -0.096222
v -0.035704 -0.042872 -0.096222
v -0.035226 -0.041978 -0.096222
v -0.037618 -0.040988 -0.096222
v -0.037857 -0.041434 -0.096222
v -0.045172 -0.040000 -0.096222
v -0.045073 -0.041009 -0.096222
v -0.042534 -0.040504 -0.096222
v -0.042583 -0.040000 -0.096222
v -0.034932 -0.041009 -0.096222
v -0.037471 -0.040504 -0.096222
v -0.044779 -0.041978 -0.096222
v -0.042387 -0.040988 -0.096222
v -0.034833 -0.040000 -0.096222
v -0.037422 -0.040000 -0.096222
v -0.044301 -0.042872 -0.096222
v -0.042148 -0.041434 -0.096222
v -0.034932 -0.038991 -0.096222
v -0.037471 -0.039496 -0.096222
v -0.043658 -0.043656 -0.096222
v -0.041828 -0.041825 -0.096222
v -0.035226 -0.038022 -0.096222
v -0.037618 -0.039012 -0.096222
v -0.042875 -0.044299 -0.096222
v -0.041436 -0.042146 -0.096222
v -0.035704 -0.037128 -0.096222
v -0.037857 -0.038566 -0.096222
v -0.041981 -0.044776 -0.096222
v -0.040990 -0.042384 -0.096222
v -0.040003 -0.034830 -0.096222
v -0.041011 -0.034929 -0.096222
v -0.040506 -0.037469 -0.096222
v -0.040003 -0.037419 -0.096222
v -0.036347 -0.036344 -0.096222
v -0.038178 -0.038175 -0.096222
v -0.041011 -0.045071 -0.096222
v -0.040506 -0.042531 -0.096222
v -0.041981 -0.035224 -0.096222
v -0.040990 -0.037616 -0.096222
v -0.037130 -0.035701 -0.096222
v -0.038569 -0.037854 -0.096222
v -0.040003 -0.045170 -0.096222
v -0.040003 -0.042581 -0.096222
v -0.042875 -0.035701 -0.096222
v -0.041436 -0.037854 -0.096222
v -0.038024 -0.035224 -0.096222
v -0.039015 -0.037616 -0.096222
v -0.038994 -0.045071 -0.096222
v -0.039499 -0.042531 -0.096222
v -0.043658 -0.036344 -0.096222
v -0.041828 -0.038175 -0.096222
v -0.038994 -0.034929 -0.096222
v -0.039499 -0.037469 -0.096222
v -0.038024 -0.044776 -0.096222
v -0.039015 -0.042384 -0.096222
v -0.044301 -0.037128 -0.096222
v -0.042148 -0.038566 -0.096222
v -0.037130 -0.044299 -0.096222
v -0.038569 -0.042146 -0.096222
v -0.044779 -0.038022 -0.096222
v -0.042387 -0.039012 -0.096222
v -0.036347 -0.043656 -0.096222
v -0.038178 -0.041825 -0.096222
v -0.045073 -0.038991 -0.096222
v -0.042534 -0.039496 -0.096222
v 0.039997 -0.045170 -0.104222
v 0.038989 -0.045071 -0.104222
v 0.041006 -0.045071 -0.104222
v 0.038019 -0.044776 -0.104222
v 0.044296 0.037128 -0.100222
v 0.042143 0.038566 -0.100222
v 0.042382 0.039012 -0.100222
v 0.044774 0.038022 -0.100222
v 0.034828 0.040000 -0.100222
v 0.037417 0.040000 -0.100222
v 0.037466 0.039496 -0.100222
v 0.034927 0.038991 -0.100222
v 0.042529 0.039496 -0.100222
v 0.045068 0.038991 -0.100222
v 0.037613 0.039012 -0.100222
v 0.035221 0.038022 -0.100222
v 0.042578 0.040000 -0.100222
v 0.045167 0.040000 -0.100222
v 0.037852 0.038566 -0.100222
v 0.035699 0.037128 -0.100222
v 0.042529 0.040504 -0.100222
v 0.045068 0.041009 -0.100222
v 0.038172 0.038175 -0.100222
v 0.036342 0.036344 -0.100222
v 0.042382 0.040988 -0.100222
v 0.044774 0.041978 -0.100222
v 0.038564 0.037854 -0.100222
v 0.037125 0.035701 -0.100222
v 0.042143 0.041434 -0.100222
v 0.044296 0.042872 -0.100222
v 0.039010 0.037616 -0.100222
v 0.038019 0.035224 -0.100222
v 0.039997 0.045170 -0.100222
v 0.039997 0.042581 -0.100222
v 0.039494 0.042531 -0.100222
v 0.038989 0.045071 -0.100222
v 0.041822 0.041825 -0.100222
v 0.043653 0.043656 -0.100222
v 0.039494 0.037469 -0.100222
v 0.038989 0.034929 -0.100222
v 0.039010 0.042384 -0.100222
v 0.038019 0.044776 -0.100222
v 0.041431 0.042146 -0.100222
v 0.042870 0.044299 -0.100222
v 0.039997 0.037419 -0.100222
v 0.039997 0.034830 -0.100222
v 0.038564 0.042146 -0.100222
v 0.037125 0.044299 -0.100222
v 0.040985 0.042384 -0.100222
v 0.041976 0.044776 -0.100222
v 0.040501 0.037469 -0.100222
v 0.041006 0.034929 -0.100222
v 0.038172 0.041825 -0.100222
v 0.036342 0.043656 -0.100222
v 0.040501 0.042531 -0.100222
v 0.041006 0.045071 -0.100222
v 0.040985 0.037616 -0.100222
v 0.041976 0.035224 -0.100222
v 0.037852 0.041434 -0.100222
v 0.035699 0.042872 -0.100222
v 0.041431 0.037854 -0.100222
v 0.042870 0.035701 -0.100222
v 0.037613 0.040988 -0.100222
v 0.035221 0.041978 -0.100222
v 0.041822 0.038175 -0.100222
v 0.043653 0.036344 -0.100222
v 0.037466 0.040504 -0.100222
v 0.034927 0.041009 -0.100222
v 0.036342 0.043656 -0.104222
v 0.035699 0.042872 -0.104222
v 0.041006 0.045071 -0.104222
v 0.039997 0.045170 -0.104222
v 0.035221 0.041978 -0.104222
v 0.034927 0.041009 -0.104222
v 0.034828 0.040000 -0.104222
v 0.034927 0.038991 -0.104222
v 0.035221 0.038022 -0.104222
v 0.035699 0.037128 -0.104222
v 0.036342 0.036344 -0.104222
v 0.037125 0.035701 -0.104222
v 0.038019 0.035224 -0.104222
v 0.038989 0.034929 -0.104222
v 0.039997 0.034830 -0.104222
v 0.041006 0.034929 -0.104222
v 0.041976 0.035224 -0.104222
v 0.042870 0.035701 -0.104222
v 0.043653 0.036344 -0.104222
v 0.044296 0.037128 -0.104222
v 0.044774 0.038022 -0.104222
v 0.045068 0.038991 -0.104222
v 0.045167 0.040000 -0.104222
v 0.045068 0.041009 -0.104222
v 0.044774 0.041978 -0.104222
v 0.044296 0.042872 -0.104222
v 0.038989 0.045071 -0.104222
v 0.043653 0.043656 -0.104222
v 0.038019 0.044776 -0.104222
v 0.042870 0.044299 -0.104222
v 0.037125 0.044299 -0.104222
v 0.041976 0.044776 -0.104222
v -0.035704 0.037128 -0.100222
v -0.037857 0.038566 -0.100222
v -0.037618 0.039012 -0.100222
v -0.035226 0.038022 -0.100222
v -0.045172 0.040000 -0.100222
v -0.042583 0.040000 -0.100222
v -0.042534 0.039496 -0.100222
v -0.045073 0.038991 -0.100222
v -0.037471 0.039496 -0.100222
v -0.034932 0.038991 -0.100222
v -0.042387 0.039012 -0.100222
v -0.044779 0.038022 -0.100222
v -0.037422 0.040000 -0.100222
v -0.034833 0.040000 -0.100222
v -0.042148 0.038566 -0.100222
v -0.044301 0.037128 -0.100222
v -0.037471 0.040504 -0.100222
v -0.034932 0.041009 -0.100222
v -0.041828 0.038175 -0.100222
v -0.043658 0.036344 -0.100222
v -0.037618 0.040988 -0.100222
v -0.035226 0.041978 -0.100222
v -0.041436 0.037854 -0.100222
v -0.042875 0.035701 -0.100222
v -0.037857 0.041434 -0.100222
v -0.035704 0.042872 -0.100222
v -0.040990 0.037616 -0.100222
v -0.041981 0.035224 -0.100222
v -0.040003 0.045170 -0.100222
v -0.040003 0.042581 -0.100222
v -0.040506 0.042531 -0.100222
v -0.041011 0.045071 -0.100222
v -0.038178 0.041825 -0.100222
v -0.036347 0.043656 -0.100222
v -0.040506 0.037469 -0.100222
v -0.041011 0.034929 -0.100222
v -0.040990 0.042384 -0.100222
v -0.041981 0.044776 -0.100222
v -0.038569 0.042146 -0.100222
v -0.037130 0.044299 -0.100222
v -0.040003 0.037419 -0.100222
v -0.040003 0.034830 -0.100222
v -0.041436 0.042146 -0.100222
v -0.042875 0.044299 -0.100222
v -0.039015 0.042384 -0.100222
v -0.038024 0.044776 -0.100222
v -0.039499 0.037469 -0.100222
v -0.038994 0.034929 -0.100222
v -0.041828 0.041825 -0.100222
v -0.043658 0.043656 -0.100222
v -0.039499 0.042531 -0.100222
v -0.038994 0.045071 -0.100222
v -0.039015 0.037616 -0.100222
v -0.038024 0.035224 -0.100222
v -0.042148 0.041434 -0.100222
v -0.044301 0.042872 -0.100222
v -0.038569 0.037854 -0.100222
v -0.037130 0.035701 -0.100222
v -0.042387 0.040988 -0.100222
v -0.044779 0.041978 -0.100222
v -0.038178 0.038175 -0.100222
v -0.036347 0.036344 -0.100222
v -0.042534 0.040504 -0.100222
v -0.045073 0.041009 -0.100222
v -0.035704 -0.042872 -0.100222
v -0.037857 -0.041434 -0.100222
v -0.037618 -0.040988 -0.100222
v -0.035226 -0.041978 -0.100222
v -0.045172 -0.040000 -0.100222
v -0.042583 -0.040000 -0.100222
v -0.042534 -0.040504 -0.100222
v -0.045073 -0.041009 -0.100222
v -0.037471 -0.040504 -0.100222
v -0.034932 -0.041009 -0.100222
v -0.042387 -0.040988 -0.100222
v -0.044779 -0.041978 -0.100222
v -0.037422 -0.040000 -0.100222
v -0.034833 -0.040000 -0.100222
v -0.042148 -0.041434 -0.100222
v -0.044301 -0.042872 -0.100222
v -0.037471 -0.039496 -0.100222
v -0.034932 -0.038991 -0.100222
v -0.041828 -0.041825 -0.100222
v -0.043658 -0.043656 -0.100222
v -0.037618 -0.039012 -0.100222
v -0.035226 -0.038022 -0.100222
v -0.041436 -0.042146 -0.100222
v -0.042875 -0.044299 -0.100222
v -0.037857 -0.038566 -0.100222
v -0.035704 -0.037128 -0.100222
v -0.040990 -0.042384 -0.100222
v -0.041981 -0.044776 -0.100222
v -0.040003 -0.034830 -0.100222
v -0.040003 -0.037419 -0.100222
v -0.040506 -0.037469 -0.100222
v -0.041011 -0.034929 -0.100222
v -0.038178 -0.038175 -0.100222
v -0.036347 -0.036344 -0.100222
v -0.040506 -0.042531 -0.100222
v -0.041011 -0.045071 -0.100222
v -0.040990 -0.037616 -0.100222
v -0.041981 -0.035224 -0.100222
v -0.038569 -0.037854 -0.100222
v -0.037130 -0.035701 -0.100222
v -0.040003 -0.042581 -0.100222
v -0.040003 -0.045170 -0.100222
v -0.041436 -0.037854 -0.100222
v -0.042875 -0.035701 -0.100222
v -0.039015 -0.037616 -0.100222
v -0.038024 -0.035224 -0.100222
v -0.039499 -0.042531 -0.100222
v -0.038994 -0.045071 -0.100222
v -0.041828 -0.038175 -0.100222
v -0.043658 -0.036344 -0.100222
v -0.039499 -0.037469 -0.100222
v -0.038994 -0.034929 -0.100222
v -0.039015 -0.042384 -0.100222
v -0.038024 -0.044776 -0.100222
v -0.042148 -0.038566 -0.100222
v -0.044301 -0.037128 -0.100222
v -0.038569 -0.042146 -0.100222
v -0.037130 -0.044299 -0.100222
v -0.042387 -0.039012 -0.100222
v -0.044779 -0.038022 -0.100222
v -0.038178 -0.041825 -0.100222
v -0.036347 -0.043656 -0.100222
v -0.042534 -0.039496 -0.100222
v -0.045073 -0.038991 -0.100222
v 0.044296 -0.042872 -0.100222
v 0.042143 -0.041434 -0.100222
v 0.042382 -0.040988 -0.100222
v 0.044774 -0.041978 -0.100222
v 0.034828 -0.040000 -0.100222
v 0.037417 -0.040000 -0.100222
v 0.037466 -0.040504 -0.100222
v 0.034927 -0.041009 -0.100222
v 0.042529 -0.040504 -0.100222
v 0.045068 -0.041009 -0.100222
v 0.037613 -0.040988 -0.100222
v 0.035221 -0.041978 -0.100222
v 0.042578 -0.040000 -0.100222
v 0.045167 -0.040000 -0.100222
v 0.037852 -0.041434 -0.100222
v 0.035699 -0.042872 -0.100222
v 0.042529 -0.039496 -0.100222
v 0.045068 -0.038991 -0.100222
v 0.038172 -0.041825 -0.100222
v 0.036342 -0.043656 -0.100222
v 0.042382 -0.039012 -0.100222
v 0.044774 -0.038022 -0.100222
v 0.038564 -0.042146 -0.100222
v 0.037125 -0.044299 -0.100222
v 0.042143 -0.038566 -0.100222
v 0.044296 -0.037128 -0.100222
v 0.039010 -0.042384 -0.100222
v 0.038019 -0.044776 -0.100222
v 0.039997 -0.034830 -0.100222
v 0.039997 -0.037419 -0.100222
v 0.039494 -0.037469 -0.100222
v 0.038989 -0.034929 -0.100222
v 0.041822 -0.038175 -0.100222
v 0.043653 -0.036344 -0.100222
v 0.039494 -0.042531 -0.100222
v 0.038989 -0.045071 -0.100222
v 0.039010 -0.037616 -0.100222
v 0.038019 -0.035224 -0.100222
v 0.041431 -0.037854 -0.100222
v 0.042870 -0.035701 -0.100222
v 0.039997 -0.042581 -0.100222
v 0.039997 -0.045170 -0.100222
v 0.038564 -0.037854 -0.100222
v 0.037125 -0.035701 -0.100222
v 0.040985 -0.037616 -0.100222
v 0.041976 -0.035224 -0.100222
v 0.040501 -0.042531 -0.100222
v 0.041006 -0.045071 -0.100222
v 0.038172 -0.038175 -0.100222
v 0.036342 -0.036344 -0.100222
v 0.040501 -0.037469 -0.100222
v 0.041006 -0.034929 -0.100222
v 0.040985 -0.042384 -0.100222
v 0.041976 -0.044776 -0.100222
v 0.037852 -0.038566 -0.100222
v 0.035699 -0.037128 -0.100222
v 0.041431 -0.042146 -0.100222
v 0.042870 -0.044299 -0.100222
v 0.037613 -0.039012 -0.100222
v 0.035221 -0.038022 -0.100222
v 0.041822 -0.041825 -0.100222
v 0.043653 -0.043656 -0.100222
v 0.037466 -0.039496 -0.100222
v 0.034927 -0.038991 -0.100222
v 0.041976 -0.044776 -0.104222
v 0.038019 -0.035224 -0.104222
v 0.037125 -0.035701 -0.104222
v 0.037125 -0.044299 -0.104222
v 0.036342 -0.036344 -0.104222
v 0.042870 -0.044299 -0.104222
v 0.035699 -0.037128 -0.104222
v 0.036342 -0.043656 -0.104222
v 0.035221 -0.038022 -0.104222
v 0.043653 -0.043656 -0.104222
v 0.034927 -0.038991 -0.104222
v 0.035699 -0.042872 -0.104222
v -0.040003 -0.034830 -0.104222
v -0.041011 -0.034929 -0.104222
v 0.034828 -0.040000 -0.104222
v 0.044296 -0.042872 -0.104222
v -0.041981 -0.035224 -0.104222
v 0.034927 -0.041009 -0.104222
v 0.035221 -0.041978 -0.104222
v -0.042875 -0.035701 -0.104222
v 0.044774 -0.041978 -0.104222
v -0.043658 -0.036344 -0.104222
v -0.044301 -0.037128 -0.104222
v 0.045068 -0.041009 -0.104222
v -0.044779 -0.038022 -0.104222
v -0.045073 -0.038991 -0.104222
v -0.040003 0.045170 -0.104222
v -0.041011 0.045071 -0.104222
v -0.045172 -0.040000 -0.104222
v -0.041981 0.044776 -0.104222
v -0.045073 -0.041009 -0.104222
v -0.042875 0.044299 -0.104222
v -0.044779 -0.041978 -0.104222
v -0.043658 0.043656 -0.104222
v -0.044301 -0.042872 -0.104222
v -0.044301 0.042872 -0.104222
v -0.043658 -0.043656 -0.104222
v -0.044779 0.041978 -0.104222
v -0.042875 -0.044299 -0.104222
v -0.045073 0.041009 -0.104222
v -0.041981 -0.044776 -0.104222
v -0.045172 0.040000 -0.104222
v -0.041011 -0.045071 -0.104222
v -0.045073 0.038991 -0.104222
v -0.040003 -0.045170 -0.104222
v -0.044779 0.038022 -0.104222
v -0.038994 -0.045071 -0.104222
v 0.045167 -0.040000 -0.104222
v -0.044301 0.037128 -0.104222
v -0.038024 -0.044776 -0.104222
v 0.045068 -0.038991 -0.104222
v -0.043658 0.036344 -0.104222
v -0.037130 -0.044299 -0.104222
v 0.044774 -0.038022 -0.104222
v -0.042875 0.035701 -0.104222
v -0.036347 -0.043656 -0.104222
v 0.044296 -0.037128 -0.104222
v -0.041981 0.035224 -0.104222
v -0.035704 -0.042872 -0.104222
v 0.043653 -0.036344 -0.104222
v -0.041011 0.034929 -0.104222
v -0.035226 -0.041978 -0.104222
v 0.042870 -0.035701 -0.104222
v -0.040003 0.034830 -0.104222
v -0.034932 -0.041009 -0.104222
v 0.041976 -0.035224 -0.104222
v -0.038994 0.034929 -0.104222
v -0.034833 -0.040000 -0.104222
v 0.041006 -0.034929 -0.104222
v -0.038024 0.035224 -0.104222
v -0.034932 -0.038991 -0.104222
v 0.039997 -0.034830 -0.104222
v -0.037130 0.035701 -0.104222
v -0.035226 -0.038022 -0.104222
v -0.036347 0.036344 -0.104222
v -0.035704 -0.037128 -0.104222
v -0.035704 0.037128 -0.104222
v -0.036347 -0.036344 -0.104222
v -0.035226 0.038022 -0.104222
v -0.037130 -0.035701 -0.104222
v -0.034932 0.038991 -0.104222
v -0.038024 -0.035224 -0.104222
v -0.034833 0.040000 -0.104222
v -0.038994 -0.034929 -0.104222
v -0.034932 0.041009 -0.104222
v -0.035226 0.041978 -0.104222
v -0.035704 0.042872 -0.104222
v -0.036347 0.043656 -0.104222
v 0.038989 -0.034929 -0.104222
v -0.037130 0.044299 -0.104222
v -0.038024 0.044776 -0.104222
v -0.038994 0.045071 -0.104222
vn -0.0000 -0.0000 1.0000
vn -0.0000 -0.0000 -1.0000
vn 0.0980 -0.9952 -0.0000
vn 0.4714 0.8819 -0.0000
vn -0.4714 0.8819 -0.0000
vn -0.0980 -0.9952 -0.0000
vn 0.6344 0.7730 -0.0000
vn -0.2903 0.9569 -0.0000
vn -0.2903 -0.9569 -0.0000
vn 0.7730 0.6344 -0.0000
vn -0.0980 0.9952 -0.0000
vn -0.4714 -0.8819 -0.0000
vn 0.8819 0.4714 -0.0000
vn -0.6344 -0.7730 -0.0000
vn 0.9569 0.2903 -0.0000
vn -0.7730 -0.6344 -0.0000
vn 0.9952 0.0980 -0.0000
vn -0.8819 -0.4714 -0.0000
vn 0.9952 -0.0980 -0.0000
vn -0.9569 -0.2903 -0.0000
vn 0.9569 -0.2903 -0.0000
vn -0.9952 -0.0980 -0.0000
vn 0.8819 -0.4714 -0.0000
vn -0.9952 0.0980 -0.0000
vn 0.7730 -0.6344 -0.0000
vn -0.9569 0.2903 -0.0000
vn 0.6344 -0.7730 -0.0000
vn -0.8819 0.4714 -0.0000
vn 0.4714 -0.8819 -0.0000
vn 0.0980 0.9952 -0.0000
vn -0.7730 0.6344 -0.0000
vn 0.2903 -0.9569 -0.0000
vn 0.2903 0.9569 -0.0000
vn -0.6344 0.7730 -0.0000
vn -0.0000 -1.0000 -0.0000
vn -1.0000 -0.0000 -0.0000
vn 1.0000 -0.0000 -0.0000
vn -0.0000 1.0000 -0.0000
vn -0.0001 -0.0000 1.0000
vn -0.0001 -0.0000 -1.0000
vn 0.0001 -0.0000 1.0000
vn -0.0002 -0.0000 1.0000
vn 0.0001 -0.0000 -1.0000
s 0
f 19//1 11//1 3//1
f 49//2 57//2 34//2
f 17//3 48//3 16//3
f 3//4 36//4 35//4
f 30//5 63//5 62//5
f 18//6 49//6 17//6
f 4//7 37//7 36//7
f 31//8 64//8 63//8
f 19//9 50//9 18//9
f 5//10 38//10 37//10
f 32//11 34//11 64//11
f 20//12 51//12 19//12
f 6//13 39//13 38//13
f 21//14 52//14 20//14
f 7//15 40//15 39//15
f 22//16 53//16 21//16
f 9//17 40//17 8//17
f 23//18 54//18 22//18
f 10//19 41//19 9//19
f 24//20 55//20 23//20
f 11//21 42//21 10//21
f 25//22 56//22 24//22
f 12//23 43//23 11//23
f 25//24 58//24 57//24
f 13//25 44//25 12//25
f 26//26 59//26 58//26
f 14//27 45//27 13//27
f 27//28 60//28 59//28
f 15//29 46//29 14//29
f 1//30 33//30 34//30
f 28//31 61//31 60//31
f 16//32 47//32 15//32
f 2//33 35//33 33//33
f 29//34 62//34 61//34
f 83//1 75//1 67//1
f 113//2 121//2 98//2
f 81//3 112//3 80//3
f 67//4 100//4 99//4
f 94//5 127//5 126//5
f 82//6 113//6 81//6
f 68//7 101//7 100//7
f 95//8 128//8 127//8
f 83//9 114//9 82//9
f 69//10 102//10 101//10
f 96//11 98//11 128//11
f 84//12 115//12 83//12
f 70//13 103//13 102//13
f 85//14 116//14 84//14
f 71//15 104//15 103//15
f 86//16 117//16 85//16
f 73//17 104//17 72//17
f 87//18 118//18 86//18
f 74//19 105//19 73//19
f 88//20 119//20 87//20
f 75//21 106//21 74//21
f 89//22 120//22 88//22
f 76//23 107//23 75//23
f 89//24 122//24 121//24
f 77//25 108//25 76//25
f 90//26 123//26 122//26
f 78//27 109//27 77//27
f 91//28 124//28 123//28
f 79//29 110//29 78//29
f 65//30 97//30 98//30
f 92//31 125//31 124//31
f 80//32 111//32 79//32
f 66//33 99//33 97//33
f 93//34 126//34 125//34
f 147//1 139//1 131//1
f 177//2 185//2 162//2
f 145//3 176//3 144//3
f 131//4 164//4 163//4
f 158//5 191//5 190//5
f 146//6 177//6 145//6
f 132//7 165//7 164//7
f 159//8 192//8 191//8
f 147//9 178//9 146//9
f 133//10 166//10 165//10
f 160//11 162//11 192//11
f 148//12 179//12 147//12
f 134//13 167//13 166//13
f 149//14 180//14 148//14
f 135//15 168//15 167//15
f 150//16 181//16 149//16
f 137//17 168//17 136//17
f 151//18 182//18 150//18
f 138//19 169//19 137//19
f 152//20 183//20 151//20
f 139//21 170//21 138//21
f 153//22 184//22 152//22
f 140//23 171//23 139//23
f 153//24 186//24 185//24
f 141//25 172//25 140//25
f 154//26 187//26 186//26
f 142//27 173//27 141//27
f 155//28 188//28 187//28
f 143//29 174//29 142//29
f 129//30 161//30 162//30
f 156//31 189//31 188//31
f 144//32 175//32 143//32
f 130//33 163//33 161//33
f 157//34 190//34 189//34
f 211//1 203//1 195//1
f 241//2 249//2 226//2
f 209//3 240//3 208//3
f 195//4 228//4 227//4
f 222//5 255//5 254//5
f 210//6 241//6 209//6
f 196//7 229//7 228//7
f 223//8 256//8 255//8
f 211//9 242//9 210//9
f 197//10 230//10 229//10
f 224//11 226//11 256//11
f 212//12 243//12 211//12
f 198//13 231//13 230//13
f 213//14 244//14 212//14
f 199//15 232//15 231//15
f 214//16 245//16 213//16
f 200//17 233//17 232//17
f 215//18 246//18 214//18
f 202//19 233//19 201//19
f 216//20 247//20 215//20
f 203//21 234//21 202//21
f 217//22 248//22 216//22
f 204//23 235//23 203//23
f 218//24 249//24 217//24
f 205//25 236//25 204//25
f 218//26 251//26 250//26
f 206//27 237//27 205//27
f 219//28 252//28 251//28
f 207//29 238//29 206//29
f 193//30 225//30 226//30
f 220//31 253//31 252//31
f 208//32 239//32 207//32
f 194//33 227//33 225//33
f 221//34 254//34 253//34
f 257//1 258//1 259//1
f 257//1 259//1 260//1
f 261//35 260//35 259//35
f 261//35 259//35 262//35
f 263//36 264//36 265//36
f 263//36 265//36 266//36
f 267//2 268//2 269//2
f 267//2 269//2 270//2
f 268//37 271//37 272//37
f 268//37 272//37 269//37
f 273//38 274//38 275//38
f 273//38 275//38 276//38
f 277//38 278//38 279//38
f 277//38 279//38 280//38
f 280//38 279//38 281//38
f 280//38 281//38 282//38
f 282//38 281//38 283//38
f 282//38 283//38 284//38
f 284//38 283//38 285//38
f 284//38 285//38 286//38
f 286//38 285//38 287//38
f 286//38 287//38 288//38
f 289//2 290//2 291//2
f 289//2 291//2 292//2
f 290//2 293//2 294//2
f 290//2 294//2 291//2
f 293//2 295//2 296//2
f 293//2 296//2 294//2
f 295//2 297//2 298//2
f 295//2 298//2 296//2
f 297//2 299//2 300//2
f 297//2 300//2 298//2
f 301//35 302//35 303//35
f 301//35 303//35 300//35
f 300//35 303//35 304//35
f 300//35 304//35 298//35
f 298//35 304//35 305//35
f 298//35 305//35 296//35
f 296//35 305//35 306//35
f 296//35 306//35 294//35
f 294//35 306//35 307//35
f 294//35 307//35 291//35
f 308//1 309//1 303//1
f 308//1 303//1 302//1
f 309//1 310//1 304//1
f 309//1 304//1 303//1
f 310//1 311//1 305//1
f 310//1 305//1 304//1
f 311//1 312//1 306//1
f 311//1 306//1 305//1
f 312//1 313//1 307//1
f 312//1 307//1 306//1
f 314//1 315//1 316//1
f 314//1 316//1 317//1
f 318//1 319//1 320//1
f 318//1 320//1 321//1
f 321//1 320//1 322//1
f 321//1 322//1 323//1
f 324//1 314//1 317//1
f 324//1 317//1 325//1
f 326//1 318//1 321//1
f 326//1 321//1 327//1
f 328//1 323//1 329//1
f 328//1 329//1 330//1
f 331//1 324//1 325//1
f 331//1 325//1 332//1
f 333//1 331//1 332//1
f 333//1 332//1 334//1
f 334//1 332//1 335//1
f 334//1 335//1 336//1
f 337//1 338//1 339//1
f 337//1 339//1 340//1
f 340//1 339//1 341//1
f 340//1 341//1 342//1
f 343//1 333//1 334//1
f 343//1 334//1 344//1
f 344//1 334//1 336//1
f 344//1 336//1 345//1
f 345//1 336//1 337//1
f 345//1 337//1 346//1
f 346//1 337//1 340//1
f 346//1 340//1 347//1
f 347//1 340//1 342//1
f 347//1 342//1 348//1
f 349//2 350//2 351//2
f 349//2 351//2 352//2
f 352//2 351//2 353//2
f 352//2 353//2 354//2
f 355//2 356//2 357//2
f 355//2 357//2 358//2
f 358//2 357//2 359//2
f 358//2 359//2 360//2
f 361//2 349//2 352//2
f 361//2 352//2 362//2
f 363//2 361//2 362//2
f 363//2 362//2 364//2
f 365//2 366//2 367//2
f 365//2 367//2 368//2
f 369//2 370//2 371//2
f 369//2 371//2 372//2
f 373//2 363//2 364//2
f 373//2 364//2 374//2
f 375//2 365//2 368//2
f 375//2 368//2 376//2
f 376//2 368//2 369//2
f 376//2 369//2 377//2
f 378//2 373//2 374//2
f 378//2 374//2 379//2
f 379//2 374//2 375//2
f 379//2 375//2 380//2
f 380//2 375//2 376//2
f 380//2 376//2 381//2
f 381//2 376//2 377//2
f 381//2 377//2 382//2
f 382//2 377//2 383//2
f 382//2 383//2 384//2
f 385//37 386//37 387//37
f 385//37 387//37 388//37
f 388//37 387//37 389//37
f 388//37 389//37 390//37
f 390//37 389//37 391//37
f 390//37 391//37 392//37
f 392//37 391//37 393//37
f 392//37 393//37 394//37
f 394//37 393//37 395//37
f 394//37 395//37 396//37
f 397//2 385//2 388//2
f 397//2 388//2 398//2
f 398//2 388//2 390//2
f 398//2 390//2 399//2
f 399//2 390//2 392//2
f 399//2 392//2 400//2
f 400//2 392//2 394//2
f 400//2 394//2 401//2
f 401//2 394//2 396//2
f 401//2 396//2 402//2
f 403//36 404//36 405//36
f 403//36 405//36 406//36
f 406//36 405//36 407//36
f 406//36 407//36 408//36
f 408//36 407//36 409//36
f 408//36 409//36 410//36
f 410//36 409//36 411//36
f 410//36 411//36 412//36
f 412//36 411//36 413//36
f 412//36 413//36 414//36
f 415//1 416//1 413//1
f 415//1 413//1 417//1
f 417//1 413//1 411//1
f 417//1 411//1 418//1
f 418//1 411//1 409//1
f 418//1 409//1 419//1
f 419//1 409//1 407//1
f 419//1 407//1 420//1
f 420//1 407//1 405//1
f 420//1 405//1 421//1
f 422//1 420//1 421//1
f 422//1 421//1 423//1
f 424//1 419//1 420//1
f 424//1 420//1 422//1
f 425//1 418//1 419//1
f 425//1 419//1 424//1
f 426//1 417//1 418//1
f 426//1 418//1 425//1
f 427//1 415//1 417//1
f 427//1 417//1 426//1
f 408//2 428//2 429//2
f 408//2 429//2 406//2
f 410//2 430//2 428//2
f 410//2 428//2 408//2
f 412//2 431//2 430//2
f 412//2 430//2 410//2
f 414//2 432//2 431//2
f 414//2 431//2 412//2
f 433//2 434//2 432//2
f 433//2 432//2 414//2
f 435//2 436//2 261//2
f 435//2 261//2 262//2
f 266//38 265//38 437//38
f 266//38 437//38 438//38
f 292//35 439//35 260//35
f 292//35 260//35 261//35
f 440//1 257//1 260//1
f 440//1 260//1 439//1
f 313//1 440//1 439//1
f 313//1 439//1 307//1
f 291//35 307//35 439//35
f 291//35 439//35 292//35
f 315//1 427//1 426//1
f 315//1 426//1 316//1
f 316//1 426//1 425//1
f 316//1 425//1 319//1
f 319//1 425//1 424//1
f 319//1 424//1 320//1
f 320//1 424//1 422//1
f 320//1 422//1 322//1
f 322//1 422//1 423//1
f 322//1 423//1 441//1
f 428//2 382//2 384//2
f 428//2 384//2 429//2
f 430//2 381//2 382//2
f 430//2 382//2 428//2
f 431//2 380//2 381//2
f 431//2 381//2 430//2
f 432//2 379//2 380//2
f 432//2 380//2 431//2
f 434//2 378//2 379//2
f 434//2 379//2 432//2
f 436//2 289//2 292//2
f 436//2 292//2 261//2
f 438//38 437//38 278//38
f 438//38 278//38 277//38
f 438//2 277//2 442//2
f 438//2 442//2 443//2
f 279//1 278//1 444//1
f 279//1 444//1 445//1
f 266//2 438//2 443//2
f 266//2 443//2 263//2
f 278//1 437//1 446//1
f 278//1 446//1 444//1
f 437//1 265//1 264//1
f 437//1 264//1 446//1
f 273//2 276//2 447//2
f 273//2 447//2 448//2
f 276//37 275//37 449//37
f 276//37 449//37 447//37
f 277//2 280//2 450//2
f 277//2 450//2 442//2
f 280//2 282//2 451//2
f 280//2 451//2 450//2
f 282//2 284//2 452//2
f 282//2 452//2 451//2
f 284//2 286//2 453//2
f 284//2 453//2 452//2
f 286//2 288//2 454//2
f 286//2 454//2 453//2
f 455//1 287//1 456//1
f 455//1 456//1 457//1
f 287//1 285//1 458//1
f 287//1 458//1 456//1
f 285//1 283//1 459//1
f 285//1 459//1 458//1
f 283//1 281//1 460//1
f 283//1 460//1 459//1
f 281//1 279//1 445//1
f 281//1 445//1 460//1
f 433//36 416//36 264//36
f 433//36 264//36 263//36
f 414//36 413//36 416//36
f 414//36 416//36 433//36
f 445//1 444//1 427//1
f 445//1 427//1 315//1
f 263//2 443//2 434//2
f 263//2 434//2 433//2
f 446//1 264//1 416//1
f 446//1 416//1 415//1
f 448//2 447//2 385//2
f 448//2 385//2 397//2
f 447//37 449//37 386//37
f 447//37 386//37 385//37
f 442//2 450//2 373//2
f 442//2 373//2 378//2
f 450//2 451//2 363//2
f 450//2 363//2 373//2
f 451//2 452//2 361//2
f 451//2 361//2 363//2
f 452//2 453//2 349//2
f 452//2 349//2 361//2
f 453//2 454//2 350//2
f 453//2 350//2 349//2
f 457//1 456//1 333//1
f 457//1 333//1 343//1
f 456//1 458//1 331//1
f 456//1 331//1 333//1
f 458//1 459//1 324//1
f 458//1 324//1 331//1
f 459//1 460//1 314//1
f 459//1 314//1 324//1
f 460//1 445//1 315//1
f 460//1 315//1 314//1
f 449//1 461//1 462//1
f 449//1 462//1 386//1
f 275//1 274//1 461//1
f 275//1 461//1 449//1
f 463//2 273//2 448//2
f 463//2 448//2 464//2
f 465//2 401//2 402//2
f 465//2 402//2 466//2
f 467//2 400//2 401//2
f 467//2 401//2 465//2
f 468//2 399//2 400//2
f 468//2 400//2 467//2
f 469//2 398//2 399//2
f 469//2 399//2 468//2
f 470//2 397//2 398//2
f 470//2 398//2 469//2
f 393//1 471//1 472//1
f 393//1 472//1 395//1
f 391//1 473//1 471//1
f 391//1 471//1 393//1
f 389//1 474//1 473//1
f 389//1 473//1 391//1
f 387//1 475//1 474//1
f 387//1 474//1 389//1
f 386//1 462//1 475//1
f 386//1 475//1 387//1
f 271//1 476//1 477//1
f 271//1 477//1 272//1
f 269//35 272//35 477//35
f 269//35 477//35 270//35
f 463//38 455//38 274//38
f 463//38 274//38 273//38
f 478//2 267//2 270//2
f 478//2 270//2 301//2
f 299//2 478//2 301//2
f 299//2 301//2 300//2
f 288//38 287//38 455//38
f 288//38 455//38 463//38
f 350//2 470//2 469//2
f 350//2 469//2 351//2
f 351//2 469//2 468//2
f 351//2 468//2 353//2
f 353//2 468//2 467//2
f 353//2 467//2 356//2
f 356//2 467//2 465//2
f 356//2 465//2 357//2
f 357//2 465//2 466//2
f 357//2 466//2 359//2
f 288//2 463//2 464//2
f 288//2 464//2 454//2
f 454//2 464//2 470//2
f 454//2 470//2 350//2
f 274//1 455//1 457//1
f 274//1 457//1 461//1
f 471//1 347//1 348//1
f 471//1 348//1 472//1
f 473//1 346//1 347//1
f 473//1 347//1 471//1
f 474//1 345//1 346//1
f 474//1 346//1 473//1
f 475//1 344//1 345//1
f 475//1 345//1 474//1
f 462//1 343//1 344//1
f 462//1 344//1 475//1
f 476//1 308//1 302//1
f 476//1 302//1 477//1
f 270//35 477//35 302//35
f 270//35 302//35 301//35
f 479//2 480//2 478//2
f 479//2 478//2 299//2
f 481//1 482//1 476//1
f 481//1 476//1 271//1
f 483//1 484//1 440//1
f 483//1 440//1 313//1
f 403//2 485//2 436//2
f 403//2 436//2 435//2
f 262//36 259//36 258//36
f 262//36 258//36 435//36
f 486//1 483//1 313//1
f 486//1 313//1 312//1
f 487//1 486//1 312//1
f 487//1 312//1 311//1
f 488//1 487//1 311//1
f 488//1 311//1 310//1
f 489//1 488//1 310//1
f 489//1 310//1 309//1
f 490//1 489//1 309//1
f 490//1 309//1 308//1
f 491//2 479//2 299//2
f 491//2 299//2 297//2
f 492//2 491//2 297//2
f 492//2 297//2 295//2
f 493//2 492//2 295//2
f 493//2 295//2 293//2
f 494//2 493//2 293//2
f 494//2 293//2 290//2
f 495//2 494//2 290//2
f 495//2 290//2 289//2
f 496//37 481//37 271//37
f 496//37 271//37 268//37
f 497//2 496//2 268//2
f 497//2 268//2 267//2
f 498//1 404//1 258//1
f 498//1 258//1 257//1
f 421//1 405//1 404//1
f 421//1 404//1 498//1
f 402//2 396//2 496//2
f 402//2 496//2 497//2
f 396//37 395//37 481//37
f 396//37 481//37 496//37
f 384//2 383//2 494//2
f 384//2 494//2 495//2
f 383//2 372//2 493//2
f 383//2 493//2 494//2
f 372//2 371//2 492//2
f 372//2 492//2 493//2
f 371//2 360//2 491//2
f 371//2 491//2 492//2
f 360//2 359//2 479//2
f 360//2 479//2 491//2
f 348//1 342//1 489//1
f 348//1 489//1 490//1
f 342//1 341//1 488//1
f 342//1 488//1 489//1
f 341//1 330//1 487//1
f 341//1 487//1 488//1
f 330//1 329//1 486//1
f 330//1 486//1 487//1
f 329//1 441//1 483//1
f 329//1 483//1 486//1
f 406//2 429//2 485//2
f 406//2 485//2 403//2
f 423//1 421//1 498//1
f 423//1 498//1 484//1
f 441//1 423//1 484//1
f 441//1 484//1 483//1
f 429//2 384//2 495//2
f 429//2 495//2 485//2
f 395//1 472//1 482//1
f 395//1 482//1 481//1
f 466//2 402//2 497//2
f 466//2 497//2 480//2
f 359//2 466//2 480//2
f 359//2 480//2 479//2
f 472//1 348//1 490//1
f 472//1 490//1 482//1
f 435//36 258//36 404//36
f 435//36 404//36 403//36
f 499//1 500//1 501//1
f 499//1 501//1 502//1
f 503//1 504//1 505//1
f 503//1 505//1 506//1
f 500//1 507//1 508//1
f 500//1 508//1 501//1
f 504//1 509//1 510//1
f 504//1 510//1 505//1
f 507//1 511//1 512//1
f 507//1 512//1 508//1
f 509//1 513//1 514//1
f 509//1 514//1 510//1
f 511//1 515//1 516//1
f 511//1 516//1 512//1
f 513//1 517//1 518//1
f 513//1 518//1 514//1
f 515//1 519//1 520//1
f 515//1 520//1 516//1
f 517//1 521//1 522//1
f 517//1 522//1 518//1
f 519//1 523//1 524//1
f 519//1 524//1 520//1
f 521//1 525//1 526//1
f 521//1 526//1 522//1
f 527//1 528//1 529//1
f 527//1 529//1 530//1
f 523//1 531//1 532//1
f 523//1 532//1 524//1
f 525//1 533//1 534//1
f 525//1 534//1 526//1
f 528//1 535//1 536//1
f 528//1 536//1 529//1
f 531//1 537//1 538//1
f 531//1 538//1 532//1
f 533//1 539//1 540//1
f 533//1 540//1 534//1
f 535//1 541//1 542//1
f 535//1 542//1 536//1
f 537//1 543//1 544//1
f 537//1 544//1 538//1
f 539//1 545//1 546//1
f 539//1 546//1 540//1
f 541//1 547//1 548//1
f 541//1 548//1 542//1
f 543//1 549//1 550//1
f 543//1 550//1 544//1
f 545//1 551//1 552//1
f 545//1 552//1 546//1
f 547//1 553//1 554//1
f 547//1 554//1 548//1
f 549//1 527//1 530//1
f 549//1 530//1 550//1
f 551//1 555//1 556//1
f 551//1 556//1 552//1
f 553//1 557//1 558//1
f 553//1 558//1 554//1
f 555//1 559//1 560//1
f 555//1 560//1 556//1
f 557//1 561//1 562//1
f 557//1 562//1 558//1
f 559//1 499//1 502//1
f 559//1 502//1 560//1
f 561//1 503//1 506//1
f 561//1 506//1 562//1
f 563//1 564//1 565//1
f 563//1 565//1 566//1
f 567//1 568//1 569//1
f 567//1 569//1 570//1
f 564//1 571//1 572//1
f 564//1 572//1 565//1
f 568//1 573//1 574//1
f 568//1 574//1 569//1
f 571//1 575//1 576//1
f 571//1 576//1 572//1
f 573//1 577//1 578//1
f 573//1 578//1 574//1
f 575//1 579//1 580//1
f 575//1 580//1 576//1
f 577//1 581//1 582//1
f 577//1 582//1 578//1
f 579//1 583//1 584//1
f 579//1 584//1 580//1
f 581//1 585//1 586//1
f 581//1 586//1 582//1
f 583//1 587//1 588//1
f 583//1 588//1 584//1
f 585//1 589//1 590//1
f 585//1 590//1 586//1
f 591//1 592//1 593//1
f 591//1 593//1 594//1
f 587//1 595//1 596//1
f 587//1 596//1 588//1
f 589//1 597//1 598//1
f 589//1 598//1 590//1
f 592//1 599//1 600//1
f 592//1 600//1 593//1
f 595//1 601//1 602//1
f 595//1 602//1 596//1
f 597//1 603//1 604//1
f 597//1 604//1 598//1
f 599//1 605//1 606//1
f 599//1 606//1 600//1
f 601//1 607//1 608//1
f 601//1 608//1 602//1
f 603//1 609//1 610//1
f 603//1 610//1 604//1
f 605//1 611//1 612//1
f 605//1 612//1 606//1
f 607//1 613//1 614//1
f 607//1 614//1 608//1
f 609//1 615//1 616//1
f 609//1 616//1 610//1
f 611//1 617//1 618//1
f 611//1 618//1 612//1
f 613//1 591//1 594//1
f 613//1 594//1 614//1
f 615//1 619//1 620//1
f 615//1 620//1 616//1
f 617//1 621//1 622//1
f 617//1 622//1 618//1
f 619//1 623//1 624//1
f 619//1 624//1 620//1
f 621//1 625//1 626//1
f 621//1 626//1 622//1
f 623//1 563//1 566//1
f 623//1 566//1 624//1
f 625//1 567//1 570//1
f 625//1 570//1 626//1
f 627//1 628//1 629//1
f 627//1 629//1 630//1
f 631//1 632//1 633//1
f 631//1 633//1 634//1
f 628//1 635//1 636//1
f 628//1 636//1 629//1
f 632//1 637//1 638//1
f 632//1 638//1 633//1
f 635//1 639//1 640//1
f 635//1 640//1 636//1
f 637//1 641//1 642//1
f 637//1 642//1 638//1
f 639//1 643//1 644//1
f 639//1 644//1 640//1
f 641//1 645//1 646//1
f 641//1 646//1 642//1
f 643//1 647//1 648//1
f 643//1 648//1 644//1
f 645//1 649//1 650//1
f 645//1 650//1 646//1
f 647//1 651//1 652//1
f 647//1 652//1 648//1
f 649//1 653//1 654//1
f 649//1 654//1 650//1
f 655//1 656//1 657//1
f 655//1 657//1 658//1
f 651//1 659//1 660//1
f 651//1 660//1 652//1
f 653//1 661//1 662//1
f 653//1 662//1 654//1
f 656//1 663//1 664//1
f 656//1 664//1 657//1
f 659//1 665//1 666//1
f 659//1 666//1 660//1
f 661//1 667//1 668//1
f 661//1 668//1 662//1
f 663//1 669//1 670//1
f 663//1 670//1 664//1
f 665//1 671//1 672//1
f 665//1 672//1 666//1
f 667//1 673//1 674//1
f 667//1 674//1 668//1
f 669//1 675//1 676//1
f 669//1 676//1 670//1
f 671//1 677//1 678//1
f 671//1 678//1 672//1
f 673//1 679//1 680//1
f 673//1 680//1 674//1
f 675//1 681//1 682//1
f 675//1 682//1 676//1
f 677//1 655//1 658//1
f 677//1 658//1 678//1
f 679//1 683//1 684//1
f 679//1 684//1 680//1
f 681//1 685//1 686//1
f 681//1 686//1 682//1
f 683//1 687//1 688//1
f 683//1 688//1 684//1
f 685//1 689//1 690//1
f 685//1 690//1 686//1
f 687//1 627//1 630//1
f 687//1 630//1 688//1
f 689//1 631//1 634//1
f 689//1 634//1 690//1
f 691//1 692//1 693//1
f 691//1 693//1 694//1
f 695//1 696//1 697//1
f 695//1 697//1 698//1
f 692//1 699//1 700//1
f 692//1 700//1 693//1
f 696//1 701//1 702//1
f 696//1 702//1 697//1
f 699//1 703//1 704//1
f 699//1 704//1 700//1
f 701//1 705//1 706//1
f 701//1 706//1 702//1
f 703//1 707//1 708//1
f 703//1 708//1 704//1
f 705//1 709//1 710//1
f 705//1 710//1 706//1
f 707//1 711//1 712//1
f 707//1 712//1 708//1
f 709//1 713//1 714//1
f 709//1 714//1 710//1
f 711//1 715//1 716//1
f 711//1 716//1 712//1
f 713//1 717//1 718//1
f 713//1 718//1 714//1
f 719//1 720//1 721//1
f 719//1 721//1 722//1
f 715//1 723//1 724//1
f 715//1 724//1 716//1
f 717//1 725//1 726//1
f 717//1 726//1 718//1
f 720//1 727//1 728//1
f 720//1 728//1 721//1
f 723//1 729//1 730//1
f 723//1 730//1 724//1
f 725//1 731//1 732//1
f 725//1 732//1 726//1
f 727//1 733//1 734//1
f 727//1 734//1 728//1
f 729//1 735//1 736//1
f 729//1 736//1 730//1
f 731//1 737//1 738//1
f 731//1 738//1 732//1
f 733//1 739//1 740//1
f 733//1 740//1 734//1
f 735//1 741//1 742//1
f 735//1 742//1 736//1
f 737//1 743//1 744//1
f 737//1 744//1 738//1
f 739//1 745//1 746//1
f 739//1 746//1 740//1
f 741//1 719//1 722//1
f 741//1 722//1 742//1
f 743//1 747//1 748//1
f 743//1 748//1 744//1
f 745//1 749//1 750//1
f 745//1 750//1 746//1
f 747//1 751//1 752//1
f 747//1 752//1 748//1
f 749//1 753//1 754//1
f 749//1 754//1 750//1
f 751//1 691//1 694//1
f 751//1 694//1 752//1
f 753//1 695//1 698//1
f 753//1 698//1 754//1
f 267//2 478//2 755//2
f 755//2 478//2 756//2
f 267//2 755//2 757//2
f 756//2 478//2 758//2
f 759//2 760//2 761//2
f 759//2 761//2 762//2
f 763//2 764//2 765//2
f 763//2 765//2 766//2
f 762//2 761//2 767//2
f 762//2 767//2 768//2
f 766//2 765//2 769//2
f 766//2 769//2 770//2
f 768//2 767//2 771//2
f 768//2 771//2 772//2
f 770//2 769//2 773//2
f 770//2 773//2 774//2
f 772//2 771//2 775//2
f 772//2 775//2 776//2
f 774//2 773//2 777//2
f 774//2 777//2 778//2
f 776//2 775//2 779//2
f 776//2 779//2 780//2
f 778//2 777//2 781//2
f 778//2 781//2 782//2
f 780//2 779//2 783//2
f 780//2 783//2 784//2
f 782//2 781//2 785//2
f 782//2 785//2 786//2
f 787//2 788//2 789//2
f 787//2 789//2 790//2
f 784//2 783//2 791//2
f 784//2 791//2 792//2
f 786//2 785//2 793//2
f 786//2 793//2 794//2
f 790//2 789//2 795//2
f 790//2 795//2 796//2
f 792//2 791//2 797//2
f 792//2 797//2 798//2
f 794//2 793//2 799//2
f 794//2 799//2 800//2
f 796//2 795//2 801//2
f 796//2 801//2 802//2
f 798//2 797//2 803//2
f 798//2 803//2 804//2
f 800//2 799//2 805//2
f 800//2 805//2 806//2
f 802//2 801//2 807//2
f 802//2 807//2 808//2
f 804//2 803//2 809//2
f 804//2 809//2 810//2
f 806//2 805//2 811//2
f 806//2 811//2 812//2
f 808//2 807//2 813//2
f 808//2 813//2 814//2
f 810//2 809//2 788//2
f 810//2 788//2 787//2
f 812//2 811//2 815//2
f 812//2 815//2 816//2
f 814//2 813//2 817//2
f 814//2 817//2 818//2
f 816//2 815//2 819//2
f 816//2 819//2 820//2
f 818//2 817//2 821//2
f 818//2 821//2 822//2
f 820//2 819//2 760//2
f 820//2 760//2 759//2
f 822//2 821//2 764//2
f 822//2 764//2 763//2
f 823//25 808//25 814//25
f 823//25 814//25 824//25
f 788//3 594//3 593//3
f 788//3 593//3 789//3
f 825//6 810//6 787//6
f 825//6 787//6 826//6
f 824//23 814//23 818//23
f 824//23 818//23 827//23
f 809//6 614//6 594//6
f 809//6 594//6 788//6
f 803//9 608//9 614//9
f 803//9 614//9 809//9
f 827//21 818//21 822//21
f 827//21 822//21 828//21
f 797//12 602//12 608//12
f 797//12 608//12 803//12
f 791//14 596//14 602//14
f 791//14 602//14 797//14
f 828//19 822//19 763//19
f 828//19 763//19 829//19
f 783//16 588//16 596//16
f 783//16 596//16 791//16
f 779//18 584//18 588//18
f 779//18 588//18 783//18
f 829//17 763//17 766//17
f 829//17 766//17 830//17
f 775//20 580//20 584//20
f 775//20 584//20 779//20
f 771//22 576//22 580//22
f 771//22 580//22 775//22
f 830//15 766//15 770//15
f 830//15 770//15 831//15
f 767//24 572//24 576//24
f 767//24 576//24 771//24
f 761//26 565//26 572//26
f 761//26 572//26 767//26
f 831//13 770//13 774//13
f 831//13 774//13 832//13
f 760//28 566//28 565//28
f 760//28 565//28 761//28
f 819//31 624//31 566//31
f 819//31 566//31 760//31
f 832//10 774//10 778//10
f 832//10 778//10 833//10
f 815//34 620//34 624//34
f 815//34 624//34 819//34
f 833//7 778//7 782//7
f 833//7 782//7 834//7
f 811//5 616//5 620//5
f 811//5 620//5 815//5
f 834//4 782//4 786//4
f 834//4 786//4 835//4
f 805//8 610//8 616//8
f 805//8 616//8 811//8
f 835//33 786//33 794//33
f 835//33 794//33 836//33
f 799//11 604//11 610//11
f 799//11 610//11 805//11
f 836//30 794//30 800//30
f 836//30 800//30 837//30
f 793//30 598//30 604//30
f 793//30 604//30 799//30
f 837//11 800//11 806//11
f 837//11 806//11 838//11
f 785//33 590//33 598//33
f 785//33 598//33 793//33
f 838//8 806//8 812//8
f 838//8 812//8 839//8
f 781//4 586//4 590//4
f 781//4 590//4 785//4
f 839//5 812//5 816//5
f 839//5 816//5 840//5
f 777//7 582//7 586//7
f 777//7 586//7 781//7
f 840//34 816//34 820//34
f 840//34 820//34 841//34
f 773//10 578//10 582//10
f 773//10 582//10 777//10
f 841//31 820//31 759//31
f 841//31 759//31 842//31
f 769//13 574//13 578//13
f 769//13 578//13 773//13
f 842//28 759//28 762//28
f 842//28 762//28 843//28
f 765//15 569//15 574//15
f 765//15 574//15 769//15
f 843//26 762//26 768//26
f 843//26 768//26 844//26
f 764//17 570//17 569//17
f 764//17 569//17 765//17
f 844//24 768//24 772//24
f 844//24 772//24 845//24
f 821//19 626//19 570//19
f 821//19 570//19 764//19
f 845//22 772//22 776//22
f 845//22 776//22 846//22
f 817//21 622//21 626//21
f 817//21 626//21 821//21
f 846//20 776//20 780//20
f 846//20 780//20 847//20
f 813//23 618//23 622//23
f 813//23 622//23 817//23
f 847//18 780//18 784//18
f 847//18 784//18 848//18
f 826//3 787//3 790//3
f 826//3 790//3 849//3
f 807//25 612//25 618//25
f 807//25 618//25 813//25
f 848//16 784//16 792//16
f 848//16 792//16 850//16
f 849//32 790//32 796//32
f 849//32 796//32 851//32
f 801//27 606//27 612//27
f 801//27 612//27 807//27
f 850//14 792//14 798//14
f 850//14 798//14 852//14
f 851//29 796//29 802//29
f 851//29 802//29 853//29
f 795//29 600//29 606//29
f 795//29 606//29 801//29
f 852//12 798//12 804//12
f 852//12 804//12 854//12
f 853//27 802//27 808//27
f 853//27 808//27 823//27
f 789//32 593//32 600//32
f 789//32 600//32 795//32
f 854//9 804//9 810//9
f 854//9 810//9 825//9
f 470//2 464//2 829//2
f 829//2 464//2 828//2
f 828//2 464//2 827//2
f 827//2 464//2 824//2
f 824//2 464//2 823//2
f 823//2 464//2 853//2
f 853//2 464//2 851//2
f 851//2 464//2 849//2
f 849//2 464//2 826//2
f 826//2 464//2 448//2
f 826//2 448//2 825//2
f 825//2 448//2 854//2
f 854//2 448//2 852//2
f 852//2 448//2 850//2
f 850//2 448//2 848//2
f 848//2 448//2 847//2
f 847//2 448//2 846//2
f 846//2 448//2 845//2
f 845//2 448//2 397//2
f 470//2 829//2 830//2
f 844//2 845//2 397//2
f 470//2 830//2 831//2
f 843//2 844//2 397//2
f 470//2 831//2 832//2
f 842//2 843//2 397//2
f 470//2 832//2 833//2
f 841//2 842//2 397//2
f 470//2 833//2 834//2
f 840//2 841//2 397//2
f 470//2 834//2 835//2
f 839//2 840//2 397//2
f 470//2 835//2 836//2
f 838//2 839//2 397//2
f 470//2 836//2 837//2
f 837//2 838//2 397//2
f 470//2 837//2 397//2
f 462//1 461//1 575//1
f 575//39 461//39 579//39
f 579//1 461//1 583//1
f 583//1 461//1 587//1
f 587//1 461//1 595//1
f 595//1 461//1 601//1
f 601//1 461//1 607//1
f 607//1 461//1 613//1
f 613//1 461//1 591//1
f 591//1 461//1 457//1
f 591//1 457//1 592//1
f 592//1 457//1 599//1
f 599//1 457//1 605//1
f 605//1 457//1 611//1
f 611//1 457//1 617//1
f 617//1 457//1 621//1
f 621//1 457//1 625//1
f 625//1 457//1 567//1
f 567//1 457//1 343//1
f 462//1 575//1 571//1
f 568//1 567//1 343//1
f 462//1 571//1 564//1
f 573//1 568//1 343//1
f 462//1 564//1 563//1
f 577//1 573//1 343//1
f 462//1 563//1 623//1
f 581//1 577//1 343//1
f 462//1 623//1 619//1
f 585//1 581//1 343//1
f 462//1 619//1 615//1
f 589//1 585//1 343//1
f 462//1 615//1 609//1
f 597//1 589//1 343//1
f 462//1 609//1 603//1
f 603//1 597//1 343//1
f 462//1 603//1 343//1
f 855//2 856//2 857//2
f 855//2 857//2 858//2
f 859//2 860//2 861//2
f 859//2 861//2 862//2
f 858//2 857//2 863//2
f 858//2 863//2 864//2
f 862//2 861//2 865//2
f 862//2 865//2 866//2
f 864//2 863//2 867//2
f 864//2 867//2 868//2
f 866//2 865//2 869//2
f 866//2 869//2 870//2
f 868//2 867//2 871//2
f 868//2 871//2 872//2
f 870//2 869//2 873//2
f 870//2 873//2 874//2
f 872//2 871//2 875//2
f 872//2 875//2 876//2
f 874//2 873//2 877//2
f 874//2 877//2 878//2
f 876//2 875//2 879//2
f 876//2 879//2 880//2
f 878//2 877//2 881//2
f 878//2 881//2 882//2
f 883//2 884//2 885//2
f 883//2 885//2 886//2
f 880//2 879//2 887//2
f 880//2 887//2 888//2
f 882//2 881//2 889//2
f 882//2 889//2 890//2
f 886//2 885//2 891//2
f 886//2 891//2 892//2
f 888//2 887//2 893//2
f 888//2 893//2 894//2
f 890//2 889//2 895//2
f 890//2 895//2 896//2
f 892//2 891//2 897//2
f 892//2 897//2 898//2
f 894//2 893//2 899//2
f 894//2 899//2 900//2
f 896//2 895//2 901//2
f 896//2 901//2 902//2
f 898//2 897//2 903//2
f 898//2 903//2 904//2
f 900//2 899//2 905//2
f 900//2 905//2 906//2
f 902//2 901//2 907//2
f 902//2 907//2 908//2
f 904//2 903//2 909//2
f 904//2 909//2 910//2
f 906//2 905//2 884//2
f 906//2 884//2 883//2
f 908//2 907//2 911//2
f 908//2 911//2 912//2
f 910//2 909//2 913//2
f 910//2 913//2 914//2
f 912//2 911//2 915//2
f 912//2 915//2 916//2
f 914//2 913//2 917//2
f 914//2 917//2 918//2
f 916//2 915//2 856//2
f 916//2 856//2 855//2
f 918//2 917//2 860//2
f 918//2 860//2 859//2
f 919//2 920//2 921//2
f 919//2 921//2 922//2
f 923//2 924//2 925//2
f 923//2 925//2 926//2
f 922//2 921//2 927//2
f 922//2 927//2 928//2
f 926//2 925//2 929//2
f 926//2 929//2 930//2
f 928//2 927//2 931//2
f 928//2 931//2 932//2
f 930//2 929//2 933//2
f 930//2 933//2 934//2
f 932//2 931//2 935//2
f 932//2 935//2 936//2
f 934//2 933//2 937//2
f 934//2 937//2 938//2
f 936//2 935//2 939//2
f 936//2 939//2 940//2
f 938//2 937//2 941//2
f 938//2 941//2 942//2
f 940//2 939//2 943//2
f 940//2 943//2 944//2
f 942//2 941//2 945//2
f 942//2 945//2 946//2
f 947//2 948//2 949//2
f 947//2 949//2 950//2
f 944//2 943//2 951//2
f 944//2 951//2 952//2
f 946//2 945//2 953//2
f 946//2 953//2 954//2
f 950//2 949//2 955//2
f 950//2 955//2 956//2
f 952//2 951//2 957//2
f 952//2 957//2 958//2
f 954//2 953//2 959//2
f 954//2 959//2 960//2
f 956//2 955//2 961//2
f 956//2 961//2 962//2
f 958//2 957//2 963//2
f 958//2 963//2 964//2
f 960//2 959//2 965//2
f 960//2 965//2 966//2
f 962//2 961//2 967//2
f 962//2 967//2 968//2
f 964//2 963//2 969//2
f 964//2 969//2 970//2
f 966//2 965//2 971//2
f 966//2 971//2 972//2
f 968//2 967//2 973//2
f 968//2 973//2 974//2
f 970//2 969//2 948//2
f 970//2 948//2 947//2
f 972//2 971//2 975//2
f 972//2 975//2 976//2
f 974//2 973//2 977//2
f 974//2 977//2 978//2
f 976//2 975//2 979//2
f 976//2 979//2 980//2
f 978//2 977//2 981//2
f 978//2 981//2 982//2
f 980//2 979//2 920//2
f 980//2 920//2 919//2
f 982//2 981//2 924//2
f 982//2 924//2 923//2
f 983//2 984//2 985//2
f 983//2 985//2 986//2
f 987//2 988//2 989//2
f 987//2 989//2 990//2
f 986//2 985//2 991//2
f 986//2 991//2 992//2
f 990//2 989//2 993//2
f 990//2 993//2 994//2
f 992//2 991//2 995//2
f 992//2 995//2 996//2
f 994//2 993//2 997//2
f 994//2 997//2 998//2
f 996//2 995//2 999//2
f 996//2 999//2 1000//2
f 998//2 997//2 1001//2
f 998//2 1001//2 1002//2
f 1000//2 999//2 1003//2
f 1000//2 1003//2 1004//2
f 1002//2 1001//2 1005//2
f 1002//2 1005//2 1006//2
f 1004//2 1003//2 1007//2
f 1004//2 1007//2 1008//2
f 1006//2 1005//2 1009//2
f 1006//2 1009//2 1010//2
f 1011//2 1012//2 1013//2
f 1011//2 1013//2 1014//2
f 1008//2 1007//2 1015//2
f 1008//2 1015//2 1016//2
f 1010//2 1009//2 1017//2
f 1010//2 1017//2 1018//2
f 1014//2 1013//2 1019//2
f 1014//2 1019//2 1020//2
f 1016//2 1015//2 1021//2
f 1016//2 1021//2 1022//2
f 1018//2 1017//2 1023//2
f 1018//2 1023//2 1024//2
f 1020//2 1019//2 1025//2
f 1020//2 1025//2 1026//2
f 1022//2 1021//2 1027//2
f 1022//2 1027//2 1028//2
f 1024//2 1023//2 1029//2
f 1024//2 1029//2 1030//2
f 1026//2 1025//2 1031//2
f 1026//2 1031//2 1032//2
f 1028//2 1027//2 1033//2
f 1028//2 1033//2 1034//2
f 1030//2 1029//2 1035//2
f 1030//2 1035//2 1036//2
f 1032//2 1031//2 1037//2
f 1032//2 1037//2 1038//2
f 1034//2 1033//2 1012//2
f 1034//2 1012//2 1011//2
f 1036//2 1035//2 1039//2
f 1036//2 1039//2 1040//2
f 1038//2 1037//2 1041//2
f 1038//2 1041//2 1042//2
f 1040//2 1039//2 1043//2
f 1040//2 1043//2 1044//2
f 1042//2 1041//2 1045//2
f 1042//2 1045//2 1046//2
f 1044//2 1043//2 984//2
f 1044//2 984//2 983//2
f 1046//2 1045//2 988//2
f 1046//2 988//2 987//2
f 267//2 757//2 1047//2
f 1048//29 1020//29 1026//29
f 1048//29 1026//29 1049//29
f 758//2 478//2 1050//2
f 1049//27 1026//27 1032//27
f 1049//27 1032//27 1051//27
f 267//2 1047//2 1052//2
f 1051//25 1032//25 1038//25
f 1051//25 1038//25 1053//25
f 1050//2 478//2 1054//2
f 1053//23 1038//23 1042//23
f 1053//23 1042//23 1055//23
f 267//2 1052//2 1056//2
f 1055//21 1042//21 1046//21
f 1055//21 1046//21 1057//21
f 1054//2 478//2 1058//2
f 1059//3 947//3 950//3
f 1059//3 950//3 1060//3
f 1057//19 1046//19 987//19
f 1057//19 987//19 1061//19
f 267//2 1056//2 1062//2
f 1060//32 950//32 956//32
f 1060//32 956//32 1063//32
f 1061//17 987//17 990//17
f 1061//17 990//17 1064//17
f 1058//2 478//2 1065//2
f 1063//29 956//29 962//29
f 1063//29 962//29 1066//29
f 1064//15 990//15 994//15
f 1064//15 994//15 1065//15
f 267//2 1062//2 1067//2
f 1066//27 962//27 968//27
f 1066//27 968//27 1068//27
f 1065//13 994//13 998//13
f 1065//13 998//13 1058//13
f 1065//2 478//2 1064//2
f 1068//25 968//25 974//25
f 1068//25 974//25 1069//25
f 1058//10 998//10 1002//10
f 1058//10 1002//10 1054//10
f 267//2 1067//2 1070//2
f 1069//23 974//23 978//23
f 1069//23 978//23 1071//23
f 1054//7 1002//7 1006//7
f 1054//7 1006//7 1050//7
f 1071//21 978//21 982//21
f 1071//21 982//21 1072//21
f 1050//4 1006//4 1010//4
f 1050//4 1010//4 758//4
f 1073//3 883//3 886//3
f 1073//3 886//3 1074//3
f 1072//19 982//19 923//19
f 1072//19 923//19 1075//19
f 758//33 1010//33 1018//33
f 758//33 1018//33 756//33
f 1074//32 886//32 892//32
f 1074//32 892//32 1076//32
f 1075//17 923//17 926//17
f 1075//17 926//17 1077//17
f 756//30 1018//30 1024//30
f 756//30 1024//30 755//30
f 1076//29 892//29 898//29
f 1076//29 898//29 1078//29
f 1077//15 926//15 930//15
f 1077//15 930//15 1079//15
f 755//11 1024//11 1030//11
f 755//11 1030//11 757//11
f 1078//27 898//27 904//27
f 1078//27 904//27 1080//27
f 1079//13 930//13 934//13
f 1079//13 934//13 1081//13
f 757//8 1030//8 1036//8
f 757//8 1036//8 1047//8
f 1080//25 904//25 910//25
f 1080//25 910//25 1082//25
f 1081//10 934//10 938//10
f 1081//10 938//10 1083//10
f 1047//5 1036//5 1040//5
f 1047//5 1040//5 1052//5
f 1082//23 910//23 914//23
f 1082//23 914//23 1084//23
f 1083//7 938//7 942//7
f 1083//7 942//7 1085//7
f 1052//34 1040//34 1044//34
f 1052//34 1044//34 1056//34
f 1084//21 914//21 918//21
f 1084//21 918//21 1086//21
f 1085//4 942//4 946//4
f 1085//4 946//4 1087//4
f 1056//31 1044//31 983//31
f 1056//31 983//31 1062//31
f 1086//19 918//19 859//19
f 1086//19 859//19 1088//19
f 1087//33 946//33 954//33
f 1087//33 954//33 1089//33
f 1062//28 983//28 986//28
f 1062//28 986//28 1067//28
f 1088//17 859//17 862//17
f 1088//17 862//17 1090//17
f 1089//30 954//30 960//30
f 1089//30 960//30 1091//30
f 1067//26 986//26 992//26
f 1067//26 992//26 1070//26
f 1090//15 862//15 866//15
f 1090//15 866//15 1092//15
f 1091//11 960//11 966//11
f 1091//11 966//11 1093//11
f 1070//24 992//24 996//24
f 1070//24 996//24 1094//24
f 1092//13 866//13 870//13
f 1092//13 870//13 1095//13
f 1093//8 966//8 972//8
f 1093//8 972//8 1096//8
f 1094//22 996//22 1000//22
f 1094//22 1000//22 1097//22
f 1095//10 870//10 874//10
f 1095//10 874//10 1098//10
f 1096//5 972//5 976//5
f 1096//5 976//5 1099//5
f 1097//20 1000//20 1004//20
f 1097//20 1004//20 1100//20
f 1098//7 874//7 878//7
f 1098//7 878//7 1101//7
f 1099//34 976//34 980//34
f 1099//34 980//34 1102//34
f 1100//18 1004//18 1008//18
f 1100//18 1008//18 1103//18
f 1101//4 878//4 882//4
f 1101//4 882//4 1104//4
f 1102//31 980//31 919//31
f 1102//31 919//31 1105//31
f 1103//16 1008//16 1016//16
f 1103//16 1016//16 1106//16
f 1104//33 882//33 890//33
f 1104//33 890//33 1107//33
f 1105//28 919//28 922//28
f 1105//28 922//28 1108//28
f 1106//14 1016//14 1022//14
f 1106//14 1022//14 1109//14
f 1107//30 890//30 896//30
f 1107//30 896//30 1110//30
f 1108//26 922//26 928//26
f 1108//26 928//26 1111//26
f 1109//12 1022//12 1028//12
f 1109//12 1028//12 1112//12
f 1110//11 896//11 902//11
f 1110//11 902//11 1113//11
f 1111//24 928//24 932//24
f 1111//24 932//24 1114//24
f 1112//9 1028//9 1034//9
f 1112//9 1034//9 1115//9
f 1113//8 902//8 908//8
f 1113//8 908//8 1116//8
f 1114//22 932//22 936//22
f 1114//22 936//22 1117//22
f 1115//6 1034//6 1011//6
f 1115//6 1011//6 1118//6
f 1116//5 908//5 912//5
f 1116//5 912//5 1119//5
f 1117//20 936//20 940//20
f 1117//20 940//20 1120//20
f 1064//2 478//2 1061//2
f 1119//34 912//34 916//34
f 1119//34 916//34 1121//34
f 1120//18 940//18 944//18
f 1120//18 944//18 1122//18
f 267//2 1070//2 1094//2
f 1121//31 916//31 855//31
f 1121//31 855//31 1123//31
f 1122//16 944//16 952//16
f 1122//16 952//16 1124//16
f 1061//40 478//40 480//40
f 1123//28 855//28 858//28
f 1123//28 858//28 1125//28
f 1124//14 952//14 958//14
f 1124//14 958//14 1126//14
f 1057//2 1061//2 480//2
f 1125//26 858//26 864//26
f 1125//26 864//26 1127//26
f 1126//12 958//12 964//12
f 1126//12 964//12 1128//12
f 1055//2 1057//2 480//2
f 1127//24 864//24 868//24
f 1127//24 868//24 1129//24
f 1128//9 964//9 970//9
f 1128//9 970//9 1130//9
f 1053//2 1055//2 480//2
f 1129//22 868//22 872//22
f 1129//22 872//22 1131//22
f 1130//6 970//6 947//6
f 1130//6 947//6 1059//6
f 1051//2 1053//2 480//2
f 1131//20 872//20 876//20
f 1131//20 876//20 1132//20
f 1049//2 1051//2 480//2
f 1132//18 876//18 880//18
f 1132//18 880//18 1133//18
f 1048//2 1049//2 480//2
f 1133//16 880//16 888//16
f 1133//16 888//16 1134//16
f 1135//2 1048//2 480//2
f 1134//14 888//14 894//14
f 1134//14 894//14 1136//14
f 1118//2 1135//2 480//2
f 1136//12 894//12 900//12
f 1136//12 900//12 1137//12
f 1118//2 480//2 497//2
f 1137//9 900//9 906//9
f 1137//9 906//9 1138//9
f 1115//2 1118//2 497//2
f 1138//6 906//6 883//6
f 1138//6 883//6 1073//6
f 1112//2 1115//2 497//2
f 1109//2 1112//2 497//2
f 1106//2 1109//2 497//2
f 1103//2 1106//2 497//2
f 1100//2 1103//2 497//2
f 1097//2 1100//2 497//2
f 1094//2 1097//2 497//2
f 1118//3 1011//3 1014//3
f 1118//3 1014//3 1135//3
f 267//2 1094//2 497//2
f 1135//32 1014//32 1020//32
f 1135//32 1020//32 1048//32
f 436//2 485//2 1075//2
f 1075//2 485//2 1072//2
f 1072//2 485//2 1071//2
f 1071//2 485//2 1069//2
f 1069//2 485//2 1068//2
f 1068//2 485//2 1066//2
f 1066//2 485//2 1063//2
f 1063//2 485//2 1060//2
f 1060//2 485//2 1059//2
f 1059//2 485//2 495//2
f 1059//2 495//2 1130//2
f 1130//2 495//2 1128//2
f 1128//2 495//2 1126//2
f 1126//2 495//2 1124//2
f 1124//2 495//2 1122//2
f 1122//2 495//2 1120//2
f 1120//2 495//2 1117//2
f 1117//2 495//2 1114//2
f 1114//2 495//2 289//2
f 436//2 1075//2 1077//2
f 1111//2 1114//2 289//2
f 436//2 1077//2 1079//2
f 1108//2 1111//2 289//2
f 436//2 1079//2 1081//2
f 1105//2 1108//2 289//2
f 436//2 1081//2 1083//2
f 1102//2 1105//2 289//2
f 436//2 1083//2 1085//2
f 1099//2 1102//2 289//2
f 436//2 1085//2 1087//2
f 1096//2 1099//2 289//2
f 436//2 1087//2 1089//2
f 1093//2 1096//2 289//2
f 436//2 1089//2 1091//2
f 1091//2 1093//2 289//2
f 436//2 1091//2 289//2
f 378//2 1129//2 442//2
f 1129//2 1131//2 442//2
f 1131//2 1132//2 442//2
f 1132//2 1133//2 442//2
f 1133//2 1134//2 442//2
f 1134//2 1136//2 442//2
f 1136//2 1137//2 442//2
f 1137//2 1138//2 442//2
f 1138//2 1073//2 442//2
f 1073//2 443//2 442//2
f 1073//2 1074//2 443//2
f 1074//2 1076//2 443//2
f 1076//2 1078//2 443//2
f 1078//2 1080//2 443//2
f 1080//2 1082//2 443//2
f 1082//2 1084//2 443//2
f 1084//2 1086//2 443//2
f 1086//2 1088//2 443//2
f 1088//2 434//2 443//2
f 378//2 1127//2 1129//2
f 1090//2 434//2 1088//2
f 378//2 1125//2 1127//2
f 1092//2 434//2 1090//2
f 378//2 1123//2 1125//2
f 1095//2 434//2 1092//2
f 378//2 1121//2 1123//2
f 1098//2 434//2 1095//2
f 378//2 1119//2 1121//2
f 1101//2 434//2 1098//2
f 378//2 1116//2 1119//2
f 1104//2 434//2 1101//2
f 378//2 1113//2 1116//2
f 1107//2 434//2 1104//2
f 378//2 1110//2 1113//2
f 1110//2 434//2 1107//2
f 378//2 434//2 1110//2
f 257//1 695//1 498//1
f 695//41 753//41 498//41
f 753//1 749//1 498//1
f 749//1 745//1 498//1
f 745//1 739//1 498//1
f 739//1 733//1 498//1
f 733//1 727//1 498//1
f 727//1 720//1 498//1
f 720//1 719//1 498//1
f 719//1 484//1 498//1
f 719//1 741//1 484//1
f 741//1 735//1 484//1
f 735//1 729//1 484//1
f 729//1 723//1 484//1
f 723//1 715//1 484//1
f 715//1 711//1 484//1
f 711//1 707//1 484//1
f 707//1 703//1 484//1
f 703//1 440//1 484//1
f 257//1 696//1 695//1
f 699//1 440//1 703//1
f 257//1 701//1 696//1
f 692//1 440//1 699//1
f 257//1 705//1 701//1
f 691//1 440//1 692//1
f 257//1 709//1 705//1
f 751//1 440//1 691//1
f 257//1 713//1 709//1
f 747//1 440//1 751//1
f 257//1 717//1 713//1
f 743//1 440//1 747//1
f 257//1 725//1 717//1
f 737//1 440//1 743//1
f 257//1 731//1 725//1
f 731//1 440//1 737//1
f 257//1 440//1 731//1
f 476//1 482//1 639//1
f 639//1 482//1 643//1
f 643//1 482//1 647//1
f 647//1 482//1 651//1
f 651//1 482//1 659//1
f 659//1 482//1 665//1
f 665//1 482//1 671//1
f 671//1 482//1 677//1
f 677//1 482//1 655//1
f 655//1 482//1 490//1
f 655//1 490//1 656//1
f 656//1 490//1 663//1
f 663//1 490//1 669//1
f 669//1 490//1 675//1
f 675//1 490//1 681//1
f 681//1 490//1 685//1
f 685//1 490//1 689//1
f 689//1 490//1 631//1
f 631//1 490//1 308//1
f 476//1 639//1 635//1
f 632//1 631//1 308//1
f 476//1 635//1 628//1
f 637//1 632//1 308//1
f 476//1 628//1 627//1
f 641//1 637//1 308//1
f 476//1 627//1 687//1
f 645//1 641//1 308//1
f 476//1 687//1 683//1
f 649//1 645//1 308//1
f 476//1 683//1 679//1
f 653//1 649//1 308//1
f 476//1 679//1 673//1
f 661//1 653//1 308//1
f 476//1 673//1 667//1
f 667//1 661//1 308//1
f 476//1 667//1 308//1
f 415//39 503//39 446//39
f 503//39 561//39 446//39
f 561//1 557//1 446//1
f 557//1 553//1 446//1
f 553//1 547//1 446//1
f 547//1 541//1 446//1
f 541//1 535//1 446//1
f 535//1 528//1 446//1
f 528//1 527//1 446//1
f 527//1 444//1 446//1
f 527//1 549//1 444//1
f 549//1 543//1 444//1
f 543//1 537//1 444//1
f 537//1 531//1 444//1
f 531//1 523//1 444//1
f 523//1 519//1 444//1
f 519//1 515//1 444//1
f 515//1 511//1 444//1
f 511//1 427//1 444//1
f 415//41 504//41 503//41
f 507//42 427//42 511//42
f 415//1 509//1 504//1
f 500//1 427//1 507//1
f 415//1 513//1 509//1
f 499//1 427//1 500//1
f 415//1 517//1 513//1
f 559//1 427//1 499//1
f 415//1 521//1 517//1
f 555//1 427//1 559//1
f 415//1 525//1 521//1
f 551//1 427//1 555//1
f 415//1 533//1 525//1
f 545//1 427//1 551//1
f 415//1 539//1 533//1
f 539//1 427//1 545//1
f 415//1 427//1 539//1
f 885//32 529//32 536//32
f 885//32 536//32 891//32
f 891//29 536//29 542//29
f 891//29 542//29 897//29
f 897//27 542//27 548//27
f 897//27 548//27 903//27
f 903//25 548//25 554//25
f 903//25 554//25 909//25
f 909//23 554//23 558//23
f 909//23 558//23 913//23
f 913//21 558//21 562//21
f 913//21 562//21 917//21
f 917//19 562//19 506//19
f 917//19 506//19 860//19
f 860//17 506//17 505//17
f 860//17 505//17 861//17
f 861//15 505//15 510//15
f 861//15 510//15 865//15
f 865//13 510//13 514//13
f 865//13 514//13 869//13
f 869//10 514//10 518//10
f 869//10 518//10 873//10
f 873//7 518//7 522//7
f 873//7 522//7 877//7
f 877//4 522//4 526//4
f 877//4 526//4 881//4
f 881//33 526//33 534//33
f 881//33 534//33 889//33
f 889//30 534//30 540//30
f 889//30 540//30 895//30
f 895//11 540//11 546//11
f 895//11 546//11 901//11
f 901//8 546//8 552//8
f 901//8 552//8 907//8
f 907//5 552//5 556//5
f 907//5 556//5 911//5
f 911//34 556//34 560//34
f 911//34 560//34 915//34
f 915//31 560//31 502//31
f 915//31 502//31 856//31
f 856//28 502//28 501//28
f 856//28 501//28 857//28
f 857//26 501//26 508//26
f 857//26 508//26 863//26
f 863//24 508//24 512//24
f 863//24 512//24 867//24
f 867//22 512//22 516//22
f 867//22 516//22 871//22
f 871//20 516//20 520//20
f 871//20 520//20 875//20
f 875//18 520//18 524//18
f 875//18 524//18 879//18
f 879//16 524//16 532//16
f 879//16 532//16 887//16
f 887//14 532//14 538//14
f 887//14 538//14 893//14
f 893//12 538//12 544//12
f 893//12 544//12 899//12
f 899//9 544//9 550//9
f 899//9 550//9 905//9
f 905//6 550//6 530//6
f 905//6 530//6 884//6
f 884//3 530//3 529//3
f 884//3 529//3 885//3
f 1013//32 657//32 664//32
f 1013//32 664//32 1019//32
f 1019//29 664//29 670//29
f 1019//29 670//29 1025//29
f 1025//27 670//27 676//27
f 1025//27 676//27 1031//27
f 1031//25 676//25 682//25
f 1031//25 682//25 1037//25
f 1037//23 682//23 686//23
f 1037//23 686//23 1041//23
f 1041//21 686//21 690//21
f 1041//21 690//21 1045//21
f 1045//19 690//19 634//19
f 1045//19 634//19 988//19
f 988//17 634//17 633//17
f 988//17 633//17 989//17
f 989//15 633//15 638//15
f 989//15 638//15 993//15
f 993//13 638//13 642//13
f 993//13 642//13 997//13
f 997//10 642//10 646//10
f 997//10 646//10 1001//10
f 1001//7 646//7 650//7
f 1001//7 650//7 1005//7
f 1005//4 650//4 654//4
f 1005//4 654//4 1009//4
f 1009//33 654//33 662//33
f 1009//33 662//33 1017//33
f 1017//30 662//30 668//30
f 1017//30 668//30 1023//30
f 1023//11 668//11 674//11
f 1023//11 674//11 1029//11
f 1029//8 674//8 680//8
f 1029//8 680//8 1035//8
f 1035//5 680//5 684//5
f 1035//5 684//5 1039//5
f 1039//34 684//34 688//34
f 1039//34 688//34 1043//34
f 1043//31 688//31 630//31
f 1043//31 630//31 984//31
f 984//28 630//28 629//28
f 984//28 629//28 985//28
f 985//26 629//26 636//26
f 985//26 636//26 991//26
f 991//24 636//24 640//24
f 991//24 640//24 995//24
f 995//22 640//22 644//22
f 995//22 644//22 999//22
f 999//20 644//20 648//20
f 999//20 648//20 1003//20
f 1003//18 648//18 652//18
f 1003//18 652//18 1007//18
f 1007//16 652//16 660//16
f 1007//16 660//16 1015//16
f 1015//14 660//14 666//14
f 1015//14 666//14 1021//14
f 1021//12 666//12 672//12
f 1021//12 672//12 1027//12
f 1027//9 672//9 678//9
f 1027//9 678//9 1033//9
f 1033//6 678//6 658//6
f 1033//6 658//6 1012//6
f 1012//3 658//3 657//3
f 1012//3 657//3 1013//3
f 965//8 738//8 744//8
f 965//8 744//8 971//8
f 971//5 744//5 748//5
f 971//5 748//5 975//5
f 975//34 748//34 752//34
f 975//34 752//34 979//34
f 979//31 752//31 694//31
f 979//31 694//31 920//31
f 920//28 694//28 693//28
f 920//28 693//28 921//28
f 921//26 693//26 700//26
f 921//26 700//26 927//26
f 927//24 700//24 704//24
f 927//24 704//24 931//24
f 931//22 704//22 708//22
f 931//22 708//22 935//22
f 935//20 708//20 712//20
f 935//20 712//20 939//20
f 939//18 712//18 716//18
f 939//18 716//18 943//18
f 943//16 716//16 724//16
f 943//16 724//16 951//16
f 951//14 724//14 730//14
f 951//14 730//14 957//14
f 957//12 730//12 736//12
f 957//12 736//12 963//12
f 963//9 736//9 742//9
f 963//9 742//9 969//9
f 969//6 742//6 722//6
f 969//6 722//6 948//6
f 948//3 722//3 721//3
f 948//3 721//3 949//3
f 949//32 721//32 728//32
f 949//32 728//32 955//32
f 955//29 728//29 734//29
f 955//29 734//29 961//29
f 961//27 734//27 740//27
f 961//27 740//27 967//27
f 967//25 740//25 746//25
f 967//25 746//25 973//25
f 973//23 746//23 750//23
f 973//23 750//23 977//23
f 977//21 750//21 754//21
f 977//21 754//21 981//21
f 981//19 754//19 698//19
f 981//19 698//19 924//19
f 924//17 698//17 697//17
f 924//17 697//17 925//17
f 925//15 697//15 702//15
f 925//15 702//15 929//15
f 929//13 702//13 706//13
f 929//13 706//13 933//13
f 933//10 706//10 710//10
f 933//10 710//10 937//10
f 937//7 710//7 714//7
f 937//7 714//7 941//7
f 941//4 714//4 718//4
f 941//4 718//4 945//4
f 945//33 718//33 726//33
f 945//33 726//33 953//33
f 965//11 959//11 732//11
f 965//11 732//11 738//11
f 959//30 953//30 726//30
f 959//30 726//30 732//30
f 369//2 372//2 383//2
f 369//2 383//2 377//2
f 322//1 441//1 329//1
f 322//1 329//1 323//1
f 327//35 321//35 368//35
f 327//35 368//35 367//35
f 321//37 323//37 369//37
f 321//37 369//37 368//37
f 323//38 328//38 370//38
f 323//38 370//38 369//38
f 328//37 330//37 371//37
f 328//37 371//37 370//37
f 330//38 341//38 360//38
f 330//38 360//38 371//38
f 341//36 339//36 358//36
f 341//36 358//36 360//36
f 339//36 338//36 355//36
f 339//36 355//36 358//36
f 338//38 337//38 356//38
f 338//38 356//38 355//38
f 337//36 336//36 353//36
f 337//36 353//36 356//36
f 335//36 332//36 352//36
f 335//36 352//36 354//36
f 332//35 325//35 362//35
f 332//35 362//35 352//35
f 325//35 317//35 364//35
f 325//35 364//35 362//35
f 317//35 316//35 374//35
f 317//35 374//35 364//35
f 316//37 319//37 375//37
f 316//37 375//37 374//37
f 319//38 318//38 365//38
f 319//38 365//38 375//38
f 318//38 326//38 366//38
f 318//38 366//38 365//38
f 326//37 327//37 367//37
f 326//37 367//37 366//37
f 354//35 353//35 336//35
f 354//35 336//35 335//35
f 3//1 2//1 1//1
f 1//1 32//1 31//1
f 31//41 30//41 29//41
f 29//1 28//1 27//1
f 27//1 26//1 25//1
f 25//1 24//1 23//1
f 23//1 22//1 21//1
f 21//1 20//1 19//1
f 19//1 18//1 17//1
f 17//1 16//1 15//1
f 15//39 14//39 13//39
f 13//1 12//1 11//1
f 11//1 10//1 9//1
f 9//1 8//1 7//1
f 7//1 6//1 5//1
f 5//1 4//1 3//1
f 3//1 1//1 31//1
f 31//1 29//1 27//1
f 27//1 25//1 23//1
f 23//1 21//1 19//1
f 19//1 17//1 15//1
f 15//1 13//1 11//1
f 11//1 9//1 7//1
f 7//1 5//1 3//1
f 3//1 31//1 27//1
f 27//1 23//1 19//1
f 19//1 15//1 11//1
f 11//1 7//1 3//1
f 3//1 27//1 19//1
f 34//2 33//2 35//2
f 35//2 36//2 37//2
f 37//2 38//2 39//2
f 39//40 40//40 41//40
f 41//40 42//40 43//40
f 43//2 44//2 45//2
f 45//2 46//2 47//2
f 47//2 48//2 49//2
f 49//2 50//2 51//2
f 51//2 52//2 53//2
f 53//2 54//2 55//2
f 55//43 56//43 57//43
f 57//43 58//43 59//43
f 59//2 60//2 61//2
f 61//2 62//2 63//2
f 63//2 64//2 34//2
f 34//2 35//2 37//2
f 37//2 39//2 41//2
f 41//2 43//2 45//2
f 45//2 47//2 49//2
f 49//2 51//2 53//2
f 53//2 55//2 57//2
f 57//2 59//2 61//2
f 61//2 63//2 34//2
f 34//2 37//2 41//2
f 41//2 45//2 49//2
f 49//2 53//2 57//2
f 57//2 61//2 34//2
f 34//2 41//2 49//2
f 17//3 49//3 48//3
f 3//4 4//4 36//4
f 30//5 31//5 63//5
f 18//6 50//6 49//6
f 4//7 5//7 37//7
f 31//8 32//8 64//8
f 19//9 51//9 50//9
f 5//10 6//10 38//10
f 32//11 1//11 34//11
f 20//12 52//12 51//12
f 6//13 7//13 39//13
f 21//14 53//14 52//14
f 7//15 8//15 40//15
f 22//16 54//16 53//16
f 9//17 41//17 40//17
f 23//18 55//18 54//18
f 10//19 42//19 41//19
f 24//20 56//20 55//20
f 11//21 43//21 42//21
f 25//22 57//22 56//22
f 12//23 44//23 43//23
f 25//24 26//24 58//24
f 13//25 45//25 44//25
f 26//26 27//26 59//26
f 14//27 46//27 45//27
f 27//28 28//28 60//28
f 15//29 47//29 46//29
f 1//30 2//30 33//30
f 28//31 29//31 61//31
f 16//32 48//32 47//32
f 2//33 3//33 35//33
f 29//34 30//34 62//34
f 67//1 66//1 65//1
f 65//1 96//1 95//1
f 95//41 94//41 93//41
f 93//1 92//1 91//1
f 91//1 90//1 89//1
f 89//1 88//1 87//1
f 87//1 86//1 85//1
f 85//1 84//1 83//1
f 83//1 82//1 81//1
f 81//1 80//1 79//1
f 79//39 78//39 77//39
f 77//1 76//1 75//1
f 75//1 74//1 73//1
f 73//1 72//1 71//1
f 71//1 70//1 69//1
f 69//1 68//1 67//1
f 67//1 65//1 95//1
f 95//1 93//1 91//1
f 91//1 89//1 87//1
f 87//1 85//1 83//1
f 83//1 81//1 79//1
f 79//1 77//1 75//1
f 75//1 73//1 71//1
f 71//1 69//1 67//1
f 67//1 95//1 91//1
f 91//1 87//1 83//1
f 83//1 79//1 75//1
f 75//1 71//1 67//1
f 67//1 91//1 83//1
f 98//2 97//2 99//2
f 99//2 100//2 101//2
f 101//2 102//2 103//2
f 103//40 104//40 105//40
f 105//40 106//40 107//40
f 107//2 108//2 109//2
f 109//2 110//2 111//2
f 111//2 112//2 113//2
f 113//2 114//2 115//2
f 115//2 116//2 117//2
f 117//2 118//2 119//2
f 119//43 120//43 121//43
f 121//43 122//43 123//43
f 123//2 124//2 125//2
f 125//2 126//2 127//2
f 127//2 128//2 98//2
f 98//2 99//2 101//2
f 101//2 103//2 105//2
f 105//2 107//2 109//2
f 109//2 111//2 113//2
f 113//2 115//2 117//2
f 117//2 119//2 121//2
f 121//2 123//2 125//2
f 125//2 127//2 98//2
f 98//2 101//2 105//2
f 105//2 109//2 113//2
f 113//2 117//2 121//2
f 121//2 125//2 98//2
f 98//2 105//2 113//2
f 81//3 113//3 112//3
f 67//4 68//4 100//4
f 94//5 95//5 127//5
f 82//6 114//6 113//6
f 68//7 69//7 101//7
f 95//8 96//8 128//8
f 83//9 115//9 114//9
f 69//10 70//10 102//10
f 96//11 65//11 98//11
f 84//12 116//12 115//12
f 70//13 71//13 103//13
f 85//14 117//14 116//14
f 71//15 72//15 104//15
f 86//16 118//16 117//16
f 73//17 105//17 104//17
f 87//18 119//18 118//18
f 74//19 106//19 105//19
f 88//20 120//20 119//20
f 75//21 107//21 106//21
f 89//22 121//22 120//22
f 76//23 108//23 107//23
f 89//24 90//24 122//24
f 77//25 109//25 108//25
f 90//26 91//26 123//26
f 78//27 110//27 109//27
f 91//28 92//28 124//28
f 79//29 111//29 110//29
f 65//30 66//30 97//30
f 92//31 93//31 125//31
f 80//32 112//32 111//32
f 66//33 67//33 99//33
f 93//34 94//34 126//34
f 131//1 130//1 129//1
f 129//1 160//1 159//1
f 159//41 158//41 157//41
f 157//1 156//1 155//1
f 155//1 154//1 153//1
f 153//1 152//1 151//1
f 151//1 150//1 149//1
f 149//1 148//1 147//1
f 147//1 146//1 145//1
f 145//1 144//1 143//1
f 143//39 142//39 141//39
f 141//1 140//1 139//1
f 139//1 138//1 137//1
f 137//1 136//1 135//1
f 135//1 134//1 133//1
f 133//1 132//1 131//1
f 131//1 129//1 159//1
f 159//1 157//1 155//1
f 155//1 153//1 151//1
f 151//1 149//1 147//1
f 147//1 145//1 143//1
f 143//1 141//1 139//1
f 139//1 137//1 135//1
f 135//1 133//1 131//1
f 131//1 159//1 155//1
f 155//1 151//1 147//1
f 147//1 143//1 139//1
f 139//1 135//1 131//1
f 131//1 155//1 147//1
f 162//2 161//2 163//2
f 163//2 164//2 165//2
f 165//2 166//2 167//2
f 167//40 168//40 169//40
f 169//40 170//40 171//40
f 171//2 172//2 173//2
f 173//2 174//2 175//2
f 175//2 176//2 177//2
f 177//2 178//2 179//2
f 179//2 180//2 181//2
f 181//2 182//2 183//2
f 183//43 184//43 185//43
f 185//43 186//43 187//43
f 187//2 188//2 189//2
f 189//2 190//2 191//2
f 191//2 192//2 162//2
f 162//2 163//2 165//2
f 165//2 167//2 169//2
f 169//2 171//2 173//2
f 173//2 175//2 177//2
f 177//2 179//2 181//2
f 181//2 183//2 185//2
f 185//2 187//2 189//2
f 189//2 191//2 162//2
f 162//2 165//2 169//2
f 169//2 173//2 177//2
f 177//2 181//2 185//2
f 185//2 189//2 162//2
f 162//2 169//2 177//2
f 145//3 177//3 176//3
f 131//4 132//4 164//4
f 158//5 159//5 191//5
f 146//6 178//6 177//6
f 132//7 133//7 165//7
f 159//8 160//8 192//8
f 147//9 179//9 178//9
f 133//10 134//10 166//10
f 160//11 129//11 162//11
f 148//12 180//12 179//12
f 134//13 135//13 167//13
f 149//14 181//14 180//14
f 135//15 136//15 168//15
f 150//16 182//16 181//16
f 137//17 169//17 168//17
f 151//18 183//18 182//18
f 138//19 170//19 169//19
f 152//20 184//20 183//20
f 139//21 171//21 170//21
f 153//22 185//22 184//22
f 140//23 172//23 171//23
f 153//24 154//24 186//24
f 141//25 173//25 172//25
f 154//26 155//26 187//26
f 142//27 174//27 173//27
f 155//28 156//28 188//28
f 143//29 175//29 174//29
f 129//30 130//30 161//30
f 156//31 157//31 189//31
f 144//32 176//32 175//32
f 130//33 131//33 163//33
f 157//34 158//34 190//34
f 195//1 194//1 193//1
f 193//1 224//1 223//1
f 223//41 222//41 221//41
f 221//1 220//1 219//1
f 219//1 218//1 217//1
f 217//1 216//1 215//1
f 215//1 214//1 213//1
f 213//1 212//1 211//1
f 211//1 210//1 209//1
f 209//1 208//1 207//1
f 207//39 206//39 205//39
f 205//1 204//1 203//1
f 203//1 202//1 201//1
f 201//1 200//1 199//1
f 199//1 198//1 197//1
f 197//1 196//1 195//1
f 195//1 193//1 223//1
f 223//1 221//1 219//1
f 219//1 217//1 215//1
f 215//1 213//1 211//1
f 211//1 209//1 207//1
f 207//1 205//1 203//1
f 203//1 201//1 199//1
f 199//1 197//1 195//1
f 195//1 223//1 219//1
f 219//1 215//1 211//1
f 211//1 207//1 203//1
f 203//1 199//1 195//1
f 195//1 219//1 211//1
f 226//2 225//2 227//2
f 227//2 228//2 229//2
f 229//2 230//2 231//2
f 231//40 232//40 233//40
f 233//40 234//40 235//40
f 235//2 236//2 237//2
f 237//2 238//2 239//2
f 239//2 240//2 241//2
f 241//2 242//2 243//2
f 243//2 244//2 245//2
f 245//2 246//2 247//2
f 247//43 248//43 249//43
f 249//43 250//43 251//43
f 251//2 252//2 253//2
f 253//2 254//2 255//2
f 255//2 256//2 226//2
f 226//2 227//2 229//2
f 229//2 231//2 233//2
f 233//2 235//2 237//2
f 237//2 239//2 241//2
f 241//2 243//2 245//2
f 245//2 247//2 249//2
f 249//2 251//2 253//2
f 253//2 255//2 226//2
f 226//2 229//2 233//2
f 233//2 237//2 241//2
f 241//2 245//2 249//2
f 249//2 253//2 226//2
f 226//2 233//2 241//2
f 209//3 241//3 240//3
f 195//4 196//4 228//4
f 222//5 223//5 255//5
f 210//6 242//6 241//6
f 196//7 197//7 229//7
f 223//8 224//8 256//8
f 211//9 243//9 242//9
f 197//10 198//10 230//10
f 224//11 193//11 226//11
f 212//12 244//12 243//12
f 198//13 199//13 231//13
f 213//14 245//14 244//14
f 199//15 200//15 232//15
f 214//16 246//16 245//16
f 200//17 201//17 233//17
f 215//18 247//18 246//18
f 202//19 234//19 233//19
f 216//20 248//20 247//20
f 203//21 235//21 234//21
f 217//22 249//22 248//22
f 204//23 236//23 235//23
f 218//24 250//24 249//24
f 205//25 237//25 236//25
f 218//26 219//26 251//26
f 206//27 238//27 237//27
f 219//28 220//28 252//28
f 207//29 239//29 238//29
f 193//30 194//30 225//30
f 220//31 221//31 253//31
f 208//32 240//32 239//32
f 194//33 195//33 227//33
f 221//34 222//34 254//34
