# Blender 3.5.0
# www.blender.org
o marker_14_vis
v -0.040032 0.045069 -0.100583
v -0.039049 0.044972 -0.100583
v -0.038104 0.044686 -0.100583
v -0.037233 0.044220 -0.100583
v -0.036469 0.043594 -0.100583
v -0.035843 0.042830 -0.100583
v -0.035377 0.041959 -0.100583
v -0.035091 0.041014 -0.100583
v -0.034994 0.040032 -0.100583
v -0.035091 0.039049 -0.100583
v -0.035377 0.038104 -0.100583
v -0.035843 0.037233 -0.100583
v -0.036469 0.036469 -0.100583
v -0.037233 0.035843 -0.100583
v -0.038104 0.035377 -0.100583
v -0.039049 0.035091 -0.100583
v -0.040032 0.034994 -0.100583
v -0.041014 0.035091 -0.100583
v -0.041959 0.035377 -0.100583
v -0.042830 0.035843 -0.100583
v -0.043594 0.036469 -0.100583
v -0.044220 0.037233 -0.100583
v -0.044686 0.038104 -0.100583
v -0.044972 0.039049 -0.100583
v -0.045069 0.040032 -0.100583
v -0.044972 0.041014 -0.100583
v -0.044686 0.041959 -0.100583
v -0.044220 0.042830 -0.100583
v -0.043594 0.043594 -0.100583
v -0.042830 0.044220 -0.100583
v -0.041959 0.044686 -0.100583
v -0.041014 0.044972 -0.100583
v -0.039049 0.044972 -0.104105
v -0.040032 0.045069 -0.104105
v -0.038104 0.044686 -0.104105
v -0.037233 0.044220 -0.104105
v -0.036469 0.043594 -0.104105
v -0.035843 0.042830 -0.104105
v -0.035377 0.041959 -0.104105
v -0.035091 0.041014 -0.104105
v -0.034994 0.040032 -0.104105
v -0.035091 0.039049 -0.104105
v -0.035377 0.038104 -0.104105
v -0.035843 0.037233 -0.104105
v -0.036469 0.036469 -0.104105
v -0.037233 0.035843 -0.104105
v -0.038104 0.035377 -0.104105
v -0.039049 0.035091 -0.104105
v -0.040032 0.034994 -0.104105
v -0.041014 0.035091 -0.104105
v -0.041959 0.035377 -0.104105
v -0.042830 0.035843 -0.104105
v -0.043594 0.036469 -0.104105
v -0.044220 0.037233 -0.104105
v -0.044686 0.038104 -0.104105
v -0.044972 0.039049 -0.104105
v -0.045069 0.040032 -0.104105
v -0.044972 0.041014 -0.104105
v -0.044686 0.041959 -0.104105
v -0.044220 0.042830 -0.104105
v -0.043594 0.043594 -0.104105
v -0.042830 0.044220 -0.104105
v -0.041959 0.044686 -0.104105
v -0.041014 0.044972 -0.104105
v 0.039917 0.045069 -0.100583
v 0.040900 0.044972 -0.100583
v 0.041845 0.044686 -0.100583
v 0.042716 0.044220 -0.100583
v 0.043479 0.043594 -0.100583
v 0.044105 0.042830 -0.100583
v 0.044571 0.041959 -0.100583
v 0.044858 0.041014 -0.100583
v 0.044954 0.040032 -0.100583
v 0.044858 0.039049 -0.100583
v 0.044571 0.038104 -0.100583
v 0.044105 0.037233 -0.100583
v 0.043479 0.036469 -0.100583
v 0.042716 0.035843 -0.100583
v 0.041845 0.035377 -0.100583
v 0.040900 0.035091 -0.100583
v 0.039917 0.034994 -0.100583
v 0.038934 0.035091 -0.100583
v 0.037989 0.035377 -0.100583
v 0.037118 0.035843 -0.100583
v 0.036355 0.036469 -0.100583
v 0.035728 0.037233 -0.100583
v 0.035263 0.038104 -0.100583
v 0.034976 0.039049 -0.100583
v 0.034879 0.040032 -0.100583
v 0.034976 0.041014 -0.100583
v 0.035263 0.041959 -0.100583
v 0.035728 0.042830 -0.100583
v 0.036355 0.043594 -0.100583
v 0.037118 0.044220 -0.100583
v 0.037989 0.044686 -0.100583
v 0.038934 0.044972 -0.100583
v 0.040900 0.044972 -0.104105
v 0.039917 0.045069 -0.104105
v 0.041845 0.044686 -0.104105
v 0.042716 0.044220 -0.104105
v 0.043479 0.043594 -0.104105
v 0.044105 0.042830 -0.104105
v 0.044571 0.041959 -0.104105
v 0.044858 0.041014 -0.104105
v 0.044954 0.040032 -0.104105
v 0.044858 0.039049 -0.104105
v 0.044571 0.038104 -0.104105
v 0.044105 0.037233 -0.104105
v 0.043479 0.036469 -0.104105
v 0.042716 0.035843 -0.104105
v 0.041845 0.035377 -0.104105
v 0.040900 0.035091 -0.104105
v 0.039917 0.034994 -0.104105
v 0.038934 0.035091 -0.104105
v 0.037989 0.035377 -0.104105
v 0.037118 0.035843 -0.104105
v 0.036355 0.036469 -0.104105
v 0.035728 0.037233 -0.104105
v 0.035263 0.038104 -0.104105
v 0.034976 0.039049 -0.104105
v 0.034879 0.040032 -0.104105
v 0.034976 0.041014 -0.104105
v 0.035263 0.041959 -0.104105
v 0.035728 0.042830 -0.104105
v 0.036355 0.043594 -0.104105
v 0.037118 0.044220 -0.104105
v 0.037989 0.044686 -0.104105
v 0.038934 0.044972 -0.104105
v 0.039917 -0.034930 -0.100583
v 0.040900 -0.035027 -0.100583
v 0.041845 -0.035314 -0.100583
v 0.042716 -0.035779 -0.100583
v 0.043479 -0.036406 -0.100583
v 0.044105 -0.037169 -0.100583
v 0.044571 -0.038040 -0.100583
v 0.044858 -0.038985 -0.100583
v 0.044954 -0.039968 -0.100583
v 0.044858 -0.040950 -0.100583
v 0.044571 -0.041895 -0.100583
v 0.044105 -0.042766 -0.100583
v 0.043479 -0.043530 -0.100583
v 0.042716 -0.044156 -0.100583
v 0.041845 -0.044622 -0.100583
v 0.040900 -0.044908 -0.100583
v 0.039917 -0.045005 -0.100583
v 0.038934 -0.044908 -0.100583
v 0.037989 -0.044622 -0.100583
v 0.037118 -0.044156 -0.100583
v 0.036355 -0.043530 -0.100583
v 0.035728 -0.042766 -0.100583
v 0.035263 -0.041895 -0.100583
v 0.034976 -0.040950 -0.100583
v 0.034879 -0.039968 -0.100583
v 0.034976 -0.038985 -0.100583
v 0.035263 -0.038040 -0.100583
v 0.035728 -0.037169 -0.100583
v 0.036355 -0.036406 -0.100583
v 0.037118 -0.035779 -0.100583
v 0.037989 -0.035314 -0.100583
v 0.038934 -0.035027 -0.100583
v 0.040900 -0.035027 -0.104105
v 0.039917 -0.034930 -0.104105
v 0.041845 -0.035314 -0.104105
v 0.042716 -0.035779 -0.104105
v 0.043479 -0.036406 -0.104105
v 0.044105 -0.037169 -0.104105
v 0.044571 -0.038040 -0.104105
v 0.044858 -0.038985 -0.104105
v 0.044954 -0.039968 -0.104105
v 0.044858 -0.040950 -0.104105
v 0.044571 -0.041895 -0.104105
v 0.044105 -0.042766 -0.104105
v 0.043479 -0.043530 -0.104105
v 0.042716 -0.044156 -0.104105
v 0.041845 -0.044622 -0.104105
v 0.040900 -0.044908 -0.104105
v 0.039917 -0.045005 -0.104105
v 0.038934 -0.044908 -0.104105
v 0.037989 -0.044622 -0.104105
v 0.037118 -0.044156 -0.104105
v 0.036355 -0.043530 -0.104105
v 0.035728 -0.042766 -0.104105
v 0.035263 -0.041895 -0.104105
v 0.034976 -0.040950 -0.104105
v 0.034879 -0.039968 -0.104105
v 0.034976 -0.038985 -0.104105
v 0.035263 -0.038040 -0.104105
v 0.035728 -0.037169 -0.104105
v 0.036355 -0.036406 -0.104105
v 0.037118 -0.035779 -0.104105
v 0.037989 -0.035314 -0.104105
v 0.038934 -0.035027 -0.104105
v -0.040018 -0.034930 -0.100583
v -0.039035 -0.035027 -0.100583
v -0.038090 -0.035314 -0.100583
v -0.037220 -0.035779 -0.100583
v -0.036456 -0.036406 -0.100583
v -0.035830 -0.037169 -0.100583
v -0.035364 -0.038040 -0.100583
v -0.035077 -0.038985 -0.100583
v -0.034981 -0.039968 -0.100583
v -0.035077 -0.040950 -0.100583
v -0.035364 -0.041895 -0.100583
v -0.035830 -0.042766 -0.100583
v -0.036456 -0.043530 -0.100583
v -0.037220 -0.044156 -0.100583
v -0.038090 -0.044622 -0.100583
v -0.039035 -0.044908 -0.100583
v -0.040018 -0.045005 -0.100583
v -0.041001 -0.044908 -0.100583
v -0.041946 -0.044622 -0.100583
v -0.042817 -0.044156 -0.100583
v -0.043580 -0.043530 -0.100583
v -0.044207 -0.042766 -0.100583
v -0.044672 -0.041895 -0.100583
v -0.044959 -0.040950 -0.100583
v -0.045056 -0.039968 -0.100583
v -0.044959 -0.038985 -0.100583
v -0.044672 -0.038040 -0.100583
v -0.044207 -0.037169 -0.100583
v -0.043580 -0.036406 -0.100583
v -0.042817 -0.035779 -0.100583
v -0.041946 -0.035314 -0.100583
v -0.041001 -0.035027 -0.100583
v -0.039035 -0.035027 -0.104105
v -0.040018 -0.034930 -0.104105
v -0.038090 -0.035314 -0.104105
v -0.037220 -0.035779 -0.104105
v -0.036456 -0.036406 -0.104105
v -0.035830 -0.037169 -0.104105
v -0.035364 -0.038040 -0.104105
v -0.035078 -0.038985 -0.104105
v -0.034981 -0.039968 -0.104105
v -0.035078 -0.040950 -0.104105
v -0.035364 -0.041895 -0.104105
v -0.035830 -0.042766 -0.104105
v -0.036456 -0.043530 -0.104105
v -0.037220 -0.044156 -0.104105
v -0.038090 -0.044622 -0.104105
v -0.039035 -0.044908 -0.104105
v -0.040018 -0.045005 -0.104105
v -0.041001 -0.044908 -0.104105
v -0.041946 -0.044622 -0.104105
v -0.042817 -0.044156 -0.104105
v -0.043580 -0.043530 -0.104105
v -0.044207 -0.042766 -0.104105
v -0.044672 -0.041895 -0.104105
v -0.044959 -0.040950 -0.104105
v -0.045056 -0.039968 -0.104105
v -0.044959 -0.038985 -0.104105
v -0.044672 -0.038040 -0.104105
v -0.044207 -0.037169 -0.104105
v -0.043580 -0.036406 -0.104105
v -0.042817 -0.035779 -0.104105
v -0.041946 -0.035314 -0.104105
v -0.041001 -0.035027 -0.104105
v -0.045532 -0.045670 -0.096222
v -0.050241 -0.045670 -0.096222
v -0.050241 -0.049963 -0.096222
v -0.045532 -0.049963 -0.096222
v -0.045532 -0.049963 -0.104222
v -0.050241 -0.049963 -0.104222
v -0.050241 0.045464 -0.104222
v -0.050241 0.045464 -0.096222
v -0.050241 0.050037 -0.096222
v -0.050241 0.050037 -0.104222
v 0.045214 -0.045670 -0.104222
v 0.049759 -0.045670 -0.104222
v 0.049759 -0.049963 -0.104222
v 0.045214 -0.049963 -0.104222
v 0.049759 -0.045670 -0.096222
v 0.049759 -0.049963 -0.096222
v 0.045214 0.050037 -0.104222
v 0.045214 0.050037 -0.096222
v 0.049759 0.050037 -0.096222
v 0.049759 0.050037 -0.104222
v -0.034865 0.050037 -0.104222
v -0.034865 0.050037 -0.096222
v -0.033574 0.050037 -0.096222
v -0.033574 0.050037 -0.104222
v -0.016908 0.050037 -0.096222
v -0.016908 0.050037 -0.104222
v -0.000241 0.050037 -0.096222
v -0.000241 0.050037 -0.104222
v 0.016426 0.050037 -0.096222
v 0.016426 0.050037 -0.104222
v 0.033092 0.050037 -0.096222
v 0.033092 0.050037 -0.104222
v -0.034865 -0.045670 -0.104222
v -0.033574 -0.045670 -0.104222
v -0.033574 -0.049963 -0.104222
v -0.034865 -0.049963 -0.104222
v -0.016908 -0.045670 -0.104222
v -0.016908 -0.049963 -0.104222
v -0.000241 -0.045670 -0.104222
v -0.000241 -0.049963 -0.104222
v 0.016426 -0.045670 -0.104222
v 0.016426 -0.049963 -0.104222
v 0.033092 -0.045670 -0.104222
v 0.033092 -0.049963 -0.104222
v 0.034271 -0.049963 -0.104222
v 0.034271 -0.049963 -0.096222
v 0.033092 -0.049963 -0.096222
v 0.016426 -0.049963 -0.096222
v -0.000241 -0.049963 -0.096222
v -0.016908 -0.049963 -0.096222
v -0.033574 -0.049963 -0.096222
v 0.034271 -0.045670 -0.096222
v 0.033092 -0.045670 -0.096222
v 0.016426 -0.045670 -0.096222
v -0.000241 -0.045670 -0.096222
v -0.016908 -0.045670 -0.096222
v -0.033574 -0.045670 -0.096222
v -0.016908 0.034688 -0.096222
v -0.033574 0.034688 -0.096222
v -0.033574 0.033370 -0.096222
v -0.016908 0.033370 -0.096222
v -0.016908 0.016704 -0.096222
v -0.033574 0.016704 -0.096222
v -0.033574 0.000037 -0.096222
v -0.016908 0.000037 -0.096222
v -0.033574 -0.016630 -0.096222
v -0.016908 -0.016630 -0.096222
v -0.000241 0.034688 -0.096222
v -0.000241 0.033370 -0.096222
v 0.016426 0.016704 -0.096222
v 0.016426 0.000037 -0.096222
v 0.016426 0.000037 -0.104222
v 0.016426 0.016704 -0.104222
v -0.033574 0.016704 -0.104222
v -0.033574 0.033370 -0.104222
v -0.016908 0.000037 -0.104222
v -0.016908 0.016704 -0.104222
v 0.016426 0.034688 -0.096222
v 0.016426 0.033370 -0.096222
v -0.000241 0.016704 -0.096222
v -0.000241 0.000037 -0.096222
v -0.016908 0.033370 -0.104222
v -0.000241 0.033370 -0.104222
v 0.033092 0.034688 -0.096222
v 0.033092 0.033370 -0.096222
v 0.033092 0.016704 -0.096222
v -0.000241 0.016704 -0.104222
v -0.000241 0.000037 -0.104222
v 0.033092 0.000037 -0.096222
v 0.016426 -0.016630 -0.096222
v 0.033092 -0.016630 -0.096222
v 0.016426 -0.033296 -0.096222
v 0.033092 -0.033296 -0.096222
v 0.034271 0.034688 -0.096222
v 0.034271 0.033370 -0.096222
v 0.034271 0.016704 -0.096222
v 0.034271 0.000037 -0.096222
v 0.034271 -0.016630 -0.096222
v 0.034271 -0.033296 -0.096222
v 0.016426 0.034688 -0.104222
v 0.033092 0.034688 -0.104222
v 0.033092 0.033370 -0.104222
v 0.016426 0.033370 -0.104222
v 0.033092 0.016704 -0.104222
v 0.033092 0.000037 -0.104222
v 0.033092 -0.016630 -0.104222
v 0.016426 -0.016630 -0.104222
v 0.033092 -0.033296 -0.104222
v 0.016426 -0.033296 -0.104222
v -0.000241 0.034688 -0.104222
v -0.016908 0.034688 -0.104222
v -0.033574 0.034688 -0.104222
v -0.033574 0.000037 -0.104222
v -0.016908 -0.016630 -0.104222
v -0.033574 -0.016630 -0.104222
v -0.034865 0.034688 -0.104222
v -0.034865 0.033370 -0.104222
v -0.034865 0.016704 -0.104222
v -0.034865 0.000037 -0.104222
v -0.034865 -0.016630 -0.104222
v -0.033574 -0.033296 -0.104222
v -0.034865 -0.033296 -0.104222
v 0.049759 0.034688 -0.104222
v 0.049759 0.034688 -0.096222
v 0.049759 0.033370 -0.096222
v 0.049759 0.033370 -0.104222
v 0.049759 0.016704 -0.096222
v 0.049759 0.016704 -0.104222
v 0.049759 0.000037 -0.096222
v 0.049759 0.000037 -0.104222
v 0.049759 -0.016630 -0.096222
v 0.049759 -0.016630 -0.104222
v 0.049759 -0.033296 -0.096222
v 0.049759 -0.033296 -0.104222
v 0.045214 0.034688 -0.104222
v 0.045214 0.033370 -0.104222
v 0.045214 0.016704 -0.104222
v 0.045214 0.000037 -0.104222
v 0.045214 -0.016630 -0.104222
v 0.045214 -0.033296 -0.104222
v -0.050241 -0.034483 -0.104222
v -0.050241 -0.034483 -0.096222
v -0.050241 -0.033296 -0.096222
v -0.050241 -0.033296 -0.104222
v -0.050241 -0.016630 -0.096222
v -0.050241 -0.016630 -0.104222
v -0.050241 0.000037 -0.096222
v -0.050241 0.000037 -0.104222
v -0.050241 0.016704 -0.096222
v -0.050241 0.016704 -0.104222
v -0.050241 0.033370 -0.096222
v -0.050241 0.033370 -0.104222
v -0.045532 0.034688 -0.096222
v -0.050241 0.034688 -0.096222
v -0.045532 0.033370 -0.096222
v -0.045532 0.016704 -0.096222
v -0.045532 0.000037 -0.096222
v -0.045532 -0.016630 -0.096222
v -0.045532 -0.033296 -0.096222
v -0.034865 -0.016630 -0.096222
v -0.034865 -0.033296 -0.096222
v -0.034865 0.000037 -0.096222
v -0.034865 0.016704 -0.096222
v -0.034865 0.033370 -0.096222
v -0.034865 0.034688 -0.096222
v -0.045532 -0.016630 -0.104222
v -0.045532 -0.033296 -0.104222
v -0.045532 0.000037 -0.104222
v -0.045532 0.016704 -0.104222
v -0.045532 0.033370 -0.104222
v -0.050241 0.034688 -0.104222
v -0.045532 0.034688 -0.104222
v -0.050241 -0.045670 -0.104222
v -0.045532 -0.045670 -0.104222
v -0.045532 0.050037 -0.096222
v -0.045532 0.050037 -0.104222
v -0.034865 -0.049963 -0.096222
v -0.034865 -0.045670 -0.096222
v -0.033574 -0.033296 -0.096222
v -0.034865 0.045464 -0.104222
v -0.045532 0.045464 -0.104222
v -0.034865 0.045464 -0.096222
v -0.033574 0.045464 -0.096222
v -0.045532 0.045464 -0.096222
v 0.049759 0.045464 -0.104222
v 0.045214 0.045464 -0.104222
v 0.049759 0.045464 -0.096222
v -0.033574 0.045464 -0.104222
v -0.016908 0.045464 -0.104222
v -0.000241 0.045464 -0.104222
v 0.016426 0.045464 -0.104222
v 0.033092 0.045464 -0.104222
v 0.034271 0.050037 -0.096222
v 0.033092 0.045464 -0.096222
v 0.034271 0.045464 -0.096222
v 0.016426 0.045464 -0.096222
v -0.000241 0.045464 -0.096222
v -0.016908 0.045464 -0.096222
v 0.045214 0.045464 -0.096222
v 0.045214 0.034688 -0.096222
v 0.034271 0.050037 -0.104222
v 0.034271 0.045464 -0.104222
v 0.034271 -0.016630 -0.104222
v 0.034271 -0.033296 -0.104222
v 0.034271 0.000037 -0.104222
v 0.034271 0.016704 -0.104222
v 0.034271 0.033370 -0.104222
v 0.034271 0.034688 -0.104222
v 0.045214 -0.016630 -0.096222
v 0.045214 -0.033296 -0.096222
v 0.045214 0.000037 -0.096222
v 0.045214 0.016704 -0.096222
v 0.045214 0.033370 -0.096222
v 0.045214 -0.045670 -0.096222
v 0.045214 -0.049963 -0.096222
v 0.034271 -0.045670 -0.104222
v 0.033092 -0.034483 -0.104222
v 0.034271 -0.034483 -0.104222
v 0.049759 -0.034483 -0.096222
v 0.045214 -0.034483 -0.096222
v -0.033574 -0.034483 -0.096222
v -0.034865 -0.034483 -0.096222
v -0.045532 -0.034483 -0.104222
v -0.016908 -0.034483 -0.096222
v -0.000241 -0.034483 -0.096222
v 0.016426 -0.034483 -0.096222
v 0.033092 -0.034483 -0.096222
v 0.034271 -0.034483 -0.096222
v 0.016426 -0.034483 -0.104222
v -0.000241 -0.034483 -0.104222
v -0.016908 -0.034483 -0.104222
v -0.033574 -0.034483 -0.104222
v -0.034865 -0.034483 -0.104222
v 0.049759 -0.034483 -0.104222
v 0.045214 -0.034483 -0.104222
v -0.045532 -0.034483 -0.096222
v -0.016908 -0.033296 -0.104222
v -0.000241 -0.033296 -0.104222
v -0.000241 -0.033296 -0.096222
v -0.016908 -0.033296 -0.096222
v -0.035942 0.037165 -0.096222
v -0.035465 0.038058 -0.096222
v -0.037857 0.039049 -0.096222
v -0.038095 0.038603 -0.096222
v -0.045411 0.040037 -0.096222
v -0.045312 0.039028 -0.096222
v -0.042772 0.039533 -0.096222
v -0.042822 0.040037 -0.096222
v -0.035170 0.039028 -0.096222
v -0.037710 0.039533 -0.096222
v -0.045017 0.038058 -0.096222
v -0.042625 0.039049 -0.096222
v -0.035071 0.040037 -0.096222
v -0.037660 0.040037 -0.096222
v -0.044540 0.037165 -0.096222
v -0.042387 0.038603 -0.096222
v -0.035170 0.041045 -0.096222
v -0.037710 0.040540 -0.096222
v -0.043897 0.036381 -0.096222
v -0.042066 0.038212 -0.096222
v -0.035465 0.042015 -0.096222
v -0.037857 0.041025 -0.096222
v -0.043113 0.035738 -0.096222
v -0.041675 0.037891 -0.096222
v -0.035942 0.042909 -0.096222
v -0.038095 0.041471 -0.096222
v -0.042219 0.035261 -0.096222
v -0.041229 0.037652 -0.096222
v -0.040241 0.045207 -0.096222
v -0.041250 0.045107 -0.096222
v -0.040745 0.042568 -0.096222
v -0.040241 0.042618 -0.096222
v -0.036585 0.043693 -0.096222
v -0.038416 0.041862 -0.096222
v -0.041250 0.034966 -0.096222
v -0.040745 0.037506 -0.096222
v -0.042219 0.044813 -0.096222
v -0.041229 0.042421 -0.096222
v -0.037369 0.044335 -0.096222
v -0.038807 0.042183 -0.096222
v -0.040241 0.034867 -0.096222
v -0.040241 0.037456 -0.096222
v -0.043113 0.044335 -0.096222
v -0.041675 0.042183 -0.096222
v -0.038263 0.044813 -0.096222
v -0.039253 0.042421 -0.096222
v -0.039232 0.034966 -0.096222
v -0.039737 0.037506 -0.096222
v -0.043897 0.043693 -0.096222
v -0.042066 0.041862 -0.096222
v -0.039232 0.045107 -0.096222
v -0.039737 0.042568 -0.096222
v -0.038263 0.035261 -0.096222
v -0.039253 0.037652 -0.096222
v -0.044540 0.042909 -0.096222
v -0.042387 0.041471 -0.096222
v -0.037369 0.035738 -0.096222
v -0.038807 0.037891 -0.096222
v -0.045017 0.042015 -0.096222
v -0.042625 0.041025 -0.096222
v -0.036585 0.036381 -0.096222
v -0.038416 0.038212 -0.096222
v -0.045312 0.041045 -0.096222
v -0.042772 0.040540 -0.096222
v 0.044058 0.037165 -0.096222
v 0.044535 0.038058 -0.096222
v 0.042143 0.039049 -0.096222
v 0.041905 0.038603 -0.096222
v 0.034589 0.040037 -0.096222
v 0.034688 0.039028 -0.096222
v 0.037228 0.039533 -0.096222
v 0.037178 0.040037 -0.096222
v 0.044830 0.039028 -0.096222
v 0.042290 0.039533 -0.096222
v 0.034983 0.038058 -0.096222
v 0.037375 0.039049 -0.096222
v 0.044929 0.040037 -0.096222
v 0.042340 0.040037 -0.096222
v 0.035460 0.037165 -0.096222
v 0.037613 0.038603 -0.096222
v 0.044830 0.041045 -0.096222
v 0.042290 0.040540 -0.096222
v 0.036103 0.036381 -0.096222
v 0.037934 0.038212 -0.096222
v 0.044535 0.042015 -0.096222
v 0.042143 0.041025 -0.096222
v 0.036887 0.035738 -0.096222
v 0.038325 0.037891 -0.096222
v 0.044058 0.042909 -0.096222
v 0.041905 0.041471 -0.096222
v 0.037781 0.035261 -0.096222
v 0.038771 0.037652 -0.096222
v 0.039759 0.045207 -0.096222
v 0.038750 0.045107 -0.096222
v 0.039255 0.042568 -0.096222
v 0.039759 0.042618 -0.096222
v 0.043415 0.043693 -0.096222
v 0.041584 0.041862 -0.096222
v 0.038750 0.034966 -0.096222
v 0.039255 0.037506 -0.096222
v 0.037781 0.044813 -0.096222
v 0.038771 0.042421 -0.096222
v 0.042631 0.044335 -0.096222
v 0.041193 0.042183 -0.096222
v 0.039759 0.034867 -0.096222
v 0.039759 0.037456 -0.096222
v 0.036887 0.044335 -0.096222
v 0.038325 0.042183 -0.096222
v 0.041737 0.044813 -0.096222
v 0.040747 0.042421 -0.096222
v 0.040768 0.034966 -0.096222
v 0.040262 0.037506 -0.096222
v 0.036103 0.043693 -0.096222
v 0.037934 0.041862 -0.096222
v 0.040768 0.045107 -0.096222
v 0.040262 0.042568 -0.096222
v 0.041737 0.035261 -0.096222
v 0.040747 0.037652 -0.096222
v 0.035460 0.042909 -0.096222
v 0.037613 0.041471 -0.096222
v 0.042631 0.035738 -0.096222
v 0.041193 0.037891 -0.096222
v 0.034983 0.042015 -0.096222
v 0.037375 0.041025 -0.096222
v 0.043415 0.036381 -0.096222
v 0.041584 0.038212 -0.096222
v 0.034688 0.041045 -0.096222
v 0.037228 0.040540 -0.096222
v 0.044058 -0.042835 -0.096222
v 0.044535 -0.041942 -0.096222
v 0.042143 -0.040951 -0.096222
v 0.041905 -0.041397 -0.096222
v 0.034589 -0.039963 -0.096222
v 0.034688 -0.040972 -0.096222
v 0.037228 -0.040467 -0.096222
v 0.037178 -0.039963 -0.096222
v 0.044830 -0.040972 -0.096222
v 0.042290 -0.040467 -0.096222
v 0.034983 -0.041942 -0.096222
v 0.037375 -0.040951 -0.096222
v 0.044929 -0.039963 -0.096222
v 0.042340 -0.039963 -0.096222
v 0.035460 -0.042835 -0.096222
v 0.037613 -0.041397 -0.096222
v 0.044830 -0.038955 -0.096222
v 0.042290 -0.039460 -0.096222
v 0.036103 -0.043619 -0.096222
v 0.037934 -0.041788 -0.096222
v 0.044535 -0.037985 -0.096222
v 0.042143 -0.038975 -0.096222
v 0.036887 -0.044262 -0.096222
v 0.038325 -0.042109 -0.096222
v 0.044058 -0.037091 -0.096222
v 0.041905 -0.038529 -0.096222
v 0.037781 -0.044739 -0.096222
v 0.038771 -0.042348 -0.096222
v 0.039759 -0.034793 -0.096222
v 0.038750 -0.034893 -0.096222
v 0.039255 -0.037432 -0.096222
v 0.039759 -0.037382 -0.096222
v 0.043415 -0.036307 -0.096222
v 0.041584 -0.038138 -0.096222
v 0.038750 -0.045034 -0.096222
v 0.039255 -0.042494 -0.096222
v 0.037781 -0.035187 -0.096222
v 0.038771 -0.037579 -0.096222
v 0.042631 -0.035665 -0.096222
v 0.041193 -0.037817 -0.096222
v 0.039759 -0.045133 -0.096222
v 0.039759 -0.042544 -0.096222
v 0.036887 -0.035665 -0.096222
v 0.038325 -0.037817 -0.096222
v 0.041737 -0.035187 -0.096222
v 0.040747 -0.037579 -0.096222
v 0.040768 -0.045034 -0.096222
v 0.040262 -0.042494 -0.096222
v 0.036103 -0.036307 -0.096222
v 0.037934 -0.038138 -0.096222
v 0.040768 -0.034893 -0.096222
v 0.040262 -0.037432 -0.096222
v 0.041737 -0.044739 -0.096222
v 0.040747 -0.042348 -0.096222
v 0.035460 -0.037091 -0.096222
v 0.037613 -0.038529 -0.096222
v 0.042631 -0.044262 -0.096222
v 0.041193 -0.042109 -0.096222
v 0.034983 -0.037985 -0.096222
v 0.037375 -0.038975 -0.096222
v 0.043415 -0.043619 -0.096222
v 0.041584 -0.041788 -0.096222
v 0.034688 -0.038955 -0.096222
v 0.037228 -0.039460 -0.096222
v -0.035942 -0.042835 -0.096222
v -0.035465 -0.041942 -0.096222
v -0.037857 -0.040951 -0.096222
v -0.038095 -0.041397 -0.096222
v -0.045411 -0.039963 -0.096222
v -0.045312 -0.040972 -0.096222
v -0.042772 -0.040467 -0.096222
v -0.042822 -0.039963 -0.096222
v -0.035170 -0.040972 -0.096222
v -0.037710 -0.040467 -0.096222
v -0.045017 -0.041942 -0.096222
v -0.042625 -0.040951 -0.096222
v -0.035071 -0.039963 -0.096222
v -0.037660 -0.039963 -0.096222
v -0.044540 -0.042835 -0.096222
v -0.042387 -0.041397 -0.096222
v -0.035170 -0.038955 -0.096222
v -0.037710 -0.039460 -0.096222
v -0.043897 -0.043619 -0.096222
v -0.042066 -0.041788 -0.096222
v -0.035465 -0.037985 -0.096222
v -0.037857 -0.038975 -0.096222
v -0.043113 -0.044262 -0.096222
v -0.041675 -0.042109 -0.096222
v -0.035942 -0.037091 -0.096222
v -0.038095 -0.038529 -0.096222
v -0.042219 -0.044739 -0.096222
v -0.041229 -0.042348 -0.096222
v -0.040241 -0.034793 -0.096222
v -0.041250 -0.034893 -0.096222
v -0.040745 -0.037432 -0.096222
v -0.040241 -0.037382 -0.096222
v -0.036585 -0.036307 -0.096222
v -0.038416 -0.038138 -0.096222
v -0.041250 -0.045034 -0.096222
v -0.040745 -0.042494 -0.096222
v -0.042219 -0.035187 -0.096222
v -0.041229 -0.037579 -0.096222
v -0.037369 -0.035665 -0.096222
v -0.038807 -0.037817 -0.096222
v -0.040241 -0.045133 -0.096222
v -0.040241 -0.042544 -0.096222
v -0.043113 -0.035665 -0.096222
v -0.041675 -0.037817 -0.096222
v -0.038263 -0.035187 -0.096222
v -0.039253 -0.037579 -0.096222
v -0.039232 -0.045034 -0.096222
v -0.039737 -0.042494 -0.096222
v -0.043897 -0.036307 -0.096222
v -0.042066 -0.038138 -0.096222
v -0.039232 -0.034893 -0.096222
v -0.039737 -0.037432 -0.096222
v -0.038263 -0.044739 -0.096222
v -0.039253 -0.042348 -0.096222
v -0.044540 -0.037091 -0.096222
v -0.042387 -0.038529 -0.096222
v -0.037369 -0.044262 -0.096222
v -0.038807 -0.042109 -0.096222
v -0.045017 -0.037985 -0.096222
v -0.042625 -0.038975 -0.096222
v -0.036585 -0.043619 -0.096222
v -0.038416 -0.041788 -0.096222
v -0.045312 -0.038955 -0.096222
v -0.042772 -0.039460 -0.096222
v 0.039759 -0.045133 -0.104222
v 0.038750 -0.045034 -0.104222
v 0.040768 -0.045034 -0.104222
v 0.037781 -0.044739 -0.104222
v 0.044058 0.037165 -0.100222
v 0.041905 0.038603 -0.100222
v 0.042143 0.039049 -0.100222
v 0.044535 0.038058 -0.100222
v 0.034589 0.040037 -0.100222
v 0.037178 0.040037 -0.100222
v 0.037228 0.039533 -0.100222
v 0.034688 0.039028 -0.100222
v 0.042290 0.039533 -0.100222
v 0.044830 0.039028 -0.100222
v 0.037375 0.039049 -0.100222
v 0.034983 0.038058 -0.100222
v 0.042340 0.040037 -0.100222
v 0.044929 0.040037 -0.100222
v 0.037613 0.038603 -0.100222
v 0.035460 0.037165 -0.100222
v 0.042290 0.040540 -0.100222
v 0.044830 0.041045 -0.100222
v 0.037934 0.038212 -0.100222
v 0.036103 0.036381 -0.100222
v 0.042143 0.041025 -0.100222
v 0.044535 0.042015 -0.100222
v 0.038325 0.037891 -0.100222
v 0.036887 0.035738 -0.100222
v 0.041905 0.041471 -0.100222
v 0.044058 0.042909 -0.100222
v 0.038771 0.037652 -0.100222
v 0.037781 0.035261 -0.100222
v 0.039759 0.045207 -0.100222
v 0.039759 0.042618 -0.100222
v 0.039255 0.042568 -0.100222
v 0.038750 0.045107 -0.100222
v 0.041584 0.041862 -0.100222
v 0.043415 0.043693 -0.100222
v 0.039255 0.037506 -0.100222
v 0.038750 0.034966 -0.100222
v 0.038771 0.042421 -0.100222
v 0.037781 0.044813 -0.100222
v 0.041193 0.042183 -0.100222
v 0.042631 0.044335 -0.100222
v 0.039759 0.037456 -0.100222
v 0.039759 0.034867 -0.100222
v 0.038325 0.042183 -0.100222
v 0.036887 0.044335 -0.100222
v 0.040747 0.042421 -0.100222
v 0.041737 0.044813 -0.100222
v 0.040262 0.037506 -0.100222
v 0.040768 0.034966 -0.100222
v 0.037934 0.041862 -0.100222
v 0.036103 0.043693 -0.100222
v 0.040262 0.042568 -0.100222
v 0.040768 0.045107 -0.100222
v 0.040747 0.037652 -0.100222
v 0.041737 0.035261 -0.100222
v 0.037613 0.041471 -0.100222
v 0.035460 0.042909 -0.100222
v 0.041193 0.037891 -0.100222
v 0.042631 0.035738 -0.100222
v 0.037375 0.041025 -0.100222
v 0.034983 0.042015 -0.100222
v 0.041584 0.038212 -0.100222
v 0.043415 0.036381 -0.100222
v 0.037228 0.040540 -0.100222
v 0.034688 0.041045 -0.100222
v 0.036103 0.043693 -0.104222
v 0.035460 0.042909 -0.104222
v 0.040768 0.045107 -0.104222
v 0.039759 0.045207 -0.104222
v 0.034983 0.042015 -0.104222
v 0.034688 0.041045 -0.104222
v 0.034589 0.040037 -0.104222
v 0.034688 0.039028 -0.104222
v 0.034983 0.038058 -0.104222
v 0.035460 0.037165 -0.104222
v 0.036103 0.036381 -0.104222
v 0.036887 0.035738 -0.104222
v 0.037781 0.035261 -0.104222
v 0.038750 0.034966 -0.104222
v 0.039759 0.034867 -0.104222
v 0.040768 0.034966 -0.104222
v 0.041737 0.035261 -0.104222
v 0.042631 0.035738 -0.104222
v 0.043415 0.036381 -0.104222
v 0.044058 0.037165 -0.104222
v 0.044535 0.038058 -0.104222
v 0.044830 0.039028 -0.104222
v 0.044929 0.040037 -0.104222
v 0.044830 0.041045 -0.104222
v 0.044535 0.042015 -0.104222
v 0.044058 0.042909 -0.104222
v 0.038750 0.045107 -0.104222
v 0.043415 0.043693 -0.104222
v 0.037781 0.044813 -0.104222
v 0.042631 0.044335 -0.104222
v 0.036887 0.044335 -0.104222
v 0.041737 0.044813 -0.104222
v -0.035942 0.037165 -0.100222
v -0.038095 0.038603 -0.100222
v -0.037857 0.039049 -0.100222
v -0.035465 0.038058 -0.100222
v -0.045411 0.040037 -0.100222
v -0.042822 0.040037 -0.100222
v -0.042772 0.039533 -0.100222
v -0.045312 0.039028 -0.100222
v -0.037710 0.039533 -0.100222
v -0.035170 0.039028 -0.100222
v -0.042625 0.039049 -0.100222
v -0.045017 0.038058 -0.100222
v -0.037660 0.040037 -0.100222
v -0.035071 0.040037 -0.100222
v -0.042387 0.038603 -0.100222
v -0.044540 0.037165 -0.100222
v -0.037710 0.040540 -0.100222
v -0.035170 0.041045 -0.100222
v -0.042066 0.038212 -0.100222
v -0.043897 0.036381 -0.100222
v -0.037857 0.041025 -0.100222
v -0.035465 0.042015 -0.100222
v -0.041675 0.037891 -0.100222
v -0.043113 0.035738 -0.100222
v -0.038095 0.041471 -0.100222
v -0.035942 0.042909 -0.100222
v -0.041229 0.037652 -0.100222
v -0.042219 0.035261 -0.100222
v -0.040241 0.045207 -0.100222
v -0.040241 0.042618 -0.100222
v -0.040745 0.042568 -0.100222
v -0.041250 0.045107 -0.100222
v -0.038416 0.041862 -0.100222
v -0.036585 0.043693 -0.100222
v -0.040745 0.037506 -0.100222
v -0.041250 0.034966 -0.100222
v -0.041229 0.042421 -0.100222
v -0.042219 0.044813 -0.100222
v -0.038807 0.042183 -0.100222
v -0.037369 0.044335 -0.100222
v -0.040241 0.037456 -0.100222
v -0.040241 0.034867 -0.100222
v -0.041675 0.042183 -0.100222
v -0.043113 0.044335 -0.100222
v -0.039253 0.042421 -0.100222
v -0.038263 0.044813 -0.100222
v -0.039737 0.037506 -0.100222
v -0.039232 0.034966 -0.100222
v -0.042066 0.041862 -0.100222
v -0.043897 0.043693 -0.100222
v -0.039737 0.042568 -0.100222
v -0.039232 0.045107 -0.100222
v -0.039253 0.037652 -0.100222
v -0.038263 0.035261 -0.100222
v -0.042387 0.041471 -0.100222
v -0.044540 0.042909 -0.100222
v -0.038807 0.037891 -0.100222
v -0.037369 0.035738 -0.100222
v -0.042625 0.041025 -0.100222
v -0.045017 0.042015 -0.100222
v -0.038416 0.038212 -0.100222
v -0.036585 0.036381 -0.100222
v -0.042772 0.040540 -0.100222
v -0.045312 0.041045 -0.100222
v -0.035942 -0.042835 -0.100222
v -0.038095 -0.041397 -0.100222
v -0.037857 -0.040951 -0.100222
v -0.035465 -0.041942 -0.100222
v -0.045411 -0.039963 -0.100222
v -0.042822 -0.039963 -0.100222
v -0.042772 -0.040467 -0.100222
v -0.045312 -0.040972 -0.100222
v -0.037710 -0.040467 -0.100222
v -0.035170 -0.040972 -0.100222
v -0.042625 -0.040951 -0.100222
v -0.045017 -0.041942 -0.100222
v -0.037660 -0.039963 -0.100222
v -0.035071 -0.039963 -0.100222
v -0.042387 -0.041397 -0.100222
v -0.044540 -0.042835 -0.100222
v -0.037710 -0.039460 -0.100222
v -0.035170 -0.038955 -0.100222
v -0.042066 -0.041788 -0.100222
v -0.043897 -0.043619 -0.100222
v -0.037857 -0.038975 -0.100222
v -0.035465 -0.037985 -0.100222
v -0.041675 -0.042109 -0.100222
v -0.043113 -0.044262 -0.100222
v -0.038095 -0.038529 -0.100222
v -0.035942 -0.037091 -0.100222
v -0.041229 -0.042348 -0.100222
v -0.042219 -0.044739 -0.100222
v -0.040241 -0.034793 -0.100222
v -0.040241 -0.037382 -0.100222
v -0.040745 -0.037432 -0.100222
v -0.041250 -0.034893 -0.100222
v -0.038416 -0.038138 -0.100222
v -0.036585 -0.036307 -0.100222
v -0.040745 -0.042494 -0.100222
v -0.041250 -0.045034 -0.100222
v -0.041229 -0.037579 -0.100222
v -0.042219 -0.035187 -0.100222
v -0.038807 -0.037817 -0.100222
v -0.037369 -0.035665 -0.100222
v -0.040241 -0.042544 -0.100222
v -0.040241 -0.045133 -0.100222
v -0.041675 -0.037817 -0.100222
v -0.043113 -0.035665 -0.100222
v -0.039253 -0.037579 -0.100222
v -0.038263 -0.035187 -0.100222
v -0.039737 -0.042494 -0.100222
v -0.039232 -0.045034 -0.100222
v -0.042066 -0.038138 -0.100222
v -0.043897 -0.036307 -0.100222
v -0.039737 -0.037432 -0.100222
v -0.039232 -0.034893 -0.100222
v -0.039253 -0.042348 -0.100222
v -0.038263 -0.044739 -0.100222
v -0.042387 -0.038529 -0.100222
v -0.044540 -0.037091 -0.100222
v -0.038807 -0.042109 -0.100222
v -0.037369 -0.044262 -0.100222
v -0.042625 -0.038975 -0.100222
v -0.045017 -0.037985 -0.100222
v -0.038416 -0.041788 -0.100222
v -0.036585 -0.043619 -0.100222
v -0.042772 -0.039460 -0.100222
v -0.045312 -0.038955 -0.100222
v 0.044058 -0.042835 -0.100222
v 0.041905 -0.041397 -0.100222
v 0.042143 -0.040951 -0.100222
v 0.044535 -0.041942 -0.100222
v 0.034589 -0.039963 -0.100222
v 0.037178 -0.039963 -0.100222
v 0.037228 -0.040467 -0.100222
v 0.034688 -0.040972 -0.100222
v 0.042290 -0.040467 -0.100222
v 0.044830 -0.040972 -0.100222
v 0.037375 -0.040951 -0.100222
v 0.034983 -0.041942 -0.100222
v 0.042340 -0.039963 -0.100222
v 0.044929 -0.039963 -0.100222
v 0.037613 -0.041397 -0.100222
v 0.035460 -0.042835 -0.100222
v 0.042290 -0.039460 -0.100222
v 0.044830 -0.038955 -0.100222
v 0.037934 -0.041788 -0.100222
v 0.036103 -0.043619 -0.100222
v 0.042143 -0.038975 -0.100222
v 0.044535 -0.037985 -0.100222
v 0.038325 -0.042109 -0.100222
v 0.036887 -0.044262 -0.100222
v 0.041905 -0.038529 -0.100222
v 0.044058 -0.037091 -0.100222
v 0.038771 -0.042348 -0.100222
v 0.037781 -0.044739 -0.100222
v 0.039759 -0.034793 -0.100222
v 0.039759 -0.037382 -0.100222
v 0.039255 -0.037432 -0.100222
v 0.038750 -0.034893 -0.100222
v 0.041584 -0.038138 -0.100222
v 0.043415 -0.036307 -0.100222
v 0.039255 -0.042494 -0.100222
v 0.038750 -0.045034 -0.100222
v 0.038771 -0.037579 -0.100222
v 0.037781 -0.035187 -0.100222
v 0.041193 -0.037817 -0.100222
v 0.042631 -0.035665 -0.100222
v 0.039759 -0.042544 -0.100222
v 0.039759 -0.045133 -0.100222
v 0.038325 -0.037817 -0.100222
v 0.036887 -0.035665 -0.100222
v 0.040747 -0.037579 -0.100222
v 0.041737 -0.035187 -0.100222
v 0.040262 -0.042494 -0.100222
v 0.040768 -0.045034 -0.100222
v 0.037934 -0.038138 -0.100222
v 0.036103 -0.036307 -0.100222
v 0.040262 -0.037432 -0.100222
v 0.040768 -0.034893 -0.100222
v 0.040747 -0.042348 -0.100222
v 0.041737 -0.044739 -0.100222
v 0.037613 -0.038529 -0.100222
v 0.035460 -0.037091 -0.100222
v 0.041193 -0.042109 -0.100222
v 0.042631 -0.044262 -0.100222
v 0.037375 -0.038975 -0.100222
v 0.034983 -0.037985 -0.100222
v 0.041584 -0.041788 -0.100222
v 0.043415 -0.043619 -0.100222
v 0.037228 -0.039460 -0.100222
v 0.034688 -0.038955 -0.100222
v 0.041737 -0.044739 -0.104222
v 0.037781 -0.035187 -0.104222
v 0.036887 -0.035665 -0.104222
v 0.036887 -0.044262 -0.104222
v 0.036103 -0.036307 -0.104222
v 0.042631 -0.044262 -0.104222
v 0.035460 -0.037091 -0.104222
v 0.036103 -0.043619 -0.104222
v 0.034983 -0.037985 -0.104222
v 0.043415 -0.043619 -0.104222
v 0.034688 -0.038955 -0.104222
v 0.035460 -0.042835 -0.104222
v -0.040241 -0.034793 -0.104222
v -0.041250 -0.034893 -0.104222
v 0.034589 -0.039963 -0.104222
v 0.044058 -0.042835 -0.104222
v -0.042219 -0.035187 -0.104222
v 0.034688 -0.040972 -0.104222
v 0.034983 -0.041942 -0.104222
v -0.043113 -0.035665 -0.104222
v 0.044535 -0.041942 -0.104222
v -0.043897 -0.036307 -0.104222
v -0.044540 -0.037091 -0.104222
v 0.044830 -0.040972 -0.104222
v -0.045017 -0.037985 -0.104222
v -0.045312 -0.038955 -0.104222
v -0.040241 0.045207 -0.104222
v -0.041250 0.045107 -0.104222
v -0.045411 -0.039963 -0.104222
v -0.042219 0.044813 -0.104222
v -0.045312 -0.040972 -0.104222
v -0.043113 0.044335 -0.104222
v -0.045017 -0.041942 -0.104222
v -0.043897 0.043693 -0.104222
v -0.044540 -0.042835 -0.104222
v -0.044540 0.042909 -0.104222
v -0.043897 -0.043619 -0.104222
v -0.045017 0.042015 -0.104222
v -0.043113 -0.044262 -0.104222
v -0.045312 0.041045 -0.104222
v -0.042219 -0.044739 -0.104222
v -0.045411 0.040037 -0.104222
v -0.041250 -0.045034 -0.104222
v -0.045312 0.039028 -0.104222
v -0.040241 -0.045133 -0.104222
v -0.045017 0.038058 -0.104222
v -0.039232 -0.045034 -0.104222
v 0.044929 -0.039963 -0.104222
v -0.044540 0.037165 -0.104222
v -0.038263 -0.044739 -0.104222
v 0.044830 -0.038955 -0.104222
v -0.043897 0.036381 -0.104222
v -0.037369 -0.044262 -0.104222
v 0.044535 -0.037985 -0.104222
v -0.043113 0.035738 -0.104222
v -0.036585 -0.043619 -0.104222
v 0.044058 -0.037091 -0.104222
v -0.042219 0.035261 -0.104222
v -0.035942 -0.042835 -0.104222
v 0.043415 -0.036307 -0.104222
v -0.041250 0.034966 -0.104222
v -0.035465 -0.041942 -0.104222
v 0.042631 -0.035665 -0.104222
v -0.040241 0.034867 -0.104222
v -0.035170 -0.040972 -0.104222
v 0.041737 -0.035187 -0.104222
v -0.039232 0.034966 -0.104222
v -0.035071 -0.039963 -0.104222
v 0.040768 -0.034893 -0.104222
v -0.038263 0.035261 -0.104222
v -0.035170 -0.038955 -0.104222
v 0.039759 -0.034793 -0.104222
v -0.037369 0.035738 -0.104222
v -0.035465 -0.037985 -0.104222
v -0.036585 0.036381 -0.104222
v -0.035942 -0.037091 -0.104222
v -0.035942 0.037165 -0.104222
v -0.036585 -0.036307 -0.104222
v -0.035465 0.038058 -0.104222
v -0.037369 -0.035665 -0.104222
v -0.035170 0.039028 -0.104222
v -0.038263 -0.035187 -0.104222
v -0.035071 0.040037 -0.104222
v -0.039232 -0.034893 -0.104222
v -0.035170 0.041045 -0.104222
v -0.035465 0.042015 -0.104222
v -0.035942 0.042909 -0.104222
v -0.036585 0.043693 -0.104222
v 0.038750 -0.034893 -0.104222
v -0.037369 0.044335 -0.104222
v -0.038263 0.044813 -0.104222
v -0.039232 0.045107 -0.104222
v -0.000241 -0.016630 -0.104222
v -0.000241 -0.016630 -0.096222
vn -0.0000 -0.0000 1.0000
vn -0.0000 -0.0000 -1.0000
vn 0.0980 -0.9952 -0.0000
vn 0.4714 0.8819 -0.0000
vn -0.4714 0.8819 -0.0000
vn -0.0980 -0.9952 -0.0000
vn 0.6344 0.7730 -0.0000
vn -0.2903 0.9569 -0.0000
vn -0.2903 -0.9569 -0.0000
vn 0.7730 0.6344 -0.0000
vn -0.0980 0.9952 -0.0000
vn -0.4714 -0.8819 -0.0000
vn 0.8819 0.4714 -0.0000
vn -0.6344 -0.7730 -0.0000
vn 0.9569 0.2903 -0.0000
vn -0.7730 -0.6344 -0.0000
vn 0.9952 0.0980 -0.0000
vn -0.8819 -0.4714 -0.0000
vn 0.9952 -0.0980 -0.0000
vn -0.9569 -0.2903 -0.0000
vn 0.9569 -0.2903 -0.0000
vn -0.9952 -0.0980 -0.0000
vn 0.8819 -0.4714 -0.0000
vn -0.9952 0.0980 -0.0000
vn 0.7730 -0.6344 -0.0000
vn -0.9569 0.2903 -0.0000
vn 0.6344 -0.7730 -0.0000
vn -0.8819 0.4714 -0.0000
vn 0.4714 -0.8819 -0.0000
vn 0.0980 0.9952 -0.0000
vn -0.7730 0.6344 -0.0000
vn 0.2903 -0.9569 -0.0000
vn 0.2903 0.9569 -0.0000
vn -0.6344 0.7730 -0.0000
vn -0.0000 -1.0000 -0.0000
vn -1.0000 -0.0000 -0.0000
vn 1.0000 -0.0000 -0.0000
vn -0.0000 1.0000 -0.0000
vn -0.0001 -0.0000 1.0000
vn -0.0001 -0.0000 -1.0000
vn 0.0001 -0.0000 1.0000
vn -0.0002 -0.0000 1.0000
vn 0.0001 -0.0000 -1.0000
s 0
f 19//1 11//1 3//1
f 49//2 57//2 34//2
f 17//3 48//3 16//3
f 3//4 36//4 35//4
f 30//5 63//5 62//5
f 18//6 49//6 17//6
f 4//7 37//7 36//7
f 31//8 64//8 63//8
f 19//9 50//9 18//9
f 5//10 38//10 37//10
f 32//11 34//11 64//11
f 20//12 51//12 19//12
f 6//13 39//13 38//13
f 21//14 52//14 20//14
f 7//15 40//15 39//15
f 22//16 53//16 21//16
f 9//17 40//17 8//17
f 23//18 54//18 22//18
f 10//19 41//19 9//19
f 24//20 55//20 23//20
f 11//21 42//21 10//21
f 25//22 56//22 24//22
f 12//23 43//23 11//23
f 25//24 58//24 57//24
f 13//25 44//25 12//25
f 26//26 59//26 58//26
f 14//27 45//27 13//27
f 27//28 60//28 59//28
f 15//29 46//29 14//29
f 1//30 33//30 34//30
f 28//31 61//31 60//31
f 16//32 47//32 15//32
f 2//33 35//33 33//33
f 29//34 62//34 61//34
f 83//1 75//1 67//1
f 113//2 121//2 98//2
f 81//3 112//3 80//3
f 67//4 100//4 99//4
f 94//5 127//5 126//5
f 82//6 113//6 81//6
f 68//7 101//7 100//7
f 95//8 128//8 127//8
f 83//9 114//9 82//9
f 69//10 102//10 101//10
f 96//11 98//11 128//11
f 84//12 115//12 83//12
f 70//13 103//13 102//13
f 85//14 116//14 84//14
f 71//15 104//15 103//15
f 86//16 117//16 85//16
f 73//17 104//17 72//17
f 87//18 118//18 86//18
f 74//19 105//19 73//19
f 88//20 119//20 87//20
f 75//21 106//21 74//21
f 89//22 120//22 88//22
f 76//23 107//23 75//23
f 89//24 122//24 121//24
f 77//25 108//25 76//25
f 90//26 123//26 122//26
f 78//27 109//27 77//27
f 91//28 124//28 123//28
f 79//29 110//29 78//29
f 65//30 97//30 98//30
f 92//31 125//31 124//31
f 80//32 111//32 79//32
f 66//33 99//33 97//33
f 93//34 126//34 125//34
f 147//1 139//1 131//1
f 177//2 185//2 162//2
f 145//3 176//3 144//3
f 131//4 164//4 163//4
f 158//5 191//5 190//5
f 146//6 177//6 145//6
f 132//7 165//7 164//7
f 159//8 192//8 191//8
f 147//9 178//9 146//9
f 133//10 166//10 165//10
f 160//11 162//11 192//11
f 148//12 179//12 147//12
f 134//13 167//13 166//13
f 149//14 180//14 148//14
f 135//15 168//15 167//15
f 150//16 181//16 149//16
f 137//17 168//17 136//17
f 151//18 182//18 150//18
f 138//19 169//19 137//19
f 152//20 183//20 151//20
f 139//21 170//21 138//21
f 153//22 184//22 152//22
f 140//23 171//23 139//23
f 153//24 186//24 185//24
f 141//25 172//25 140//25
f 154//26 187//26 186//26
f 142//27 173//27 141//27
f 155//28 188//28 187//28
f 143//29 174//29 142//29
f 129//30 161//30 162//30
f 156//31 189//31 188//31
f 144//32 175//32 143//32
f 130//33 163//33 161//33
f 157//34 190//34 189//34
f 211//1 203//1 195//1
f 241//2 249//2 226//2
f 209//3 240//3 208//3
f 195//4 228//4 227//4
f 222//5 255//5 254//5
f 210//6 241//6 209//6
f 196//7 229//7 228//7
f 223//8 256//8 255//8
f 211//9 242//9 210//9
f 197//10 230//10 229//10
f 224//11 226//11 256//11
f 212//12 243//12 211//12
f 198//13 231//13 230//13
f 213//14 244//14 212//14
f 199//15 232//15 231//15
f 214//16 245//16 213//16
f 200//17 233//17 232//17
f 215//18 246//18 214//18
f 202//19 233//19 201//19
f 216//20 247//20 215//20
f 203//21 234//21 202//21
f 217//22 248//22 216//22
f 204//23 235//23 203//23
f 218//24 249//24 217//24
f 205//25 236//25 204//25
f 218//26 251//26 250//26
f 206//27 237//27 205//27
f 219//28 252//28 251//28
f 207//29 238//29 206//29
f 193//30 225//30 226//30
f 220//31 253//31 252//31
f 208//32 239//32 207//32
f 194//33 227//33 225//33
f 221//34 254//34 253//34
f 257//1 258//1 259//1
f 257//1 259//1 260//1
f 261//35 260//35 259//35
f 261//35 259//35 262//35
f 263//36 264//36 265//36
f 263//36 265//36 266//36
f 267//2 268//2 269//2
f 267//2 269//2 270//2
f 268//37 271//37 272//37
f 268//37 272//37 269//37
f 273//38 274//38 275//38
f 273//38 275//38 276//38
f 277//38 278//38 279//38
f 277//38 279//38 280//38
f 280//38 279//38 281//38
f 280//38 281//38 282//38
f 282//38 281//38 283//38
f 282//38 283//38 284//38
f 284//38 283//38 285//38
f 284//38 285//38 286//38
f 286//38 285//38 287//38
f 286//38 287//38 288//38
f 289//2 290//2 291//2
f 289//2 291//2 292//2
f 290//2 293//2 294//2
f 290//2 294//2 291//2
f 293//2 295//2 296//2
f 293//2 296//2 294//2
f 295//2 297//2 298//2
f 295//2 298//2 296//2
f 297//2 299//2 300//2
f 297//2 300//2 298//2
f 301//35 302//35 303//35
f 301//35 303//35 300//35
f 300//35 303//35 304//35
f 300//35 304//35 298//35
f 298//35 304//35 305//35
f 298//35 305//35 296//35
f 296//35 305//35 306//35
f 296//35 306//35 294//35
f 294//35 306//35 307//35
f 294//35 307//35 291//35
f 308//1 309//1 303//1
f 308//1 303//1 302//1
f 309//1 310//1 304//1
f 309//1 304//1 303//1
f 310//1 311//1 305//1
f 310//1 305//1 304//1
f 311//1 312//1 306//1
f 311//1 306//1 305//1
f 312//1 313//1 307//1
f 312//1 307//1 306//1
f 314//1 315//1 316//1
f 314//1 316//1 317//1
f 318//1 319//1 320//1
f 318//1 320//1 321//1
f 321//1 320//1 322//1
f 321//1 322//1 323//1
f 324//1 314//1 317//1
f 324//1 317//1 325//1
f 326//37 327//37 328//37
f 326//37 328//37 329//37
f 316//37 319//37 330//37
f 316//37 330//37 331//37
f 318//37 321//37 332//37
f 318//37 332//37 333//37
f 334//1 324//1 325//1
f 334//1 325//1 335//1
f 326//1 336//1 337//1
f 326//1 337//1 327//1
f 325//35 317//35 338//35
f 325//35 338//35 339//35
f 340//1 334//1 335//1
f 340//1 335//1 341//1
f 341//1 335//1 326//1
f 341//1 326//1 342//1
f 337//36 336//36 343//36
f 337//36 343//36 344//36
f 345//1 327//1 346//1
f 345//1 346//1 347//1
f 347//1 346//1 348//1
f 347//1 348//1 349//1
f 350//1 340//1 341//1
f 350//1 341//1 351//1
f 351//1 341//1 342//1
f 351//1 342//1 352//1
f 352//1 342//1 345//1
f 352//1 345//1 353//1
f 353//1 345//1 347//1
f 353//1 347//1 354//1
f 354//1 347//1 349//1
f 354//1 349//1 355//1
f 356//2 357//2 358//2
f 356//2 358//2 359//2
f 359//2 358//2 360//2
f 359//2 360//2 329//2
f 321//38 337//38 344//38
f 321//38 344//38 332//38
f 328//2 361//2 362//2
f 328//2 362//2 363//2
f 363//2 362//2 364//2
f 363//2 364//2 365//2
f 366//2 356//2 359//2
f 366//2 359//2 339//2
f 343//2 329//2 328//2
f 343//2 328//2 344//2
f 336//36 325//36 339//36
f 336//36 339//36 343//36
f 367//2 366//2 339//2
f 367//2 339//2 338//2
f 342//35 326//35 329//35
f 342//35 329//35 360//35
f 317//35 316//35 331//35
f 317//35 331//35 338//35
f 319//38 318//38 333//38
f 319//38 333//38 330//38
f 368//2 367//2 338//2
f 368//2 338//2 331//2
f 330//2 333//2 332//2
f 330//2 332//2 369//2
f 369//2 332//2 370//2
f 369//2 370//2 371//2
f 372//2 368//2 331//2
f 372//2 331//2 373//2
f 373//2 331//2 330//2
f 373//2 330//2 374//2
f 374//2 330//2 369//2
f 374//2 369//2 375//2
f 375//2 369//2 371//2
f 375//2 371//2 376//2
f 376//2 371//2 377//2
f 376//2 377//2 378//2
f 379//37 380//37 381//37
f 379//37 381//37 382//37
f 382//37 381//37 383//37
f 382//37 383//37 384//37
f 384//37 383//37 385//37
f 384//37 385//37 386//37
f 386//37 385//37 387//37
f 386//37 387//37 388//37
f 388//37 387//37 389//37
f 388//37 389//37 390//37
f 391//2 379//2 382//2
f 391//2 382//2 392//2
f 392//2 382//2 384//2
f 392//2 384//2 393//2
f 393//2 384//2 386//2
f 393//2 386//2 394//2
f 394//2 386//2 388//2
f 394//2 388//2 395//2
f 395//2 388//2 390//2
f 395//2 390//2 396//2
f 397//36 398//36 399//36
f 397//36 399//36 400//36
f 400//36 399//36 401//36
f 400//36 401//36 402//36
f 402//36 401//36 403//36
f 402//36 403//36 404//36
f 404//36 403//36 405//36
f 404//36 405//36 406//36
f 406//36 405//36 407//36
f 406//36 407//36 408//36
f 409//1 410//1 407//1
f 409//1 407//1 411//1
f 411//1 407//1 405//1
f 411//1 405//1 412//1
f 412//1 405//1 403//1
f 412//1 403//1 413//1
f 413//1 403//1 401//1
f 413//1 401//1 414//1
f 414//1 401//1 399//1
f 414//1 399//1 415//1
f 416//1 414//1 415//1
f 416//1 415//1 417//1
f 418//1 413//1 414//1
f 418//1 414//1 416//1
f 419//1 412//1 413//1
f 419//1 413//1 418//1
f 420//1 411//1 412//1
f 420//1 412//1 419//1
f 421//1 409//1 411//1
f 421//1 411//1 420//1
f 402//2 422//2 423//2
f 402//2 423//2 400//2
f 404//2 424//2 422//2
f 404//2 422//2 402//2
f 406//2 425//2 424//2
f 406//2 424//2 404//2
f 408//2 426//2 425//2
f 408//2 425//2 406//2
f 427//2 428//2 426//2
f 427//2 426//2 408//2
f 429//2 430//2 261//2
f 429//2 261//2 262//2
f 266//38 265//38 431//38
f 266//38 431//38 432//38
f 292//35 433//35 260//35
f 292//35 260//35 261//35
f 434//1 257//1 260//1
f 434//1 260//1 433//1
f 313//1 434//1 433//1
f 313//1 433//1 307//1
f 291//35 307//35 433//35
f 291//35 433//35 292//35
f 315//1 421//1 420//1
f 315//1 420//1 316//1
f 316//1 420//1 419//1
f 316//1 419//1 319//1
f 319//1 419//1 418//1
f 319//1 418//1 320//1
f 320//1 418//1 416//1
f 320//1 416//1 322//1
f 322//1 416//1 417//1
f 322//1 417//1 435//1
f 422//2 376//2 378//2
f 422//2 378//2 423//2
f 424//2 375//2 376//2
f 424//2 376//2 422//2
f 425//2 374//2 375//2
f 425//2 375//2 424//2
f 426//2 373//2 374//2
f 426//2 374//2 425//2
f 428//2 372//2 373//2
f 428//2 373//2 426//2
f 430//2 289//2 292//2
f 430//2 292//2 261//2
f 432//38 431//38 278//38
f 432//38 278//38 277//38
f 432//2 277//2 436//2
f 432//2 436//2 437//2
f 279//1 278//1 438//1
f 279//1 438//1 439//1
f 266//2 432//2 437//2
f 266//2 437//2 263//2
f 278//1 431//1 440//1
f 278//1 440//1 438//1
f 431//1 265//1 264//1
f 431//1 264//1 440//1
f 273//2 276//2 441//2
f 273//2 441//2 442//2
f 276//37 275//37 443//37
f 276//37 443//37 441//37
f 277//2 280//2 444//2
f 277//2 444//2 436//2
f 280//2 282//2 445//2
f 280//2 445//2 444//2
f 282//2 284//2 446//2
f 282//2 446//2 445//2
f 284//2 286//2 447//2
f 284//2 447//2 446//2
f 286//2 288//2 448//2
f 286//2 448//2 447//2
f 449//1 287//1 450//1
f 449//1 450//1 451//1
f 287//1 285//1 452//1
f 287//1 452//1 450//1
f 285//1 283//1 453//1
f 285//1 453//1 452//1
f 283//1 281//1 454//1
f 283//1 454//1 453//1
f 281//1 279//1 439//1
f 281//1 439//1 454//1
f 427//36 410//36 264//36
f 427//36 264//36 263//36
f 408//36 407//36 410//36
f 408//36 410//36 427//36
f 439//1 438//1 421//1
f 439//1 421//1 315//1
f 263//2 437//2 428//2
f 263//2 428//2 427//2
f 440//1 264//1 410//1
f 440//1 410//1 409//1
f 442//2 441//2 379//2
f 442//2 379//2 391//2
f 441//37 443//37 380//37
f 441//37 380//37 379//37
f 436//2 444//2 368//2
f 436//2 368//2 372//2
f 444//2 445//2 367//2
f 444//2 367//2 368//2
f 445//2 446//2 366//2
f 445//2 366//2 367//2
f 446//2 447//2 356//2
f 446//2 356//2 366//2
f 447//2 448//2 357//2
f 447//2 357//2 356//2
f 451//1 450//1 340//1
f 451//1 340//1 350//1
f 450//1 452//1 334//1
f 450//1 334//1 340//1
f 452//1 453//1 324//1
f 452//1 324//1 334//1
f 453//1 454//1 314//1
f 453//1 314//1 324//1
f 454//1 439//1 315//1
f 454//1 315//1 314//1
f 443//1 455//1 456//1
f 443//1 456//1 380//1
f 275//1 274//1 455//1
f 275//1 455//1 443//1
f 457//2 273//2 442//2
f 457//2 442//2 458//2
f 459//2 395//2 396//2
f 459//2 396//2 460//2
f 461//2 394//2 395//2
f 461//2 395//2 459//2
f 462//2 393//2 394//2
f 462//2 394//2 461//2
f 463//2 392//2 393//2
f 463//2 393//2 462//2
f 464//2 391//2 392//2
f 464//2 392//2 463//2
f 387//1 465//1 466//1
f 387//1 466//1 389//1
f 385//1 467//1 465//1
f 385//1 465//1 387//1
f 383//1 468//1 467//1
f 383//1 467//1 385//1
f 381//1 469//1 468//1
f 381//1 468//1 383//1
f 380//1 456//1 469//1
f 380//1 469//1 381//1
f 271//1 470//1 471//1
f 271//1 471//1 272//1
f 269//35 272//35 471//35
f 269//35 471//35 270//35
f 457//38 449//38 274//38
f 457//38 274//38 273//38
f 472//2 267//2 270//2
f 472//2 270//2 301//2
f 299//2 472//2 301//2
f 299//2 301//2 300//2
f 288//38 287//38 449//38
f 288//38 449//38 457//38
f 357//2 464//2 463//2
f 357//2 463//2 358//2
f 358//2 463//2 462//2
f 358//2 462//2 360//2
f 360//2 462//2 461//2
f 360//2 461//2 361//2
f 361//2 461//2 459//2
f 361//2 459//2 362//2
f 362//2 459//2 460//2
f 362//2 460//2 364//2
f 288//2 457//2 458//2
f 288//2 458//2 448//2
f 448//2 458//2 464//2
f 448//2 464//2 357//2
f 274//1 449//1 451//1
f 274//1 451//1 455//1
f 465//1 354//1 355//1
f 465//1 355//1 466//1
f 467//1 353//1 354//1
f 467//1 354//1 465//1
f 468//1 352//1 353//1
f 468//1 353//1 467//1
f 469//1 351//1 352//1
f 469//1 352//1 468//1
f 456//1 350//1 351//1
f 456//1 351//1 469//1
f 470//1 308//1 302//1
f 470//1 302//1 471//1
f 270//35 471//35 302//35
f 270//35 302//35 301//35
f 473//2 474//2 472//2
f 473//2 472//2 299//2
f 475//1 476//1 470//1
f 475//1 470//1 271//1
f 477//1 478//1 434//1
f 477//1 434//1 313//1
f 397//2 479//2 430//2
f 397//2 430//2 429//2
f 262//36 259//36 258//36
f 262//36 258//36 429//36
f 480//1 477//1 313//1
f 480//1 313//1 312//1
f 481//1 480//1 312//1
f 481//1 312//1 311//1
f 482//1 481//1 311//1
f 482//1 311//1 310//1
f 483//1 482//1 310//1
f 483//1 310//1 309//1
f 484//1 483//1 309//1
f 484//1 309//1 308//1
f 485//2 473//2 299//2
f 485//2 299//2 297//2
f 486//2 485//2 297//2
f 486//2 297//2 295//2
f 487//2 486//2 295//2
f 487//2 295//2 293//2
f 488//2 487//2 293//2
f 488//2 293//2 290//2
f 489//2 488//2 290//2
f 489//2 290//2 289//2
f 490//37 475//37 271//37
f 490//37 271//37 268//37
f 491//2 490//2 268//2
f 491//2 268//2 267//2
f 492//1 398//1 258//1
f 492//1 258//1 257//1
f 415//1 399//1 398//1
f 415//1 398//1 492//1
f 396//2 390//2 490//2
f 396//2 490//2 491//2
f 390//37 389//37 475//37
f 390//37 475//37 490//37
f 378//2 377//2 488//2
f 378//2 488//2 489//2
f 377//2 493//2 487//2
f 377//2 487//2 488//2
f 493//2 494//2 486//2
f 493//2 486//2 487//2
f 494//2 365//2 485//2
f 494//2 485//2 486//2
f 365//2 364//2 473//2
f 365//2 473//2 485//2
f 355//1 349//1 483//1
f 355//1 483//1 484//1
f 349//1 348//1 482//1
f 349//1 482//1 483//1
f 348//1 495//1 481//1
f 348//1 481//1 482//1
f 495//1 496//1 480//1
f 495//1 480//1 481//1
f 496//1 435//1 477//1
f 496//1 477//1 480//1
f 400//2 423//2 479//2
f 400//2 479//2 397//2
f 417//1 415//1 492//1
f 417//1 492//1 478//1
f 435//1 417//1 478//1
f 435//1 478//1 477//1
f 423//2 378//2 489//2
f 423//2 489//2 479//2
f 389//1 466//1 476//1
f 389//1 476//1 475//1
f 460//2 396//2 491//2
f 460//2 491//2 474//2
f 364//2 460//2 474//2
f 364//2 474//2 473//2
f 466//1 355//1 484//1
f 466//1 484//1 476//1
f 429//36 258//36 398//36
f 429//36 398//36 397//36
f 497//1 498//1 499//1
f 497//1 499//1 500//1
f 501//1 502//1 503//1
f 501//1 503//1 504//1
f 498//1 505//1 506//1
f 498//1 506//1 499//1
f 502//1 507//1 508//1
f 502//1 508//1 503//1
f 505//1 509//1 510//1
f 505//1 510//1 506//1
f 507//1 511//1 512//1
f 507//1 512//1 508//1
f 509//1 513//1 514//1
f 509//1 514//1 510//1
f 511//1 515//1 516//1
f 511//1 516//1 512//1
f 513//1 517//1 518//1
f 513//1 518//1 514//1
f 515//1 519//1 520//1
f 515//1 520//1 516//1
f 517//1 521//1 522//1
f 517//1 522//1 518//1
f 519//1 523//1 524//1
f 519//1 524//1 520//1
f 525//1 526//1 527//1
f 525//1 527//1 528//1
f 521//1 529//1 530//1
f 521//1 530//1 522//1
f 523//1 531//1 532//1
f 523//1 532//1 524//1
f 526//1 533//1 534//1
f 526//1 534//1 527//1
f 529//1 535//1 536//1
f 529//1 536//1 530//1
f 531//1 537//1 538//1
f 531//1 538//1 532//1
f 533//1 539//1 540//1
f 533//1 540//1 534//1
f 535//1 541//1 542//1
f 535//1 542//1 536//1
f 537//1 543//1 544//1
f 537//1 544//1 538//1
f 539//1 545//1 546//1
f 539//1 546//1 540//1
f 541//1 547//1 548//1
f 541//1 548//1 542//1
f 543//1 549//1 550//1
f 543//1 550//1 544//1
f 545//1 551//1 552//1
f 545//1 552//1 546//1
f 547//1 525//1 528//1
f 547//1 528//1 548//1
f 549//1 553//1 554//1
f 549//1 554//1 550//1
f 551//1 555//1 556//1
f 551//1 556//1 552//1
f 553//1 557//1 558//1
f 553//1 558//1 554//1
f 555//1 559//1 560//1
f 555//1 560//1 556//1
f 557//1 497//1 500//1
f 557//1 500//1 558//1
f 559//1 501//1 504//1
f 559//1 504//1 560//1
f 561//1 562//1 563//1
f 561//1 563//1 564//1
f 565//1 566//1 567//1
f 565//1 567//1 568//1
f 562//1 569//1 570//1
f 562//1 570//1 563//1
f 566//1 571//1 572//1
f 566//1 572//1 567//1
f 569//1 573//1 574//1
f 569//1 574//1 570//1
f 571//1 575//1 576//1
f 571//1 576//1 572//1
f 573//1 577//1 578//1
f 573//1 578//1 574//1
f 575//1 579//1 580//1
f 575//1 580//1 576//1
f 577//1 581//1 582//1
f 577//1 582//1 578//1
f 579//1 583//1 584//1
f 579//1 584//1 580//1
f 581//1 585//1 586//1
f 581//1 586//1 582//1
f 583//1 587//1 588//1
f 583//1 588//1 584//1
f 589//1 590//1 591//1
f 589//1 591//1 592//1
f 585//1 593//1 594//1
f 585//1 594//1 586//1
f 587//1 595//1 596//1
f 587//1 596//1 588//1
f 590//1 597//1 598//1
f 590//1 598//1 591//1
f 593//1 599//1 600//1
f 593//1 600//1 594//1
f 595//1 601//1 602//1
f 595//1 602//1 596//1
f 597//1 603//1 604//1
f 597//1 604//1 598//1
f 599//1 605//1 606//1
f 599//1 606//1 600//1
f 601//1 607//1 608//1
f 601//1 608//1 602//1
f 603//1 609//1 610//1
f 603//1 610//1 604//1
f 605//1 611//1 612//1
f 605//1 612//1 606//1
f 607//1 613//1 614//1
f 607//1 614//1 608//1
f 609//1 615//1 616//1
f 609//1 616//1 610//1
f 611//1 589//1 592//1
f 611//1 592//1 612//1
f 613//1 617//1 618//1
f 613//1 618//1 614//1
f 615//1 619//1 620//1
f 615//1 620//1 616//1
f 617//1 621//1 622//1
f 617//1 622//1 618//1
f 619//1 623//1 624//1
f 619//1 624//1 620//1
f 621//1 561//1 564//1
f 621//1 564//1 622//1
f 623//1 565//1 568//1
f 623//1 568//1 624//1
f 625//1 626//1 627//1
f 625//1 627//1 628//1
f 629//1 630//1 631//1
f 629//1 631//1 632//1
f 626//1 633//1 634//1
f 626//1 634//1 627//1
f 630//1 635//1 636//1
f 630//1 636//1 631//1
f 633//1 637//1 638//1
f 633//1 638//1 634//1
f 635//1 639//1 640//1
f 635//1 640//1 636//1
f 637//1 641//1 642//1
f 637//1 642//1 638//1
f 639//1 643//1 644//1
f 639//1 644//1 640//1
f 641//1 645//1 646//1
f 641//1 646//1 642//1
f 643//1 647//1 648//1
f 643//1 648//1 644//1
f 645//1 649//1 650//1
f 645//1 650//1 646//1
f 647//1 651//1 652//1
f 647//1 652//1 648//1
f 653//1 654//1 655//1
f 653//1 655//1 656//1
f 649//1 657//1 658//1
f 649//1 658//1 650//1
f 651//1 659//1 660//1
f 651//1 660//1 652//1
f 654//1 661//1 662//1
f 654//1 662//1 655//1
f 657//1 663//1 664//1
f 657//1 664//1 658//1
f 659//1 665//1 666//1
f 659//1 666//1 660//1
f 661//1 667//1 668//1
f 661//1 668//1 662//1
f 663//1 669//1 670//1
f 663//1 670//1 664//1
f 665//1 671//1 672//1
f 665//1 672//1 666//1
f 667//1 673//1 674//1
f 667//1 674//1 668//1
f 669//1 675//1 676//1
f 669//1 676//1 670//1
f 671//1 677//1 678//1
f 671//1 678//1 672//1
f 673//1 679//1 680//1
f 673//1 680//1 674//1
f 675//1 653//1 656//1
f 675//1 656//1 676//1
f 677//1 681//1 682//1
f 677//1 682//1 678//1
f 679//1 683//1 684//1
f 679//1 684//1 680//1
f 681//1 685//1 686//1
f 681//1 686//1 682//1
f 683//1 687//1 688//1
f 683//1 688//1 684//1
f 685//1 625//1 628//1
f 685//1 628//1 686//1
f 687//1 629//1 632//1
f 687//1 632//1 688//1
f 689//1 690//1 691//1
f 689//1 691//1 692//1
f 693//1 694//1 695//1
f 693//1 695//1 696//1
f 690//1 697//1 698//1
f 690//1 698//1 691//1
f 694//1 699//1 700//1
f 694//1 700//1 695//1
f 697//1 701//1 702//1
f 697//1 702//1 698//1
f 699//1 703//1 704//1
f 699//1 704//1 700//1
f 701//1 705//1 706//1
f 701//1 706//1 702//1
f 703//1 707//1 708//1
f 703//1 708//1 704//1
f 705//1 709//1 710//1
f 705//1 710//1 706//1
f 707//1 711//1 712//1
f 707//1 712//1 708//1
f 709//1 713//1 714//1
f 709//1 714//1 710//1
f 711//1 715//1 716//1
f 711//1 716//1 712//1
f 717//1 718//1 719//1
f 717//1 719//1 720//1
f 713//1 721//1 722//1
f 713//1 722//1 714//1
f 715//1 723//1 724//1
f 715//1 724//1 716//1
f 718//1 725//1 726//1
f 718//1 726//1 719//1
f 721//1 727//1 728//1
f 721//1 728//1 722//1
f 723//1 729//1 730//1
f 723//1 730//1 724//1
f 725//1 731//1 732//1
f 725//1 732//1 726//1
f 727//1 733//1 734//1
f 727//1 734//1 728//1
f 729//1 735//1 736//1
f 729//1 736//1 730//1
f 731//1 737//1 738//1
f 731//1 738//1 732//1
f 733//1 739//1 740//1
f 733//1 740//1 734//1
f 735//1 741//1 742//1
f 735//1 742//1 736//1
f 737//1 743//1 744//1
f 737//1 744//1 738//1
f 739//1 717//1 720//1
f 739//1 720//1 740//1
f 741//1 745//1 746//1
f 741//1 746//1 742//1
f 743//1 747//1 748//1
f 743//1 748//1 744//1
f 745//1 749//1 750//1
f 745//1 750//1 746//1
f 747//1 751//1 752//1
f 747//1 752//1 748//1
f 749//1 689//1 692//1
f 749//1 692//1 750//1
f 751//1 693//1 696//1
f 751//1 696//1 752//1
f 267//2 472//2 753//2
f 753//2 472//2 754//2
f 267//2 753//2 755//2
f 754//2 472//2 756//2
f 757//2 758//2 759//2
f 757//2 759//2 760//2
f 761//2 762//2 763//2
f 761//2 763//2 764//2
f 760//2 759//2 765//2
f 760//2 765//2 766//2
f 764//2 763//2 767//2
f 764//2 767//2 768//2
f 766//2 765//2 769//2
f 766//2 769//2 770//2
f 768//2 767//2 771//2
f 768//2 771//2 772//2
f 770//2 769//2 773//2
f 770//2 773//2 774//2
f 772//2 771//2 775//2
f 772//2 775//2 776//2
f 774//2 773//2 777//2
f 774//2 777//2 778//2
f 776//2 775//2 779//2
f 776//2 779//2 780//2
f 778//2 777//2 781//2
f 778//2 781//2 782//2
f 780//2 779//2 783//2
f 780//2 783//2 784//2
f 785//2 786//2 787//2
f 785//2 787//2 788//2
f 782//2 781//2 789//2
f 782//2 789//2 790//2
f 784//2 783//2 791//2
f 784//2 791//2 792//2
f 788//2 787//2 793//2
f 788//2 793//2 794//2
f 790//2 789//2 795//2
f 790//2 795//2 796//2
f 792//2 791//2 797//2
f 792//2 797//2 798//2
f 794//2 793//2 799//2
f 794//2 799//2 800//2
f 796//2 795//2 801//2
f 796//2 801//2 802//2
f 798//2 797//2 803//2
f 798//2 803//2 804//2
f 800//2 799//2 805//2
f 800//2 805//2 806//2
f 802//2 801//2 807//2
f 802//2 807//2 808//2
f 804//2 803//2 809//2
f 804//2 809//2 810//2
f 806//2 805//2 811//2
f 806//2 811//2 812//2
f 808//2 807//2 786//2
f 808//2 786//2 785//2
f 810//2 809//2 813//2
f 810//2 813//2 814//2
f 812//2 811//2 815//2
f 812//2 815//2 816//2
f 814//2 813//2 817//2
f 814//2 817//2 818//2
f 816//2 815//2 819//2
f 816//2 819//2 820//2
f 818//2 817//2 758//2
f 818//2 758//2 757//2
f 820//2 819//2 762//2
f 820//2 762//2 761//2
f 821//25 806//25 812//25
f 821//25 812//25 822//25
f 786//3 592//3 591//3
f 786//3 591//3 787//3
f 823//6 808//6 785//6
f 823//6 785//6 824//6
f 822//23 812//23 816//23
f 822//23 816//23 825//23
f 807//6 612//6 592//6
f 807//6 592//6 786//6
f 801//9 606//9 612//9
f 801//9 612//9 807//9
f 825//21 816//21 820//21
f 825//21 820//21 826//21
f 795//12 600//12 606//12
f 795//12 606//12 801//12
f 789//14 594//14 600//14
f 789//14 600//14 795//14
f 826//19 820//19 761//19
f 826//19 761//19 827//19
f 781//16 586//16 594//16
f 781//16 594//16 789//16
f 777//18 582//18 586//18
f 777//18 586//18 781//18
f 827//17 761//17 764//17
f 827//17 764//17 828//17
f 773//20 578//20 582//20
f 773//20 582//20 777//20
f 769//22 574//22 578//22
f 769//22 578//22 773//22
f 828//15 764//15 768//15
f 828//15 768//15 829//15
f 765//24 570//24 574//24
f 765//24 574//24 769//24
f 759//26 563//26 570//26
f 759//26 570//26 765//26
f 829//13 768//13 772//13
f 829//13 772//13 830//13
f 758//28 564//28 563//28
f 758//28 563//28 759//28
f 817//31 622//31 564//31
f 817//31 564//31 758//31
f 830//10 772//10 776//10
f 830//10 776//10 831//10
f 813//34 618//34 622//34
f 813//34 622//34 817//34
f 831//7 776//7 780//7
f 831//7 780//7 832//7
f 809//5 614//5 618//5
f 809//5 618//5 813//5
f 832//4 780//4 784//4
f 832//4 784//4 833//4
f 803//8 608//8 614//8
f 803//8 614//8 809//8
f 833//33 784//33 792//33
f 833//33 792//33 834//33
f 797//11 602//11 608//11
f 797//11 608//11 803//11
f 834//30 792//30 798//30
f 834//30 798//30 835//30
f 791//30 596//30 602//30
f 791//30 602//30 797//30
f 835//11 798//11 804//11
f 835//11 804//11 836//11
f 783//33 588//33 596//33
f 783//33 596//33 791//33
f 836//8 804//8 810//8
f 836//8 810//8 837//8
f 779//4 584//4 588//4
f 779//4 588//4 783//4
f 837//5 810//5 814//5
f 837//5 814//5 838//5
f 775//7 580//7 584//7
f 775//7 584//7 779//7
f 838//34 814//34 818//34
f 838//34 818//34 839//34
f 771//10 576//10 580//10
f 771//10 580//10 775//10
f 839//31 818//31 757//31
f 839//31 757//31 840//31
f 767//13 572//13 576//13
f 767//13 576//13 771//13
f 840//28 757//28 760//28
f 840//28 760//28 841//28
f 763//15 567//15 572//15
f 763//15 572//15 767//15
f 841//26 760//26 766//26
f 841//26 766//26 842//26
f 762//17 568//17 567//17
f 762//17 567//17 763//17
f 842//24 766//24 770//24
f 842//24 770//24 843//24
f 819//19 624//19 568//19
f 819//19 568//19 762//19
f 843//22 770//22 774//22
f 843//22 774//22 844//22
f 815//21 620//21 624//21
f 815//21 624//21 819//21
f 844//20 774//20 778//20
f 844//20 778//20 845//20
f 811//23 616//23 620//23
f 811//23 620//23 815//23
f 845//18 778//18 782//18
f 845//18 782//18 846//18
f 824//3 785//3 788//3
f 824//3 788//3 847//3
f 805//25 610//25 616//25
f 805//25 616//25 811//25
f 846//16 782//16 790//16
f 846//16 790//16 848//16
f 847//32 788//32 794//32
f 847//32 794//32 849//32
f 799//27 604//27 610//27
f 799//27 610//27 805//27
f 848//14 790//14 796//14
f 848//14 796//14 850//14
f 849//29 794//29 800//29
f 849//29 800//29 851//29
f 793//29 598//29 604//29
f 793//29 604//29 799//29
f 850//12 796//12 802//12
f 850//12 802//12 852//12
f 851//27 800//27 806//27
f 851//27 806//27 821//27
f 787//32 591//32 598//32
f 787//32 598//32 793//32
f 852//9 802//9 808//9
f 852//9 808//9 823//9
f 464//2 458//2 827//2
f 827//2 458//2 826//2
f 826//2 458//2 825//2
f 825//2 458//2 822//2
f 822//2 458//2 821//2
f 821//2 458//2 851//2
f 851//2 458//2 849//2
f 849//2 458//2 847//2
f 847//2 458//2 824//2
f 824//2 458//2 442//2
f 824//2 442//2 823//2
f 823//2 442//2 852//2
f 852//2 442//2 850//2
f 850//2 442//2 848//2
f 848//2 442//2 846//2
f 846//2 442//2 845//2
f 845//2 442//2 844//2
f 844//2 442//2 843//2
f 843//2 442//2 391//2
f 464//2 827//2 828//2
f 842//2 843//2 391//2
f 464//2 828//2 829//2
f 841//2 842//2 391//2
f 464//2 829//2 830//2
f 840//2 841//2 391//2
f 464//2 830//2 831//2
f 839//2 840//2 391//2
f 464//2 831//2 832//2
f 838//2 839//2 391//2
f 464//2 832//2 833//2
f 837//2 838//2 391//2
f 464//2 833//2 834//2
f 836//2 837//2 391//2
f 464//2 834//2 835//2
f 835//2 836//2 391//2
f 464//2 835//2 391//2
f 456//1 455//1 573//1
f 573//39 455//39 577//39
f 577//1 455//1 581//1
f 581//1 455//1 585//1
f 585//1 455//1 593//1
f 593//1 455//1 599//1
f 599//1 455//1 605//1
f 605//1 455//1 611//1
f 611//1 455//1 589//1
f 589//1 455//1 451//1
f 589//1 451//1 590//1
f 590//1 451//1 597//1
f 597//1 451//1 603//1
f 603//1 451//1 609//1
f 609//1 451//1 615//1
f 615//1 451//1 619//1
f 619//1 451//1 623//1
f 623//1 451//1 565//1
f 565//1 451//1 350//1
f 456//1 573//1 569//1
f 566//1 565//1 350//1
f 456//1 569//1 562//1
f 571//1 566//1 350//1
f 456//1 562//1 561//1
f 575//1 571//1 350//1
f 456//1 561//1 621//1
f 579//1 575//1 350//1
f 456//1 621//1 617//1
f 583//1 579//1 350//1
f 456//1 617//1 613//1
f 587//1 583//1 350//1
f 456//1 613//1 607//1
f 595//1 587//1 350//1
f 456//1 607//1 601//1
f 601//1 595//1 350//1
f 456//1 601//1 350//1
f 853//2 854//2 855//2
f 853//2 855//2 856//2
f 857//2 858//2 859//2
f 857//2 859//2 860//2
f 856//2 855//2 861//2
f 856//2 861//2 862//2
f 860//2 859//2 863//2
f 860//2 863//2 864//2
f 862//2 861//2 865//2
f 862//2 865//2 866//2
f 864//2 863//2 867//2
f 864//2 867//2 868//2
f 866//2 865//2 869//2
f 866//2 869//2 870//2
f 868//2 867//2 871//2
f 868//2 871//2 872//2
f 870//2 869//2 873//2
f 870//2 873//2 874//2
f 872//2 871//2 875//2
f 872//2 875//2 876//2
f 874//2 873//2 877//2
f 874//2 877//2 878//2
f 876//2 875//2 879//2
f 876//2 879//2 880//2
f 881//2 882//2 883//2
f 881//2 883//2 884//2
f 878//2 877//2 885//2
f 878//2 885//2 886//2
f 880//2 879//2 887//2
f 880//2 887//2 888//2
f 884//2 883//2 889//2
f 884//2 889//2 890//2
f 886//2 885//2 891//2
f 886//2 891//2 892//2
f 888//2 887//2 893//2
f 888//2 893//2 894//2
f 890//2 889//2 895//2
f 890//2 895//2 896//2
f 892//2 891//2 897//2
f 892//2 897//2 898//2
f 894//2 893//2 899//2
f 894//2 899//2 900//2
f 896//2 895//2 901//2
f 896//2 901//2 902//2
f 898//2 897//2 903//2
f 898//2 903//2 904//2
f 900//2 899//2 905//2
f 900//2 905//2 906//2
f 902//2 901//2 907//2
f 902//2 907//2 908//2
f 904//2 903//2 882//2
f 904//2 882//2 881//2
f 906//2 905//2 909//2
f 906//2 909//2 910//2
f 908//2 907//2 911//2
f 908//2 911//2 912//2
f 910//2 909//2 913//2
f 910//2 913//2 914//2
f 912//2 911//2 915//2
f 912//2 915//2 916//2
f 914//2 913//2 854//2
f 914//2 854//2 853//2
f 916//2 915//2 858//2
f 916//2 858//2 857//2
f 917//2 918//2 919//2
f 917//2 919//2 920//2
f 921//2 922//2 923//2
f 921//2 923//2 924//2
f 920//2 919//2 925//2
f 920//2 925//2 926//2
f 924//2 923//2 927//2
f 924//2 927//2 928//2
f 926//2 925//2 929//2
f 926//2 929//2 930//2
f 928//2 927//2 931//2
f 928//2 931//2 932//2
f 930//2 929//2 933//2
f 930//2 933//2 934//2
f 932//2 931//2 935//2
f 932//2 935//2 936//2
f 934//2 933//2 937//2
f 934//2 937//2 938//2
f 936//2 935//2 939//2
f 936//2 939//2 940//2
f 938//2 937//2 941//2
f 938//2 941//2 942//2
f 940//2 939//2 943//2
f 940//2 943//2 944//2
f 945//2 946//2 947//2
f 945//2 947//2 948//2
f 942//2 941//2 949//2
f 942//2 949//2 950//2
f 944//2 943//2 951//2
f 944//2 951//2 952//2
f 948//2 947//2 953//2
f 948//2 953//2 954//2
f 950//2 949//2 955//2
f 950//2 955//2 956//2
f 952//2 951//2 957//2
f 952//2 957//2 958//2
f 954//2 953//2 959//2
f 954//2 959//2 960//2
f 956//2 955//2 961//2
f 956//2 961//2 962//2
f 958//2 957//2 963//2
f 958//2 963//2 964//2
f 960//2 959//2 965//2
f 960//2 965//2 966//2
f 962//2 961//2 967//2
f 962//2 967//2 968//2
f 964//2 963//2 969//2
f 964//2 969//2 970//2
f 966//2 965//2 971//2
f 966//2 971//2 972//2
f 968//2 967//2 946//2
f 968//2 946//2 945//2
f 970//2 969//2 973//2
f 970//2 973//2 974//2
f 972//2 971//2 975//2
f 972//2 975//2 976//2
f 974//2 973//2 977//2
f 974//2 977//2 978//2
f 976//2 975//2 979//2
f 976//2 979//2 980//2
f 978//2 977//2 918//2
f 978//2 918//2 917//2
f 980//2 979//2 922//2
f 980//2 922//2 921//2
f 981//2 982//2 983//2
f 981//2 983//2 984//2
f 985//2 986//2 987//2
f 985//2 987//2 988//2
f 984//2 983//2 989//2
f 984//2 989//2 990//2
f 988//2 987//2 991//2
f 988//2 991//2 992//2
f 990//2 989//2 993//2
f 990//2 993//2 994//2
f 992//2 991//2 995//2
f 992//2 995//2 996//2
f 994//2 993//2 997//2
f 994//2 997//2 998//2
f 996//2 995//2 999//2
f 996//2 999//2 1000//2
f 998//2 997//2 1001//2
f 998//2 1001//2 1002//2
f 1000//2 999//2 1003//2
f 1000//2 1003//2 1004//2
f 1002//2 1001//2 1005//2
f 1002//2 1005//2 1006//2
f 1004//2 1003//2 1007//2
f 1004//2 1007//2 1008//2
f 1009//2 1010//2 1011//2
f 1009//2 1011//2 1012//2
f 1006//2 1005//2 1013//2
f 1006//2 1013//2 1014//2
f 1008//2 1007//2 1015//2
f 1008//2 1015//2 1016//2
f 1012//2 1011//2 1017//2
f 1012//2 1017//2 1018//2
f 1014//2 1013//2 1019//2
f 1014//2 1019//2 1020//2
f 1016//2 1015//2 1021//2
f 1016//2 1021//2 1022//2
f 1018//2 1017//2 1023//2
f 1018//2 1023//2 1024//2
f 1020//2 1019//2 1025//2
f 1020//2 1025//2 1026//2
f 1022//2 1021//2 1027//2
f 1022//2 1027//2 1028//2
f 1024//2 1023//2 1029//2
f 1024//2 1029//2 1030//2
f 1026//2 1025//2 1031//2
f 1026//2 1031//2 1032//2
f 1028//2 1027//2 1033//2
f 1028//2 1033//2 1034//2
f 1030//2 1029//2 1035//2
f 1030//2 1035//2 1036//2
f 1032//2 1031//2 1010//2
f 1032//2 1010//2 1009//2
f 1034//2 1033//2 1037//2
f 1034//2 1037//2 1038//2
f 1036//2 1035//2 1039//2
f 1036//2 1039//2 1040//2
f 1038//2 1037//2 1041//2
f 1038//2 1041//2 1042//2
f 1040//2 1039//2 1043//2
f 1040//2 1043//2 1044//2
f 1042//2 1041//2 982//2
f 1042//2 982//2 981//2
f 1044//2 1043//2 986//2
f 1044//2 986//2 985//2
f 267//2 755//2 1045//2
f 1046//29 1018//29 1024//29
f 1046//29 1024//29 1047//29
f 756//2 472//2 1048//2
f 1047//27 1024//27 1030//27
f 1047//27 1030//27 1049//27
f 267//2 1045//2 1050//2
f 1049//25 1030//25 1036//25
f 1049//25 1036//25 1051//25
f 1048//2 472//2 1052//2
f 1051//23 1036//23 1040//23
f 1051//23 1040//23 1053//23
f 267//2 1050//2 1054//2
f 1053//21 1040//21 1044//21
f 1053//21 1044//21 1055//21
f 1052//2 472//2 1056//2
f 1057//3 945//3 948//3
f 1057//3 948//3 1058//3
f 1055//19 1044//19 985//19
f 1055//19 985//19 1059//19
f 267//2 1054//2 1060//2
f 1058//32 948//32 954//32
f 1058//32 954//32 1061//32
f 1059//17 985//17 988//17
f 1059//17 988//17 1062//17
f 1056//2 472//2 1063//2
f 1061//29 954//29 960//29
f 1061//29 960//29 1064//29
f 1062//15 988//15 992//15
f 1062//15 992//15 1063//15
f 267//2 1060//2 1065//2
f 1064//27 960//27 966//27
f 1064//27 966//27 1066//27
f 1063//13 992//13 996//13
f 1063//13 996//13 1056//13
f 1063//2 472//2 1062//2
f 1066//25 966//25 972//25
f 1066//25 972//25 1067//25
f 1056//10 996//10 1000//10
f 1056//10 1000//10 1052//10
f 267//2 1065//2 1068//2
f 1067//23 972//23 976//23
f 1067//23 976//23 1069//23
f 1052//7 1000//7 1004//7
f 1052//7 1004//7 1048//7
f 1069//21 976//21 980//21
f 1069//21 980//21 1070//21
f 1048//4 1004//4 1008//4
f 1048//4 1008//4 756//4
f 1071//3 881//3 884//3
f 1071//3 884//3 1072//3
f 1070//19 980//19 921//19
f 1070//19 921//19 1073//19
f 756//33 1008//33 1016//33
f 756//33 1016//33 754//33
f 1072//32 884//32 890//32
f 1072//32 890//32 1074//32
f 1073//17 921//17 924//17
f 1073//17 924//17 1075//17
f 754//30 1016//30 1022//30
f 754//30 1022//30 753//30
f 1074//29 890//29 896//29
f 1074//29 896//29 1076//29
f 1075//15 924//15 928//15
f 1075//15 928//15 1077//15
f 753//11 1022//11 1028//11
f 753//11 1028//11 755//11
f 1076//27 896//27 902//27
f 1076//27 902//27 1078//27
f 1077//13 928//13 932//13
f 1077//13 932//13 1079//13
f 755//8 1028//8 1034//8
f 755//8 1034//8 1045//8
f 1078//25 902//25 908//25
f 1078//25 908//25 1080//25
f 1079//10 932//10 936//10
f 1079//10 936//10 1081//10
f 1045//5 1034//5 1038//5
f 1045//5 1038//5 1050//5
f 1080//23 908//23 912//23
f 1080//23 912//23 1082//23
f 1081//7 936//7 940//7
f 1081//7 940//7 1083//7
f 1050//34 1038//34 1042//34
f 1050//34 1042//34 1054//34
f 1082//21 912//21 916//21
f 1082//21 916//21 1084//21
f 1083//4 940//4 944//4
f 1083//4 944//4 1085//4
f 1054//31 1042//31 981//31
f 1054//31 981//31 1060//31
f 1084//19 916//19 857//19
f 1084//19 857//19 1086//19
f 1085//33 944//33 952//33
f 1085//33 952//33 1087//33
f 1060//28 981//28 984//28
f 1060//28 984//28 1065//28
f 1086//17 857//17 860//17
f 1086//17 860//17 1088//17
f 1087//30 952//30 958//30
f 1087//30 958//30 1089//30
f 1065//26 984//26 990//26
f 1065//26 990//26 1068//26
f 1088//15 860//15 864//15
f 1088//15 864//15 1090//15
f 1089//11 958//11 964//11
f 1089//11 964//11 1091//11
f 1068//24 990//24 994//24
f 1068//24 994//24 1092//24
f 1090//13 864//13 868//13
f 1090//13 868//13 1093//13
f 1091//8 964//8 970//8
f 1091//8 970//8 1094//8
f 1092//22 994//22 998//22
f 1092//22 998//22 1095//22
f 1093//10 868//10 872//10
f 1093//10 872//10 1096//10
f 1094//5 970//5 974//5
f 1094//5 974//5 1097//5
f 1095//20 998//20 1002//20
f 1095//20 1002//20 1098//20
f 1096//7 872//7 876//7
f 1096//7 876//7 1099//7
f 1097//34 974//34 978//34
f 1097//34 978//34 1100//34
f 1098//18 1002//18 1006//18
f 1098//18 1006//18 1101//18
f 1099//4 876//4 880//4
f 1099//4 880//4 1102//4
f 1100//31 978//31 917//31
f 1100//31 917//31 1103//31
f 1101//16 1006//16 1014//16
f 1101//16 1014//16 1104//16
f 1102//33 880//33 888//33
f 1102//33 888//33 1105//33
f 1103//28 917//28 920//28
f 1103//28 920//28 1106//28
f 1104//14 1014//14 1020//14
f 1104//14 1020//14 1107//14
f 1105//30 888//30 894//30
f 1105//30 894//30 1108//30
f 1106//26 920//26 926//26
f 1106//26 926//26 1109//26
f 1107//12 1020//12 1026//12
f 1107//12 1026//12 1110//12
f 1108//11 894//11 900//11
f 1108//11 900//11 1111//11
f 1109//24 926//24 930//24
f 1109//24 930//24 1112//24
f 1110//9 1026//9 1032//9
f 1110//9 1032//9 1113//9
f 1111//8 900//8 906//8
f 1111//8 906//8 1114//8
f 1112//22 930//22 934//22
f 1112//22 934//22 1115//22
f 1113//6 1032//6 1009//6
f 1113//6 1009//6 1116//6
f 1114//5 906//5 910//5
f 1114//5 910//5 1117//5
f 1115//20 934//20 938//20
f 1115//20 938//20 1118//20
f 1062//2 472//2 1059//2
f 1117//34 910//34 914//34
f 1117//34 914//34 1119//34
f 1118//18 938//18 942//18
f 1118//18 942//18 1120//18
f 267//2 1068//2 1092//2
f 1119//31 914//31 853//31
f 1119//31 853//31 1121//31
f 1120//16 942//16 950//16
f 1120//16 950//16 1122//16
f 1059//40 472//40 474//40
f 1121//28 853//28 856//28
f 1121//28 856//28 1123//28
f 1122//14 950//14 956//14
f 1122//14 956//14 1124//14
f 1055//2 1059//2 474//2
f 1123//26 856//26 862//26
f 1123//26 862//26 1125//26
f 1124//12 956//12 962//12
f 1124//12 962//12 1126//12
f 1053//2 1055//2 474//2
f 1125//24 862//24 866//24
f 1125//24 866//24 1127//24
f 1126//9 962//9 968//9
f 1126//9 968//9 1128//9
f 1051//2 1053//2 474//2
f 1127//22 866//22 870//22
f 1127//22 870//22 1129//22
f 1128//6 968//6 945//6
f 1128//6 945//6 1057//6
f 1049//2 1051//2 474//2
f 1129//20 870//20 874//20
f 1129//20 874//20 1130//20
f 1047//2 1049//2 474//2
f 1130//18 874//18 878//18
f 1130//18 878//18 1131//18
f 1046//2 1047//2 474//2
f 1131//16 878//16 886//16
f 1131//16 886//16 1132//16
f 1133//2 1046//2 474//2
f 1132//14 886//14 892//14
f 1132//14 892//14 1134//14
f 1116//2 1133//2 474//2
f 1134//12 892//12 898//12
f 1134//12 898//12 1135//12
f 1116//2 474//2 491//2
f 1135//9 898//9 904//9
f 1135//9 904//9 1136//9
f 1113//2 1116//2 491//2
f 1136//6 904//6 881//6
f 1136//6 881//6 1071//6
f 1110//2 1113//2 491//2
f 1107//2 1110//2 491//2
f 1104//2 1107//2 491//2
f 1101//2 1104//2 491//2
f 1098//2 1101//2 491//2
f 1095//2 1098//2 491//2
f 1092//2 1095//2 491//2
f 1116//3 1009//3 1012//3
f 1116//3 1012//3 1133//3
f 267//2 1092//2 491//2
f 1133//32 1012//32 1018//32
f 1133//32 1018//32 1046//32
f 430//2 479//2 1073//2
f 1073//2 479//2 1070//2
f 1070//2 479//2 1069//2
f 1069//2 479//2 1067//2
f 1067//2 479//2 1066//2
f 1066//2 479//2 1064//2
f 1064//2 479//2 1061//2
f 1061//2 479//2 1058//2
f 1058//2 479//2 1057//2
f 1057//2 479//2 489//2
f 1057//2 489//2 1128//2
f 1128//2 489//2 1126//2
f 1126//2 489//2 1124//2
f 1124//2 489//2 1122//2
f 1122//2 489//2 1120//2
f 1120//2 489//2 1118//2
f 1118//2 489//2 1115//2
f 1115//2 489//2 1112//2
f 1112//2 489//2 289//2
f 430//2 1073//2 1075//2
f 1109//2 1112//2 289//2
f 430//2 1075//2 1077//2
f 1106//2 1109//2 289//2
f 430//2 1077//2 1079//2
f 1103//2 1106//2 289//2
f 430//2 1079//2 1081//2
f 1100//2 1103//2 289//2
f 430//2 1081//2 1083//2
f 1097//2 1100//2 289//2
f 430//2 1083//2 1085//2
f 1094//2 1097//2 289//2
f 430//2 1085//2 1087//2
f 1091//2 1094//2 289//2
f 430//2 1087//2 1089//2
f 1089//2 1091//2 289//2
f 430//2 1089//2 289//2
f 372//2 1127//2 436//2
f 1127//2 1129//2 436//2
f 1129//2 1130//2 436//2
f 1130//2 1131//2 436//2
f 1131//2 1132//2 436//2
f 1132//2 1134//2 436//2
f 1134//2 1135//2 436//2
f 1135//2 1136//2 436//2
f 1136//2 1071//2 436//2
f 1071//2 437//2 436//2
f 1071//2 1072//2 437//2
f 1072//2 1074//2 437//2
f 1074//2 1076//2 437//2
f 1076//2 1078//2 437//2
f 1078//2 1080//2 437//2
f 1080//2 1082//2 437//2
f 1082//2 1084//2 437//2
f 1084//2 1086//2 437//2
f 1086//2 428//2 437//2
f 372//2 1125//2 1127//2
f 1088//2 428//2 1086//2
f 372//2 1123//2 1125//2
f 1090//2 428//2 1088//2
f 372//2 1121//2 1123//2
f 1093//2 428//2 1090//2
f 372//2 1119//2 1121//2
f 1096//2 428//2 1093//2
f 372//2 1117//2 1119//2
f 1099//2 428//2 1096//2
f 372//2 1114//2 1117//2
f 1102//2 428//2 1099//2
f 372//2 1111//2 1114//2
f 1105//2 428//2 1102//2
f 372//2 1108//2 1111//2
f 1108//2 428//2 1105//2
f 372//2 428//2 1108//2
f 257//1 693//1 492//1
f 693//41 751//41 492//41
f 751//1 747//1 492//1
f 747//1 743//1 492//1
f 743//1 737//1 492//1
f 737//1 731//1 492//1
f 731//1 725//1 492//1
f 725//1 718//1 492//1
f 718//1 717//1 492//1
f 717//1 478//1 492//1
f 717//1 739//1 478//1
f 739//1 733//1 478//1
f 733//1 727//1 478//1
f 727//1 721//1 478//1
f 721//1 713//1 478//1
f 713//1 709//1 478//1
f 709//1 705//1 478//1
f 705//1 701//1 478//1
f 701//1 434//1 478//1
f 257//1 694//1 693//1
f 697//1 434//1 701//1
f 257//1 699//1 694//1
f 690//1 434//1 697//1
f 257//1 703//1 699//1
f 689//1 434//1 690//1
f 257//1 707//1 703//1
f 749//1 434//1 689//1
f 257//1 711//1 707//1
f 745//1 434//1 749//1
f 257//1 715//1 711//1
f 741//1 434//1 745//1
f 257//1 723//1 715//1
f 735//1 434//1 741//1
f 257//1 729//1 723//1
f 729//1 434//1 735//1
f 257//1 434//1 729//1
f 470//1 476//1 637//1
f 637//1 476//1 641//1
f 641//1 476//1 645//1
f 645//1 476//1 649//1
f 649//1 476//1 657//1
f 657//1 476//1 663//1
f 663//1 476//1 669//1
f 669//1 476//1 675//1
f 675//1 476//1 653//1
f 653//1 476//1 484//1
f 653//1 484//1 654//1
f 654//1 484//1 661//1
f 661//1 484//1 667//1
f 667//1 484//1 673//1
f 673//1 484//1 679//1
f 679//1 484//1 683//1
f 683//1 484//1 687//1
f 687//1 484//1 629//1
f 629//1 484//1 308//1
f 470//1 637//1 633//1
f 630//1 629//1 308//1
f 470//1 633//1 626//1
f 635//1 630//1 308//1
f 470//1 626//1 625//1
f 639//1 635//1 308//1
f 470//1 625//1 685//1
f 643//1 639//1 308//1
f 470//1 685//1 681//1
f 647//1 643//1 308//1
f 470//1 681//1 677//1
f 651//1 647//1 308//1
f 470//1 677//1 671//1
f 659//1 651//1 308//1
f 470//1 671//1 665//1
f 665//1 659//1 308//1
f 470//1 665//1 308//1
f 409//39 501//39 440//39
f 501//39 559//39 440//39
f 559//1 555//1 440//1
f 555//1 551//1 440//1
f 551//1 545//1 440//1
f 545//1 539//1 440//1
f 539//1 533//1 440//1
f 533//1 526//1 440//1
f 526//1 525//1 440//1
f 525//1 438//1 440//1
f 525//1 547//1 438//1
f 547//1 541//1 438//1
f 541//1 535//1 438//1
f 535//1 529//1 438//1
f 529//1 521//1 438//1
f 521//1 517//1 438//1
f 517//1 513//1 438//1
f 513//1 509//1 438//1
f 509//1 421//1 438//1
f 409//41 502//41 501//41
f 505//42 421//42 509//42
f 409//1 507//1 502//1
f 498//1 421//1 505//1
f 409//1 511//1 507//1
f 497//1 421//1 498//1
f 409//1 515//1 511//1
f 557//1 421//1 497//1
f 409//1 519//1 515//1
f 553//1 421//1 557//1
f 409//1 523//1 519//1
f 549//1 421//1 553//1
f 409//1 531//1 523//1
f 543//1 421//1 549//1
f 409//1 537//1 531//1
f 537//1 421//1 543//1
f 409//1 421//1 537//1
f 883//32 527//32 534//32
f 883//32 534//32 889//32
f 889//29 534//29 540//29
f 889//29 540//29 895//29
f 895//27 540//27 546//27
f 895//27 546//27 901//27
f 901//25 546//25 552//25
f 901//25 552//25 907//25
f 907//23 552//23 556//23
f 907//23 556//23 911//23
f 911//21 556//21 560//21
f 911//21 560//21 915//21
f 915//19 560//19 504//19
f 915//19 504//19 858//19
f 858//17 504//17 503//17
f 858//17 503//17 859//17
f 859//15 503//15 508//15
f 859//15 508//15 863//15
f 863//13 508//13 512//13
f 863//13 512//13 867//13
f 867//10 512//10 516//10
f 867//10 516//10 871//10
f 871//7 516//7 520//7
f 871//7 520//7 875//7
f 875//4 520//4 524//4
f 875//4 524//4 879//4
f 879//33 524//33 532//33
f 879//33 532//33 887//33
f 887//30 532//30 538//30
f 887//30 538//30 893//30
f 893//11 538//11 544//11
f 893//11 544//11 899//11
f 899//8 544//8 550//8
f 899//8 550//8 905//8
f 905//5 550//5 554//5
f 905//5 554//5 909//5
f 909//34 554//34 558//34
f 909//34 558//34 913//34
f 913//31 558//31 500//31
f 913//31 500//31 854//31
f 854//28 500//28 499//28
f 854//28 499//28 855//28
f 855//26 499//26 506//26
f 855//26 506//26 861//26
f 861//24 506//24 510//24
f 861//24 510//24 865//24
f 865//22 510//22 514//22
f 865//22 514//22 869//22
f 869//20 514//20 518//20
f 869//20 518//20 873//20
f 873//18 518//18 522//18
f 873//18 522//18 877//18
f 877//16 522//16 530//16
f 877//16 530//16 885//16
f 885//14 530//14 536//14
f 885//14 536//14 891//14
f 891//12 536//12 542//12
f 891//12 542//12 897//12
f 897//9 542//9 548//9
f 897//9 548//9 903//9
f 903//6 548//6 528//6
f 903//6 528//6 882//6
f 882//3 528//3 527//3
f 882//3 527//3 883//3
f 1011//32 655//32 662//32
f 1011//32 662//32 1017//32
f 1017//29 662//29 668//29
f 1017//29 668//29 1023//29
f 1023//27 668//27 674//27
f 1023//27 674//27 1029//27
f 1029//25 674//25 680//25
f 1029//25 680//25 1035//25
f 1035//23 680//23 684//23
f 1035//23 684//23 1039//23
f 1039//21 684//21 688//21
f 1039//21 688//21 1043//21
f 1043//19 688//19 632//19
f 1043//19 632//19 986//19
f 986//17 632//17 631//17
f 986//17 631//17 987//17
f 987//15 631//15 636//15
f 987//15 636//15 991//15
f 991//13 636//13 640//13
f 991//13 640//13 995//13
f 995//10 640//10 644//10
f 995//10 644//10 999//10
f 999//7 644//7 648//7
f 999//7 648//7 1003//7
f 1003//4 648//4 652//4
f 1003//4 652//4 1007//4
f 1007//33 652//33 660//33
f 1007//33 660//33 1015//33
f 1015//30 660//30 666//30
f 1015//30 666//30 1021//30
f 1021//11 666//11 672//11
f 1021//11 672//11 1027//11
f 1027//8 672//8 678//8
f 1027//8 678//8 1033//8
f 1033//5 678//5 682//5
f 1033//5 682//5 1037//5
f 1037//34 682//34 686//34
f 1037//34 686//34 1041//34
f 1041//31 686//31 628//31
f 1041//31 628//31 982//31
f 982//28 628//28 627//28
f 982//28 627//28 983//28
f 983//26 627//26 634//26
f 983//26 634//26 989//26
f 989//24 634//24 638//24
f 989//24 638//24 993//24
f 993//22 638//22 642//22
f 993//22 642//22 997//22
f 997//20 642//20 646//20
f 997//20 646//20 1001//20
f 1001//18 646//18 650//18
f 1001//18 650//18 1005//18
f 1005//16 650//16 658//16
f 1005//16 658//16 1013//16
f 1013//14 658//14 664//14
f 1013//14 664//14 1019//14
f 1019//12 664//12 670//12
f 1019//12 670//12 1025//12
f 1025//9 670//9 676//9
f 1025//9 676//9 1031//9
f 1031//6 676//6 656//6
f 1031//6 656//6 1010//6
f 1010//3 656//3 655//3
f 1010//3 655//3 1011//3
f 963//8 736//8 742//8
f 963//8 742//8 969//8
f 969//5 742//5 746//5
f 969//5 746//5 973//5
f 973//34 746//34 750//34
f 973//34 750//34 977//34
f 977//31 750//31 692//31
f 977//31 692//31 918//31
f 918//28 692//28 691//28
f 918//28 691//28 919//28
f 919//26 691//26 698//26
f 919//26 698//26 925//26
f 925//24 698//24 702//24
f 925//24 702//24 929//24
f 929//22 702//22 706//22
f 929//22 706//22 933//22
f 933//20 706//20 710//20
f 933//20 710//20 937//20
f 937//18 710//18 714//18
f 937//18 714//18 941//18
f 941//16 714//16 722//16
f 941//16 722//16 949//16
f 949//14 722//14 728//14
f 949//14 728//14 955//14
f 955//12 728//12 734//12
f 955//12 734//12 961//12
f 961//9 734//9 740//9
f 961//9 740//9 967//9
f 967//6 740//6 720//6
f 967//6 720//6 946//6
f 946//3 720//3 719//3
f 946//3 719//3 947//3
f 947//32 719//32 726//32
f 947//32 726//32 953//32
f 953//29 726//29 732//29
f 953//29 732//29 959//29
f 959//27 732//27 738//27
f 959//27 738//27 965//27
f 965//25 738//25 744//25
f 965//25 744//25 971//25
f 971//23 744//23 748//23
f 971//23 748//23 975//23
f 975//21 748//21 752//21
f 975//21 752//21 979//21
f 979//19 752//19 696//19
f 979//19 696//19 922//19
f 922//17 696//17 695//17
f 922//17 695//17 923//17
f 923//15 695//15 700//15
f 923//15 700//15 927//15
f 927//13 700//13 704//13
f 927//13 704//13 931//13
f 931//10 704//10 708//10
f 931//10 708//10 935//10
f 935//7 708//7 712//7
f 935//7 712//7 939//7
f 939//4 712//4 716//4
f 939//4 716//4 943//4
f 943//33 716//33 724//33
f 943//33 724//33 951//33
f 963//11 957//11 730//11
f 963//11 730//11 736//11
f 957//30 951//30 724//30
f 957//30 724//30 730//30
f 370//2 493//2 377//2
f 370//2 377//2 371//2
f 1137//2 370//2 332//2
f 1137//2 332//2 344//2
f 363//2 365//2 494//2
f 363//2 494//2 1137//2
f 321//1 323//1 1138//1
f 321//1 1138//1 337//1
f 322//1 435//1 496//1
f 322//1 496//1 323//1
f 1138//1 495//1 348//1
f 1138//1 348//1 346//1
f 325//1 336//1 326//1
f 325//1 326//1 335//1
f 345//36 342//36 360//36
f 345//36 360//36 361//36
f 327//38 345//38 361//38
f 327//38 361//38 328//38
f 359//2 329//2 343//2
f 359//2 343//2 339//2
f 496//38 495//38 494//38
f 496//38 494//38 493//38
f 495//36 1138//36 1137//36
f 495//36 1137//36 494//36
f 1138//35 323//35 370//35
f 1138//35 370//35 1137//35
f 323//37 496//37 493//37
f 323//37 493//37 370//37
f 337//37 1138//37 1137//37
f 337//37 1137//37 344//37
f 363//38 1137//38 1138//38
f 363//38 1138//38 346//38
f 346//36 327//36 328//36
f 346//36 328//36 363//36
f 344//35 328//35 327//35
f 344//35 327//35 337//35
f 3//1 2//1 1//1
f 1//1 32//1 31//1
f 31//41 30//41 29//41
f 29//1 28//1 27//1
f 27//1 26//1 25//1
f 25//1 24//1 23//1
f 23//1 22//1 21//1
f 21//1 20//1 19//1
f 19//1 18//1 17//1
f 17//1 16//1 15//1
f 15//39 14//39 13//39
f 13//1 12//1 11//1
f 11//1 10//1 9//1
f 9//1 8//1 7//1
f 7//1 6//1 5//1
f 5//1 4//1 3//1
f 3//1 1//1 31//1
f 31//1 29//1 27//1
f 27//1 25//1 23//1
f 23//1 21//1 19//1
f 19//1 17//1 15//1
f 15//1 13//1 11//1
f 11//1 9//1 7//1
f 7//1 5//1 3//1
f 3//1 31//1 27//1
f 27//1 23//1 19//1
f 19//1 15//1 11//1
f 11//1 7//1 3//1
f 3//1 27//1 19//1
f 34//2 33//2 35//2
f 35//2 36//2 37//2
f 37//2 38//2 39//2
f 39//40 40//40 41//40
f 41//40 42//40 43//40
f 43//2 44//2 45//2
f 45//2 46//2 47//2
f 47//2 48//2 49//2
f 49//2 50//2 51//2
f 51//2 52//2 53//2
f 53//2 54//2 55//2
f 55//43 56//43 57//43
f 57//43 58//43 59//43
f 59//2 60//2 61//2
f 61//2 62//2 63//2
f 63//2 64//2 34//2
f 34//2 35//2 37//2
f 37//2 39//2 41//2
f 41//2 43//2 45//2
f 45//2 47//2 49//2
f 49//2 51//2 53//2
f 53//2 55//2 57//2
f 57//2 59//2 61//2
f 61//2 63//2 34//2
f 34//2 37//2 41//2
f 41//2 45//2 49//2
f 49//2 53//2 57//2
f 57//2 61//2 34//2
f 34//2 41//2 49//2
f 17//3 49//3 48//3
f 3//4 4//4 36//4
f 30//5 31//5 63//5
f 18//6 50//6 49//6
f 4//7 5//7 37//7
f 31//8 32//8 64//8
f 19//9 51//9 50//9
f 5//10 6//10 38//10
f 32//11 1//11 34//11
f 20//12 52//12 51//12
f 6//13 7//13 39//13
f 21//14 53//14 52//14
f 7//15 8//15 40//15
f 22//16 54//16 53//16
f 9//17 41//17 40//17
f 23//18 55//18 54//18
f 10//19 42//19 41//19
f 24//20 56//20 55//20
f 11//21 43//21 42//21
f 25//22 57//22 56//22
f 12//23 44//23 43//23
f 25//24 26//24 58//24
f 13//25 45//25 44//25
f 26//26 27//26 59//26
f 14//27 46//27 45//27
f 27//28 28//28 60//28
f 15//29 47//29 46//29
f 1//30 2//30 33//30
f 28//31 29//31 61//31
f 16//32 48//32 47//32
f 2//33 3//33 35//33
f 29//34 30//34 62//34
f 67//1 66//1 65//1
f 65//1 96//1 95//1
f 95//41 94//41 93//41
f 93//1 92//1 91//1
f 91//1 90//1 89//1
f 89//1 88//1 87//1
f 87//1 86//1 85//1
f 85//1 84//1 83//1
f 83//1 82//1 81//1
f 81//1 80//1 79//1
f 79//39 78//39 77//39
f 77//1 76//1 75//1
f 75//1 74//1 73//1
f 73//1 72//1 71//1
f 71//1 70//1 69//1
f 69//1 68//1 67//1
f 67//1 65//1 95//1
f 95//1 93//1 91//1
f 91//1 89//1 87//1
f 87//1 85//1 83//1
f 83//1 81//1 79//1
f 79//1 77//1 75//1
f 75//1 73//1 71//1
f 71//1 69//1 67//1
f 67//1 95//1 91//1
f 91//1 87//1 83//1
f 83//1 79//1 75//1
f 75//1 71//1 67//1
f 67//1 91//1 83//1
f 98//2 97//2 99//2
f 99//2 100//2 101//2
f 101//2 102//2 103//2
f 103//40 104//40 105//40
f 105//40 106//40 107//40
f 107//2 108//2 109//2
f 109//2 110//2 111//2
f 111//2 112//2 113//2
f 113//2 114//2 115//2
f 115//2 116//2 117//2
f 117//2 118//2 119//2
f 119//43 120//43 121//43
f 121//43 122//43 123//43
f 123//2 124//2 125//2
f 125//2 126//2 127//2
f 127//2 128//2 98//2
f 98//2 99//2 101//2
f 101//2 103//2 105//2
f 105//2 107//2 109//2
f 109//2 111//2 113//2
f 113//2 115//2 117//2
f 117//2 119//2 121//2
f 121//2 123//2 125//2
f 125//2 127//2 98//2
f 98//2 101//2 105//2
f 105//2 109//2 113//2
f 113//2 117//2 121//2
f 121//2 125//2 98//2
f 98//2 105//2 113//2
f 81//3 113//3 112//3
f 67//4 68//4 100//4
f 94//5 95//5 127//5
f 82//6 114//6 113//6
f 68//7 69//7 101//7
f 95//8 96//8 128//8
f 83//9 115//9 114//9
f 69//10 70//10 102//10
f 96//11 65//11 98//11
f 84//12 116//12 115//12
f 70//13 71//13 103//13
f 85//14 117//14 116//14
f 71//15 72//15 104//15
f 86//16 118//16 117//16
f 73//17 105//17 104//17
f 87//18 119//18 118//18
f 74//19 106//19 105//19
f 88//20 120//20 119//20
f 75//21 107//21 106//21
f 89//22 121//22 120//22
f 76//23 108//23 107//23
f 89//24 90//24 122//24
f 77//25 109//25 108//25
f 90//26 91//26 123//26
f 78//27 110//27 109//27
f 91//28 92//28 124//28
f 79//29 111//29 110//29
f 65//30 66//30 97//30
f 92//31 93//31 125//31
f 80//32 112//32 111//32
f 66//33 67//33 99//33
f 93//34 94//34 126//34
f 131//1 130//1 129//1
f 129//1 160//1 159//1
f 159//41 158//41 157//41
f 157//1 156//1 155//1
f 155//1 154//1 153//1
f 153//1 152//1 151//1
f 151//1 150//1 149//1
f 149//1 148//1 147//1
f 147//1 146//1 145//1
f 145//1 144//1 143//1
f 143//39 142//39 141//39
f 141//1 140//1 139//1
f 139//1 138//1 137//1
f 137//1 136//1 135//1
f 135//1 134//1 133//1
f 133//1 132//1 131//1
f 131//1 129//1 159//1
f 159//1 157//1 155//1
f 155//1 153//1 151//1
f 151//1 149//1 147//1
f 147//1 145//1 143//1
f 143//1 141//1 139//1
f 139//1 137//1 135//1
f 135//1 133//1 131//1
f 131//1 159//1 155//1
f 155//1 151//1 147//1
f 147//1 143//1 139//1
f 139//1 135//1 131//1
f 131//1 155//1 147//1
f 162//2 161//2 163//2
f 163//2 164//2 165//2
f 165//2 166//2 167//2
f 167//40 168//40 169//40
f 169//40 170//40 171//40
f 171//2 172//2 173//2
f 173//2 174//2 175//2
f 175//2 176//2 177//2
f 177//2 178//2 179//2
f 179//2 180//2 181//2
f 181//2 182//2 183//2
f 183//43 184//43 185//43
f 185//43 186//43 187//43
f 187//2 188//2 189//2
f 189//2 190//2 191//2
f 191//2 192//2 162//2
f 162//2 163//2 165//2
f 165//2 167//2 169//2
f 169//2 171//2 173//2
f 173//2 175//2 177//2
f 177//2 179//2 181//2
f 181//2 183//2 185//2
f 185//2 187//2 189//2
f 189//2 191//2 162//2
f 162//2 165//2 169//2
f 169//2 173//2 177//2
f 177//2 181//2 185//2
f 185//2 189//2 162//2
f 162//2 169//2 177//2
f 145//3 177//3 176//3
f 131//4 132//4 164//4
f 158//5 159//5 191//5
f 146//6 178//6 177//6
f 132//7 133//7 165//7
f 159//8 160//8 192//8
f 147//9 179//9 178//9
f 133//10 134//10 166//10
f 160//11 129//11 162//11
f 148//12 180//12 179//12
f 134//13 135//13 167//13
f 149//14 181//14 180//14
f 135//15 136//15 168//15
f 150//16 182//16 181//16
f 137//17 169//17 168//17
f 151//18 183//18 182//18
f 138//19 170//19 169//19
f 152//20 184//20 183//20
f 139//21 171//21 170//21
f 153//22 185//22 184//22
f 140//23 172//23 171//23
f 153//24 154//24 186//24
f 141//25 173//25 172//25
f 154//26 155//26 187//26
f 142//27 174//27 173//27
f 155//28 156//28 188//28
f 143//29 175//29 174//29
f 129//30 130//30 161//30
f 156//31 157//31 189//31
f 144//32 176//32 175//32
f 130//33 131//33 163//33
f 157//34 158//34 190//34
f 195//1 194//1 193//1
f 193//1 224//1 223//1
f 223//41 222//41 221//41
f 221//1 220//1 219//1
f 219//1 218//1 217//1
f 217//1 216//1 215//1
f 215//1 214//1 213//1
f 213//1 212//1 211//1
f 211//1 210//1 209//1
f 209//1 208//1 207//1
f 207//39 206//39 205//39
f 205//1 204//1 203//1
f 203//1 202//1 201//1
f 201//1 200//1 199//1
f 199//1 198//1 197//1
f 197//1 196//1 195//1
f 195//1 193//1 223//1
f 223//1 221//1 219//1
f 219//1 217//1 215//1
f 215//1 213//1 211//1
f 211//1 209//1 207//1
f 207//1 205//1 203//1
f 203//1 201//1 199//1
f 199//1 197//1 195//1
f 195//1 223//1 219//1
f 219//1 215//1 211//1
f 211//1 207//1 203//1
f 203//1 199//1 195//1
f 195//1 219//1 211//1
f 226//2 225//2 227//2
f 227//2 228//2 229//2
f 229//2 230//2 231//2
f 231//40 232//40 233//40
f 233//40 234//40 235//40
f 235//2 236//2 237//2
f 237//2 238//2 239//2
f 239//2 240//2 241//2
f 241//2 242//2 243//2
f 243//2 244//2 245//2
f 245//2 246//2 247//2
f 247//43 248//43 249//43
f 249//43 250//43 251//43
f 251//2 252//2 253//2
f 253//2 254//2 255//2
f 255//2 256//2 226//2
f 226//2 227//2 229//2
f 229//2 231//2 233//2
f 233//2 235//2 237//2
f 237//2 239//2 241//2
f 241//2 243//2 245//2
f 245//2 247//2 249//2
f 249//2 251//2 253//2
f 253//2 255//2 226//2
f 226//2 229//2 233//2
f 233//2 237//2 241//2
f 241//2 245//2 249//2
f 249//2 253//2 226//2
f 226//2 233//2 241//2
f 209//3 241//3 240//3
f 195//4 196//4 228//4
f 222//5 223//5 255//5
f 210//6 242//6 241//6
f 196//7 197//7 229//7
f 223//8 224//8 256//8
f 211//9 243//9 242//9
f 197//10 198//10 230//10
f 224//11 193//11 226//11
f 212//12 244//12 243//12
f 198//13 199//13 231//13
f 213//14 245//14 244//14
f 199//15 200//15 232//15
f 214//16 246//16 245//16
f 200//17 201//17 233//17
f 215//18 247//18 246//18
f 202//19 234//19 233//19
f 216//20 248//20 247//20
f 203//21 235//21 234//21
f 217//22 249//22 248//22
f 204//23 236//23 235//23
f 218//24 250//24 249//24
f 205//25 237//25 236//25
f 218//26 219//26 251//26
f 206//27 238//27 237//27
f 219//28 220//28 252//28
f 207//29 239//29 238//29
f 193//30 194//30 225//30
f 220//31 221//31 253//31
f 208//32 240//32 239//32
f 194//33 195//33 227//33
f 221//34 222//34 254//34
